<svg viewBox="267.0893 233.3502 52.664 52.8505" width="52.664" height="52.8505" xmlns="http://www.w3.org/2000/svg">
  <g id="Layer_1-2" data-name="Layer 1" transform="matrix(1, 0, 0, 1, 267.0841979980469, 233.3502960205078)">
    <g>
      <path class="cls-2" d="m46.5,9.44c.92,1.31,1.98,2.55,2.74,3.95.9,1.65,1.66,3.39,2.25,5.17.49,1.48.73,3.05.9,4.6.2,1.81.33,3.65.26,5.47-.05,1.37-.4,2.75-.7,4.1-.65,3.01-1.93,5.77-3.7,8.27-1.19,1.69-2.42,3.43-3.96,4.77-1.91,1.67-4.05,3.16-6.29,4.33-1.75.91-3.62,1.74-5.69,1.92-2.21.19-4.4.85-6.59.83-2.77-.03-5.49-.62-8.15-1.59-2.2-.81-4.29-1.77-6.18-3.12-3.25-2.33-5.91-5.22-7.94-8.7-1.58-2.69-2.63-5.59-3.11-8.63-.36-2.3-.44-4.71-.19-7.02.26-2.39.9-4.78,1.69-7.05.96-2.75,2.56-5.23,4.51-7.39,1.64-1.82,3.48-3.46,5.57-4.86,2.23-1.49,4.59-2.56,7.1-3.32C22.02.28,25.13-.24,28.26.11c2.82.32,5.67.78,8.24,2.14,2.04,1.08,4.11,2.13,6.02,3.41,1.29.86,2.34,2.09,3.47,3.19.17.17.43.64.5.59ZM1.99,26.54c0,13.3,10.91,24.62,24.98,24.3,12.88-.3,23.69-10.7,23.76-24.37.07-13.42-10.96-24.36-24.42-24.34C12.83,2.15,1.97,13.06,1.99,26.54Z" style="fill: rgb(255, 255, 255); stroke-width: 0px;"/>
      <path class="cls-1" d="m1.99,26.54c-.02-13.49,10.84-24.4,24.32-24.42,13.45-.02,24.49,10.93,24.42,24.34-.08,13.67-10.88,24.07-23.76,24.37-14.06.33-24.98-11-24.98-24.3Zm27,16.29c0-.5,0-.89,0-1.27,0-6.61,0-13.22-.01-19.83,0-1.01-.08-2.02-.22-3.02-.3-2.16-1.93-3.6-4.13-3.51-1.91.08-3.64.64-4.06,3.38-.18,1.2-.19,2.42-.29,3.68-.52.03-1.04.06-1.65.09.21.67.41,1.28.6,1.89.41.07.74.12,1.16.19v18.39h1.92v-18.41h4.61v18.42h2.06Zm4.5,0c1.33-4.81,2.64-9.53,4.02-14.5,1.32,5.01,2.58,9.77,3.82,14.5h2.14c-1.26-4.48-2.5-8.9-3.76-13.31q-1.16-4.05.06-8.15c.57-1.88,1.11-3.77,1.69-5.73h-2.13c-.62,2.44-1.23,4.85-1.92,7.57-.75-2.72-1.42-5.14-2.09-7.57h-2.12c.93,3.12,1.82,6.19,2.78,9.24.23.73.24,1.37.02,2.1-1.59,5.26-3.13,10.52-4.71,15.85h2.18Zm-23.04.08c2.83-.59,4.86-1.94,5.56-4.73.33-1.3.5-2.67.52-4.02.05-5.81.02-11.61.02-17.42,0-.37,0-.73,0-1.1h-5.95v2.08h3.89c0,6.13.05,12.15-.02,18.16-.03,2.32-1.17,4.04-3.44,4.88-.19.07-.38.14-.58.22v1.93Zm9.16-28.6v-5.21c.08-.01.16-.02.23-.03.42,1.15.83,2.3,1.25,3.45.08-.02.17-.03.25-.05l1.49-3.77s.09.03.13.04v5.64c.33-.03.59-.05.93-.08V4.93c-.11-.06-.21-.11-.32-.17-1.3,1.25-1.21,3.3-2.4,4.81-.6-1.61-1.16-3.12-1.73-4.67h-.81v9.46c.31-.02.58-.03.98-.05Zm15.16-.07h.89c-.6-3.24-1.19-6.39-1.78-9.55-.16,0-.33,0-.49,0-.73,3.19-1.46,6.37-2.22,9.71,1.41-.09.94-1.18,1.35-1.73h1.93c.12.57.22,1.04.33,1.56Zm-9.29-4.35c.61-.08,1.2-.17,1.87-.26-.08-.27-.15-.52-.21-.73-.53-.06-.97-.12-1.44-.17v-3.01h1.72c-.17-.83-1.18-1.05-2.9-.67v9.29h2.65c-.03-.32-.05-.57-.07-.89h-1.63v-3.55Zm3.25-4v8.47c.39.02.7.03,1.1.05V5.9c.39-.12.71-.22,1.07-.33-.05-.27-.08-.49-.11-.67h-3v.81c.29.06.56.1.95.18Z" style="stroke-width: 0px;"/>
      <path class="cls-2" d="m28.99,42.83h-2.06v-18.42h-4.61v18.41h-1.92v-18.39c-.42-.07-.75-.12-1.16-.19-.19-.61-.39-1.22-.6-1.89.62-.03,1.13-.06,1.65-.09.09-1.26.1-2.48.29-3.68.42-2.74,2.15-3.3,4.06-3.38,2.2-.09,3.83,1.34,4.13,3.51.14,1,.21,2.01.22,3.02.02,6.61.01,13.22.01,19.83,0,.38,0,.76,0,1.27Zm-2.1-20.58c0-.99.04-1.89-.01-2.79-.08-1.38-.83-2.15-2.04-2.19-1.32-.05-2.31.7-2.46,2.04-.11.95-.02,1.93-.02,2.95h4.53Z" style="fill: rgb(255, 255, 255); stroke-width: 0px;"/>
      <path class="cls-2" d="m33.49,42.82h-2.18c1.58-5.33,3.12-10.6,4.71-15.85.22-.73.21-1.37-.02-2.1-.96-3.05-1.85-6.12-2.78-9.24h2.12c.67,2.43,1.34,4.85,2.09,7.57.69-2.72,1.3-5.13,1.92-7.57h2.13c-.58,1.96-1.12,3.85-1.69,5.73q-1.23,4.1-.06,8.15c1.26,4.41,2.49,8.83,3.76,13.31h-2.14c-1.25-4.73-2.5-9.49-3.82-14.5-1.38,4.97-2.69,9.69-4.02,14.5Z" style="fill: rgb(255, 255, 255); stroke-width: 0px;"/>
      <path class="cls-2" d="m10.45,42.9v-1.93c.2-.08.39-.15.58-.22,2.27-.84,3.41-2.56,3.44-4.88.07-6.01.02-12.03.02-18.16h-3.89v-2.08h5.95c0,.37,0,.73,0,1.1,0,5.81.03,11.61-.02,17.42-.01,1.34-.19,2.72-.52,4.02-.7,2.79-2.73,4.14-5.56,4.73Z" style="fill: rgb(255, 255, 255); stroke-width: 0px;"/>
      <path class="cls-2" d="m19.61,14.3c-.41.02-.67.04-.98.05V4.9h.81c.57,1.55,1.13,3.06,1.73,4.67,1.19-1.51,1.1-3.56,2.4-4.81.11.06.21.11.32.17v9.36c-.34.03-.6.05-.93.08v-5.64s-.09-.03-.13-.04l-1.49,3.77c-.08.02-.17.03-.25.05-.42-1.15-.83-2.3-1.25-3.45-.08.01-.16.02-.23.03v5.21Z" style="fill: rgb(255, 255, 255); stroke-width: 0px;"/>
      <path class="cls-2" d="m34.76,14.23c-.11-.53-.21-1-.33-1.56h-1.93c-.41.55.06,1.64-1.35,1.73.76-3.34,1.49-6.52,2.22-9.71.16,0,.33,0,.49,0,.59,3.16,1.18,6.31,1.78,9.55h-.89Zm-2.04-2.67h1.46c-.2-1.09-.39-2.13-.58-3.17-.06,0-.11,0-.17,0-.23,1.02-.46,2.05-.72,3.18Z" style="fill: rgb(255, 255, 255); stroke-width: 0px;"/>
      <path class="cls-2" d="m25.47,9.88v3.55h1.63c.03.32.05.57.07.89h-2.65V5.04c1.71-.38,2.73-.16,2.9.67h-1.72v3.01c.47.06.91.11,1.44.17.06.22.13.46.21.73-.67.09-1.26.17-1.87.26Z" style="fill: rgb(255, 255, 255); stroke-width: 0px;"/>
      <path class="cls-2" d="m28.72,5.89c-.39-.07-.65-.12-.95-.18v-.81h3c.03.18.07.4.11.67-.35.11-.67.21-1.07.33v8.5c-.4-.02-.71-.03-1.1-.05V5.89Z" style="fill: rgb(255, 255, 255); stroke-width: 0px;"/>
      <path class="cls-1" d="m26.89,22.25h-4.53c0-1.02-.09-1.99.02-2.95.15-1.34,1.14-2.09,2.46-2.04,1.2.05,1.95.82,2.04,2.19.05.9.01,1.8.01,2.79Z" style="stroke-width: 0px;"/>
      <path class="cls-1" d="m32.72,11.56c.25-1.13.48-2.15.72-3.18.06,0,.11,0,.17,0,.19,1.04.38,2.08.58,3.17h-1.46Z" style="stroke-width: 0px;"/>
    </g>
  </g>
</svg>