<?xml version="1.0" encoding="UTF-8"?>
<svg id="Layer_2" data-name="Layer 2" xmlns="http://www.w3.org/2000/svg" viewBox="0 0 88.51 51.57">
  <defs>
    <style>
      .cls-1 {
        fill: #231f20;
        stroke: #fff;
        stroke-miterlimit: 10;
        stroke-width: .25px;
      }

      .cls-2 {
        opacity: .99;
      }
    </style>
  </defs>
  <g id="Layer_1-2" data-name="Layer 1">
    <g class="cls-2">
      <path class="cls-1" d="m44.62,32.74s.08-.06.12-.09c-.64-.07-6.75.91-7.49,1.35.25-.03.45-.05.65-.07,0,.03.01.06.02.09-.54.1-1.09.2-1.63.31-.43.09-.87.14-1.28.29-.3.11-.54.37-.82.54-.22.14-.46.22-.74.27-.49.09-1,.24-1.42.5-.29.18-.63.16-.87.35-.21.17-.38.21-.65.02.29-.07.56-.13.89-.21-.14-.1-.22-.15-.33-.22.18-.1.34-.19.49-.27,0-.02-.01-.04-.02-.05-.21.02-.41.03-.62.05.05-.06.11-.11.16-.17-.27-.13-.53-.25-.79-.38-.12.22-.3.55-.49.88-.02-.01-.05-.02-.07-.03.21-.5.42-1,.62-1.5-.04-.02-.08-.04-.12-.06-.23.42-.47.83-.7,1.25-.02-.01-.05-.02-.07-.04.2-.44.41-.89.61-1.33.09-.19.14-.37-.08-.51-.02-.02-.03-.07-.03-.11,0-.04.06-.1.04-.12-.18-.26-.36-.52-.57-.8-.19.37-.38.77-.58,1.16-.02-.01-.05-.02-.07-.03.19-.45.41-.89.55-1.36.14-.45.51-.82.51-1.31-.03-.01-.06-.02-.09-.04-.06.09-.12.17-.18.26-.02,0-.04-.01-.05-.02.06-.19.12-.39.19-.61-.06-.04-.13-.08-.19-.12.01-.02.02-.04.02-.04.43-.03.42-.43.54-.69.42-.92.82-1.86,1.22-2.8.26-.63.41-1.33.79-1.87.51-.73.8-1.54,1.12-2.35.22-.55.4-1.11.66-1.64.38-.79.82-1.55,1.23-2.33.3-.58.6-1.17.89-1.76.03-.06.07-.12.11-.18.03.02.06.03.1.05-.18.36-.35.72-.53,1.08.02,0,.04.02.06.03.11-.18.22-.36.33-.55.32-.57.64-1.13.95-1.7.5-.94.96-1.89,1.47-2.82.32-.6.72-1.16,1.04-1.75.28-.52.51-1.07.75-1.61-.11.15-.21.31-.32.46l-.06-.04c.25-.47.49-.95.76-1.4.43-.73.91-1.43,1.31-2.17.22-.4.3-.88.46-1.32.05-.13.11-.26.18-.38.47-.77.95-1.53,1.42-2.3.2-.32.4-.64.59-.96.06-.1.06-.24.13-.32.14-.15.3-.28.46-.42l.1.09c-.25.3-.51.61-.81.97.18-.03.27-.05.42-.07-.13.25-.24.46-.35.68.02.01.03.03.05.04.23-.24.46-.48.68-.72.03.07.06.2.11.22.31.08.63.14.93.2.02.42.38.72.74.63-.02.07-.03.13-.03.13.31.17.6.31.88.48.27.17.28.46.26.73-.03.35-.02.67.33.84-.1.43-.19.83-.29,1.23-.03.11-.07.22-.14.32-.6.94-1.16,1.9-1.81,2.8-2.45,3.37-4.01,7.23-6.03,10.84-1.55,2.79-3.05,5.6-4.58,8.4-.07.13-.14.27-.24.48.58-.13,1.1-.25,1.61-.35,2.21-.43,4.41-.92,6.64-1.28,2.5-.4,5.01-.69,7.52-1.03.37-.05.74-.1,1.1-.18.08-.02.15-.14.19-.23.16-.41.3-.83.46-1.23.06-.15.19-.28.29-.41,0,0,.01-.02.02-.03.2-.45.43-.89.6-1.36.09-.25.06-.55.13-.81.08-.27.25-.51.34-.78.07-.19.07-.4.12-.7.07.14.09.18.13.26.63-1.28,1.25-2.53,1.88-3.79.04.05.08.09.13.16.05-.06.09-.1.12-.16.53-.95,1.07-1.89,1.6-2.85.57-1.03,1.13-2.05,1.67-3.09.29-.56.57-1.11.72-1.74.12-.51.45-.97.73-1.43.37-.62.8-1.21,1.15-1.85.2-.36.31-.78.47-1.17.15-.36.27-.74.46-1.07.43-.74.9-1.46,1.34-2.19.21-.35.49-.68.6-1.06.1-.33.3-.45.62-.52-.25.3-.51.61-.82.99.19-.05.3-.07.46-.11-.13.25-.24.46-.38.74.26-.24.46-.43.67-.62.36.08.74.16,1.11.25.05.19.09.34.11.43.25.1.42.16.64.25,0,0,0,.06,0,.14.02-.02.04-.05.05-.07.29.14.64.23.85.45.17.17.26.5.25.76,0,.33.06.58.32.72-.04.31-.11.6-.09.89,0,.14.18.27.26.41.08.14.2.29.22.45.04.43.1.86.05,1.29-.22,1.87.3,3.69.39,5.53.02.34,0,.68,0,1.11.16-.14.25-.21.33-.29,1.15-1.12,2.27-2.28,3.47-3.36,1.58-1.42,3.23-2.77,4.84-4.16.3-.26.57-.55.89-.79.22-.16.49-.25.74-.38.08-.05.15-.13.22-.19.36-.31.71-.63,1.12-.9-.13.16-.26.32-.39.48,0,0,.01.01.02.02.11-.08.21-.17.32-.25.01.01.02.02.03.03-.68.69-1.37,1.38-2.05,2.07.02.02.03.05.05.07.34-.14.55-.46.84-.67.29-.22.61-.41.96-.58-.05.07-.1.14-.16.21,0,0,.02.02.03.02.45-.31.89-.62,1.34-.93-.07.13-.13.27-.23.38-.15.18-.33.34-.5.5.02.02.04.04.06.06.22-.18.47-.34.64-.56.2-.25.34-.56.5-.84,0,0-.05-.05-.08-.07.2-.23.39-.43.43-.78.03-.25.28-.47.41-.71.06-.12.08-.26.14-.47.08-.05.23-.14.39-.23.02.01.04.02.05.04-.19.3-.39.6-.62.96.15-.04.23-.06.35-.09-.06.22-.12.4-.17.58.02.01.04.02.06.03.17-.22.34-.43.46-.59.33.06.63.12.93.18,0,.03,0,.06,0,.1.09-.06.18-.11.27-.17.01.15.02.28.04.48.26-.21.46-.38.66-.54.01.01.03.02.04.04-.09.1-.19.19-.27.3-.05.08-.07.18-.1.27.11.04.21.07.38.13,0-.02,0,.05,0,.05.28.1.53.19.78.27.4.12.49.47.53.81.03.31.12.53.43.64-.04.41-.08.81-.14,1.21-.01.1-.06.21-.11.3-.34.67-.63,1.36-1.02,1.99-1.67,2.75-2.77,5.77-4.13,8.66-1.54,3.25-3.13,6.47-4.7,9.71-.34.7-.65,1.42-.99,2.12-.06.13-.23.2-.34.31-.05.05-.08.13-.11.2-.13.32-.23.64-.38.95-.18.36-.39.71-.59,1.05.04-.16.08-.34.14-.59-.09.12-.14.18-.18.24-.02,0-.04-.02-.06-.02.51-1.24,1.03-2.48,1.54-3.72l-.08-.04c-.5.93-1,1.86-1.51,2.82-.04-.09-.07-.13-.11-.22-.3.56-.59,1.09-.87,1.62-.03-.01-.06-.02-.09-.03.19-.52.38-1.04.57-1.57-.01,0-.03-.01-.04-.02-.49,1.03-.99,2.06-1.48,3.09l-.07-.03c.07-.15.13-.31.22-.51-.93.75-1.15,1.83-1.54,2.81-.04.1-.06.2-.1.32-.08-.27.03-.62.48-1.67.22-.53.43-1.06.61-1.61-.72,1.08-1.21,2.25-1.55,3.5-.04-.02-.09-.03-.13-.05.21-.59.41-1.18.64-1.77.24-.6.52-1.19.77-1.78.24-.56.46-1.13.69-1.69.24-.59.47-1.17.71-1.76.24-.59.49-1.18.69-1.8-.19.37-.37.74-.56,1.11-.1.19-.21.28-.32-.02-.23.17-.43.3-.23.62.05.07,0,.24-.06.33-.13.22-.28.43-.49.63.06-.35.12-.71.18-1.06l-.08-.03c-.25.51-.5,1.03-.75,1.54-.02,0-.04-.01-.06-.02.15-.48.31-.97.46-1.45-.01,0-.03-.01-.04-.02-.45,1.13-.9,2.26-1.34,3.39-.04-.02-.09-.04-.13-.05.48-1.2.97-2.4,1.45-3.61-.03-.01-.06-.03-.09-.04l-.79,1.65s-.04-.02-.06-.02c.04-.18.07-.36.13-.53.39-1.01.79-2.03,1.18-3.04.11-.28.19-.56.3-.84.29-.69.58-1.38.88-2.06.12-.27.27-.51.22-.85-.03-.2.09-.45.19-.65.61-1.31,1.13-2.69,1.9-3.91.55-.87.95-1.79,1.44-2.68.42-.76.72-1.59,1.08-2.39.13-.28.31-.52.45-.8.06-.11.06-.25.03-.39-.22.29-.45.59-.67.88-.03-.02-.06-.05-.09-.07.16-.18.33-.36.49-.54-.01-.02-.02-.04-.04-.05-.08.05-.17.09-.24.15-.45.41-.84.97-1.37,1.2-.53.23-.89.62-1.3.95-.59.47-1.11,1.02-1.66,1.53-.29.27-.58.52-.86.79-.34.33-.66.67-.95,1.05.14-.11.28-.22.42-.33.02.02.04.04.06.06-.25.25-.5.52-.77.76-.25.23-.52.45-.8.64-.45.31-.61.81-.87,1.24-.09.15-.22.26-.34.39-.41.42-.81.85-1.22,1.27-.11.11-.25.18-.36.28-.09.09-.17.19-.27.31h-.33l-.03-.06c.21-.12.42-.25.68-.4-.14-.05-.22-.08-.32-.11.05-.11.09-.21.17-.38-.22.08-.36.13-.53.2-.03-.06-.07-.13-.15-.26-.02.19-.04.3-.06.45-.02-.12-.03-.22-.04-.31-.02,0-.05,0-.07,0v1.54s-.06,0-.09,0c-.05-.63-.1-1.26-.15-1.89-.04,0-.08,0-.12,0v2.04s-.05,0-.08.01c-.02-.03-.06-.06-.06-.09-.01-.61,0-1.23-.03-1.84-.02-.42-.11-.83-.52-1.09-.2-.13-.36-.31-.59-.5-.02.28-.03.5-.04.72-.02,0-.03,0-.05,0-.07-.24-.14-.48-.21-.73-.02.65.29,1.29.06,1.95-.08-.69-.16-1.38-.24-2.08-.03,0-.07,0-.1,0v.93s-.06.01-.09.02c-.04-.11-.08-.22-.11-.34-.14-.78-.28-1.55-.4-2.33-.04-.23,0-.48,0-.72,0-.2-.02-.38-.22-.5-.08-.05-.09-.21-.09-.35.05.06.09.11.15.18-.38-1.02-.17-2.07-.25-3.1.03.17.06.34.1.57v-2.18s-.07-.02-.11-.03c-2.72,5.17-5.44,10.34-8.17,15.53.13.05.21.08.35.14-.17.03-.27.05-.38.06,0,.03,0,.05,0,.08.12.01.23.02.42.04-.1.03-.14.05-.18.06v.09c.85-.11,1.7-.21,2.54-.32-.94.39-2,.27-2.94.66,1.19.1,2.34-.18,3.51-.26-.34.06-.68.13-1.03.18-.36.06-.72.12-1.08.16-.54.07-1.07.13-1.61.2-.05,0-.13.07-.14.11-.03.13,0,.29-.07.41-.08.15-.23.27-.32.42-.1.15-.17.31-.25.46-.01.02,0,.06,0,.1.57-.09,1.14-.19,1.71-.28,0,.04.02.07.02.11-.27.06-.55.13-.82.19-.37.07-.74.13-1.1.21-.09.02-.17.1-.32.2.17.04.25.06.24.06-.12.16-.27.33-.38.52-.24.44-.46.89-.72,1.33.11-.51.23-1.02.34-1.52-.44,0-.78.19-.95.67-.13.37-.32.71-.51,1.05-.16-.46.2-.81.27-1.29-.06.09-.1.13-.12.17-.03.05-.05.1-.07.15-.23.49-.42.99-.69,1.46-.22.38-.46.79-.79,1.05-.19.14-.27.31-.35.47-.32.67-.61,1.36-.95,2.04,0-.06,0-.13.03-.19.28-.69.58-1.38.85-2.07.08-.2.13-.42.2-.63-.04-.02-.09-.03-.13-.05l-1.71,3.78s-.03,0-.04-.01c.04-.1.07-.21.11-.31.45-1.09.86-2.19,1.37-3.25.29-.6.51-1.2.68-1.84.06-.21.19-.4.31-.64-.48.13-.91.23-1.34.37-.08.03-.14.15-.19.25-.21.45-.4.9-.6,1.35l-.08-.03c.19-.53.39-1.06.6-1.65-.39.08-.71.12-1.01.2-.13.03-.24.16-.36.22-.19.09-.37.18-.57.23-.22.06-.49-.03-.63.26,0,0-.18-.1-.27-.09-.47.06-.94.14-1.41.2-.62.08-1.24.15-1.86.23h0Zm-12.9-2.98c-.02-.13-.04-.26-.07-.45-.15.25-.28.45-.4.65.02.02.04.04.06.06.14-.09.28-.18.42-.27.1.14.2.13.31-.07.24-.44.47-.89.71-1.34.04-.08.07-.17.13-.31-.41.61-.78,1.17-1.15,1.73ZM63.15,5s.06.03.08.05c.59-.85,1.17-1.7,1.76-2.56l-.11-.07c-.73.76-1.24,1.66-1.73,2.58Zm-18.98-1.9c-.84.72-1.31,1.67-1.82,2.61.54-.69,1.05-1.4,1.56-2.11.11-.15.17-.33.26-.49Zm-9.8,31.88c-.06-.07-.08-.11-.09-.1-.69.14-1.37.28-2.05.43-.06.01-.1.1-.15.16.01.03.03.07.04.1.74-.19,1.48-.38,2.24-.58Zm35.37-14.05c.35.11,1.32-.62,1.62-1.2-.56.41-1.07.79-1.62,1.2Zm-14.69,8.78c.36-.12.68-.83.53-1.19-.18.41-.34.77-.53,1.19Zm-25.21,1.16s.06.04.09.06c.35-.38.51-.86.69-1.33-.02-.01-.05-.03-.07-.04-.23.44-.47.87-.7,1.31Zm44.23-.23s-.04-.03-.07-.05c-.2.44-.41.87-.61,1.31.03.01.05.02.08.04.2-.43.4-.86.6-1.3Zm-22.83-3.51c.38.2.8.12.84-.1-.26.03-.53.06-.84.1Zm-16.8,2.15s.07.04.1.06c.15-.25.3-.5.45-.75-.04-.02-.08-.05-.12-.07l-.43.76Zm17.65,3.17s.05.02.08.03c.16-.35.32-.71.47-1.06-.02,0-.05-.02-.07-.03-.16.35-.32.7-.48,1.06Z"/>
      <path class="cls-1" d="m33.51,3.69c.2-.23.39-.43.43-.78.03-.25.28-.47.41-.71.06-.12.08-.26.14-.47.08-.05.23-.14.39-.23.02.01.04.02.05.04-.19.3-.39.6-.62.96.15-.04.23-.06.35-.09-.06.22-.12.4-.17.58.02.01.04.02.06.03.17-.22.34-.43.46-.59.33.06.63.12.93.18,0,.03,0,.06,0,.1.09-.06.18-.11.26-.17.01.15.02.28.04.48.26-.21.46-.38.66-.54.01.01.03.02.04.04-.09.1-.19.19-.27.3-.05.08-.07.18-.1.27.1.04.21.07.38.13,0-.02,0,.05,0,.05.28.1.53.19.78.27.4.12.49.47.53.81.03.31.12.53.43.64-.04.41-.08.81-.14,1.22-.01.1-.07.21-.11.3-.34.67-.63,1.36-1.02,1.99-1.67,2.75-2.77,5.77-4.14,8.66-1.54,3.25-3.13,6.47-4.7,9.71-.33.69-.64,1.4-.97,2.09-.07.14-.24.22-.36.34-.05.05-.08.13-.11.2-.13.32-.23.64-.38.95-.18.36-.39.71-.59,1.05.04-.16.08-.34.14-.59-.09.12-.14.19-.18.25l-.06-.03c.51-1.24,1.03-2.48,1.54-3.72-.03-.01-.06-.03-.08-.04-.5.93-1,1.86-1.51,2.82-.04-.09-.06-.14-.1-.22-.31.57-.59,1.1-.87,1.63-.03-.01-.06-.02-.09-.03.19-.52.38-1.05.57-1.57-.01,0-.03-.01-.04-.02-.49,1.03-.99,2.06-1.48,3.1l-.07-.03c.06-.15.13-.31.22-.52-.93.76-1.15,1.84-1.55,2.82-.04.1-.06.2-.11.33-.07-.29.04-.65.47-1.65.23-.53.44-1.07.62-1.62-.72,1.07-1.21,2.24-1.54,3.48-.04-.02-.09-.03-.13-.05.21-.59.41-1.19.65-1.77.23-.59.51-1.17.75-1.75.24-.57.47-1.15.7-1.72.23-.58.46-1.15.69-1.73.24-.6.49-1.19.7-1.81-.13.26-.26.52-.39.78-.05.11-.11.22-.17.32-.11.2-.22.24-.33-.02-.23.17-.42.31-.22.62.04.07-.01.24-.07.33-.13.22-.28.42-.49.62.06-.35.12-.71.18-1.06-.02,0-.05-.02-.07-.03-.25.51-.5,1.03-.75,1.54-.02,0-.04-.01-.06-.02.15-.48.31-.97.46-1.45-.02,0-.03-.01-.05-.02l-1.35,3.39s-.09-.04-.13-.05c.49-1.2.97-2.4,1.46-3.61-.03-.01-.06-.03-.09-.04-.27.55-.53,1.1-.8,1.65-.02,0-.04-.02-.06-.03.05-.18.07-.36.14-.53.39-1.02.79-2.03,1.18-3.04.11-.3.2-.61.32-.9.29-.67.6-1.34.89-2.01.11-.25.25-.48.2-.8-.04-.22.1-.49.2-.72.16-.39.34-.77.52-1.15.47-.97.82-2.02,1.44-2.87.57-.78.87-1.66,1.33-2.48.44-.78.74-1.63,1.12-2.44.12-.27.31-.5.44-.77.06-.12.07-.26.04-.43-.22.3-.44.59-.67.89-.03-.02-.06-.05-.09-.07.16-.18.32-.36.48-.54,0-.01-.02-.03-.03-.04-.07.03-.15.05-.21.1-.46.41-.87.9-1.39,1.2-.36.21-.7.44-1.01.72-.67.59-1.33,1.21-1.99,1.81-.3.27-.61.52-.89.8-.33.32-.63.67-.92,1.04.14-.11.28-.22.42-.33.02.02.04.04.06.06-.25.25-.48.51-.75.74-.25.22-.5.43-.78.61-.47.32-.65.83-.91,1.29-.07.13-.19.24-.29.35-.42.44-.85.88-1.28,1.3-.12.12-.27.19-.39.3-.08.07-.14.17-.24.3h-.32l-.04-.05c.21-.13.42-.26.67-.41-.13-.04-.21-.07-.31-.1.04-.1.09-.19.17-.37-.22.08-.37.13-.54.19-.03-.05-.06-.12-.13-.28-.03.21-.05.33-.07.45-.02-.1-.03-.19-.05-.29-.02,0-.04,0-.07,0v1.55s-.06,0-.09,0c-.05-.62-.09-1.24-.14-1.87-.03,0-.05,0-.08,0-.03.21-.08.42-.09.63-.02.24-.03.48-.02.73,0,.22.03.44.05.66-.03,0-.05,0-.08.01-.02-.04-.05-.09-.05-.13,0-.6,0-1.21-.03-1.81-.02-.42-.11-.83-.53-1.08-.2-.12-.36-.31-.59-.5-.02.28-.03.5-.04.72-.02,0-.03,0-.05,0-.07-.24-.13-.48-.2-.72-.02,0-.03,0-.05,0l.25,1.92s-.1.01-.15.02c-.08-.69-.16-1.38-.24-2.07-.03,0-.06,0-.1,0v.93s-.07.01-.1.02c-.04-.13-.08-.25-.1-.38-.14-.74-.28-1.49-.39-2.24-.04-.23.03-.48,0-.72-.02-.2.03-.44-.24-.57-.07-.04-.08-.21-.09-.34.05.06.09.11.15.18-.36-1.02-.18-2.07-.24-3.11.03.17.06.35.09.56v-2.16s-.06-.01-.09-.02c-.18.33-.37.67-.54,1-1.48,2.8-2.99,5.59-4.45,8.4-1.31,2.52-2.57,5.06-3.85,7.59-.17.34-.27.78-.54,1-.39.33-.45.78-.65,1.17-.23.43-.45.87-.7,1.3.24-.44.09-.96.35-1.42.33-.56.56-1.19.8-1.8.15-.38.26-.78.34-1.21-.06.1-.13.2-.18.31-.22.49-.4,1-.66,1.47-.21.37-.51.68-.76,1.03-.17.23-.33.46-.46.71-.19.36-.34.75-.55,1.21-.17-.56.22-.92.21-1.36-.26.56-.56,1.1-.76,1.67-.17.48-.55.8-.86,1.13-.19.2-.3.41-.41.62-.31.62-.57,1.27-.85,1.91l-.08-.03c.39-.95.77-1.9,1.16-2.85-.05-.02-.11-.05-.16-.07-.57,1.26-1.14,2.52-1.71,3.78-.01,0-.03,0-.04,0,.03-.09.05-.19.09-.27.46-1.11.88-2.23,1.4-3.31.29-.6.51-1.2.66-1.84.04-.16.18-.29.24-.45.18-.44.32-.9.51-1.34.32-.75.66-1.49,1-2.24.1-.22.19-.43.26-.66-.45.54-.5,1.33-1.08,1.79-.02-.11-.04-.22-.06-.32-.03,0-.06,0-.09,0-.1.27-.26.49-.26.83,0,.34-.27.67-.49.99.06-.38.12-.77.19-1.15-.02,0-.05-.02-.07-.03l-.8,1.67s-.04-.01-.05-.02c.19-.56.39-1.12.58-1.68-.01,0-.02-.02-.03-.03-.07.11-.15.22-.2.34-.4,1.01-.79,2.03-1.18,3.04-.08.2-.19.39-.29.59-.03-.01-.06-.02-.08-.03.55-1.37,1.09-2.74,1.64-4.1-.03-.01-.05-.02-.08-.03-.28.58-.55,1.16-.83,1.74-.02,0-.05,0-.07-.01.02-.1.03-.22.07-.31.18-.46.38-.92.56-1.38.42-1.1.83-2.21,1.25-3.32.15-.39.29-.79.47-1.16.19-.4.46-.76.63-1.17.1-.23.06-.53.14-.77.13-.39.33-.76.47-1.16.07-.2.08-.42.13-.72.06.13.09.17.13.26.63-1.28,1.25-2.53,1.88-3.79.04.05.08.09.13.16.05-.06.09-.1.12-.16.53-.95,1.07-1.89,1.6-2.85.57-1.03,1.13-2.05,1.67-3.09.29-.56.57-1.11.72-1.74.12-.51.45-.97.73-1.43.37-.62.8-1.22,1.15-1.85.2-.36.31-.78.47-1.17.15-.36.27-.74.46-1.07.43-.74.9-1.46,1.34-2.19.21-.35.49-.68.6-1.06.1-.33.3-.45.62-.52-.25.3-.51.61-.82.99.19-.05.3-.07.47-.11-.13.25-.24.46-.38.74.26-.24.46-.42.67-.62.36.08.75.16,1.11.24.05.19.09.35.11.43.25.1.42.16.64.25,0,0,0,.06,0,.04.34.17.69.26.9.48.17.17.26.5.25.76,0,.33.05.58.32.72-.04.31-.1.6-.1.89,0,.13.16.25.23.39.09.17.22.35.24.53.05.4.1.82.05,1.22-.22,1.87.3,3.69.39,5.54.02.34,0,.68,0,1.11.16-.14.25-.21.33-.29,1.15-1.12,2.27-2.28,3.47-3.36,1.58-1.42,3.23-2.77,4.84-4.16.3-.26.58-.55.89-.79.22-.16.49-.25.74-.38.08-.05.15-.13.22-.19.36-.31.71-.63,1.12-.9l-.39.48.02.02c.11-.08.21-.17.32-.25l.03.03c-.68.69-1.37,1.38-2.05,2.07l.05.07c.58-.44,1.15-.87,1.73-1.31.02.02.04.04.06.06-.05.07-.1.13-.15.2,0,.01.01.02.02.03.45-.31.89-.62,1.34-.93-.07.13-.13.27-.23.38-.15.18-.33.34-.5.5.02.02.04.04.06.06.22-.18.47-.34.64-.56.2-.25.34-.56.5-.84,0,0-.05-.05-.08-.07Zm-18.21-1.19s-.08-.05-.11-.08c-.71.77-1.24,1.66-1.72,2.58.02.02.05.03.07.05.59-.85,1.17-1.7,1.76-2.55Zm4.76,18.43c.33.13,1.27-.58,1.63-1.21-.57.42-1.08.8-1.63,1.21Zm4.32,9.71s-.05-.03-.07-.04c-.21.44-.41.87-.62,1.31.03.01.05.02.08.04.2-.43.41-.87.61-1.3Zm-21.98,1.82s.05.02.07.03c.16-.36.32-.71.48-1.07-.02-.01-.05-.02-.07-.03-.16.35-.33.71-.49,1.06Z"/>
      <path class="cls-1" d="m80.95,43.95c-.46.16-.82.28-1.18.41-.01,0-.02.01-.03.01-.69-.21-.64.44-.73.74-.22.69-.61,1.27-.9,1.92-.25.56-.47,1.13-.7,1.69-.2.5-.38,1.01-.58,1.56-.25-.08-.5-.14-.74-.23-.33-.13-.47-.4-.49-.74-.01-.14.05-.34-.03-.42-.27-.31-.16-.69-.24-1.03-.1-.4-.15-.82-.17-1.23-.04-.66-.05-1.33-.13-2.01-.9,1.83-1.73,3.68-2.78,5.42.05-.14.1-.27.16-.41-.01,0-.03-.01-.04-.02-.29.35-.57.71-.86,1.06-.04-.02-.07-.04-.11-.06.11-.32.23-.63.37-1.03-1.99.57-4.03.75-5.77,1.69-.22-.14-.35-.24-.49-.31-.28-.13-.43-.5-.31-.81.28-.69.57-1.38.86-2.07.03-.08.05-.16.1-.28-.16.06-.28.1-.43.15-.11-.26-.22-.51-.32-.77-.17-.43-.03-.71.41-.82.13-.03.26-.06.39-.08.48-.07.88-.21,1.09-.74.2-.49.52-.94.81-1.42-.28.07-.55.12-.82.2-.22.07-1.03.18-1.12.23-.23.13-.55.08-.7.4-.59,1.28-1.19,2.55-1.8,3.82-.11.22-.26.43-.43.63.05-.15.11-.3.19-.53-.36.45-.66.84-1.02,1.29-.07-.5.44-.79.13-1.22-.06.08-.12.16-.18.23-.04-.02-.07-.03-.11-.05.28-.8.53-1.61.87-2.38.34-.78.77-1.52,1.13-2.3-1.13.62-1.88,1.65-2.7,2.53-.18-.02-.32-.04-.47-.06-.05-.11-.12-.29-.22-.55-.09.16-.14.23-.2.33-.25-.77-.4-1.54-.28-2.34-.03,0-.06-.02-.08-.03-.92,1.76-1.85,3.52-2.77,5.29l-.06-.02c.04-.12.09-.24.13-.36-.02-.01-.04-.02-.05-.04-.29.4-.58.8-.86,1.19-.22-.12-.38-.23-.56-.28-.49-.13-.63-.48-.63-.94,0-.09.03-.22-.01-.26-.24-.22-.15-.51-.2-.77-.19-.86-.26-1.73-.25-2.61,0-.29-.04-.59-.08-.99-.93,1.91-1.81,3.74-2.69,5.56-.04-.02-.07-.03-.11-.05.05-.13.1-.27.16-.4-.01,0-.03-.02-.04-.03-.28.35-.56.7-.85,1.06-.04-.02-.08-.04-.11-.06.15-.41.29-.83.44-1.24-.18.13-.36.25-.54.38l-.05-.05c.16-.44.32-.88.5-1.31.25-.6.5-1.2.78-1.79.28-.59.61-1.16.88-1.75.23-.51.4-1.05.61-1.57.1-.24.22-.48.33-.72.02-.04.05-.09.08-.1.41-.09.81-.18,1.22-.24.27-.04.56.25.59.54.1,1.33.19,2.66.28,3.98,0,.1.02.21.04.36.68-1.38,1.32-2.71,1.97-4.03.03.02.07.03.1.05l-.13.37s.03.02.04.03c.26-.31.53-.62.79-.93l.12.07c-.09.27-.19.54-.29.84.08-.03.14-.03.15-.05.18-.31.35-.63.52-.95.17-.32.34-.64.52-.96.08-.14.42-.16.59-.04.04.03.07.1.11.11.41.11.46.42.5.77.08.78.19,1.56.28,2.34.96-.85,1.94-1.7,2.91-2.56.03.02.05.05.08.07-.05.07-.09.14-.15.22.03,0,.07.02.09,0,.25-.12.55-.17.62-.52.06-.29.36-.22.48-.15.29.15.71.18.77.61.03.2,0,.41,0,.69,2.19-.39,4.43-.87,6.73-.82-.23.04-.46.08-.69.11,0,.02,0,.04,0,.06.28,0,.57-.01.85,0,.16,0,.32.05.48.09.39.09.73-.06,1.1-.15.29-.08.6-.24.94-.04.22.13.29.29.31.53.09,1.35.19,2.7.28,4.05,0,.05.02.1.04.22.06-.1.1-.15.12-.2.44-.92.88-1.85,1.31-2.77.06-.12.09-.27.08-.4-.02-.3.15-.62.44-.67.29-.05.56-.07.69-.38.02-.04.11-.05.21-.09-.02.15-.03.26-.05.4,1.82-.34,3.64-.57,5.49-.45-.19.02-.38.05-.56.07.47.1.96.2,1.44.3,0,.03,0,.06,0,.1-.4.06-.8.12-1.19.19,0,.03,0,.05.01.08.09-.01.19-.02.21-.02.08.13.14.23.19.31-.63.1-1.32.19-2,.33-.14.03-.32.17-.38.31-.52,1.04-1.03,2.08-1.53,3.14-.44.92-.85,1.85-1.33,2.76l.06-.32s-.03-.02-.05-.03c-.23.33-.46.65-.69.98-.04-.02-.08-.03-.11-.05.11-.37.21-.75.33-1.16-.15.12-.28.23-.41.34-.03,0-.06-.01-.09-.02.1-.39.19-.78.32-1.16.19-.55.4-1.1.64-1.64.35-.81.74-1.6,1.09-2.41.08-.17.09-.37.17-.67Zm-7.35-.8c-.19.07-.33.14-.49.17-1.15.18-2.3.34-3.44.53-.31.05-.78-.06-.79.43.14.04.26.08.41.12-.18.38-.33.73-.51,1.11.64-.11,1.22-.22,1.81-.32,0,.03.01.06.02.09-.13.04-.27.08-.37.11.36.07.74.14,1.12.21,0,.04,0,.08-.01.12-.28.07-.56.14-.84.21.14.09.28.17.48.29-.3.1-.53.19-.77.26-.64.19-1.28.36-1.91.56-.16.05-.31.18-.43.31-.11.13-.2.29-.26.45-.21.51-.41,1.03-.65,1.62.3-.09.47-.15.66-.19,1.2-.28,2.39-.61,3.6-.8.52-.08.74-.26.8-.74,0-.02.02-.04.03-.06.26-.51.54-1.02.78-1.53.32-.69.62-1.39.93-2.1.11-.25.2-.52.28-.78.01-.04-.05-.1-.07-.14.07-.03.17-.05.24-.1.04-.03.06-.11.05-.16,0-.03-.07-.09-.11-.08-.41.05-.82.1-1.24.16.25.09.46.17.7.26Z"/>
      <path class="cls-1" d="m20.42,43.58c.23-.54.76-.47,1.19-.56.69-.15,1.4-.24,2.11-.33,1.5-.18,3.01-.34,4.52-.5.05,0,.11,0,.17.05-.23.04-.46.08-.6.1.56.09,1.2.18,1.85.28,0,.02,0,.03,0,.05-.53.07-1.06.14-1.6.22.25.09.46.17.68.25,0,.04,0,.07,0,.11-1.3.2-2.6.39-3.9.59-.16.02-.34.01-.48.08-.15.08-.27.23-.41.36.2.05.33.08.49.12-.17.38-.34.73-.51,1.12.63-.12,1.22-.22,1.81-.33,0,.03.01.06.02.09-.14.04-.27.09-.38.12.36.06.74.13,1.12.2,0,.04,0,.08,0,.12-.28.07-.55.14-.84.21.14.09.28.18.41.27,0,.03,0,.06,0,.09-.88.25-1.76.49-2.64.76-.16.05-.33.17-.42.31-.38.62-.68,1.28-.85,2.05,1.62-.51,3.23-.89,4.89-1.01-.1.03-.21.06-.31.08,0,.02,0,.03,0,.05.45,0,.9.05,1.34-.01.65-.1.67-.74.91-1.19.26-.51.56-1,.84-1.51.29-.52.58-1.04.89-1.61-.42.05-.8.1-1.18.15-.02-.02-.03-.04-.05-.06.04-.03.09-.05.13-.08-.17-.08-.51-.74-.4-.87.13-.17.31-.38.5-.42.48-.11.97-.14,1.46-.19.24-.02.51-.25.55-.49.07-.39.45-.54.78-.32.05.03.08.08.13.1.47.12.5.47.48.84.65.13,1.3.27,1.82.38.38-.1.67-.21.97-.25.88-.14,1.76-.28,2.64-.36,1.04-.09,2.09-.12,3.13-.17.03,0,.06.02.18.07-.28.03-.48.06-.65.08.47.1.96.2,1.45.3,0,.03,0,.06-.01.1-.4.06-.79.13-1.19.19,0,.03,0,.05.01.08.09-.01.17-.03.21-.03.07.12.12.23.17.31-.63.1-1.32.19-2,.33-.14.03-.31.18-.38.31-.51,1.01-1,2.03-1.49,3.05-.45.95-.88,1.91-1.38,2.85.02-.11.04-.22.06-.33-.02,0-.03-.02-.05-.02-.23.33-.45.66-.73,1.06-.09-.51.22-.86.24-1.27-.14.11-.27.22-.4.32-.03,0-.06-.01-.08-.02.11-.39.19-.79.32-1.17.19-.55.4-1.1.64-1.64.35-.81.74-1.6,1.1-2.41.07-.16.09-.35.16-.65-.44.15-.8.27-1.16.38-.07.02-.15.01-.22,0-.28-.05-.44.09-.44.36,0,.66-.31,1.19-.85,1.52-.72.44-1.49.81-2.23,1.2-.12.07-.25.12-.4.19.62.99,1.22,1.97,1.83,2.94-.03.02-.05.04-.08.07-.05-.02-.09-.05-.16-.08v.76s-.06,0-.09,0c-.13-.16-.26-.32-.4-.49-.03.13-.06.26-.1.44-.12-.1-.24-.19-.35-.29-.52-.47-.78-1.12-1.17-1.68-.24-.36-.54-.67-.83-1-.04-.05-.16-.06-.24-.05-.18.03-.36.08-.54.13-.36.1-.64.27-.79.66-.13.34-.35.65-.58.95.04-.13.09-.27.13-.4-.02-.01-.04-.02-.05-.03-.29.39-.58.77-.86,1.16-.16-.46.42-.81.1-1.27-.06.07-.12.14-.21.24-.12-.38.16-.62.22-1-.54.15-1.05.29-1.59.43.22.06.4.12.58.17,0,.03,0,.07,0,.1-.29.08-.59.17-.88.25-.54.15-1.07.3-1.61.44-.58.15-1.18.24-1.76.41-.49.15-.95.37-1.43.55-.22.08-.46.14-.62.19-.16-.1-.27-.2-.4-.26-.32-.14-.47-.5-.33-.85.28-.7.58-1.4.87-2.1.02-.06.04-.12.07-.23-.16.05-.28.09-.44.14-.11-.28-.23-.55-.34-.82-.14-.37.01-.72.39-.74.93-.06,1.49-.53,1.82-1.38.12-.3.32-.57.5-.88-.29.07-.57.13-.85.2-.33.08-.67.16-1,.24-.1.02-.2.05-.3.08-.19.06-.4.13-.47-.14-.08-.3-.13-.62-.19-.93h0Zm10.38,3.33s.04.05.06.08c.76-.39,1.52-.77,2.27-1.16.47-.25.94-.5,1.4-.78.23-.14.24-.4.02-.5-.21-.1-.43-.18-.65-.21-.4-.06-.81-.04-1.2-.12-.31-.07-.47.03-.61.28-.43.8-.86,1.61-1.3,2.41Z"/>
      <path class="cls-1" d="m20.43,43.58c-.75.1-1.5.19-2.24.31-.13.02-.27.19-.34.32-.51,1.01-1,2.03-1.48,3.05-.43.9-.84,1.81-1.26,2.72-.02.04-.06.08-.14.2.05-.2.07-.3.09-.4-.02-.01-.04-.02-.06-.03-.23.33-.46.65-.68.98-.04-.01-.08-.03-.12-.04.11-.38.21-.77.32-1.16-.15.12-.28.23-.42.33-.03,0-.06-.02-.08-.03.11-.39.2-.79.33-1.17.19-.55.4-1.1.64-1.64.35-.81.74-1.6,1.1-2.41.07-.16.09-.35.15-.65-.45.15-.8.27-1.16.39-.01,0-.02.02-.03.02-.66-.19-.65.41-.75.73-.22.71-.62,1.31-.93,1.97-.26.54-.47,1.11-.67,1.67-.12.33-.25.64-.4.95-.08.17-.11.37-.17.6-.24-.08-.44-.16-.64-.22-.44-.12-.59-.43-.61-.85,0-.11.04-.27-.02-.32-.24-.22-.14-.51-.2-.77-.19-.87-.27-1.75-.25-2.64,0-.28-.04-.57-.12-.87-.88,1.82-1.77,3.65-2.65,5.47-.04-.02-.07-.03-.11-.05.05-.13.11-.27.16-.4-.01,0-.03-.02-.04-.03l-.84,1.05-.11-.06c.11-.31.22-.63.35-.99-1.01.22-1.99.39-2.96.66-.98.27-1.94.63-2.9.95-.1-.07-.19-.18-.31-.23-.37-.16-.52-.5-.37-.88.28-.69.57-1.38.86-2.07.02-.06.04-.12.08-.23-.15.05-.27.09-.44.14-.11-.28-.24-.55-.35-.84-.13-.34.03-.64.38-.73.34-.09.69-.14,1.02-.25.13-.04.26-.16.33-.28.33-.57.65-1.15,1.01-1.78-.33.13-.62.27-.91.36-.13.04-.29,0-.44.01-.22.02-.44.06-.66.09-.04,0-.08.02-.1.04-.23.2-.46.2-.56-.11-.11-.33-.36-.68-.05-1.02.11-.13.28-.26.44-.28,2.14-.33,4.28-.64,6.42-.95.32-.05.66,0,.99.03-.23.04-.46.08-.61.11.45.07.97.17,1.5.22.2.02.41-.06.61-.11.24-.06.47-.14.71-.19.48-.11.75.11.78.6.09,1.34.19,2.68.28,4.02,0,.06.03.12.05.19.51-1.04,1.01-2.05,1.49-3.07.09-.19.04-.45.13-.64.06-.13.24-.28.38-.3.27-.04.51-.09.63-.37.02-.04.11-.06.22-.12-.02.16-.04.27-.06.42,1.82-.34,3.64-.57,5.5-.45-.2.02-.39.05-.56.07.46.1.95.2,1.43.3,0,.03,0,.06,0,.1-.4.06-.79.12-1.19.19,0,.02,0,.05,0,.07.09,0,.18-.02.29-.03-.02.05-.05.13-.04.14.1.08.21.14.32.21,0,0,0,0,0,0Zm-14.2,2.63c-.12.07-.19.13-.28.15-.79.23-1.59.45-2.38.69-.13.04-.3.1-.36.2-.38.67-.73,1.35-.89,2.13.8-.21,1.57-.42,2.34-.6.67-.15,1.35-.3,2.04-.38.27-.03.42-.11.5-.36.12-.35.22-.71.39-1.03.55-.99,1.09-1.99,1.45-3.07.08-.24.19-.48.27-.72.01-.04-.05-.11-.07-.15.06-.02.15-.03.21-.08.05-.03.08-.12.08-.18,0-.03-.09-.1-.14-.09-.4.05-.8.11-1.21.16.25.09.47.17.71.26-.18.07-.33.15-.48.17-1.15.18-2.3.33-3.44.53-.31.05-.78-.08-.8.43.13.04.26.07.41.11-.17.38-.34.73-.51,1.11.64-.11,1.22-.22,1.81-.33,0,.03.01.06.02.09-.14.04-.28.08-.41.12.38.09.8.03,1.23.3-.38.09-.66.16-.92.23.14.09.27.17.43.27Z"/>
      <path class="cls-1" d="m50,46.8c-.11.03-.22.07-.33.09-.37.09-.75.17-1.07.25.17.07.36.15.54.23-.01.02-.02.05-.03.07-.46.12-.93.24-1.39.38-.06.02-.11.14-.12.23-.1.77-.19,1.55-.28,2.32,0,.01-.03.03-.07.06v-.67c-.16.58-.32,1.13-.48,1.68-.02,0-.05,0-.07,0-.03-.46-.07-.93-.1-1.39-.01,0-.03,0-.04-.01-.1.34-.2.67-.3,1.01-.01,0-.02,0-.03.01v-2.93c-.68.1-1.28.26-1.88.25-1.13-.01-1.55.85-2.12,1.55-.05.06-.09.12-.14.18-.02.03-.06.05-.12.04.03-.05.07-.1.1-.16.03-.05.06-.09.04-.19-.33.32-.67.63-1,.95-.04-.02-.07-.05-.11-.07.16-.3.32-.59.5-.92-.35-.1-.41-.32-.16-.61-.4,0-.52-.12-.6-.51-.05-.26-.21-.52.04-.75.11-.1.23-.22.36-.25.31-.07.63-.09.94-.15.13-.03.29-.08.36-.17.78-1.03,1.55-2.07,2.31-3.11.12-.17.16-.44.32-.53.3-.19.43-.49.63-.74.11-.13.24-.24.34-.37.25-.35.47-.37.79-.06.06.06.16.12.24.13.22.02.44,0,.66.03.46.05.66.32.57.78-.11.58-.25,1.16-.35,1.74-.07.42-.11.85-.17,1.31.33-.02.65-.04.97-.05v.05c-.15.04-.31.08-.47.12,0,.02,0,.04,0,.06.39,0,.79-.02,1.18,0,.17,0,.34.1.5.15h0Zm-3.44-2.69c-.74.99-1.44,1.93-2.19,2.93.7-.11,1.3-.2,1.89-.3.08-.01.19-.1.2-.17.1-.72.19-1.45.27-2.18,0-.06-.08-.14-.17-.29Z"/>
      <path class="cls-1" d="m49.99,46.8c.3.02.41-.16.52-.4.36-.8.76-1.59,1.13-2.39.05-.12,0-.34.08-.38.29-.16.26-.47.39-.7.13-.24.27-.48.43-.77.29.11.58.21.87.34.26.12.32.54.16.87-.78,1.57-1.56,3.15-2.33,4.73-.3.63-.57,1.27-.93,1.88.04-.14.09-.28.13-.41-.02,0-.03-.02-.05-.03-.24.37-.49.75-.73,1.12l-.11-.04c.04-.21.07-.42.13-.62.06-.23.15-.45.16-.7-.04.09-.08.19-.12.28-.09-.04-.18-.08-.33-.14.27-.82.57-1.7.87-2.61-.08,0-.18-.02-.27-.02,0,0,0,0,0,0Z"/>
      <path class="cls-1" d="m53.83,39.42c.41.15.85.31,1.34.5-.21.4-.38.75-.58,1.08-.06.1-.13.3-.31.08-.03-.03-.16,0-.24.03-.28.09-.3-.06-.25-.26-.42-.15-.47-.35-.22-.71.13-.19.17-.45.27-.71Z"/>
      <path class="cls-1" d="m33.51,3.69s.08.06.08.07c-.16.29-.3.59-.5.84-.17.22-.42.37-.64.56-.02-.02-.04-.04-.06-.06.17-.17.35-.33.5-.5.09-.11.15-.25.23-.38.13-.18.26-.35.4-.53Z"/>
      <path class="cls-1" d="m83.2,3.69s.08.06.08.07c-.16.29-.3.59-.5.84-.17.22-.42.37-.64.56-.02-.02-.04-.04-.06-.06.17-.17.35-.33.5-.5.09-.11.15-.25.23-.38.13-.18.26-.35.4-.53Z"/>
      <path class="cls-1" d="m12.58,5.91c-.04.43-.27.89-.68,1.33-.05-.24.27-.87.68-1.33Z"/>
      <path class="cls-1" d="m62.29,5.88c-.04.59-.41.95-.68,1.39-.09-.24.18-.78.68-1.39Z"/>
      <path class="cls-1" d="m40.76,7.65c.24-.27.22-.7.65-.83-.09.49-.4.9-.65.83Z"/>
      <path class="cls-1" d="m72.31,19.47c-.12-.31.14-.62.62-.76-.24.29-.41.5-.62.76Z"/>
      <path class="cls-1" d="m23.25,18.72c-.25.29-.43.5-.62.72-.15-.26.13-.61.62-.72Z"/>
      <path class="cls-1" d="m36.3,34.6c-.27.34-.64.44-.95.24.36-.09.65-.17.95-.24Z"/>
      <path class="cls-1" d="m44.61,32.73c.11.03.21.07.31.1-.45.05-.9.1-1.35.15,0-.03,0-.05-.01-.08.35-.05.7-.11,1.05-.16,0,0,0,0,0,0Z"/>
      <path class="cls-1" d="m54.66,20.3c.18-.35.36-.69.54-1.04.03.01.05.03.08.04-.18.35-.35.7-.53,1.06-.03-.02-.06-.04-.09-.05Z"/>
      <path class="cls-1" d="m4.98,20.3c.18-.35.36-.7.54-1.05.03.01.05.03.08.04-.18.35-.35.7-.53,1.05-.03-.01-.06-.03-.09-.04Z"/>
      <path class="cls-1" d="m63.15,5c.49-.92,1.01-1.82,1.73-2.58l.11.07c-.59.85-1.17,1.7-1.76,2.56-.03-.02-.06-.03-.08-.05Z"/>
      <path class="cls-1" d="m44.17,3.1c-.09.17-.15.34-.26.49-.51.71-1.02,1.42-1.56,2.11.5-.94.98-1.89,1.82-2.61Z"/>
      <path class="cls-1" d="m69.74,20.94c.55-.41,1.07-.79,1.62-1.2-.31.58-1.27,1.32-1.62,1.2Z"/>
      <path class="cls-1" d="m74.06,30.65c-.2.43-.4.86-.6,1.3-.03-.01-.05-.02-.08-.04.2-.44.41-.87.61-1.31.02.02.04.03.07.05Z"/>
      <path class="cls-1" d="m15.3,2.5c-.59.85-1.17,1.7-1.76,2.55-.02-.02-.05-.03-.07-.05.48-.92,1.01-1.81,1.72-2.58.04.03.08.05.11.08Z"/>
      <path class="cls-1" d="m20.05,20.93c.55-.41,1.06-.79,1.63-1.21-.36.63-1.3,1.33-1.63,1.21Z"/>
      <path class="cls-1" d="m2.39,32.46c.16-.35.33-.71.49-1.06.02.01.05.02.07.03-.16.36-.32.71-.48,1.07-.02-.01-.05-.02-.07-.03Z"/>
    </g>
  </g>
</svg>