<svg viewBox="519.5661 210.99 48.62 48.65" width="48.62" height="48.65" xmlns="http://www.w3.org/2000/svg">
  <g id="Layer_1-2" data-name="Layer 1" transform="matrix(0.9999999999999999, 0, 0, 0.9999999999999999, 519.5761108398438, 211.0299835205078)">
    <g>
      <path class="cls-2" d="m23.49,48.61h-.53s-.05-.05-.08-.05c-.85-.04-1.69-.14-2.52-.28-1.37-.22-2.71-.56-4.03-1.02-4.28-1.5-7.87-4.01-10.77-7.49-2.09-2.52-3.6-5.35-4.54-8.49-.15-.5-.26-1.01-.4-1.51.38,0,.76,0,1.14,0,.03,0,.05.01.08.02-.14.24-.16.5-.09.77.21.78.96,1.26,1.76,1.13.66-.11,1.12-.46,1.3-1.11.07-.24.06-.5.08-.75,0,0,0,0,0,0,0,0,0-.01,0-.02,0-.01,0-.03,0-.04.07,0,.13.01.2.01.47,0,.94,0,1.41,0,.04,0,.07,0,.08,0,.08.09.14.15.2.21,0,0,0,0,0,0l.13.13s-.01.01-.02.02c.04,0,.08.01.1.02.03.05.04.09.06.11.04.04.08.07.15.12.07-.01.07.07.1.13.04.05.09.1.15.16-.02,0,0,0,0,0,1.4,0,2.79,0,4.19,0,.09,0,.11-.04.11-.12,0-.27,0-.54,0-.81.63,0,1.26,0,1.89,0,.17.05.25.22.38.32.05.03.09.07.13.12.06.07.12.14.18.21.06.06.17.1.2.18.05.11.12.1.2.1,1.7,0,3.41,0,5.11,0h.16v-.93c.18,0,.35,0,.53,0,0,0,.02,0,.02,0,0,0,.02,0,.02.01.03,0,.07.01.1.02,0,.09.02.14.14.12-.04.12.04.13.1.13.03.05.05.09.08.12.03.04.07.06.11.09,0,0,0,0,0,0,.04.04.09.09.13.13,0,0,0,0,0,0,.09.09.18.19.29.31-.02,0,0,0,.01,0,1.38,0,2.76,0,4.15,0,.09,0,.11-.04.11-.12,0-.27,0-.54,0-.81,2.78,0,5.55,0,8.33,0,.03,0,.06,0,.09,0,.04,0,.08.02.09.02.08.09.14.15.22.23.08-.03.08.07.1.14,0,0,.02-.02.03-.03.04.04.09.08.13.12,0,0,0,0,0,0,.04.04.09.09.15.15.02.02.06.07.11.11l-.02.02s.07.02.1.03c0,.04.01.08.02.12h4.32v-.9c.2,0,.4,0,.59,0,.15.32.45.46.84.4.32-.05.6-.2.84-.42.05,0,.09,0,.14,0,1.98,0,3.96,0,5.93,0,.05,0,.1.01.15.02,0,.02,0,.04,0,.06-.27,1.15-.62,2.27-1.06,3.37-1.21,3.06-2.97,5.76-5.27,8.1-1.87,1.91-4,3.47-6.38,4.68-1.98,1-4.05,1.73-6.23,2.15-.77.15-1.55.24-2.33.34-.33.04-.66.05-.99.08-.02,0-.04.03-.06.05h-2.13s-.02-.01-.02-.02c0,0,0,.01,0,.02Zm9.97-12.38c.1.1.19.2.29.3.03.03.08.05.12.05.41,0,.82,0,1.23,0,.09,0,.11-.04.11-.11,0-.11,0-.23,0-.34.01,0,.03,0,.04.01.11.12.23.23.34.35.06.07.12.09.21.09.8,0,1.6,0,2.4,0,.2,0,.41,0,.61,0,.09,0,.13-.03.12-.12,0-.07,0-.15,0-.25.11.11.19.21.29.29.05.04.11.07.17.07,1,0,2.01,0,3.01,0,.04,0,.08,0,.13,0,0-.37,0-.72,0-1.08,0-.03-.01-.06-.03-.08-.13-.13-.26-.26-.4-.38,0-.02,0-.03-.01-.05-.04,0-.09-.02-.13-.02-.39,0-.78,0-1.16,0-.04,0-.09,0-.14,0v-.16c0-.82,0-1.64,0-2.45,0-.04,0-.1-.01-.12-.13-.14-.27-.27-.41-.4-.04-.02-.07-.05-.11-.05-.25,0-.51,0-.76,0h-.53c0,.06,0,.11,0,.15,0,1.13,0,2.27,0,3.4-.11-.1-.23-.2-.34-.3,0,0,0-.02-.01-.02-.13,0-.26-.02-.38-.02-.34,0-.69,0-1.05,0v-.26c0-.79,0-1.58,0-2.38,0-.06-.02-.13-.06-.17-.12-.13-.24-.24-.37-.36-.06-.01-.12-.03-.18-.03-.4,0-.81,0-1.23,0v.44s-.05-.03-.07-.05c-.12-.11-.24-.23-.36-.34-.05-.02-.09-.05-.14-.05-1.03,0-2.06,0-3.08,0-.04,0-.08,0-.13,0-.01.14-.02.28-.03.42-.14-.13-.28-.25-.41-.38-.02-.02-.04-.05-.06-.05-.05,0-.11,0-.16,0-.39,0-.78,0-1.18,0v1.57h-.32c0-.34,0-.68,0-1.02,0-.04,0-.09-.02-.11-.13-.14-.27-.27-.41-.4-.04-.02-.07-.05-.11-.05-.25,0-.51,0-.76,0-.18,0-.35,0-.53,0v.15c0,1.15,0,2.3,0,3.45,0,.25,0,.51,0,.76.13.13.25.26.38.38.04.04.11.07.17.07.38,0,.76,0,1.14,0,.04,0,.08,0,.13,0v-1.58h.32c0,.38,0,.76,0,1.14.13.13.25.26.38.38.04.04.11.07.17.07.38,0,.75,0,1.13,0,.04,0,.08,0,.14,0,0-.12,0-.23,0-.33,0-.07.02-.09.09-.08.11.12.22.24.33.36.04.04.1.06.15.06.4,0,.79,0,1.19,0,.04,0,.07,0,.12,0,0-.36,0-.7,0-1.05,0-.04.03-.08.04-.13,0,.24,0,.49,0,.73.04.03.08.07.12.1Zm-22.47-.09s.01,0,.02,0c0,0,0,0,0,0,.13.12.25.25.39.37.04.04.1.08.15.08,1.12,0,2.24,0,3.35,0,.08,0,.11-.03.11-.11,0-.1,0-.2,0-.31.02,0,.03-.02.05-.03.11.12.21.23.32.35.06.07.13.1.22.1,1.05,0,2.1,0,3.15,0,.04,0,.09,0,.14,0v-.42s.05.04.07.05c0,0,.02.02.02.02.09.08.17.17.26.25.05.04.11.08.17.08.4.01.8.01,1.2.02.02,0,.04,0,.07-.01v-.42c.13.11.27.22.39.35.06.06.11.09.2.08,1.1,0,2.2,0,3.3,0,.04,0,.08,0,.12,0,0-.02.02-.02.02-.03,0-.35,0-.7,0-1.05,0-.02,0-.05-.02-.07-.13-.13-.27-.26-.41-.39,0-.02-.02-.03-.03-.05-.04,0-.09-.02-.13-.02-.47,0-.94,0-1.4,0h-.13c0-.5,0-.99,0-1.48,0-.11.03-.14.14-.14.61,0,1.22,0,1.83,0,.05,0,.1,0,.15,0,0-.37,0-.72,0-1.08,0-.02,0-.04-.01-.05-.14-.13-.28-.27-.42-.4-.04-.02-.09-.05-.13-.05-1.11,0-2.22,0-3.33,0-.04,0-.08,0-.14,0v.44s-.02,0-.02,0c-.14-.13-.27-.26-.41-.39-.02-.02-.04-.05-.06-.05-.44,0-.88,0-1.33,0v.43c-.13-.13-.27-.25-.4-.38-.04-.02-.09-.05-.13-.05-1.07,0-2.13,0-3.2,0h-.13v.44c-.15-.14-.3-.28-.45-.43-.36,0-.72,0-1.09-.01-.1,0-.2,0-.31,0v3.19h-.3c0-.05-.02-.11-.02-.16,0-.82,0-1.64,0-2.46,0-.06-.02-.14-.06-.18-.11-.13-.24-.24-.37-.36-.07-.01-.13-.03-.2-.03-.39,0-.79,0-1.2,0v.44s-.02,0-.02,0c-.14-.14-.28-.29-.42-.43-.41,0-.82,0-1.22-.01-.04,0-.08,0-.13,0v.53h-.55c0,.07,0,.12,0,.18-.07-.04-.13-.09-.2-.13-.03-.02-.06-.03-.08-.05-.16-.16-.31-.32-.47-.48-.04-.02-.07-.05-.11-.05-.24,0-.49,0-.73,0h-.56c0,.06,0,.11,0,.15,0,1.23,0,2.45,0,3.68,0,.18,0,.35,0,.53.13.12.25.25.38.36.05.04.13.08.19.08.37,0,.74,0,1.11,0,.04,0,.08,0,.13,0v-1.61s.08.07.11.1c.07.11.17.14.3.13.16-.01.31,0,.47,0,0,.02,0,.03,0,.05,0,.28,0,.57,0,.85,0,.01,0,.02,0,.03.13.13.26.26.39.39.03.03.08.06.12.06.4,0,.8,0,1.2,0,.07,0,.09-.03.08-.09,0-.12,0-.23,0-.35Z" style="fill: rgb(254, 254, 254); stroke-width: 0px;"/>
      <path class="cls-2" d="m25.11,0c.18,0,.35,0,.53,0,.03.02.05.04.08.05.23.02.46.03.69.05.69.08,1.38.15,2.06.26,1.62.27,3.19.72,4.72,1.32,3.78,1.5,6.99,3.8,9.62,6.9,2.17,2.55,3.75,5.44,4.73,8.64.16.53.29,1.07.43,1.61-.07,0-.14.02-.21.02-.66,0-1.32,0-1.99,0-.06,0-.13-.01-.19-.02-.02-.48-.21-.9-.52-1.26-.21-.24-.42-.47-.64-.7-.25-.27-.39-.58-.44-.95-.01-.11-.03-.21-.05-.32h-.17v.14c0,.99,0,1.97,0,2.96,0,.05,0,.09,0,.14-.07,0-.13,0-.2,0-1.04,0-2.08,0-3.12,0-.02,0-.03,0-.05,0-.11,0-.22,0-.33,0h-.57v-.89h3.5v-6.49c-.07-.07-.11-.11-.15-.15,0,0,0,0,0,0-.04-.04-.08-.09-.13-.13-.02-.03-.06-.04-.09-.06-.04-.04-.06-.08-.09-.11-.06-.06-.11-.11-.16-.16h0c-.06-.06-.12-.13-.2-.22-.01,0-.05,0-.08,0,0-.04,0-.08,0-.13h-.11c-3.72,0-7.44,0-11.16,0-.03,0-.07,0-.1,0,0,.04-.02.08-.02.12,0,.19,0,.38,0,.57,0,.03,0,.06-.01.11-.06-.07-.11-.12-.16-.18-.04-.03-.08-.07-.15-.14,0,0,0-.04-.01-.06-.05-.04-.09-.06-.12-.09-.03-.02-.06-.05-.08-.08-.01-.01-.03-.02-.04-.04-.03-.04-.06-.08-.08-.12l-.03.02s-.03-.07-.04-.11c-.03,0-.07,0-.1,0-3.06,0-6.13,0-9.19,0-.03,0-.07,0-.1,0,0,.05-.03.1-.03.15,0,2.68,0,5.35,0,8.03,0,.05,0,.11,0,.16-.17,0-.35,0-.52,0,0-.06,0-.13,0-.19,0-2.36,0-4.72,0-7.08v-.15s-.02,0-.03.01c-.04-.04-.09-.08-.13-.13,0,0,0,0,0,0-.04-.04-.09-.09-.13-.13,0,0,0,0,0,0-.09-.09-.18-.18-.27-.27,0,0,0,0,0,0-.04-.04-.09-.08-.13-.13h0s-.09-.1-.15-.16c0,0-.04,0-.07,0,0-.04,0-.08-.01-.12h-4.34v.14c0,2.38,0,4.76,0,7.14,0,.05,0,.1,0,.15,0-.02-.02-.04-.02-.06-.12-.46-.24-.92-.37-1.38-.44-1.64-.89-3.29-1.32-4.93-.04-.13-.14-.18-.21-.28-.04-.07-.14-.11-.2-.16-.09-.08-.17-.17-.25-.26-.06-.07-.11-.14-.17-.2-.02-.02-.06-.03-.1-.04-.02-.08-.05-.13-.16-.13-1.78,0-3.57,0-5.35,0-.04,0-.07,0-.11,0,0,.06,0,.1,0,.15,0,2.68,0,5.36,0,8.04,0,.05,0,.09,0,.14h-1.61c-.03-.23-.04-.46-.08-.69-.07-.37-.21-.72-.48-1-.29-.3-.64-.31-.96-.04-.12.1-.22.22-.3.35-.27.42-.43.88-.52,1.37-.64,0-1.28,0-1.92,0,0-.03,0-.05,0-.08.24-.99.52-1.96.88-2.91,1.45-3.86,3.73-7.15,6.84-9.87,1.78-1.56,3.75-2.82,5.9-3.8,1.71-.78,3.48-1.36,5.32-1.71.78-.15,1.56-.24,2.35-.34.32-.04.64-.05.96-.08.03,0,.05-.03.08-.05.18,0,.35,0,.53,0,0,0,0,.01,0,.02,0,0,.02-.01.02-.02.52,0,1.05,0,1.57,0,0,0,.02.01.02.02,0,0,0-.01,0-.02Z" style="fill: rgb(254, 254, 254); stroke-width: 0px;"/>
      <path class="cls-29" d="m.63,29.77c-.09-.44-.2-.88-.27-1.33-.11-.71-.19-1.42-.28-2.12-.02-.19-.02-.39-.04-.58,0-.03-.03-.06-.05-.09,0-.16,0-.32,0-.48,0,0,.01,0,.02,0,0,0-.01-.02-.02-.02,0-.56,0-1.11,0-1.67,0,0,.01-.02.02-.02,0,0-.01,0-.02,0,0-.16,0-.32,0-.48.02-.03.04-.05.05-.08.05-.57.08-1.14.16-1.71.12-.78.28-1.56.42-2.34.64,0,1.28,0,1.92,0-.01.19-.03.37-.04.56H.59v2.02h2.22s-.02.05-.04.07c-.18.16-.36.33-.53.49-.51,0-1.01,0-1.52,0-.11,0-.14.02-.14.14,0,.59,0,1.17,0,1.76,0,.04,0,.08,0,.13h.15c-.26.69-.36,1.38-.16,2.1,0,.1-.02.21-.02.31,0,.25-.06.25.25.24.13.18.25.36.38.54h-.6v2.03h1.66c.02.07.04.14.05.2-.19.08-.34.2-.45.37-.03,0-.05-.02-.08-.02-.38,0-.76,0-1.14,0Z" style="fill: rgb(137, 202, 238); stroke-width: 0px;"/>
      <path class="cls-12" d="m48.61,25.65s-.04.07-.05.1c-.02.28-.04.55-.06.83,0,.02-.01.05-.02.07,0,0-.02,0-.03,0,0,0-.02,0-.03,0-.46,0-.93,0-1.39,0-.06,0-.12,0-.18,0-.03,0-.06,0-.1,0,0-.7,0-1.4,0-2.11h1.38c0,.05,0,.09,0,.13-.04.46-.25.86-.43,1.27.1.01.1.01.15-.07.23-.41.41-.85.48-1.32.09-.02.17-.05.25.03v.51s-.01.01-.02.02h.02v.53Z" style="fill: rgb(252, 251, 251); stroke-width: 0px;"/>
      <path class="cls-24" d="m48.48,21.96c.03.3.05.6.08.9,0,.04.03.07.05.1v.53s-.01,0-.02,0c0,0,.01.02.02.02v.43c-.08.01-.15.03-.23.04-.09-.48-.33-.88-.66-1.23-.12-.13-.25-.26-.37-.4-.11-.13-.21-.26-.31-.39.03,0,.06-.02.08-.02.45,0,.91,0,1.36,0Z" style="fill: rgb(251, 250, 250); stroke-width: 0px;"/>
      <path class="cls-8" d="m48.38,23.99c.08-.01.15-.03.23-.04v.63c-.07-.08-.16-.05-.25-.03,0-.19.01-.37.02-.56Z" style="fill: rgb(184, 150, 197); stroke-width: 0px;"/>
      <path class="cls-7" d="m25.11,0s0,.01,0,.02c0,0-.02-.01-.02-.02,0,0,.02,0,.03,0Z" style="fill: rgb(2, 2, 2); stroke-width: 0px;"/>
      <path class="cls-7" d="m23.52,0s-.02.01-.02.02c0,0,0-.01,0-.02,0,0,.02,0,.03,0Z" style="fill: rgb(2, 2, 2); stroke-width: 0px;"/>
      <path class="cls-7" d="m0,25.14s.01.02.02.02c0,0-.01,0-.02,0,0,0,0-.02,0-.03Z" style="fill: rgb(2, 2, 2); stroke-width: 0px;"/>
      <path class="cls-7" d="m48.61,25.11h-.02s.01-.02.02-.03v.03Z" style="fill: rgb(2, 2, 2); stroke-width: 0px;"/>
      <path class="cls-7" d="m48.61,23.52s-.01-.02-.02-.02c0,0,.01,0,.02,0v.03Z" style="fill: rgb(2, 2, 2); stroke-width: 0px;"/>
      <path class="cls-7" d="m0,23.44s.01,0,.02,0c0,0-.01.02-.02.02,0,0,0-.02,0-.03Z" style="fill: rgb(2, 2, 2); stroke-width: 0px;"/>
      <path class="cls-7" d="m23.49,48.61s0-.01,0-.02c0,0,.02.01.02.02h-.03Z" style="fill: rgb(2, 2, 2); stroke-width: 0px;"/>
      <path class="cls-18" d="m20.58,10.51s.07,0,.1,0c3.06,0,6.13,0,9.19,0,.03,0,.07,0,.1,0,0,2.09,0,4.19,0,6.29h-5.08v1.49c.06,0,.1,0,.15,0,1.29,0,2.57,0,3.86,0,.05,0,.1,0,.15,0,0,.04,0,.08,0,.12,0,.05,0,.1,0,.15,0,1.69,0,3.38,0,5.06v.15h-4.17v.16c0,1.89,0,3.77,0,5.66,0,.05,0,.1-.01.15-.05,0-.09,0-.14,0-1.31,0-2.61,0-3.92,0-.07,0-.14,0-.21,0,0,0-.02,0-.02-.01,0-.82,0-1.63,0-2.45,0-.22,0-.44,0-.66,0-.01,0-.02,0-.03,0-.05,0-.09,0-.14,0-.61,0-1.22,0-1.83,0-.22,0-.44,0-.65,0-.01,0-.03,0-.04,0-.26,0-.51,0-.77,0-.4,0-.79,0-1.19,0-.01,0-.02,0-.04,0-.05,0-.1,0-.15,0-3.65,0-7.31,0-10.96,0-.11,0-.23,0-.34Z" style="fill: rgb(2, 1, 2); stroke-width: 0px;"/>
      <path class="cls-10" d="m42.11,10.63s.07,0,.08,0c.07.08.14.15.2.22h0s.1.09.16.15c.02.03.05.08.09.11.03.03.07.04.09.06.04.04.08.09.13.13,0,0,0,0,0,0,.04.04.09.09.15.15v6.49h-3.5v.89c.19,0,.38,0,.57,0,.07.08.26.08.33,0,.02,0,.03,0,.05,0,.02.1.04.2.05.3.01.09-.02.14-.13.13-.07,0-.15-.02-.22-.02-.08,0-.15,0-.16.11h-.5v2.03h2.5c-.06.19-.07.37.03.55-.84,0-1.68,0-2.53,0v2.01s.03.01.04.01c.75,0,1.5,0,2.25,0,.03,0,.07-.03.1-.04,0,.21,0,.41,0,.62-.05-.01-.09-.04-.14-.04-.71,0-1.43,0-2.14,0-.04,0-.07,0-.13,0v.14c0,.6,0,1.2,0,1.8,0,.17,0,.17.18.17.29,0,.58-.01.87-.02.4,0,.8,0,1.2,0,.05,0,.1-.01.15-.02,0,.2,0,.4,0,.6-.04,0-.08-.02-.12-.02-.72,0-1.44,0-2.16,0-.04,0-.07,0-.11,0v2.01h.67c-.09.17-.13.36-.09.56h-.59v.9h-4.32s-.01-.08-.02-.12c-.03,0-.07-.02-.1-.03l.02-.02s-.08-.09-.11-.11c-.07-.06-.11-.11-.15-.15,0,0,0,0,0,0-.04-.04-.09-.08-.13-.12,0,0-.02.02-.03.03-.02-.07-.02-.17-.1-.14-.08-.08-.14-.15-.22-.23,0,0-.05-.01-.09-.02,0,0,0,0,.01-.01.03,0,.05,0,.08,0,1.39,0,2.78,0,4.16,0,.02,0,.05,0,.09-.01v-12.7h3.52v-.15c0-2.04,0-4.08,0-6.11,0-.05,0-.1,0-.15Z" style="fill: rgb(180, 158, 203); stroke-width: 0px;"/>
      <path class="cls-15" d="m2.51,19.39c.01-.19.03-.37.04-.56.09-.49.25-.95.52-1.37.08-.13.19-.25.3-.35.31-.28.66-.26.96.04.27.28.41.63.48,1,.04.23.06.46.08.69,0,.19-.02.37-.03.56-.05.22-.09.44-.15.66-.12.48-.35.93-.59,1.36-.13.19-.25.37-.38.56-.12.15-.24.3-.36.45-.02.03-.03.08-.02.12.05.26.11.53.17.79.05.21.09.41.13.59.29.03.55.06.81.08.33.12.62.31.87.55.19.21.37.43.46.71.15.46.11.91-.02,1.36-.08.19-.16.37-.24.56-.25.39-.56.71-.99.9.09.38.17.76.26,1.13.03.18.06.36.09.54,0,.01,0,.03,0,.04,0,0,0,0,0,0,0,0,0,.01,0,.02-.03.25-.02.51-.08.75-.18.65-.64,1-1.3,1.11-.81.13-1.55-.34-1.76-1.13-.07-.27-.05-.52.09-.77.12-.17.27-.29.45-.37.41-.11.75,0,1.01.35.02.04.04.08.06.12.24.5-.05,1.1-.59,1.23-.09.02-.19.02-.28.03l-.02.04c.11.06.21.14.33.16.17.04.35.06.52.05.59-.02.94-.29,1.12-.83.09-.26.11-.53.09-.81-.03-.19-.06-.37-.09-.56-.07-.34-.14-.68-.21-1.03-.63.15-1.23.1-1.82-.13-.48-.19-.89-.49-1.24-.86-.13-.18-.25-.36-.38-.54-.08-.18-.15-.37-.23-.55-.2-.72-.11-1.42.16-2.1.15-.26.28-.53.44-.79.29-.46.68-.85,1.06-1.23.18-.16.36-.32.53-.49.02-.02.02-.05.04-.07,0-.02,0-.03,0-.05-.14-.65-.29-1.3-.3-1.97Zm1.86,7.8c.04.17.07.33.11.5.24-.12.44-.3.55-.51.07-.19.13-.37.2-.56.24-.85-.54-1.81-1.33-1.66.02.1.04.21.07.31.1.45.2.9.3,1.35.04.19.08.37.12.56Zm.05-8.36c-.01-.19,0-.39-.05-.57-.06-.27-.2-.33-.46-.23-.04.02-.09.04-.12.06-.3.18-.51.43-.65.75-.06.19-.12.37-.19.56-.14.52-.03,1.33.13,1.81.22-.22.45-.43.65-.66.28-.33.45-.73.57-1.15l.12-.56Zm-2.45,5.16c-.15.18-.29.36-.44.54-.41.69-.38,1.4-.05,2.11.13.19.26.38.39.57.64.75,1.78.84,2.3.6-.05-.21-.1-.41-.14-.62-.04-.2-.08-.4-.13-.6-.11-.53-.22-1.06-.33-1.6-.32.08-.55.25-.69.53-.18.36-.19.74-.08,1.12.1.26.31.41.51.57.03.02.06.04.08.06,0,0-.02.02-.02.03-.1-.04-.2-.07-.3-.11-.28-.14-.54-.31-.74-.55-.33-.44-.39-.93-.17-1.43.1-.24.28-.44.42-.66.22-.2.46-.37.73-.48.02,0,.02-.04.03-.06-.08-.41-.17-.81-.26-1.24-.14.15-.26.28-.38.42-.25.27-.5.55-.75.82Z" style="fill: rgb(7, 8, 9); stroke-width: 0px;"/>
      <path class="cls-4" d="m19.11,10.63s.07,0,.07,0c.06.06.11.11.15.16h0s.09.09.13.13c0,0,0,0,0,0,.09.09.18.18.27.27,0,0,0,0,0,0,.04.04.09.09.13.13,0,0,0,0,0,0,.04.04.09.08.13.13,0,0,.02,0,.03-.01v.15c0,2.36,0,4.72,0,7.08,0,.06,0,.13,0,.19,0,.18,0,.36,0,.54,0,.68,0,1.35,0,2.03,0,.18,0,.35,0,.53,0,.68,0,1.36,0,2.04,0,.18,0,.36,0,.54,0,.71,0,1.41,0,2.12,0,.18,0,.36,0,.54,0,.67,0,1.35,0,2.02,0,.18,0,.36,0,.54v.93h-.16c-1.7,0-3.41,0-5.11,0-.08,0-.16.01-.2-.1-.03-.07-.13-.12-.2-.18-.07-.07-.12-.14-.18-.21-.04-.04-.08-.08-.13-.12-.14-.1-.21-.27-.38-.32,0,0,0,0,0,0,.04,0,.08,0,.11,0,1.74,0,3.48,0,5.21,0,.03,0,.07,0,.11,0v-.17c0-6.26,0-12.51,0-18.77,0-.06,0-.12,0-.18Z" style="fill: rgb(180, 159, 204); stroke-width: 0px;"/>
      <path class="cls-10" d="m24.88,29.76s.01-.1.01-.15c0-1.89,0-3.77,0-5.66v-.16h4.17v-.15c0-1.69,0-3.38,0-5.06,0-.05,0-.1,0-.15.04,0,.07,0,.12.01-.03.11.04.12.1.15.04.04.09.08.13.13,0,0,.01-.01.02-.02,0,.04.02.07.02.09.06.03.1.05.14.07.04.04.08.08.11.12.06.07.09.18.17.21.12.05.1.13.1.21,0,.67,0,1.35,0,2.02,0,.18,0,.36,0,.54,0,.68,0,1.36,0,2.04,0,.18,0,.36,0,.54v.17h-4.15c0,.66,0,1.3,0,1.94,0,.18,0,.36,0,.53,0,.68,0,1.35,0,2.03,0,.18,0,.36,0,.53,0,.27,0,.54,0,.81,0,.08-.02.12-.11.12-1.38,0-2.76,0-4.15,0-.02,0-.03,0-.01,0-.11-.12-.2-.21-.29-.31,0,0,0,0,0,0-.04-.04-.09-.09-.13-.13,0,0,0,0,0,0-.04-.03-.08-.06-.11-.09-.03-.03-.05-.07-.08-.12-.06,0-.13-.02-.1-.13-.11.01-.14-.04-.14-.12.05,0,.11,0,.16,0,1.29,0,2.58,0,3.87,0,.04,0,.09,0,.13-.01Z" style="fill: rgb(180, 158, 203); stroke-width: 0px;"/>
      <path class="cls-18" d="m9.21,35.24s0-.03,0-.05c0-.3,0-.6,0-.91h-.25v.47h-.86v-.47h-.21v1.84h-1.39c0-.18,0-.35,0-.53,0-1.23,0-2.45,0-3.68,0-.05,0-.09,0-.15h.56c.24,0,.49,0,.73,0,.04,0,.07.03.11.05,0,.16,0,.32,0,.48h.47s.06.03.08.05c0,.15,0,.29,0,.44h.2v-.48h.55v-.53c.05,0,.09,0,.13,0,.41,0,.82,0,1.22.01,0,1.45,0,2.9,0,4.35h-1.34s0-.02,0-.03c0-.28,0-.57,0-.85Z" style="fill: rgb(2, 1, 2); stroke-width: 0px;"/>
      <path class="cls-17" d="m31.44,31.77s.08,0,.13,0c1.03,0,2.06,0,3.08,0,.05,0,.09.03.14.05,0,.04,0,.08,0,.11,0,1.36,0,2.73,0,4.09,0,.03,0,.07,0,.1-.02,0-.05.01-.07.01-.45,0-.91,0-1.36,0,0-.24,0-.49,0-.73,0-.14,0-.28,0-.43h-.48v1.16h-1.42v-4.35Zm1.45,1.02v1.1h.44v-1.1h-.44Z" style="fill: rgb(3, 3, 4); stroke-width: 0px;"/>
      <path class="cls-18" d="m15.01,32.2v-.44h.13c1.07,0,2.13,0,3.2,0,.04,0,.09.03.13.05,0,.36,0,.73,0,1.1h-2.03v.45h2.02s0,.03,0,.04v2.71h-3.44v-1.14h2.01v-.44h-1.98s-.03,0-.04,0c0-.78,0-1.55,0-2.33Z" style="fill: rgb(2, 1, 2); stroke-width: 0px;"/>
      <path class="cls-17" d="m29.27,33.34h.32v-1.57c.4,0,.79,0,1.18,0,.05,0,.11,0,.16,0,.02,0,.04.03.06.05,0,.05,0,.1,0,.15,0,1.34,0,2.68,0,4.02,0,.04,0,.09,0,.14h-1.39c0-.38,0-.76,0-1.14,0-.15,0-.29,0-.43h-.76v1.56h-1.38c0-.25,0-.51,0-.76,0-1.15,0-2.3,0-3.45v-.15c.18,0,.36,0,.53,0,.25,0,.51,0,.76,0,.04,0,.07.03.11.05,0,.51,0,1.02,0,1.52h.43Z" style="fill: rgb(3, 3, 4); stroke-width: 0px;"/>
      <path class="cls-17" d="m11.01,32.2c0-.14,0-.28,0-.44.41,0,.81,0,1.2,0,.07,0,.13.02.2.03,0,.02,0,.04,0,.06,0,1.01,0,2.02,0,3.02,0,.02,0,.05,0,.08h.75v-3.19c.11,0,.21,0,.31,0,.36,0,.72,0,1.09.01,0,1.45,0,2.9,0,4.35-.06,0-.11,0-.15,0-.84,0-1.68,0-2.52,0-.29,0-.58,0-.87,0h0c0-1.2,0-2.4,0-3.61,0-.1,0-.21,0-.31Z" style="fill: rgb(3, 3, 4); stroke-width: 0px;"/>
      <path class="cls-19" d="m11.77,29.75c0,.27,0,.54,0,.81,0,.08-.02.12-.11.12-1.4,0-2.79,0-4.19,0,0,0-.02,0,0,0-.06-.06-.1-.11-.15-.16-.03-.06-.03-.14-.1-.13-.07-.05-.12-.08-.15-.12-.03-.03-.04-.07-.06-.11-.02,0-.06-.01-.1-.02,0,0,.01-.01.02-.02l-.13-.13s0,0,0,0c-.06-.06-.12-.13-.2-.21,0,0-.04,0-.08,0,0,0,0-.01,0-.02.03,0,.06,0,.09,0,1.39,0,2.78,0,4.16,0,.02,0,.05,0,.08,0v-9.55c.1-.04.13.01.15.09.13.47.27.93.4,1.4.13.46.25.92.38,1.38,0,.24-.01.48-.02.71,0,.07.01.15.02.22,0,.18,0,.35,0,.53,0,.71,0,1.42,0,2.12,0,.18,0,.36,0,.53,0,.68,0,1.35,0,2.03,0,.18,0,.36,0,.53Z" style="fill: rgb(179, 157, 203); stroke-width: 0px;"/>
      <path class="cls-17" d="m24.25,34.98s.02.03.03.05c0,.36,0,.72,0,1.09-.05,0-.08,0-.12,0-1.12,0-2.24,0-3.36,0-.04,0-.08,0-.11,0h0c0-1.26,0-2.52,0-3.78,0-.05,0-.09,0-.14v-.44c.06,0,.1,0,.14,0,1.11,0,2.22,0,3.33,0,.04,0,.09.03.13.05,0,.36,0,.72,0,1.1h-2.14v2.07h2.11Z" style="fill: rgb(3, 3, 4); stroke-width: 0px;"/>
      <path class="cls-19" d="m11.02,36.12c.29,0,.58,0,.87,0,.84,0,1.68,0,2.52,0,.05,0,.09,0,.15,0,0-1.46,0-2.9,0-4.35.15.14.3.28.45.43,0,.78,0,1.55,0,2.33,0,.14,0,.28,0,.42h.43c-.13-.15-.26-.28-.38-.41h1.98v.44h-2.01v1.14h3.44c0-.9,0-1.8,0-2.71.13.13.27.25.4.38v2.33h1.39v-.02s0-.06,0-.09c0-1.31,0-2.62,0-3.93,0-.03,0-.06,0-.09v-.1s0-.06,0-.08c.14.13.27.26.41.39,0,1.26,0,2.52,0,3.78,0,.05.02.09.03.14,0,0,0,0,0,0,0,0,0,.02,0,.03v.42s-.05.01-.07.01c-.4,0-.8,0-1.2-.02-.06,0-.12-.04-.17-.08-.09-.08-.17-.17-.26-.25,0,0-.02-.02-.02-.02-.02-.01-.04-.03-.07-.05v.42c-.05,0-.1,0-.14,0-1.05,0-2.1,0-3.15,0-.09,0-.16-.03-.22-.1-.1-.12-.21-.23-.32-.35-.02,0-.03.02-.05.03,0,.1,0,.2,0,.31,0,.08-.02.11-.11.11-1.12,0-2.24,0-3.35,0-.05,0-.11-.04-.15-.08-.13-.12-.26-.25-.39-.37Z" style="fill: rgb(179, 157, 203); stroke-width: 0px;"/>
      <path class="cls-18" d="m42.1,34.99s0,.03.01.05c0,.36,0,.73,0,1.09h-3.27c0-.27,0-.54,0-.8,0-1.13,0-2.27,0-3.4,0-.05,0-.09,0-.15h.53c.25,0,.51,0,.76,0,.04,0,.07.03.11.05,0,.02,0,.04,0,.06,0,1.01,0,2.02,0,3.02,0,.02,0,.05,0,.08h1.86Z" style="fill: rgb(2, 1, 2); stroke-width: 0px;"/>
      <path class="cls-17" d="m35.26,36.14s-.03,0-.04-.01c0-1.29,0-2.58,0-3.87,0-.02,0-.03,0-.05v-.44c.42,0,.82,0,1.23,0,.06,0,.12.02.18.03,0,.03,0,.05,0,.08,0,1.01,0,2.01,0,3.02,0,.03,0,.06,0,.1h1.86s0,.02.01.02v1.12c-.06,0-.11,0-.16,0-.98,0-1.96,0-2.94,0-.05,0-.09,0-.14,0Z" style="fill: rgb(3, 3, 4); stroke-width: 0px;"/>
      <path class="cls-15" d="m20.25,32s0,.06,0,.09c0,1.31,0,2.62,0,3.93,0,.03,0,.06,0,.09,0,0,0,.01,0,.02h-1.39v-2.33c0-.15,0-.3,0-.45,0-.38,0-.77,0-1.15v-.43c.46,0,.89,0,1.33,0,.02,0,.04.03.06.05,0,.03,0,.06,0,.08,0,.03,0,.07,0,.1Z" style="fill: rgb(7, 8, 9); stroke-width: 0px;"/>
      <path class="cls-15" d="m41.89,24.58c0-.21,0-.41,0-.62v-.43h.16c.03.16.05.31.08.47.07.18.15.36.22.55.05.06.09.13.14.19.18.2.36.4.54.6.35.38.61.8.66,1.32-.01.18-.02.36-.03.54,0,.01-.01.02-.01.03-.08.43-.25.83-.47,1.22-.03.06-.07.11-.15.06.06-.12.11-.24.16-.36.13-.31.25-.61.27-.95,0-.19-.02-.37-.03-.56-.11-.54-.42-.94-.92-1.18-.14-.07-.3-.09-.45-.13,0,.04-.02.07-.02.11,0,1.27,0,2.54,0,3.81-.1.17-.19.34-.29.51-.24.22-.52.37-.84.42-.38.06-.68-.08-.84-.4-.04-.2,0-.38.09-.56.19-.29.45-.49.77-.62.3-.12.61-.12.91.02.01,0,.02.02.03.02,0,0,0-.02.01-.03,0-.47,0-.94,0-1.4,0-.2,0-.4,0-.6,0-.68,0-1.36,0-2.04Z" style="fill: rgb(7, 8, 9); stroke-width: 0px;"/>
      <path class="cls-5" d="m25.82,29.75c0-.18,0-.36,0-.53,2.72,0,5.45,0,8.17,0,.08,0,.17,0,.25,0,0,.18,0,.36,0,.53,0,0,0,0-.01.01-.03,0-.06,0-.09,0-2.78,0-5.55,0-8.33,0Z" style="fill: rgb(177, 167, 210); stroke-width: 0px;"/>
      <path class="cls-19" d="m35.26,36.14s.09,0,.14,0c.98,0,1.96,0,2.94,0,.05,0,.09,0,.16,0v-1.12c.11.1.23.2.34.3v.8h3.27c0-.36,0-.72,0-1.09.13.13.27.25.4.38.02.02.03.05.03.08,0,.35,0,.71,0,1.08-.05,0-.09,0-.13,0-1,0-2.01,0-3.01,0-.06,0-.13-.03-.17-.07-.09-.08-.18-.17-.29-.29,0,.1,0,.17,0,.25,0,.09-.03.12-.12.12-.2,0-.4,0-.61,0-.8,0-1.6,0-2.4,0-.09,0-.15-.02-.21-.09-.11-.12-.22-.24-.34-.35Z" style="fill: rgb(179, 157, 203); stroke-width: 0px;"/>
      <path class="cls-3" d="m41.76,29.75c.1-.17.19-.34.29-.51,0,0,.02-.02.02-.02,2.01,0,4.02,0,6.02,0-.04.19-.08.37-.12.56-.05,0-.1-.02-.15-.02-1.98,0-3.96,0-5.93,0-.05,0-.09,0-.14,0Z" style="fill: rgb(183, 152, 199); stroke-width: 0px;"/>
      <path class="cls-25" d="m29.6,36.13h1.39c0-.05,0-.1,0-.14,0-1.34,0-2.68,0-4.02,0-.05,0-.1,0-.15.14.12.27.25.41.38.01-.14.02-.28.03-.42,0,1.45,0,2.89,0,4.35.48,0,.95,0,1.42,0-.04,0-.09.03-.13.03-.41,0-.82,0-1.22,0-.07-.01-.09,0-.09.08,0,.11,0,.22,0,.33-.05,0-.1,0-.14,0-.38,0-.75,0-1.13,0-.06,0-.13-.03-.17-.07-.13-.12-.26-.25-.38-.38Z" style="fill: rgb(178, 156, 200); stroke-width: 0px;"/>
      <path class="cls-25" d="m9.22,36.13h1.34c0-1.45,0-2.9,0-4.35.14.14.28.29.42.43,0,1.25,0,2.51,0,3.76,0,.05,0,.11,0,.16,0,.12,0,.24,0,.35,0,.07-.01.09-.08.09-.4,0-.8,0-1.2,0-.04,0-.08-.03-.12-.06-.13-.13-.26-.26-.39-.39Z" style="fill: rgb(178, 156, 200); stroke-width: 0px;"/>
      <path class="cls-19" d="m24.25,34.98h-2.11v-2.07h2.14c0-.38,0-.74,0-1.1.14.13.28.27.42.4.01,0,.01.03.01.05,0,.35,0,.71,0,1.08-.06,0-.11,0-.15,0-.61,0-1.22,0-1.83,0-.11,0-.14.02-.14.14,0,.49,0,.98,0,1.48h.13c.47,0,.94,0,1.4,0,.04,0,.09.01.13.02Z" style="fill: rgb(179, 157, 203); stroke-width: 0px;"/>
      <path class="cls-10" d="m20.68,36.15s0-.02,0-.03c.04,0,.08,0,.11,0,1.12,0,2.24,0,3.36,0,.03,0,.07,0,.12,0,0-.37,0-.73,0-1.09.14.13.27.26.41.39.02.01.02.05.02.07,0,.35,0,.7,0,1.05,0,0,0,.01-.02.03-.04,0-.08,0-.12,0-1.1,0-2.2,0-3.3,0-.08,0-.14-.02-.2-.08-.12-.12-.26-.23-.39-.35Z" style="fill: rgb(180, 158, 203); stroke-width: 0px;"/>
      <path class="cls-10" d="m6.51,36.13h1.39v-1.84h.21v.47h.86v-.47h.25c0,.31,0,.61,0,.91-.16,0-.31-.01-.47,0-.13,0-.23-.02-.3-.13-.02-.03-.06-.06-.11-.1v1.61c-.05,0-.09,0-.13,0-.37,0-.74,0-1.11,0-.07,0-.14-.04-.19-.08-.13-.11-.25-.24-.38-.36Z" style="fill: rgb(180, 158, 203); stroke-width: 0px;"/>
      <path class="cls-10" d="m27.45,36.13h1.38v-1.56h.76c0,.14,0,.28,0,.43-.1,0-.2,0-.32,0v1.58c-.05,0-.09,0-.13,0-.38,0-.76,0-1.14,0-.06,0-.13-.03-.17-.07-.13-.12-.26-.25-.38-.38Z" style="fill: rgb(180, 158, 203); stroke-width: 0px;"/>
      <path class="cls-10" d="m18.86,32.2c0,.38,0,.77,0,1.15-.14,0-.27.02-.41.02h-2.02v-.45h2.03c0-.37,0-.74,0-1.1.13.13.27.25.4.38Z" style="fill: rgb(180, 158, 203); stroke-width: 0px;"/>
      <path class="cls-19" d="m35.21,32.2s0,.03,0,.05c0,1.29,0,2.58,0,3.87,0,.11,0,.23,0,.34,0,.08-.02.11-.11.11-.41,0-.82,0-1.23,0-.04,0-.09-.03-.12-.05-.1-.09-.19-.2-.29-.3.04-.02.08-.05.12-.05.36,0,.72,0,1.08,0,.04,0,.07-.04.11-.06,0-.03,0-.07,0-.1,0-1.36,0-2.73,0-4.09,0-.04,0-.08,0-.11.12.11.24.23.36.34.02.02.05.03.07.05Zm-.3-.06v.16c0,1.24,0,2.49,0,3.73,0,.17-.04.21-.22.22-.29,0-.57,0-.86,0-.04,0-.09.02-.12.02.04.06.08.1.11.15.05.11.14.11.24.11.29,0,.58,0,.87,0,.12,0,.15-.04.15-.15,0-1.17,0-2.34,0-3.52,0-.17,0-.34,0-.51,0-.1-.03-.18-.18-.22Z" style="fill: rgb(179, 157, 203); stroke-width: 0px;"/>
      <path class="cls-19" d="m38.48,34.99h-1.86s0-.07,0-.1c0-1.01,0-2.01,0-3.02,0-.03,0-.05,0-.08.12.12.25.23.37.36.04.04.06.11.06.17,0,.79,0,1.58,0,2.38v.26c.36,0,.71,0,1.05,0,.13,0,.26.01.38.02Z" style="fill: rgb(179, 157, 203); stroke-width: 0px;"/>
      <path class="cls-10" d="m42.1,34.99h-1.86s0-.06,0-.08c0-1.01,0-2.02,0-3.02,0-.02,0-.04,0-.06.14.13.28.26.41.4.02.02.01.08.01.12,0,.82,0,1.64,0,2.45v.16c.05,0,.1,0,.14,0,.39,0,.78,0,1.16,0,.04,0,.09.01.13.02Z" style="fill: rgb(180, 158, 203); stroke-width: 0px;"/>
      <path class="cls-19" d="m12.86,34.96h-.45s0-.05,0-.08c0-1.01,0-2.02,0-3.02,0-.02,0-.04,0-.06.12.12.25.23.37.36.04.04.06.12.06.18,0,.82,0,1.64,0,2.46,0,.05.01.11.02.16Z" style="fill: rgb(179, 157, 203); stroke-width: 0px;"/>
      <path class="cls-4" d="m31.5,36.16c.41,0,.82,0,1.22,0,.04,0,.09-.02.13-.03,0-.38,0-.77,0-1.16h.48c0,.14,0,.28,0,.43-.02.04-.04.08-.04.13,0,.35,0,.69,0,1.05-.04,0-.08,0-.12,0-.4,0-.79,0-1.19,0-.05,0-.12-.03-.15-.06-.12-.11-.22-.24-.33-.36Z" style="fill: rgb(180, 159, 204); stroke-width: 0px;"/>
      <path class="cls-13" d="m11.77,29.75c0-.18,0-.36,0-.53.58,0,1.16,0,1.74,0,.05.18.1.36.16.53,0,0,0,0,0,0-.63,0-1.26,0-1.89,0Z" style="fill: rgb(155, 187, 226); stroke-width: 0px;"/>
      <path class="cls-14" d="m6.51,29.75s0,.01,0,.02c-.47,0-.94,0-1.41,0-.07,0-.13,0-.2-.01-.03-.18-.06-.36-.09-.54.56,0,1.13,0,1.69,0,0,.18,0,.36,0,.53Z" style="fill: rgb(146, 196, 233); stroke-width: 0px;"/>
      <path class="cls-4" d="m29.27,33.34h-.43c0-.51,0-1.01,0-1.52.14.13.28.26.41.4.02.02.02.07.02.11,0,.34,0,.68,0,1.02Z" style="fill: rgb(180, 159, 204); stroke-width: 0px;"/>
      <path class="cls-1" d="m20.03,29.75c0-.18,0-.36,0-.54.18,0,.35,0,.53,0,0,.18,0,.36,0,.54-.18,0-.35,0-.53,0Z" style="fill: rgb(167, 179, 219); stroke-width: 0px;"/>
      <path class="cls-19" d="m8.37,32.3h-.47c0-.16,0-.32,0-.48.16.16.31.32.47.48Z" style="fill: rgb(179, 157, 203); stroke-width: 0px;"/>
      <path class="cls-11" d="m24.88,29.76s-.09.01-.13.01c-1.29,0-2.58,0-3.87,0-.05,0-.11,0-.16,0-.03,0-.07-.01-.1-.02.07,0,.14,0,.21,0,1.31,0,2.61,0,3.92,0,.05,0,.09,0,.14,0Z" style="fill: rgb(159, 160, 186); stroke-width: 0px;"/>
      <path class="cls-28" d="m10.99,36.13c0-.05,0-.11,0-.16,0-1.25,0-2.51,0-3.76,0,0,.02,0,.02,0,0,.1,0,.21,0,.31,0,1.2,0,2.41,0,3.61,0,0-.01,0-.02,0Z" style="fill: rgb(214, 197, 225); stroke-width: 0px;"/>
      <path class="cls-10" d="m20.69,36.12s-.03-.09-.03-.14c0-1.26,0-2.52,0-3.78,0,0,.02,0,.02,0,0,.05,0,.09,0,.14,0,1.26,0,2.52,0,3.78Z" style="fill: rgb(180, 158, 203); stroke-width: 0px;"/>
      <path class="cls-11" d="m20.56,29.75c0-.18,0-.36,0-.54,0-.67,0-1.35,0-2.02,0-.18,0-.36,0-.54,0,0,.01,0,.02,0,0,.22,0,.44,0,.66,0,.82,0,1.63,0,2.45,0,0-.02,0-.02,0Z" style="fill: rgb(159, 160, 186); stroke-width: 0px;"/>
      <path class="cls-4" d="m8.65,32.48v.3h-.2c0-.15,0-.29,0-.44.07.04.13.09.2.13Z" style="fill: rgb(180, 159, 204); stroke-width: 0px;"/>
      <path class="cls-4" d="m34.78,36.12s-.07.06-.11.06c-.36,0-.72,0-1.08,0-.04,0-.08.03-.12.05-.04-.03-.08-.07-.12-.1.45,0,.91,0,1.36,0,.02,0,.05,0,.07-.01Z" style="fill: rgb(180, 159, 204); stroke-width: 0px;"/>
      <path class="cls-10" d="m9.21,35.24c0,.28,0,.57,0,.85,0-.28,0-.57,0-.85Z" style="fill: rgb(180, 158, 203); stroke-width: 0px;"/>
      <path class="cls-14" d="m4.9,29.83s0-.01,0-.02c0,0,0,0,0,0,0,0,0,.01,0,.02,0,0,0,0,0,0Z" style="fill: rgb(146, 196, 233); stroke-width: 0px;"/>
      <path class="cls-4" d="m18.96,36.2s.02.02.02.02c0,0-.02-.02-.02-.02Z" style="fill: rgb(180, 159, 204); stroke-width: 0px;"/>
      <path class="cls-18" d="m6.51,29.75c0-.18,0-.36,0-.53,0-.67,0-1.35,0-2.02,0-.19,0-.37,0-.56,0-.7,0-1.4,0-2.1,0-.18,0-.36,0-.54,0-.67,0-1.35,0-2.02,0-.19,0-.37,0-.56v-2.02c0-.19,0-.37,0-.56,0-.05,0-.09,0-.14,0-2.68,0-5.36,0-8.04,0-.05,0-.09,0-.15.04,0,.07,0,.11,0,1.78,0,3.57,0,5.35,0,.11,0,.13.05.16.13,0,.03.01.07.02.1.44,1.64.88,3.29,1.32,4.93.39,1.44.78,2.88,1.16,4.32.02.09.06.11.13.08,0-.71,0-1.41,0-2.12,0-.05,0-.1,0-.15,0-2.38,0-4.76,0-7.14v-.14h4.34s0,.08.01.12c0,.06,0,.12,0,.18,0,6.26,0,12.51,0,18.77v.17s-.08,0-.11,0c-1.74,0-3.48,0-5.21,0-.04,0-.08,0-.11,0-.05-.18-.1-.36-.16-.53-.03-.12-.06-.24-.1-.36-.16-.55-.32-1.11-.48-1.66-.05-.18-.1-.36-.15-.54,0-.02,0-.03,0-.05-.2-.69-.39-1.38-.59-2.06-.05-.18-.11-.36-.16-.55-.09-.31-.18-.62-.26-.93-.13-.46-.25-.92-.38-1.38-.13-.47-.27-.93-.4-1.4-.02-.07-.04-.13-.15-.09v9.55s-.06,0-.08,0c-1.39,0-2.78,0-4.16,0-.03,0-.06,0-.09,0Z" style="fill: rgb(2, 1, 2); stroke-width: 0px;"/>
      <path class="cls-18" d="m34.25,29.75c0-.18,0-.36,0-.53,0-.66,0-1.31,0-1.97,0-.02-.01-.04-.02-.05,0-.18,0-.36,0-.53,0-.03.03-.06.03-.09,0-.68,0-1.35,0-2.03,0-.18,0-.36,0-.54,0-.68,0-1.36,0-2.04,0-.18,0-.36,0-.54,0-.67,0-1.35,0-2.02,0-.18,0-.36,0-.54,0-.29,0-.58,0-.88v-.93h-3.52c0-.82,0-1.62,0-2.42,0-1.37,0-2.74,0-4.11.03,0,.07,0,.1,0,3.72,0,7.44,0,11.16,0h.11s0,.09,0,.13c0,.05,0,.1,0,.15,0,2.04,0,4.08,0,6.11v.15h-3.52v12.7s-.06.01-.09.01c-1.39,0-2.78,0-4.16,0-.03,0-.05,0-.08,0Z" style="fill: rgb(2, 1, 2); stroke-width: 0px;"/>
      <path class="cls-25" d="m30.73,10.51c0,1.37,0,2.74,0,4.11,0,.8,0,1.6,0,2.42h3.52c0,.32,0,.63,0,.93-.86,0-1.73,0-2.61,0,.04-.14-.04-.15-.09-.16-.08-.09-.14-.15-.2-.22,0,0,0,0,0,0l-.13-.13s0,0,0,0l-.13-.13s0,0,0,0c-.05-.05-.09-.1-.16-.18v.56h-5.09v.55h.14c.99,0,1.97,0,2.96,0,.05,0,.09.02.14.03-.05,0-.1,0-.15,0-1.29,0-2.57,0-3.86,0-.05,0-.1,0-.15,0v-1.49h5.08c0-2.11,0-4.2,0-6.29.01.04.03.07.04.11l.03-.02s.05.08.08.12c.01.01.03.03.04.04.03.03.06.05.08.08.03.03.07.05.12.09,0,.01,0,.05.01.06.07.06.11.1.15.14.06.06.1.11.16.18,0-.04.01-.07.01-.11,0-.19,0-.38,0-.57,0-.04.01-.08.02-.12Z" style="fill: rgb(178, 156, 200); stroke-width: 0px;"/>
      <path class="cls-10" d="m14.76,17.95v2.12c-.08.03-.11,0-.13-.08-.38-1.44-.77-2.88-1.16-4.32-.44-1.64-.88-3.29-1.32-4.93,0-.03-.01-.07-.02-.1.03.01.07.02.1.04.06.06.11.14.17.2.08.09.16.18.25.26.06.06.16.09.2.16.06.1.17.15.21.28.43,1.65.88,3.29,1.32,4.93.12.46.24.92.37,1.38,0,.02.02.04.02.06Z" style="fill: rgb(180, 158, 203); stroke-width: 0px;"/>
      <path class="cls-21" d="m42.03,21.97c-.1-.18-.09-.37-.03-.55.39-.7,1.06-.97,1.77-.71v-1.31c0-.18,0-.36,0-.54,0-.05,0-.09,0-.14,0-.99,0-1.97,0-2.96v-.14h.17c.02.11.03.21.05.32.04.36.19.68.44.95.21.23.43.47.64.7.31.36.5.78.52,1.26-.02.19-.05.37-.07.56-.09.4-.25.77-.45,1.12-.03.06-.06.12-.15.07.04-.09.08-.17.12-.26.13-.3.26-.6.3-.93,0-.19,0-.38.01-.56-.12-.76-.76-1.42-1.4-1.43v2c0,.54,0,1.09,0,1.63,0,.13-.02.26-.03.39-.09.22-.23.39-.41.54-.18.09-.35.2-.54.26-.35.11-.69.08-.94-.24Z" style="fill: rgb(18, 17, 19); stroke-width: 0px;"/>
      <path class="cls-20" d="m43.77,18.85c0,.18,0,.36,0,.54-.72,0-1.45,0-2.17,0-.53,0-1.07,0-1.6,0,0-.11.07-.12.16-.11.07,0,.15.01.22.02.1.01.14-.04.13-.13-.01-.1-.03-.2-.05-.3,1.04,0,2.08,0,3.12,0,.07,0,.13,0,.2,0Z" style="fill: rgb(181, 154, 201); stroke-width: 0px;"/>
      <path class="cls-8" d="m45.53,19.4c.02-.19.05-.37.07-.56.06,0,.13.02.19.02.66,0,1.32,0,1.99,0,.07,0,.14-.01.21-.02.04.19.08.37.12.56-.26,0-.53,0-.79,0-.59,0-1.19,0-1.78,0Z" style="fill: rgb(184, 150, 197); stroke-width: 0px;"/>
      <path class="cls-14" d="m6.5,18.84c0,.19,0,.37,0,.56-.55,0-1.09,0-1.64,0,0-.19.02-.37.03-.56.54,0,1.07,0,1.61,0Z" style="fill: rgb(146, 196, 233); stroke-width: 0px;"/>
      <path class="cls-11" d="m20.03,21.95c0-.18,0-.35,0-.53.17,0,.35,0,.53,0v-2.03c0-.18,0-.36,0-.54,0-.05,0-.11,0-.16,0-2.68,0-5.35,0-8.03,0-.05.02-.1.03-.15,0,.11,0,.23,0,.34,0,3.65,0,7.31,0,10.96,0,.05,0,.1,0,.15-.18,0-.36,0-.54,0Z" style="fill: rgb(159, 160, 186); stroke-width: 0px;"/>
      <path class="cls-1" d="m20.55,18.85c0,.18,0,.36,0,.54-.18,0-.35,0-.53,0,0-.18,0-.36,0-.54.17,0,.35,0,.52,0Z" style="fill: rgb(167, 179, 219); stroke-width: 0px;"/>
      <path class="cls-20" d="m40.4,18.86c-.07.08-.26.08-.33,0,.11,0,.22,0,.33,0Z" style="fill: rgb(181, 154, 201); stroke-width: 0px;"/>
      <path class="cls-26" d="m45.53,19.4c.59,0,1.19,0,1.78,0,.26,0,.53,0,.79,0,.06.29.12.58.17.87.06.39.11.77.16,1.16-.54,0-1.07,0-1.61,0-.02-.15-.05-.3-.07-.45h-.17v.45c-.36,0-.72,0-1.08,0-.53,0-1.05,0-1.58,0,.01-.13.03-.26.03-.39,0-.54,0-1.09,0-1.63.46,0,.93,0,1.39,0-.03.33-.17.63-.3.93-.04.09-.08.17-.12.26.09.04.12-.02.15-.07.2-.35.35-.72.45-1.12Z" style="fill: rgb(253, 253, 253); stroke-width: 0px;"/>
      <path class="cls-8" d="m46.81,21.41c.54,0,1.07,0,1.61,0,.02.18.04.36.05.54-.45,0-.91,0-1.36,0-.03,0-.06.01-.08.02-.07-.19-.15-.37-.22-.56Z" style="fill: rgb(184, 150, 197); stroke-width: 0px;"/>
      <path class="cls-26" d="m48.1,29.21c-2.01,0-4.02,0-6.02,0v-2.02h1.39c-.02.34-.14.65-.27.95-.05.12-.11.24-.16.36.08.05.11,0,.15-.06.21-.38.39-.78.47-1.22,0-.01,0-.02.01-.03.36,0,.73,0,1.09,0,.12.31.36.43.68.43.39,0,.72-.18,1.01-.43.01,0,.02-.02.03-.02h0s.03,0,.05,0c.06,0,.13.02.19.02.57,0,1.14,0,1.71,0-.05.39-.1.77-.16,1.16-.05.29-.11.58-.17.87Z" style="fill: rgb(253, 253, 253); stroke-width: 0px;"/>
      <path class="cls-8" d="m48.43,27.19c-.57,0-1.14,0-1.71,0-.06,0-.13-.01-.19-.02,0-.03,0-.05,0-.08.05-.09.11-.17.16-.26,0-.02.01-.03.02-.05,0-.01,0-.02,0-.03,0-.02.01-.03.02-.05,0,0,0-.02,0-.03,0-.01.02-.02.03-.03.03,0,.06,0,.1,0,.06.07.11.07.18,0,.46,0,.93,0,1.39,0,0,0,.02,0,.03,0,0,0,.02,0,.03,0-.02.18-.04.36-.05.54Z" style="fill: rgb(184, 150, 197); stroke-width: 0px;"/>
      <path class="cls-26" d="m1.19,27.19c.35.38.76.67,1.24.86.59.23,1.19.28,1.82.13.07.35.14.69.21,1.03-.08,0-.17,0-.25,0-.65,0-1.3,0-1.95,0H.59v-2.03h.6Z" style="fill: rgb(253, 253, 253); stroke-width: 0px;"/>
      <path class="cls-2" d="m2.51,19.39c0,.67.16,1.32.3,1.97,0,.02,0,.03,0,.05-.74,0-1.47,0-2.22,0v-2.02h1.92Z" style="fill: rgb(254, 254, 254); stroke-width: 0px;"/>
      <path class="cls-26" d="m2.24,21.98c-.38.39-.76.77-1.06,1.23-.16.25-.3.52-.44.79-.05,0-.09,0-.15,0,0-.05,0-.09,0-.13,0-.59,0-1.17,0-1.76,0-.11.03-.14.14-.14.51,0,1.01,0,1.52,0Z" style="fill: rgb(253, 253, 253); stroke-width: 0px;"/>
      <path class="cls-22" d="m2.25,29.22c.65,0,1.3,0,1.95,0,.08,0,.17,0,.25,0,.03.19.06.37.09.56-.41,0-.82,0-1.23,0-.26-.34-.6-.45-1.01-.35-.02-.07-.04-.14-.05-.2Z" style="fill: rgb(143, 198, 234); stroke-width: 0px;"/>
      <path class="cls-24" d="m.58,26.1c.08.18.15.37.23.55-.31.01-.24,0-.25-.24,0-.1.01-.21.02-.31Z" style="fill: rgb(251, 250, 250); stroke-width: 0px;"/>
      <path class="cls-15" d="m46.74,26.68s0,.02,0,.03c0,.02-.01.03-.02.05,0,.01,0,.02,0,.03,0,.01-.01.03-.02.05-.05.09-.11.17-.16.26-.02.02-.03.05-.05.07,0,0,0,0,0,0-.01,0-.02.02-.03.02-.29.26-.61.43-1.01.43-.31,0-.55-.12-.68-.43-.03-.2.01-.38.11-.55.26-.36.6-.6,1.04-.68.23-.04.46,0,.67.11v-1.54c0-.19,0-.37,0-.56,0-.67,0-1.35,0-2.02,0-.18,0-.36,0-.55v-.45h.17c.02.15.05.3.07.45.07.19.15.37.22.56.1.13.2.27.31.39.12.14.24.27.37.4.33.35.57.75.66,1.23,0,.19-.01.37-.02.56-.08.47-.25.91-.48,1.32-.05.08-.05.08-.15.07.18-.41.39-.81.43-1.27.05-.24.02-.47-.05-.7-.16-.58-.53-.97-1.09-1.17-.08-.03-.17-.03-.25-.04,0,.05-.01.09-.01.14,0,1.26,0,2.52,0,3.78Z" style="fill: rgb(7, 8, 9); stroke-width: 0px;"/>
      <path class="cls-9" d="m46.74,26.68c0-1.26,0-2.52,0-3.78,0-.05,0-.09.01-.14,0,.41,0,.81,0,1.23.46,0,.89,0,1.31,0,.01,0,.02-.01.03-.02.07.23.1.46.05.7,0-.04,0-.08,0-.13h-1.38c0,.71,0,1.41,0,2.11,0,.01-.02.02-.03.03Z" style="fill: rgb(178, 145, 188); stroke-width: 0px;"/>
      <path class="cls-9" d="m47.04,26.66c-.06.07-.11.07-.18,0,.06,0,.12,0,.18,0Z" style="fill: rgb(178, 145, 188); stroke-width: 0px;"/>
      <path class="cls-9" d="m48.46,26.66s-.02,0-.03,0c0,0,.02,0,.03,0Z" style="fill: rgb(178, 145, 188); stroke-width: 0px;"/>
      <path class="cls-6" d="m29.06,18.3s-.09-.03-.14-.03c-.99,0-1.97,0-2.96,0h-.14v-.55h5.09v-.56c.07.08.12.13.16.18,0,0,0,0,0,0l.13.13s0,0,0,0l.13.13s0,0,0,0c.06.06.12.13.2.22.05,0,.13.02.09.16.88,0,1.75,0,2.61,0,0,.29,0,.58,0,.88-.03,0-.05,0-.08,0-1.52,0-3.05,0-4.57,0-.04-.02-.08-.04-.14-.07,0-.02-.01-.05-.02-.09,0,0-.01.01-.02.02-.04-.04-.09-.08-.13-.13-.06-.03-.13-.04-.1-.15-.05,0-.09,0-.12-.01,0-.04,0-.08,0-.12Z" style="fill: rgb(253, 253, 254); stroke-width: 0px;"/>
      <path class="cls-6" d="m20.57,26.64s-.01,0-.02,0c-.17,0-.35,0-.52,0,0-.71,0-1.41,0-2.12.18,0,.35,0,.53,0,0,.65,0,1.29,0,1.94,0,.04.01.09.02.13,0,.01,0,.02,0,.03Z" style="fill: rgb(253, 253, 254); stroke-width: 0px;"/>
      <path class="cls-6" d="m20.03,21.95c.18,0,.36,0,.54,0,0,.01,0,.02,0,.04,0,.03-.02.06-.02.1,0,.59,0,1.17,0,1.76,0,.03.01.06.02.1,0,.01,0,.03,0,.04,0,0-.01,0-.02,0-.18,0-.35,0-.53,0,0-.68,0-1.36,0-2.04Z" style="fill: rgb(253, 253, 254); stroke-width: 0px;"/>
      <path class="cls-11" d="m20.55,23.99s.01,0,.02,0c0,.22,0,.44,0,.65,0,.61,0,1.22,0,1.83,0,.05,0,.09,0,.14,0-.04-.02-.09-.02-.13,0-.65,0-1.29,0-1.94,0-.18,0-.36,0-.54Z" style="fill: rgb(159, 160, 186); stroke-width: 0px;"/>
      <path class="cls-11" d="m20.57,23.95s-.02-.06-.02-.1c0-.59,0-1.17,0-1.76,0-.03.01-.06.02-.1,0,.4,0,.79,0,1.19,0,.26,0,.51,0,.77Z" style="fill: rgb(159, 160, 186); stroke-width: 0px;"/>
      <path class="cls-6" d="m46.58,21.96c0,.67,0,1.35,0,2.02-.05,0-.11.02-.16.02-1.38,0-2.75,0-4.13,0-.05,0-.1,0-.15,0-.03-.15-.05-.31-.08-.47h-.16v.43s-.07.04-.1.04c-.75,0-1.5,0-2.25,0-.01,0-.02,0-.04-.01v-2.01c.85,0,1.69,0,2.53,0,.25.32.59.34.94.24.19-.06.36-.17.54-.26,1.02,0,2.04,0,3.07,0Z" style="fill: rgb(253, 253, 254); stroke-width: 0px;"/>
      <path class="cls-2" d="m40,19.39c.53,0,1.07,0,1.6,0,.72,0,1.45,0,2.17,0,0,.44,0,.87,0,1.31-.71-.27-1.39,0-1.77.71-.83,0-1.66,0-2.5,0v-2.03h.5Z" style="fill: rgb(254, 254, 254); stroke-width: 0px;"/>
      <path class="cls-6" d="m41.89,24.58c0,.68,0,1.36,0,2.04-.05,0-.1.02-.15.02-.4,0-.8,0-1.2,0-.29,0-.58.01-.87.02-.18,0-.18,0-.18-.17,0-.6,0-1.2,0-1.8v-.14c.05,0,.09,0,.13,0,.71,0,1.43,0,2.14,0,.05,0,.09.03.14.04Z" style="fill: rgb(253, 253, 254); stroke-width: 0px;"/>
      <path class="cls-26" d="m41.89,27.21c0,.47,0,.94,0,1.4-.02,0-.03,0-.05,0-.3-.14-.6-.14-.91-.02-.32.12-.57.33-.77.62-.22,0-.44,0-.67,0v-2.01s.07,0,.11,0c.72,0,1.44,0,2.16,0,.04,0,.08.01.12.02Z" style="fill: rgb(253, 253, 253); stroke-width: 0px;"/>
      <path class="cls-26" d="m6.5,21.97c0,.67,0,1.35,0,2.02-.68,0-1.36,0-2.03,0-.26-.03-.52-.05-.81-.08-.04-.17-.09-.38-.13-.59-.06-.26-.11-.52-.17-.79,0-.04,0-.09.02-.12.12-.15.24-.3.36-.45.92,0,1.84,0,2.76,0Z" style="fill: rgb(253, 253, 253); stroke-width: 0px;"/>
      <path class="cls-26" d="m4.86,19.39c.55,0,1.09,0,1.64,0,0,.67,0,1.35,0,2.02-.79,0-1.59,0-2.38,0,.25-.43.47-.87.59-1.36.06-.22.1-.44.15-.66Z" style="fill: rgb(253, 253, 253); stroke-width: 0px;"/>
      <path class="cls-26" d="m6.5,27.19c0,.67,0,1.35,0,2.02-.56,0-1.13,0-1.69,0-.08-.37-.17-.74-.26-1.13.43-.19.74-.51.99-.9.32,0,.64,0,.96,0Z" style="fill: rgb(253, 253, 253); stroke-width: 0px;"/>
      <path class="cls-24" d="m3.32,29.77c.41,0,.82,0,1.23,0,.02.28,0,.55-.09.81-.18.54-.53.81-1.12.83-.17,0-.35-.01-.52-.05-.12-.03-.22-.11-.33-.16l.02-.04c.09-.01.19-.01.28-.03.54-.13.83-.73.59-1.23-.02-.04-.04-.08-.06-.12Z" style="fill: rgb(251, 250, 250); stroke-width: 0px;"/>
      <path class="cls-24" d="m2.59,24.54c-.14.22-.32.43-.42.66-.22.5-.16.98.17,1.43-.28,0-.57,0-.85,0-.34-.71-.36-1.41.05-2.11.35,0,.71,0,1.06,0Z" style="fill: rgb(251, 250, 250); stroke-width: 0px;"/>
      <path class="cls-24" d="m4.31,19.39c-.12.42-.29.82-.57,1.15-.2.23-.43.44-.65.66-.16-.48-.27-1.3-.13-1.81.45,0,.9,0,1.35,0Z" style="fill: rgb(251, 250, 250); stroke-width: 0px;"/>
      <path class="cls-24" d="m4.25,26.63c-.1-.45-.2-.9-.3-1.35-.02-.1-.04-.21-.07-.31.8-.15,1.57.81,1.33,1.66-.32,0-.65,0-.97,0Z" style="fill: rgb(251, 250, 250); stroke-width: 0px;"/>
      <path class="cls-12" d="m6.5,24.53c0,.7,0,1.4,0,2.1-.24,0-.48,0-.72,0,.13-.45.17-.91.02-1.36-.09-.28-.27-.5-.46-.71.03,0,.06-.02.09-.02.36,0,.71,0,1.07,0Z" style="fill: rgb(252, 251, 251); stroke-width: 0px;"/>
      <path class="cls-14" d="m4.12,21.41c.79,0,1.59,0,2.38,0,0,.19,0,.37,0,.56-.92,0-1.84,0-2.76,0,.13-.19.25-.37.38-.56Z" style="fill: rgb(146, 196, 233); stroke-width: 0px;"/>
      <path class="cls-24" d="m2.8,26.64c-.11-.38-.1-.76.08-1.12.14-.28.38-.45.69-.53.11.53.22,1.06.33,1.6-.04.02-.08.05-.12.05-.33,0-.65,0-.98,0Z" style="fill: rgb(251, 250, 250); stroke-width: 0px;"/>
      <path class="cls-24" d="m4.03,27.19c.05.21.1.41.14.62-.52.23-1.66.15-2.3-.6.04,0,.09-.02.13-.02.36,0,.71,0,1.07,0,.1.04.2.07.3.11,0,0,.02-.02.02-.03-.03-.02-.06-.04-.08-.06.04,0,.08-.02.12-.02.2,0,.4,0,.6,0Z" style="fill: rgb(251, 250, 250); stroke-width: 0px;"/>
      <path class="cls-24" d="m1.97,23.99c.25-.27.5-.55.75-.82.12-.13.24-.27.38-.42.09.43.17.83.26,1.24-.46,0-.92,0-1.39,0Z" style="fill: rgb(251, 250, 250); stroke-width: 0px;"/>
      <path class="cls-14" d="m6.5,24.53c-.36,0-.71,0-1.07,0-.03,0-.06.01-.09.02-.25-.25-.54-.43-.87-.55.68,0,1.36,0,2.03,0,0,.18,0,.36,0,.54Z" style="fill: rgb(146, 196, 233); stroke-width: 0px;"/>
      <path class="cls-24" d="m3.14,18.83c.14-.32.35-.57.65-.75.04-.02.08-.04.12-.06.26-.1.4-.04.46.23.04.19.03.38.05.57-.43,0-.86,0-1.28,0Z" style="fill: rgb(251, 250, 250); stroke-width: 0px;"/>
      <path class="cls-22" d="m3.14,18.83c.43,0,.86,0,1.28,0-.04.19-.08.37-.12.56-.45,0-.9,0-1.35,0,.06-.19.12-.37.19-.56Z" style="fill: rgb(143, 198, 234); stroke-width: 0px;"/>
      <path class="cls-22" d="m1.97,23.99c.46,0,.92,0,1.39,0-.01.02-.02.05-.03.06-.28.11-.52.28-.73.48-.35,0-.71,0-1.06,0,.15-.18.29-.36.44-.54Z" style="fill: rgb(143, 198, 234); stroke-width: 0px;"/>
      <path class="cls-22" d="m3.08,27.19c-.36,0-.71,0-1.07,0-.04,0-.09.01-.13.02-.13-.19-.26-.38-.39-.57.28,0,.57,0,.85,0,.21.24.46.41.74.55Z" style="fill: rgb(143, 198, 234); stroke-width: 0px;"/>
      <path class="cls-22" d="m4.03,27.19c-.2,0-.4,0-.6,0-.04,0-.08.01-.12.02-.2-.16-.41-.32-.51-.57.33,0,.65,0,.98,0,.04,0,.08-.03.12-.05.04.2.08.4.13.6Z" style="fill: rgb(143, 198, 234); stroke-width: 0px;"/>
      <path class="cls-14" d="m5.78,26.63c.24,0,.48,0,.72,0,0,.19,0,.37,0,.56-.32,0-.64,0-.96,0,.08-.19.16-.37.24-.56Z" style="fill: rgb(146, 196, 233); stroke-width: 0px;"/>
      <path class="cls-14" d="m4.25,26.63c.32,0,.65,0,.97,0-.07.19-.13.37-.2.56-.22,0-.43,0-.65,0-.04-.19-.08-.37-.12-.56Z" style="fill: rgb(146, 196, 233); stroke-width: 0px;"/>
      <path class="cls-24" d="m4.37,27.19c.22,0,.43,0,.65,0-.11.21-.3.39-.55.51-.04-.17-.07-.34-.11-.5Z" style="fill: rgb(251, 250, 250); stroke-width: 0px;"/>
      <path class="cls-2" d="m20.55,27.19c0,.67,0,1.35,0,2.02-.18,0-.35,0-.53,0,0-.67,0-1.35,0-2.02.18,0,.35,0,.53,0Z" style="fill: rgb(254, 254, 254); stroke-width: 0px;"/>
      <path class="cls-2" d="m20.03,19.39c.18,0,.35,0,.53,0,0,.67,0,1.34,0,2.03-.18,0-.35,0-.53,0,0-.68,0-1.35,0-2.03Z" style="fill: rgb(254, 254, 254); stroke-width: 0px;"/>
      <path class="cls-1" d="m20.55,23.99c0,.18,0,.36,0,.54-.18,0-.35,0-.53,0,0-.18,0-.36,0-.54.18,0,.35,0,.53,0Z" style="fill: rgb(167, 179, 219); stroke-width: 0px;"/>
      <path class="cls-1" d="m20.55,27.19c-.18,0-.35,0-.53,0,0-.18,0-.36,0-.54.17,0,.35,0,.52,0,0,.18,0,.36,0,.54Z" style="fill: rgb(167, 179, 219); stroke-width: 0px;"/>
      <path class="cls-6" d="m34.25,24.54c0,.68,0,1.35,0,2.03,0,.03-.02.06-.03.09-1.66,0-3.32,0-4.98,0-1.14,0-2.28,0-3.42,0v-1.94h4.15c0-.07,0-.12,0-.17.97,0,1.94,0,2.91,0,.45,0,.91,0,1.36,0Z" style="fill: rgb(253, 253, 254); stroke-width: 0px;"/>
      <path class="cls-2" d="m34.23,27.19s.02.04.02.05c0,.66,0,1.31,0,1.97-.08,0-.17,0-.25,0-2.72,0-5.45,0-8.17,0,0-.68,0-1.35,0-2.03.69,0,1.38,0,2.07,0,.46,0,.92,0,1.38,0,.02,0,.03,0,.05,0,1.64,0,3.28,0,4.91,0Z" style="fill: rgb(254, 254, 254); stroke-width: 0px;"/>
      <path class="cls-6" d="m34.25,21.96c0,.68,0,1.36,0,2.04-1.42,0-2.85,0-4.27,0,0-.68,0-1.36,0-2.04,1.13,0,2.26,0,3.39,0,.29,0,.59,0,.88,0Z" style="fill: rgb(253, 253, 254); stroke-width: 0px;"/>
      <path class="cls-2" d="m34.25,19.39c0,.67,0,1.35,0,2.02-1.42,0-2.85,0-4.27,0,0-.67,0-1.35,0-2.02.63,0,1.26,0,1.9,0,.79,0,1.58,0,2.38,0Z" style="fill: rgb(254, 254, 254); stroke-width: 0px;"/>
      <path class="cls-27" d="m34.25,19.39c-.79,0-1.58,0-2.38,0-.63,0-1.26,0-1.9,0,0-.08.02-.16-.1-.21-.07-.03-.11-.14-.17-.21-.03-.04-.08-.08-.11-.12,1.52,0,3.05,0,4.57,0,.03,0,.05,0,.08,0,0,.18,0,.36,0,.54Z" style="fill: rgb(177, 165, 208); stroke-width: 0px;"/>
      <path class="cls-27" d="m29.97,21.42c1.42,0,2.85,0,4.27,0,0,.18,0,.36,0,.54-.29,0-.59,0-.88,0-1.13,0-2.26,0-3.39,0,0-.18,0-.36,0-.54Z" style="fill: rgb(177, 165, 208); stroke-width: 0px;"/>
      <path class="cls-27" d="m29.98,24c1.42,0,2.85,0,4.27,0,0,.18,0,.36,0,.54-.45,0-.91,0-1.36,0-.97,0-1.94,0-2.91,0,0-.18,0-.36,0-.54Z" style="fill: rgb(177, 165, 208); stroke-width: 0px;"/>
      <path class="cls-16" d="m29.27,27.18c-.46,0-.92,0-1.38,0-.69,0-1.38,0-2.07,0,0-.18,0-.36,0-.53,1.14,0,2.28,0,3.42,0,0,.08.05.1.11.1.08,0,.17,0,.25,0,.03,0,.08.04.09.06,0,.1,0,.21,0,.31-.08,0-.15-.02-.21-.01-.08,0-.17-.04-.22.07Z" style="fill: rgb(174, 168, 211); stroke-width: 0px;"/>
      <path class="cls-25" d="m32.88,32.79h.44v1.1h-.44v-1.1Z" style="fill: rgb(178, 156, 200); stroke-width: 0px;"/>
      <path class="cls-24" d="m18.45,33.37c.14,0,.27-.02.41-.02,0,.15,0,.3,0,.45-.13-.13-.27-.25-.4-.38,0-.01,0-.03,0-.04Z" style="fill: rgb(251, 250, 250); stroke-width: 0px;"/>
      <path class="cls-12" d="m15.06,34.54c.12.13.25.27.38.41h-.43v-.42s.03,0,.04,0Z" style="fill: rgb(252, 251, 251); stroke-width: 0px;"/>
      <path class="cls-26" d="m12.94,27.19c.16.55.32,1.11.48,1.66.03.12.07.24.1.36-.58,0-1.16,0-1.74,0,0-.68,0-1.35,0-2.03.39,0,.78,0,1.17,0Z" style="fill: rgb(253, 253, 253); stroke-width: 0px;"/>
      <path class="cls-12" d="m12.19,24.54c.2.69.39,1.38.59,2.06,0,.02,0,.03,0,.05-.34,0-.67,0-1.01,0,0-.71,0-1.42,0-2.12.14,0,.28,0,.42,0Z" style="fill: rgb(252, 251, 251); stroke-width: 0px;"/>
      <path class="cls-13" d="m11.77,26.65c.34,0,.67,0,1.01,0,.05.18.1.36.15.54-.39,0-.78,0-1.17,0,0-.18,0-.36,0-.53Z" style="fill: rgb(155, 187, 226); stroke-width: 0px;"/>
      <path class="cls-13" d="m12.19,24.54c-.14,0-.28,0-.42,0,0-.18,0-.35,0-.53.09,0,.17,0,.26,0,.05.18.11.36.16.55Z" style="fill: rgb(155, 187, 226); stroke-width: 0px;"/>
      <path class="cls-24" d="m12.03,23.99c-.09,0-.17,0-.26,0,0-.07-.02-.15-.02-.22,0-.24.01-.48.02-.71.09.31.18.62.26.93Z" style="fill: rgb(251, 250, 250); stroke-width: 0px;"/>
      <path class="cls-4" d="m20.25,32s0-.07,0-.1c0,.03,0,.07,0,.1Z" style="fill: rgb(180, 159, 204); stroke-width: 0px;"/>
      <path class="cls-4" d="m20.24,36.12s0-.02,0-.02c0,0,0,.01,0,.02Z" style="fill: rgb(180, 159, 204); stroke-width: 0px;"/>
      <path class="cls-12" d="m46.58,24.54v1.54c-.21-.12-.44-.15-.67-.11-.44.07-.78.32-1.04.68-.39,0-.78,0-1.17.01-.06-.52-.31-.94-.66-1.32-.18-.2-.36-.4-.54-.6-.05-.06-.09-.13-.14-.19.05,0,.11,0,.16,0,1.15,0,2.31,0,3.46,0,.2,0,.4,0,.59,0Z" style="fill: rgb(252, 251, 251); stroke-width: 0px;"/>
      <path class="cls-3" d="m46.58,24.54c-.2,0-.4,0-.59,0-1.15,0-2.31,0-3.46,0-.05,0-.11,0-.16,0-.07-.18-.15-.36-.22-.55.05,0,.1,0,.15,0,1.38,0,2.75,0,4.13,0,.05,0,.11-.01.16-.02,0,.19,0,.37,0,.56Z" style="fill: rgb(183, 152, 199); stroke-width: 0px;"/>
      <path class="cls-24" d="m42.07,25.32c.15.04.32.06.45.13.49.25.8.64.92,1.18-.03,0-.06.02-.09.02-.41,0-.82,0-1.22,0-.02,0-.03,0-.06-.02v-1.31Z" style="fill: rgb(251, 250, 250); stroke-width: 0px;"/>
      <path class="cls-23" d="m42.07,25.32v1.31s.04.02.06.02c.41,0,.82,0,1.22,0,.03,0,.06-.01.09-.02,0,.19.02.37.03.56-.46,0-.92,0-1.39,0v2.02s-.02.02-.02.02c0-1.27,0-2.54,0-3.81,0-.04.01-.07.02-.11Z" style="fill: rgb(177, 151, 191); stroke-width: 0px;"/>
      <path class="cls-3" d="m43.7,26.65c.39,0,.78,0,1.17-.01-.1.17-.14.36-.11.55-.36,0-.73,0-1.09,0,.01-.18.02-.36.03-.54Z" style="fill: rgb(183, 152, 199); stroke-width: 0px;"/>
      <path class="cls-10" d="m41.85,28.62s.03,0,.05,0c0,0,0,.02-.01.03-.01,0-.02-.02-.03-.02Z" style="fill: rgb(180, 158, 203); stroke-width: 0px;"/>
      <path class="cls-4" d="m34.91,32.15c.14.04.18.12.18.22,0,.17,0,.34,0,.51,0,1.17,0,2.34,0,3.52,0,.11-.02.15-.15.15-.29,0-.58,0-.87,0-.1,0-.19,0-.24-.11-.03-.05-.07-.09-.11-.15.03,0,.07-.02.12-.02.29,0,.57,0,.86,0,.17,0,.22-.05.22-.22,0-1.24,0-2.49,0-3.73v-.16Z" style="fill: rgb(180, 159, 204); stroke-width: 0px;"/>
      <path class="cls-5" d="m29.27,27.18c.05-.11.14-.06.22-.07.06,0,.12,0,.21.01,0-.1,0-.21,0-.31,0-.02-.05-.06-.09-.06-.08,0-.17,0-.25,0-.06,0-.12-.02-.11-.1,1.66,0,3.32,0,4.98,0,0,.18,0,.36,0,.53-1.64,0-3.28,0-4.91,0-.02,0-.03,0-.05,0Z" style="fill: rgb(177, 167, 210); stroke-width: 0px;"/>
      <path class="cls-24" d="m43.95,18.85v-1.45c.63.01,1.28.67,1.4,1.43-.03,0-.05.02-.08.02-.44,0-.88,0-1.32,0Z" style="fill: rgb(251, 250, 250); stroke-width: 0px;"/>
      <path class="cls-3" d="m46.58,21.96c-1.02,0-2.04,0-3.07,0,.17-.15.32-.32.41-.54.53,0,1.05,0,1.58,0,.36,0,.72,0,1.08,0,0,.18,0,.36,0,.55Z" style="fill: rgb(183, 152, 199); stroke-width: 0px;"/>
      <path class="cls-3" d="m43.95,18.85c.44,0,.88,0,1.32,0,.03,0,.05-.02.08-.02,0,.19,0,.38-.01.56-.46,0-.93,0-1.39,0,0-.18,0-.36,0-.54Z" style="fill: rgb(183, 152, 199); stroke-width: 0px;"/>
      <path class="cls-9" d="m46.48,27.16s.03-.05.05-.07c0,.03,0,.05,0,.08-.02,0-.03,0-.05,0Z" style="fill: rgb(178, 145, 188); stroke-width: 0px;"/>
      <path class="cls-8" d="m46.45,27.19s.02-.02.03-.02c-.01,0-.02.02-.03.02Z" style="fill: rgb(184, 150, 197); stroke-width: 0px;"/>
      <path class="cls-9" d="m46.71,26.76s.01-.03.02-.05c0,.02-.01.03-.02.05Z" style="fill: rgb(178, 145, 188); stroke-width: 0px;"/>
      <path class="cls-9" d="m46.69,26.83s.01-.03.02-.05c0,.02-.01.03-.02.05Z" style="fill: rgb(178, 145, 188); stroke-width: 0px;"/>
      <path class="cls-12" d="m48.1,23.98s-.02.02-.03.02c-.43,0-.86,0-1.31,0,0-.41,0-.82,0-1.23.08.01.17.01.25.04.56.2.93.59,1.09,1.17Z" style="fill: rgb(252, 251, 251); stroke-width: 0px;"/>
    </g>
  </g>
</svg>