<svg viewBox="568.0301 210.7363 37.8418 51.2123" width="37.8418" height="51.2123" xmlns="http://www.w3.org/2000/svg">
  <g id="Layer_1-2" data-name="Layer 1" transform="matrix(0.9999999999999999, 0, 0, 0.9999999999999999, 567.8919677734375, 210.60629272460938)">
    <g>
      <path class="cls-1" d="m11.15,21.29V.14c.09,0,.15-.01.21-.01,1.07,0,2.15,0,3.22,0,.19,0,.24.06.24.24,0,8.81,0,17.61,0,26.42,0,2.52-1.01,4.61-2.82,6.33-1.02.97-2.21,1.68-3.56,2.09-1.56.46-3.12.49-4.64-.14-1.81-.75-2.96-2.1-3.45-4-.35-1.35-.25-2.69.18-4.01.74-2.27,2.19-3.96,4.24-5.14,1.4-.8,2.91-1.18,4.52-1.04.53.05,1.05.22,1.57.34.08.02.16.05.3.09Z" style="fill: rgb(35, 31, 32); stroke: rgb(255, 255, 255); stroke-miterlimit: 10; stroke-width: 0.25px;"/>
      <path class="cls-1" d="m34.33.14h3.64c0,.1.01.18.01.26,0,8.8,0,17.59,0,26.39,0,2.51-1.01,4.57-2.79,6.29-1.02.99-2.21,1.7-3.58,2.11-1.58.47-3.15.49-4.69-.15-1.67-.7-2.79-1.93-3.33-3.66-.4-1.25-.4-2.52-.07-3.79.75-2.87,2.54-4.87,5.22-6.1,1.17-.54,2.41-.76,3.7-.63.53.05,1.05.2,1.57.34.3.08.32.08.32-.23,0-6.84,0-13.67,0-20.51,0-.1,0-.2,0-.32Z" style="fill: rgb(35, 31, 32); stroke: rgb(255, 255, 255); stroke-miterlimit: 10; stroke-width: 0.25px;"/>
      <path class="cls-1" d="m6.28,39.15c.52,0,1.04,0,1.56,0,.2,0,.28.05.29.26.08,2,1,3.62,2.35,5.03,1.13,1.17,2.5,2,4.02,2.56,1.05.38,2.14.6,3.26.66,1.31.07,2.6-.04,3.87-.41,2.16-.62,4-1.75,5.43-3.5,1.01-1.24,1.65-2.64,1.75-4.27.02-.34.03-.34.37-.34,1,0,1.99,0,2.99,0,.31,0,.3,0,.29.3-.07,2.25-.85,4.25-2.15,6.06-1.07,1.48-2.41,2.67-3.95,3.63-1.04.64-2.14,1.14-3.31,1.5-1.74.54-3.53.81-5.35.68-.96-.07-1.93-.22-2.87-.43-2.27-.51-4.3-1.56-6.07-3.07-1.55-1.32-2.76-2.9-3.53-4.8-.47-1.16-.73-2.36-.79-3.61-.01-.22.06-.27.26-.27.52.01,1.04,0,1.56,0Z" style="fill: rgb(35, 31, 32); stroke: rgb(255, 255, 255); stroke-miterlimit: 10; stroke-width: 0.25px;"/>
    </g>
  </g>
</svg>