<svg viewBox="266.2118 235.6647 87.7187 29.7217" width="87.7187" height="29.7217" xmlns="http://www.w3.org/2000/svg">
  <g id="Layer_1-2" data-name="Layer 1" transform="matrix(1, 0, 0, 1, 266.212646484375, 235.6664581298828)">
    <g>
      <path class="cls-2" d="m87.7,17.18c-.08.3-.2.57-.39.81-.62.81-1.77.77-2.37-.08-.27-.39-.41-.84-.47-1.3-.11-.84-.07-1.67.3-2.45.29-.62.77-1.02,1.48-1.03.61,0,1.13.45,1.39,1.16.09.25,0,.75-.3.89s-.44.04-.55-.36c-.03-.11-.07-.22-.12-.32-.18-.3-.53-.32-.77-.06-.11.12-.17.26-.2.41-.12.59-.07,1.19-.04,1.78,0,.13.05.27.11.39.09.17.22.31.43.31.23,0,.38-.1.47-.3.06-.13.13-.27.14-.41.01-.19.2-.37.59-.18s.32.66.3.72Z" style="fill: rgb(35, 31, 32); stroke: rgb(255, 255, 255); stroke-miterlimit: 10; stroke-width: 0.25px;"/>
      <path class="cls-1" d="m1.48,13.21c.14-2.77.92-5.27,2.49-7.49,1.21-1.72,2.64-3.23,4.46-4.32C10.94-.11,13.62-.35,16.39.44c2.38.67,4.61,1.7,6.59,3.22,2.53,1.94,4.16,4.47,4.9,7.57,1.15,4.74.09,8.98-3,12.72-1.72,2.08-3.74,3.81-6.19,5-.98.48-2.02.77-3.11.77-.92,0-1.81-.17-2.69-.44-1.52-.47-2.93-1.17-4.34-1.89-.05-.02-.11-.05-.13-.08-.33-.85-1.01-1.42-1.57-2.09-1.07-1.28-2.22-2.48-3.14-3.89-1.25-1.91-1.95-4.01-2.19-6.28-.02-.17-.01-.33.08-.48,1.52-2.53,3.48-4.63,6.1-6.06,1.56-.84,3.21-1.32,5-1.24,2,.09,3.77.84,5.34,2.05,2.85,2.19,4.62,5.07,5.26,8.61.46,2.56.05,4.98-1.6,7.06-1.17,1.47-2.63,2.55-4.52,2.93-1.52.31-2.97,0-4.32-.71-2.95-1.54-4.89-3.93-5.67-7.15-.72-2.96.21-5.38,2.68-7.2.84-.62,1.73-1.13,2.76-1.39,1.3-.33,2.51-.13,3.58.67,1.44,1.08,2.42,2.52,2.95,4.23.5,1.58.04,2.93-1.27,3.94-.97.76-2.08,1.29-3.25,1.67-.61.2-.96,0-1.1-.62-.24-1.02-.24-2.03.05-3.04.03-.12.05-.24.23-.25.23,0,.39-.15.39-.37,0-.26-.06-.53-.35-.65-.22-.09-.43-.07-.6.12-.3.35-.46.77-.55,1.22-.2,1-.22,2-.01,2.99.25,1.24,1.06,1.77,2.26,1.38,1.36-.44,2.65-1.05,3.73-2.01,1.37-1.21,1.81-2.75,1.32-4.5-.53-1.88-1.59-3.46-3.13-4.67-1.47-1.16-3.14-1.4-4.89-.79-1.94.68-3.56,1.84-4.69,3.57-1.27,1.94-1.43,4.08-.8,6.25,1.03,3.54,3.22,6.16,6.64,7.62,2.81,1.2,5.43.7,7.78-1.23,1.91-1.56,3.02-3.56,3.32-6,.27-2.18-.13-4.28-.98-6.29-1.14-2.67-2.86-4.9-5.3-6.51-3.43-2.26-6.98-2.35-10.59-.47-2.31,1.2-4.11,2.98-5.61,5.08-.08.11-.16.22-.27.39Z" style="fill: rgb(220, 46, 38); stroke-width: 0px;"/>
      <path class="cls-2" d="m71.7,15.51c.28-1.29.56-2.58.83-3.87.04-.18.09-.25.28-.24.45.01.9.01,1.35,0,.17,0,.2.06.2.22,0,2.21,0,4.42,0,6.64,0,.19-.07.23-.24.22-.21-.01-.42-.02-.63,0-.23.02-.27-.07-.27-.28,0-1.72,0-3.44,0-5.16v-.22s-.04,0-.06-.01c-.09.4-.18.79-.26,1.19-.3,1.42-.59,2.85-.89,4.28-.03.15-.1.21-.26.2-.09-.01-.19-.01-.28,0-.22.03-.29-.06-.34-.28-.32-1.63-.67-3.26-1-4.89-.01-.06-.03-.12-.05-.18-.01-.04-.02-.08-.07-.08-.06,0-.05.05-.05.09,0,.07,0,.15,0,.22,0,1.6,0,3.21,0,4.81,0,.25-.07.31-.31.31-.64-.01-.64,0-.64-.63,0-2.04,0-4.09,0-6.13,0-.25.06-.32.31-.31.43.02.86,0,1.29,0,.14,0,.2.03.24.2.24,1.25.5,2.49.75,3.73.01.06.04.11.06.17.02,0,.04,0,.06,0Z" style="fill: rgb(35, 31, 32); stroke: rgb(255, 255, 255); stroke-miterlimit: 10; stroke-width: 0.25px;"/>
      <path class="cls-2" d="m32.69,14.91c0-1.08,0-2.16,0-3.24,0-.22.05-.29.27-.28.63.02,1.26.02,1.89,0,1.16-.02,1.49.6,1.7,1.36.18.67.13,1.32-.17,1.95-.08.16-.17.34-.31.42-.3.17-.23.39-.16.64.25.82.49,1.65.74,2.48.04.14.05.24-.16.23-.33-.03-.74.09-.98-.06-.24-.14-.2-.58-.29-.89-.14-.51-.3-1.02-.42-1.53-.06-.26-.15-.36-.43-.35-.53.02-.53,0-.53.53,0,.68,0,1.36,0,2.04,0,.19-.04.27-.24.25-.29-.03-.67.12-.84-.06-.14-.16-.05-.54-.05-.82,0-.89,0-1.78,0-2.67Zm1.13-1.38c0,.25,0,.5,0,.75,0,.12.02.2.17.2.26,0,.52-.01.78-.02.39-.01.57-.25.66-.59.21-.76-.15-1.25-.93-1.25-.16,0-.31,0-.47,0-.17-.01-.22.06-.21.22.01.23,0,.46,0,.69Z" style="fill: rgb(35, 31, 32); stroke: rgb(255, 255, 255); stroke-miterlimit: 10; stroke-width: 0.25px;"/>
      <path class="cls-2" d="m50.03,20.31c-.41,0-.81-.01-1.19-.19-.38-.17-.59-.45-.61-.86-.03-.42.05-.79.46-1.01.11-.06.15-.09.03-.19-.52-.46-.48-1.43.21-1.87.16-.1.14-.16,0-.26-.57-.42-.55-1.51-.28-2,.31-.56,1.04-.89,1.72-.77.18.03.37.05.54.13.16.07.2.02.23-.15.08-.63.34-.85.89-.78.02,0,.05,0,.06,0,.26.24.05.54.11.8.04.17-.11.13-.21.13-.42,0-.57.26-.39.64.47.98.08,2.04-.86,2.35-.32.1-.64.1-.96.04-.25-.05-.37.07-.41.3-.04.25.09.49.33.52.39.05.79.08,1.18.11.52.04.99.18,1.19.74.22.64.14,1.23-.31,1.75-.46.53-1.09.56-1.72.55Zm-.1-1.85c-.16,0-.27.01-.37,0-.24-.04-.38.08-.43.3-.05.22,0,.43.2.51.53.21,1.08.22,1.62.02.19-.07.28-.26.23-.47-.04-.2-.2-.28-.4-.29-.3-.02-.6-.05-.85-.06Zm.81-3.8c0-.2-.05-.47-.34-.63-.34-.19-.66-.07-.82.28-.21.47-.05,1.06.33,1.2.44.16.83-.19.83-.85Z" style="fill: rgb(35, 31, 32); stroke: rgb(255, 255, 255); stroke-miterlimit: 10; stroke-width: 0.25px;"/>
      <path class="cls-2" d="m56.39,11.29c1.11.04,1.57.71,1.82,1.55.03.1-.02.13-.09.16-.11.05-.21.1-.31.15-.16.07-.33.21-.48.2-.16-.02-.14-.27-.23-.4-.19-.3-.51-.44-.86-.36-.34.08-.5.27-.52.61-.02.35.15.59.52.72.22.08.45.15.68.22.86.25,1.3.87,1.42,1.72.1.68-.03,1.33-.4,1.92-.7,1.1-2.44,1.1-3.16,0-.05-.08-.1-.16-.14-.24-.41-.81-.28-1.06.63-1.19.18-.03.15.1.17.18.2.58.51.8,1.06.77.36-.02.6-.22.69-.57.08-.34-.05-.65-.36-.83-.23-.13-.48-.18-.73-.26-1.03-.34-1.43-.85-1.48-1.94-.03-.66.09-1.28.53-1.81.33-.4.75-.58,1.23-.58Z" style="fill: rgb(35, 31, 32); stroke: rgb(255, 255, 255); stroke-miterlimit: 10; stroke-width: 0.25px;"/>
      <path class="cls-1" d="m6.84,26.46c-.9-.4-1.73-.88-2.55-1.41-1.16-.75-2.21-1.62-3.11-2.67C-.01,21-.24,19.43.22,17.71c.13-.47.3-.93.5-1.38.02-.05.03-.13.1-.13.02,0,.05.08.06.13.5,3.04,1.97,5.59,3.99,7.86.67.75,1.32,1.51,1.98,2.27Z" style="fill: rgb(220, 46, 38); stroke-width: 0px;"/>
      <path class="cls-2" d="m45.67,14.05c.19-.38.31-.73.69-.86.64-.23,1.24.19,1.37.93.06.33.07.66.07,1,0,1.03,0,2.05,0,3.08,0,.19-.03.27-.25.27-.78,0-.77,0-.78-.78-.01-.93.05-1.86-.04-2.79-.03-.27-.09-.54-.41-.58-.32-.03-.45.22-.53.48-.06.18-.08.36-.08.55,0,.94,0,1.89,0,2.83,0,.21-.03.31-.27.28-.26-.03-.6.11-.75-.06-.13-.14-.04-.48-.04-.73,0-1.39,0-2.79,0-4.18,0-.2.04-.29.25-.26.24.03.54-.1.7.05.15.14.01.45.07.76Z" style="fill: rgb(35, 31, 32); stroke: rgb(255, 255, 255); stroke-miterlimit: 10; stroke-width: 0.25px;"/>
      <path class="cls-2" d="m62.14,15.87c0,.79,0,1.57,0,2.36,0,.2-.06.27-.25.24-.02,0-.04,0-.06,0-.2,0-.44.06-.58-.03-.17-.1-.03-.37-.07-.56,0-.06.03-.14-.06-.15-.08,0-.07.09-.09.14-.28.6-.67.8-1.24.66-.26-.07-.43-.24-.54-.48-.12-.27-.19-.55-.19-.84,0-1.24,0-2.47,0-3.71,0-.21.07-.26.27-.26.75,0,.75,0,.75.74,0,.87,0,1.74,0,2.61,0,.15.02.29.04.43.04.18.12.32.31.35.19.03.35-.05.46-.21.13-.18.19-.39.19-.62,0-1.02,0-2.03,0-3.05,0-.2.05-.26.26-.26.8,0,.8,0,.8.78,0,.62,0,1.24,0,1.85Z" style="fill: rgb(35, 31, 32); stroke: rgb(255, 255, 255); stroke-miterlimit: 10; stroke-width: 0.25px;"/>
      <path class="cls-2" d="m62.9,15.85c0-.79,0-1.57,0-2.36,0-.21.06-.29.26-.26.02,0,.04,0,.06,0q.6,0,.64.59c0,.05-.03.14.06.15.06,0,.05-.08.07-.12.32-.65.73-.87,1.29-.67.49.18.66.62.7,1.09.12,1.33.03,2.66.06,3.99,0,.16-.05.2-.2.19-.21,0-.42-.02-.63,0-.21.02-.24-.07-.23-.25,0-1.01,0-2.01,0-3.02,0-.19,0-.38-.07-.55-.06-.17-.17-.3-.35-.33-.2-.03-.34.09-.44.25-.17.26-.2.57-.2.87-.02.91-.02,1.82,0,2.73,0,.22-.04.31-.29.3-.73-.01-.73,0-.73-.73v-1.89Z" style="fill: rgb(35, 31, 32); stroke: rgb(255, 255, 255); stroke-miterlimit: 10; stroke-width: 0.25px;"/>
      <path class="cls-2" d="m77.38,17.68c-.19.4-.37.76-.84.86-.45.1-.83-.06-1.04-.47-.16-.3-.2-.63-.2-.97,0-1.21,0-2.41,0-3.62,0-.19.05-.25.24-.25.79-.01.79-.02.79.77,0,.9,0,1.8,0,2.7,0,.43.12.64.37.67.26.03.49-.21.58-.59.08-.3.05-.6.05-.91,0-.79,0-1.57,0-2.36,0-.2.03-.29.26-.29.76,0,.76,0,.76.77,0,1.38,0,2.77,0,4.15,0,.23-.04.33-.3.32-.65-.02-.65,0-.66-.65,0-.05,0-.1,0-.15Z" style="fill: rgb(35, 31, 32); stroke: rgb(255, 255, 255); stroke-miterlimit: 10; stroke-width: 0.25px;"/>
      <path class="cls-2" d="m40.43,18.59c-.68.01-1.41-.62-1.5-1.41,0-.04,0-.11.01-.12.18-.05.36-.08.54-.14.21-.06.32-.03.41.21.16.42.76.57,1.14.32.19-.12.24-.3.22-.52-.02-.2-.16-.28-.33-.32-.21-.05-.42-.12-.63-.15-.95-.15-1.25-.89-1.24-1.68.02-.94.49-1.48,1.4-1.63.69-.12,1.53.56,1.55,1.24,0,.07-.02.12-.08.15-.07.03-.13.06-.2.08-.25.09-.47.22-.59-.19-.09-.29-.42-.38-.74-.31-.24.05-.37.18-.39.42-.02.25.12.4.33.47.2.07.4.1.61.14.76.15,1.06.46,1.21,1.22.1.49.03.96-.18,1.4-.27.57-.77.8-1.53.83Z" style="fill: rgb(35, 31, 32); stroke: rgb(255, 255, 255); stroke-miterlimit: 10; stroke-width: 0.25px;"/>
      <path class="cls-2" d="m80.5,18.58c-.84.01-1.52-.57-1.65-1.42,0-.05-.04-.12.03-.13.25-.06.51-.11.76-.15.09-.01.1.08.13.15.18.44.56.62,1.01.49.24-.07.41-.22.41-.48,0-.26-.16-.41-.42-.46-.21-.04-.43-.09-.64-.14-.96-.22-1.15-.9-1.16-1.59,0-.61.14-1.21.75-1.52.92-.47,1.84-.19,2.18.98.03.11.02.2-.12.24-.09.02-.18.05-.26.1-.21.11-.34.12-.44-.17-.12-.34-.48-.47-.83-.37-.22.06-.34.2-.35.42-.01.21.1.37.29.43.18.07.38.12.57.15,1.18.14,1.45,1.06,1.29,2.02-.16.96-.72,1.43-1.56,1.44Z" style="fill: rgb(35, 31, 32); stroke: rgb(255, 255, 255); stroke-miterlimit: 10; stroke-width: 0.25px;"/>
      <path class="cls-2" d="m37.35,15.84c0-.79,0-1.57,0-2.36,0-.19.04-.25.24-.25.83,0,.83-.01.83.82,0,1.37,0,2.75,0,4.12,0,.23-.05.3-.29.3-.78-.01-.78,0-.78-.78,0-.62,0-1.24,0-1.85Z" style="fill: rgb(35, 31, 32); stroke: rgb(255, 255, 255); stroke-miterlimit: 10; stroke-width: 0.25px;"/>
      <path class="cls-2" d="m82.74,15.85c0-.79,0-1.57,0-2.36,0-.2.04-.29.26-.26.26.03.59-.11.76.05.16.16.05.5.05.75,0,1.38,0,2.76,0,4.15,0,.21-.04.3-.27.28-.25-.02-.58.08-.73-.05-.18-.15-.05-.49-.06-.75-.01-.61,0-1.21,0-1.82Z" style="fill: rgb(35, 31, 32); stroke: rgb(255, 255, 255); stroke-miterlimit: 10; stroke-width: 0.25px;"/>
      <path class="cls-2" d="m43.84,15.86c0,.79,0,1.57,0,2.36,0,.18-.04.25-.24.26-.79.01-.79.02-.79-.77,0-1.38,0-2.77,0-4.15,0-.23.03-.33.3-.32.73.02.73,0,.73.74,0,.63,0,1.26,0,1.89Z" style="fill: rgb(35, 31, 32); stroke: rgb(255, 255, 255); stroke-miterlimit: 10; stroke-width: 0.25px;"/>
      <path class="cls-2" d="m37.35,12c0-.71,0-.7.71-.72.28,0,.39.05.36.35-.03.3-.01.61,0,.91,0,.15-.05.21-.2.19-.04,0-.08,0-.13,0q-.74,0-.74-.74Z" style="fill: rgb(35, 31, 32); stroke: rgb(255, 255, 255); stroke-miterlimit: 10; stroke-width: 0.25px;"/>
      <path class="cls-2" d="m82.74,11.99c0-.7,0-.69.71-.71.3-.01.37.09.35.36-.02.28-.02.56,0,.85.02.22-.07.28-.26.25-.01,0-.02,0-.03,0q-.76,0-.76-.75Z" style="fill: rgb(35, 31, 32); stroke: rgb(255, 255, 255); stroke-miterlimit: 10; stroke-width: 0.25px;"/>
      <path class="cls-2" d="m42.82,12.03c0-.75,0-.74.75-.74.22,0,.29.05.28.28-.02.31-.01.63,0,.94,0,.17-.03.26-.22.23-.03,0-.06,0-.09,0q-.71,0-.71-.71Z" style="fill: rgb(35, 31, 32); stroke: rgb(255, 255, 255); stroke-miterlimit: 10; stroke-width: 0.25px;"/>
    </g>
  </g>
</svg>