<svg viewBox="521.6119 193.3833 48.36 53.7588" width="48.36" height="53.7588" xmlns="http://www.w3.org/2000/svg">
  <g id="Layer_1-2" data-name="Layer 1" transform="matrix(0.9999999999999999, 0, 0, 0.9999999999999999, 521.4818725585938, 193.2532958984375)">
    <g>
      <path class="cls-1" d="m.13,16.9c2.21.72,4.42,1.44,6.71,2.19v18.02c5.49,3.19,10.92,6.38,16.41,9.47.55.31,1.58.26,2.15-.06,5.4-3.04,10.74-6.18,16.18-9.34v-18.01c2.31-.76,4.61-1.52,6.91-2.28v23.22c-7.5,4.49-14.96,9.03-22.52,13.41-.84.49-2.44.49-3.28.01-7.57-4.38-15.05-8.92-22.55-13.42,0-7.74,0-15.48,0-23.22Z" style="fill: rgb(35, 31, 32); stroke: rgb(255, 255, 255); stroke-miterlimit: 10; stroke-width: 0.25px;"/>
      <path class="cls-1" d="m25.27.13c5.77,3.48,11.54,6.97,17.31,10.45,1.18.71,2.35,1.42,4.15,2.51-2.31,1.43-4.15,2.56-6.1,3.77-3.91-2.2-12.13-7.18-12.42-6.94v11.77h-7.3c-.16-3.46-.33-7.01-.54-11.65-4.58,2.51-8.42,4.61-12.37,6.77-1.83-1.15-3.62-2.28-6.02-3.78,2-1.25,3.55-2.24,5.13-3.19C12.51,6.59,17.93,3.36,23.34.13c.64,0,1.29,0,1.93,0Z" style="fill: rgb(35, 31, 32); stroke: rgb(255, 255, 255); stroke-miterlimit: 10; stroke-width: 0.25px;"/>
      <path class="cls-1" d="m17.8,25s19.18-.15,20.63-.06v10.6c-2.1,1.26-4.55,2.72-7.44,4.45,0-2.44-.05-9.39-.05-9.39l-20.78-.09v-11.42c2.2-1.3,7.64-4.15,7.64-4.15v10.06Z" style="fill: rgb(35, 31, 32); stroke: rgb(255, 255, 255); stroke-miterlimit: 10; stroke-width: 0.25px;"/>
      <path class="cls-1" d="m27.65,41.82c-1.2.59-2.24,1.1-3.43,1.68-1.22-.67-2.4-1.31-3.57-1.96v-8.35h7v8.62Z" style="fill: rgb(35, 31, 32); stroke: rgb(255, 255, 255); stroke-miterlimit: 10; stroke-width: 0.25px;"/>
      <path class="cls-1" d="m17.8,32.94v7.06c-2.82-1.62-5.23-3-7.69-4.41v-2.64h7.69Z" style="fill: rgb(35, 31, 32); stroke: rgb(255, 255, 255); stroke-miterlimit: 10; stroke-width: 0.25px;"/>
      <path class="cls-1" d="m30.93,14.75c2.8,1.57,5.1,2.86,7.54,4.23v2.68h-7.54v-6.91Z" style="fill: rgb(35, 31, 32); stroke: rgb(255, 255, 255); stroke-miterlimit: 10; stroke-width: 0.25px;"/>
    </g>
  </g>
</svg>