<?xml version="1.0" encoding="utf-8"?>
<svg viewBox="-242.3494 344.9879 212.1215 26.4275" width="212.1215" height="26.4275" xmlns="http://www.w3.org/2000/svg">
  <g transform="matrix(1, 0, 0, 1, 81.25067901611334, 655.4151611328125)">
    <path class="st0" d="M-303.5-306.7c0,0.1-0.1,0.2-0.1,0.3C-303.6-306.5-303.5-306.6-303.5-306.7z" style="fill: rgb(255, 255, 255);"/>
    <path class="st0" d="M-304-305.6l0.3-0.2c0.1-0.2,0.1-0.8,0.1-1.1c0-0.1,0-0.2-0.1-0.3l-0.1,0.1c0-0.2-0.1-0.6-0.1-0.6 c-0.1-0.1-0.4-0.2-0.4-0.2c-0.5-0.6-2.5,0.1-5.5,0.5c0-0.3,0.1-0.5,0.1-0.6c0,0.1-0.1,0.1-0.2,0.2c0-0.2,0.2-0.5,0.3-0.8 c0.1-0.6-0.3,0.6-0.5,0.8c-0.1,0.4-0.1,0.3-0.1,0.3s0.1-0.2,0.1-0.4c0-0.9,0.6-1.3-0.4-1.7c-0.2,0.1-0.1,0-0.2-0.1 c0,0-0.3-0.2-0.4-0.2c-0.2,0-0.2-0.1-0.5,0.3c-0.3,0.5-0.3-0.1-0.6,0.7c-0.2,0.4-0.4,1.2-0.7,1.7c0,0.2-4.6,0.5-5.1,0.9 c0.1,0,0,0.1,0,0.2c-0.3,0-0.5,0.1-0.8,0.2c-1.1,0.2-1,0.2-1.1,0.2c-0.2,0-0.2,0.1-1.1,0.3c0,0.3,0.8,0.1,1.2,0.1 c0.7,0,0.6,0.1,0.4,0.1l0,0c-0.1,0-0.1,0-0.2,0l0,0l0,0h-0.1c0,0,0,0,0,0.1c-0.2,0-0.4,0.1-0.6,0.1l0,0v-0.1 c-0.3,0-0.5,0.1-0.5,0.1s0.6,0.1-0.4,0.1c0,0.1-0.2,0-0.1,0.1c0.2,0,0.4-0.1,0.7,0c-0.7,0.1-1.4,0.1-1.7,0.2c0,0,0,0.1-0.1,0.1 c-0.3,0-0.7,0.1-1,0.1c-0.1,0-0.1-0.2-0.2,0.1c0.1,0.1,0.2,0,0.4,0h0.1c0.1,0,0.3,0,0.4,0s0.3,0.1,0.6,0.1c0.1,0,0.2,0,0.3,0 s0.2,0.1,0.3,0.1c1-0.1,1.8,0,2.2-0.1c0.2-0.1,0.5,0,0.7-0.1c0.1,0,0.2-0.1,0.3-0.1c0,0,0.2-0.1,0.3-0.1c1.6,0.1,4.7-0.5,4.7-0.3 c-1.3,0.3-2.3,0.1-2.4,0.4c0.1,0,0.1-0.1,0.2-0.1c0.1,0.1,1.8-0.1,1.8-0.1c-0.1,0.3-1.8,0.3-2.5,0.4c-0.1,0.1-0.4,0.3,0,0.2 c0.2,0,0.3-0.1,0.5-0.2c0.1,0.1-0.2,0.2,0.3,0c0.1,0,0.7,0.1,1.6-0.2c0.5,0.1-3.3,10.2-3,11.2c0.1-0.1,0.1,0,0.2,0 c-0.1,0.3-0.1,0.6-0.1,0.9c-1.5,6,0.2,0.8,0.3,1.1c-0.2,0.3,0,0.2-0.5,1.4c0,0.1-0.1,0.2,0,0.4c0.1,0,0-0.2,0.1-0.2 c-0.3,0.7-0.4,0.9-0.2,0.9c0.1-0.4,0.7-2.1-0.4,1.2c0,0,0.1,0.1,0,0.1c0,0-0.5,1.2-0.3,1.4c0.2-0.1,0.1-0.3,0.2-0.4 c0,0,0.6-1.1,0.7-1.3c0.1-0.3,0.9-2.2,1-2.5c0.1-0.1,2.4-7.4,2.4-7.6c0.5-1.3-0.9,2.5-0.7,2.8c0-0.1,0-0.2,0-0.3 c0.2-0.1,0.1-0.5,0.3-0.7c0-0.5,0.3-0.8,0.4-1.2c0.4,0.4-0.9,2.8-0.6,3.3c0,0,3.3-10.8,3.8-10.8c1.5-0.1,2.5-0.2,3.2-0.3 C-306.5-304.5-305.2-304.4-304-305.6z M-316.4-289.9L-316.4-289.9c-0.2,0-0.2,0.2-0.3,0.2c0.2-0.4,0.2-1,0.5-0.9 C-316.3-290.4-316.3-290.1-316.4-289.9L-316.4-289.9z M-316.2-290.7L-316.2-290.7c-0.1-0.1-0.1-0.2,0-0.2 C-316.2-290.8-316.2-290.8-316.2-290.7z M-313-298.5L-313-298.5C-313-298.5-313-298.6-313-298.5c0-0.1,0.1-0.2,0.2-0.7 C-312.8-298.9-312.9-298.7-313-298.5L-313-298.5z" style="fill: rgb(255, 255, 255);"/>
    <path class="st0" d="M-304.1-306C-304.1-305.9-304.1-305.9-304.1-306C-304.1-305.9-304.1-305.9-304.1-306 C-304.1-305.9-304-305.9-304.1-306L-304.1-306L-304.1-306z" style="fill: rgb(255, 255, 255);"/>
    <path class="st0" d="M-320.6-305.1c0.1,0.1,0.2,0,0.3,0.1c0.2,0,0.4,0,0.6-0.1C-319.8-305.3-320.2-305.1-320.6-305.1z" style="fill: rgb(255, 255, 255);"/>
    <path class="st0" d="M-319.6-305.1c0.1,0,0.1,0,0.2,0C-319.5-305.2-319.6-305.2-319.6-305.1z" style="fill: rgb(255, 255, 255);"/>
    <path class="st0" d="M-297.7-300.7c2.3-6.1,1.3-4.3,1.8-6.4c0.1-0.2,0.1-0.3,0.1-0.4c0,0.1-0.1,0.3-0.3,0.4l-0.1-0.1 c0-0.3,0.5-1,0.3-1.2c0,0-0.6,1.7-0.7,1.9c0-0.2,0.1-0.4,0.1-0.6c0-0.6,0.4-1,0.2-1.4c-0.1-0.2-0.1-0.1-0.5-0.5 c-0.2,0-0.1-0.1-0.1-0.2l0,0l0,0l0,0c0,0-0.2-0.2-0.4-0.3c-0.2-0.2-0.5,0.8-0.6,0.9c0,0-0.2,0,0.5,0.2h-0.1c-0.7-0.2-0.7-0.3-1,0.7 c-0.3,0.8-2.6,8.4-2.7,9c0,0-4.5,1-4.6,1l2.2-6.9c0,0-0.2,0.9,0.1,0.1c0.2-0.7,0-0.5,0-0.5s0-0.1,0-0.8c0-0.3,0.1-0.4,0.1-0.5 c0,0.1-0.1,0.2-0.2,0.2c0-0.1,0-0.2,0.1-0.3c-0.1,0.1-0.1,0.1-0.2,0.1c0,0.1-0.1,0.1-0.1,0.1c0,0.1,0,0.1-0.1,0.2 c0.1,0,0.2,0,0.3,0c0,0,0.1,0.1-0.1,0.1c-0.1,0-0.2,0-0.2,0c0,0.1-0.1,0.2-0.1,0.2c0-0.1,0-0.2,0-0.2c-0.2,0-0.3,0-0.3,0 c-0.1,0.1,0,0.2,0,0.2c-0.1,0-0.3,0.1-0.5,0.2c-0.5,0.3-1,0.4-2,0.5c-1,3.3-2.8,9.7-2.8,9.7c-0.1,0.2,0,0-0.8,0.3 c0,0,0,0.1-0.1,0.1c-0.2,0.1-0.4,0.1-0.6,0.2c0,0-0.1-0.2-0.1,0.2c0.1,0.1,0.1,0,0.2-0.1h0.1c0.1,0,0.2-0.1,0.3,0 c0.4,0.1,0.4,0,0.6-0.1c0.1,0,0.1,0.1,0.2,0.1h0.1c-0.1,0.6-0.3,0.7,0.1,0.9l-0.4,2.1c0,0.1,0,0.4,0,0.6c-0.1,0.5-0.1,0.6,0,0.7 c0.4-0.5,0.1-0.1,0.8-1.6v0.1c-0.1,0.1-0.1,0.3-0.1,0.5c-0.1-0.2,0-0.2,0-0.2c-0.1,0.3-0.1,0.4-0.2,0.6l0,0l0,0l0,0v-0.1 c-0.2,0-0.1,0.2-0.2,0.2c0.1-0.1,0.1-0.2,0.1-0.3c-0.1,0.3-0.3,0.5-0.2,0.6c0,0,0.4-0.5-0.1,0.4c0.1,0.1-0.1,0.2,0.1,0.2 c0-0.2,0-0.5,0.3-0.7c-0.1,0.4-0.3,0.9-0.5,1.7c0,0,0.1,0,0.1,0.1c-0.1,0.5-0.3,1.1-0.2,1.2c0.1-0.1,0.1-0.2,0.1-0.3v-0.1 c0.1-0.2,0.1-0.4,0.2-0.5c0.3-0.4,0.2-0.6,0.2-0.8c0,0,0.5-1.1,0.8-1.9c0-0.1,0-0.2,0.1-0.3l0,0c0.1-0.3,0.2-0.6,0.2-0.7 s0-0.2,0-0.3c0,0,0-0.1,0-0.2l0,0v-0.1c0,0,0-0.1,0-0.2l0,0v-0.1l0,0c0.2-0.3,0.2-0.8,0.4-1.1c0,0.1,0,0.1,0,0.2 c0.1-0.2,0.2-0.6,0.3-0.6c-0.3,0.6-0.1,0.7,0.1,0.3c-0.2,0.1-0.1,0,0,0c0-0.1,0-0.2,0.1-0.3c0.5-0.1,0.1-0.1,0.2,0.3 c-0.1,0-0.3,0.3,0.1,0.2c0,0,0,0,0.1,0c0.5-0.1,0.7-0.2,0.6-0.3c-0.1,0-0.1,0.1-0.2,0c0,0.1-0.2,0.1-0.1,0c-0.2,0.2-0.1,0-0.1-0.3 c0.3-0.1,0.6-0.3,0-0.1c0-0.2,0-0.1,0.3-0.2c0.1,0,0.1,0,0.1,0c-0.4-0.2,0.3-0.2,0.4-0.2c0,0.2-0.2,0.1-0.3,0.2 c0.3,0,0.2,0.1,0.8-0.1c0.1,0,0.4-0.1,0.5-0.1c0.3,0,0.5-0.2,0.8-0.2c1.1,0-0.7,0.2-1.2,0.4c0.1,0.2,0.3-0.1,0.4,0 c0.2-0.2,0.5,0,0.7-0.2c-0.1,0.6-1.7,0.2-1.8,0.8c0.3,0,0.4-0.2,0.5-0.3c0,0.1-0.1,0.1,0,0.2c0.2,0,0.9-0.2,1.3-0.4 c0,0,0,0.1,0.1,0.1c0.2,0,1.3-0.3,1.8-0.3c0.2,0-0.8,3.1-0.7,3.5c0.6-0.7-0.8,4.1-0.4,4.1c0,0,0.2,0,0.4-0.7c1-3.4,0,0.9-0.1,1.2 c0.1,0.1-0.1,0.2,0.1,0.2c0.1-0.3,0.1-0.6,0.3-0.9c-0.2,0.9-0.3,0.7-0.5,2.1c0,0,0.1,0,0.1,0.1c-0.1,0.7-0.5,1.3-0.3,1.5 c0.1-0.1,0.1-0.2,0.1-0.4l0.1-0.1c0.6-1.3,0.5-1.5,0.5-1.7c0,0,0.5-1.3,0.9-2.4l0,0c-0.1,0,0-0.2,0-0.3l0,0l0,0 c0.1-0.4,0.2-0.7,0.2-1c0-0.1,0-0.1,0-0.2l0,0c0-0.1,0-0.2,0-0.3l0,0c0-0.1,0-0.1,0-0.1v-0.1c0-0.1,0-0.1,0-0.2 c0-0.2,0.5-2,0.4-1.3c0,0.1,0,0.1,0,0.2c0.4-1.1,0.7-2.3,1.1-3.8c0.1,0,0.1-0.2-0.1,0.5c-0.6,1.7-0.3,1.8-0.3,1.5 c0-0.3,0.1-0.1,0.2-0.6c0.2-1.1,0.9-2.5,0.4-0.5c-0.9,3.2-0.3,2.5-0.3,1.8c0-0.8,0-0.3,0.1-0.4c0.1-0.3,0.2-0.9,0.3-0.8 c0.4-1.9,0.4-1.7,0.8-1.7c-0.1,0.1-0.2,0-0.3,0.1c0.8-0.1,0.4-0.3,1.6-0.8c-0.1-0.1-0.1,0.1-0.2-0.1c0.1-0.1,0.2-0.1,0.2-0.1 c0.1-0.1-0.1-0.1-0.2-0.2c0.1,0.4-0.1,0.5-0.3,0.5c0.1-0.1,0.2-0.1,0.4-0.2c1-0.8,0.6-0.4,0.8-2.2c0-0.1-0.1-0.2-0.2-0.4 C-298.4-299.6-298.4-298.8-297.7-300.7L-297.7-300.7z M-309.3-291.5L-309.3-291.5c-0.1,0-0.1-0.2,0-0.2 C-309.3-291.7-309.3-291.6-309.3-291.5z M-308.4-292c-0.1,0,0-0.2,0-0.2S-308.4-292.1-308.4-292z M-307.1-294.8L-307.1-294.8 c-0.3,0.1-0.4,0-0.4-0.1l0,0c0,0,0,0.1,0,0.2c0-0.1,0-0.1,0-0.2l0,0l0,0l0,0c0-0.1,0-0.1,0.1-0.1C-307-294.9-307-295-307.1-294.8z M-306.6-297.5C-306.6-297.5-306.7-297.5-306.6-297.5L-306.6-297.5c0-0.1,0-0.2,0-0.3C-306.7-297.5-306.7-297.5-306.6-297.5 L-306.6-297.5z M-306.5-298.2L-306.5-298.2C-306.2-299.1-306.4-298.3-306.5-298.2z M-303.7-295.6L-303.7-295.6c0,0,0.2,0,0.4,0 C-303.5-295.6-303.6-295.5-303.7-295.6z M-302.8-287.9L-302.8-287.9c-0.2,0-0.2,0.2-0.3,0.2c0.2-0.4,0.1-1,0.4-1 C-302.7-288.4-302.7-288.3-302.8-287.9L-302.8-287.9z M-302.6-288.8L-302.6-288.8c-0.1,0-0.1-0.2,0-0.2 C-302.6-289-302.6-288.9-302.6-288.8z M-301.9-289.4c-0.1,0,0-0.2,0-0.2C-301.8-289.5-301.8-289.4-301.9-289.4z M-297.8-296.6 C-297.8-296.5-297.8-296.5-297.8-296.6L-297.8-296.6z" style="fill: rgb(255, 255, 255);"/>
    <path class="st0" d="M-307.8-293.8c-0.1,0.2-0.2,0.4-0.2,0.6C-308-293.4-307.9-293.5-307.8-293.8z" style="fill: rgb(255, 255, 255);"/>
    <path class="st0" d="M-303.5-306.7c0-0.1,0-0.2,0-0.2l0,0C-303.5-306.9-303.5-306.8-303.5-306.7L-303.5-306.7z" style="fill: rgb(255, 255, 255);"/>
    <path class="st0" d="M-309.4-291.4c-0.1,0.1-0.1,0.2-0.1,0.4C-309.5-291.2-309.4-291.3-309.4-291.4L-309.4-291.4L-309.4-291.4z" style="fill: rgb(255, 255, 255);"/>
    <path class="st0" d="M-309.2-289.8c0-0.1,0.1-0.1,0-0.2C-309.1-290-309.3-289.9-309.2-289.8z" style="fill: rgb(255, 255, 255);"/>
    <path class="st0" d="M-308.7-291.2L-308.7-291.2c0.1-0.1,0.1-0.2,0.1-0.3C-308.6-291.4-308.7-291.3-308.7-291.2L-308.7-291.2 L-308.7-291.2z" style="fill: rgb(255, 255, 255);"/>
    <path class="st0" d="M-308.7-290.2L-308.7-290.2c0,0.1,0,0.1,0,0.2C-308.7-290.1-308.6-290.2-308.7-290.2z" style="fill: rgb(255, 255, 255);"/>
    <path class="st0" d="M-308.6-290.5L-308.6-290.5c0.1,0,0.1-0.1,0.1-0.1S-308.5-290.5-308.6-290.5z" style="fill: rgb(255, 255, 255);"/>
    <path class="st0" d="M-308.3-292.5c0.1,0,0.1-0.1,0-0.2C-308.3-292.7-308.3-292.6-308.3-292.5L-308.3-292.5L-308.3-292.5z" style="fill: rgb(255, 255, 255);"/>
    <path class="st0" d="M-308.1-292.9L-308.1-292.9L-308.1-292.9C-308.2-292.9-308.2-292.9-308.1-292.9 C-308.2-292.8-308.2-292.8-308.1-292.9L-308.1-292.9z" style="fill: rgb(255, 255, 255);"/>
    <path class="st0" d="M-307.8-293.8c0-0.1,0-0.2,0.1-0.3C-307.8-293.9-307.8-293.9-307.8-293.8L-307.8-293.8z" style="fill: rgb(255, 255, 255);"/>
    <path class="st0" d="M-308.1-293L-308.1-293c0-0.1,0-0.1,0-0.1S-308.1-293.1-308.1-293L-308.1-293L-308.1-293z" style="fill: rgb(255, 255, 255);"/>
    <path class="st0" d="M-307.8-292.5L-307.8-292.5c0-0.2,0-0.3,0-0.4C-307.9-292.8-308-292.6-307.8-292.5L-307.8-292.5z" style="fill: rgb(255, 255, 255);"/>
    <path class="st0" d="M-307.4-294.2L-307.4-294.2L-307.4-294.2c0,0.1,0,0.2-0.1,0.3c0.1,0,0,0.3-0.1,0.2c0,0.2-0.3,0.6,0,0.7 C-307.6-293-307.1-294.3-307.4-294.2z" style="fill: rgb(255, 255, 255);"/>
    <path class="st0" d="M-306.3-295L-306.3-295L-306.3-295C-306.4-295-306.3-295-306.3-295L-306.3-295z" style="fill: rgb(255, 255, 255);"/>
    <path class="st0" d="M-305.6-295c-0.1,0-0.2,0.1-0.2,0.1l0,0C-305.7-294.9-305.6-295-305.6-295z" style="fill: rgb(255, 255, 255);"/>
    <path class="st0" d="M-302.6-286.8c0,0.1-0.1,0.2-0.1,0.2C-302.6-286.7-302.6-286.8-302.6-286.8z" style="fill: rgb(255, 255, 255);"/>
    <path class="st0" d="M-302.6-286.6C-302.7-286.6-302.7-286.6-302.6-286.6C-302.7-286.6-302.7-286.6-302.6-286.6L-302.6-286.6z" style="fill: rgb(255, 255, 255);"/>
    <path class="st0" d="M-302.1-287.1L-302.1-287.1c-0.1,0.1,0,0.2,0,0.2C-302.2-286.9-302-287.1-302.1-287.1z" style="fill: rgb(255, 255, 255);"/>
    <path class="st0" d="M-302-288.7c0,0.1,0,0.2-0.1,0.2C-302-288.5-302-288.7-302-288.7z" style="fill: rgb(255, 255, 255);"/>
    <path class="st0" d="M-302-287.6L-302-287.6C-301.8-287.8-301.9-287.8-302-287.6z" style="fill: rgb(255, 255, 255);"/>
    <path class="st0" d="M-301.7-289.9c0.1,0,0.1-0.1,0-0.2C-301.7-290-301.7-289.9-301.7-289.9L-301.7-289.9L-301.7-289.9z" style="fill: rgb(255, 255, 255);"/>
    <path class="st0" d="M-301.6-290.2c0-0.1,0.1-0.1,0-0.2c0,0,0,0,0,0.1C-301.7-290.3-301.7-290.3-301.6-290.2 C-301.7-290.2-301.7-290.2-301.6-290.2L-301.6-290.2z" style="fill: rgb(255, 255, 255);"/>
    <path class="st0" d="M-301.6-290.5L-301.6-290.5L-301.6-290.5c0.2-0.4,0.3-0.7,0.4-1.1c0,0.1-0.1,0.2-0.1,0.3 C-301.4-290.9-301.5-290.7-301.6-290.5z" style="fill: rgb(255, 255, 255);"/>
    <path class="st0" d="M-301-289.7c0-0.2,0-0.3,0-0.5C-301-290-301.2-289.8-301-289.7z" style="fill: rgb(255, 255, 255);"/>
    <path class="st0" d="M-300.7-291.6c0.2,0.1-0.5,1-0.2,1.2c0.2-0.6,0.3-1.2,0.4-1.4C-300.7-291.9-300.5-291.7-300.7-291.6 L-300.7-291.6z" style="fill: rgb(255, 255, 255);"/>
    <path class="st0" d="M-300.6-293L-300.6-293c-0.1,0.3-0.4,0.9-0.3,1.1c0.1-0.2,0.2-0.2,0.3-0.4C-300.6-292.6-300.4-292.9-300.6-293 L-300.6-293z" style="fill: rgb(255, 255, 255);"/>
    <path class="st0" d="M-297-309.1L-297-309.1L-297-309.1L-297-309.1L-297-309.1L-297-309.1z" style="fill: rgb(255, 255, 255);"/>
    <path class="st0" d="M-296.7-309C-296.7-309-296.8-309-296.7-309L-296.7-309z" style="fill: rgb(255, 255, 255);"/>
    <path class="st0" d="M-290.5-305.7c-0.1,0.2,0.8-1.3,0.6-1.2c0,0.2,0,0.4-0.1,0.6c0-0.2,0.1-0.3,0-0.5c0-0.2-0.9,1.2-0.9,1 c-0.3,0,0.8-0.9,0.6-1c-0.1-0.1-1.4,1-1.4,0.9c0-0.2-0.1-0.2,0.1-0.5c-0.2-0.2-0.3-0.4-0.3-0.6c-0.1,0-0.2-0.1-0.3-0.1 c-1.1,0-1.5,3.2-2.9,7.8c-0.2,0.5-1.7,6.5-1.5,7c0.1-0.1,0.1,0,0.2,0.1c0.1,0.4,0.1,0.7,0.1,0.9c-0.1,0.7-0.2,1.2-0.3,1.4 c0,0.2,0,0.4,0,0.6c0,0.5-0.1,0.6,0,0.6c0.5-0.6,0.7-2.7,0.6-1c0,0.4-0.3,0.9-0.2,1c0.1,0,0-0.2,0.1-0.2c-0.2,0.5-0.3,0.8-0.1,0.8 c0-0.2,0-0.5,0.2-0.7c-0.1,0.6-0.3,1.1-0.4,1.7c0,0,0.1,0,0.1,0.1c-0.1,0.4-0.1,0.7-0.1,0.9c0,0.1-0.2,0.1,0.1,0.2 c0.1-0.1,0-0.2,0-0.3c0,0,1.3-3.4,1.3-3.8c0.1-0.9,2.3-8.7,1.4-5.5c-0.4,1.4-0.5,1.6-0.3,1.8c0-0.1,0-0.2,0-0.2 c0.2-0.1,0.1-0.5,0.3-0.6c0-0.4,0.2-0.7,0.3-1.1c0.4,0.3-0.7,2.4-0.3,2.7c0.2-0.4,0-0.6,0-0.9c0.3-0.2,2.5-8.6,3-9.7 c0,0.2-0.1,0.3,0,0.5c0.5-1.3-0.1-0.8,0.2-2.1c0-0.1,0.1-0.2,0.1-0.2c0,0.1-0.1,0.2-0.2,0.2c0-0.1,0.2-0.4,0.2-0.6 C-290.3-305.7-290.4-305.7-290.5-305.7L-290.5-305.7L-290.5-305.7z M-295.6-289.3L-295.6-289.3c-0.2,0-0.2,0.1-0.3,0.2 c0.2-0.3,0.1-0.9,0.4-0.9C-295.5-289.7-295.6-289.5-295.6-289.3z M-295.5-290L-295.5-290c-0.1,0-0.1-0.2,0-0.2 C-295.5-290.1-295.5-290-295.5-290z M-293.2-296.9L-293.2-296.9c0-0.1,0.1-0.3,0.2-0.5C-293-297.2-293.1-297-293.2-296.9z" style="fill: rgb(255, 255, 255);"/>
    <path class="st0" d="M-290.3-305.4L-290.3-305.4L-290.3-305.4z" style="fill: rgb(255, 255, 255);"/>
    <path class="st0" d="M-279-287.9C-279-287.9-279.1-288-279-287.9c0.2-0.8,0.3-0.9,0.5-1.3c0,0-0.1,0-0.1-0.1c0,0.1-0.1,0.2-0.1,0.3 c-0.1-0.1,0-0.1,0-0.2c0,0,0-0.1,0.1-0.1c-0.8-0.7-3.1-3.1-1.7-1.8c0.2,0.1,0.3,0.2,0.4,0.4c0.2,0,0.3,0.3,0.5,0.2 c0-0.1-0.1,0-0.2,0c0.1-0.2-0.2-0.2-0.2-0.4c-0.3-0.1-0.3-0.3-0.5-0.5c0.3-0.2,0.8,0.7,1.2,0.9l0,0l0,0c0.1-0.1,0.1,0,0.2,0.1 c0,0,0,0,0.1,0c-0.1-0.2-0.3-0.2-0.4-0.2c0-0.1,0.1,0,0.1-0.1c-0.1-0.1-0.3-0.2-0.2-0.2c-0.4-0.4-4.8-4.4-5.2-4.8l-0.2-0.2 c0.1,0,0.1-0.1,0.2-0.1s0.3-0.1,0.5-0.2c0.1,0,0.2-0.1,0.2-0.1l0,0c0,0,0.1,0,0.1-0.1s0.2-0.1,0.2-0.1l0,0c0.1,0,0.1-0.1,0.2-0.1 l0,0c0,0,1.5-0.8,1.7-1c1.9-1.2,3.9-2.9,4.1-4.9c-0.1,2.1-2.6,3.8-2.7,4.2c1.4-1,3.1-3.8,2.3-2.2c-0.8,1.4-2.4,2.5-2.8,2.8 c0,0.2-0.6,0.8,0.2,0.1c0.2-0.2,0.3-0.4,0.6-0.7c0.1,0-0.2,0.4,0.6-0.4c0.6-0.6,1.3-1,1.8-2.4c0.1-0.1,0.1,0,0.2-0.1 c0.5-0.9,0.6-1.9,0.4-2.8c-0.2,0.1-0.4,0.1-0.5,0.1c0,0-0.3-0.5-0.2-0.3c0.2,0.3,0-0.1,0.4-0.5c-0.2-0.2-0.2-0.3-0.2-0.5 c-0.2-0.3-0.4-0.7-0.6-0.9c-2.8-3.1-5.5-3.4-9.6-3.2c0.3-0.1,0.6,0,0.8-0.2c-1.4,0-4.6,1.5-3.7,1.2c0.1,0,0.1-0.1,0.3,0 c-0.1,0.1-0.4,0.1-0.8,0.3c-0.4,0.2-1,0.6,0.1,0.1c0.6-0.3,0.8-0.1,0.9-0.2c0.3-0.1,0.6-0.3,0.9-0.3c-0.2,0.1-2.3,0.7-2.4,1.5 c-0.1,0.3-0.2,1.1-0.2,1.1c0.1,0.1,0,0.2,0.2,0.1c0.5,0.3,0.9-0.2,0.9,0.1c0.1,0,0.3-0.2,0.4-0.1c0.1-0.1-0.1,0.2,0,0.1h0.1 l0.2-0.2h0.1c-0.1-0.3,0-0.1,0,0c0.1,0.1,1-0.3,2.5-0.5c-0.1,0.2-0.2,0.5-0.3,0.6c0.2,1-2.7,7.9-3.3,10.7c-0.4,0-0.8,0.1-1.2,0.1 c-0.7,0.1-0.1,0.2,1.1,0.2c-0.1,0.6-1.3,5.9-1.2,5.9c0.4-0.5,0.3-0.6,0.6-1.1c0.8-1.5-0.2,1-0.2,1.1c0.1,0,0-0.2,0.1-0.2 c-0.2,0.5-0.4,0.7-0.2,0.8c0.3-0.9,0.7-0.9,0.2,0.2c-0.4,0.9-0.3,0.9-0.3,0.9c-0.4,1-0.5,1-0.3,1.1c0.1,0,0.1-0.2,0.1-0.3v-0.1 c0.1-0.1,0.1-0.3,0.2-0.5c0.4-0.4,0.3-0.6,0.4-0.8c0-0.1,0.1-0.1,0.2-0.2c0.1-0.3,1-2.6,1-2.7s0.2-0.7,0.2-0.8 c0.1-0.3,0.9-2.7,1.3-3.6c0.2,0,0.3-0.1,0.5-0.1c0,0.1-0.1,0.2-0.1,0.2s0,0-0.1,0c0,0,0,0,0,0.1h0.1c0,0.2,0,0.3,0.1,0.5 c0.2-0.4,0.1-0.5,0.1-0.8l0.1,0.1c0.1,0.1,0.2,0.2,0.3,0.3c0,0,0.1,0.1,0.3,0.2c0,0,0,0,0.1,0l0,0l0,0l0,0l0,0 c0.5,0.3,1.2,0.8,1.5,1.1c0,0,0,0.1,0.1,0.1c0.1,0.1,0.2,0.1,0.2,0.1s5.6,5,5.9,5c0-0.1,0.1-0.1,0.2-0.2c0.1,0.1,0.3,0.2,0.4,0.2 c0.1,0.1,0.2,0.1,0.3,0.2C-279.2-287.7-279.1-287.8-279-287.9L-279-287.9L-279-287.9z M-277.8-303.4L-277.8-303.4 c-0.1-0.2-0.2-0.7-0.3-1C-277.9-304.1-277.8-303.7-277.8-303.4z M-291.6-289.2L-291.6-289.2c-0.3,0-0.2,0.1-0.3,0.2 c0.2-0.3,0.2-0.9,0.5-0.8C-291.5-289.5-291.6-289.4-291.6-289.2z M-291.4-289.8L-291.4-289.8c-0.1,0-0.1-0.2,0-0.2 C-291.4-289.9-291.4-289.9-291.4-289.8z M-288.2-296.7L-288.2-296.7C-288.3-296.6-288.3-296.6-288.2-296.7c0.1-0.5,0.3-1,0.3-1 C-288-297.3-288.1-297-288.2-296.7z M-284.9-306.4L-284.9-306.4c-0.1,0.1-0.1,0.1-0.2,0.1c0,0.1,0,0.1,0,0.2l0.1-0.1 C-285-306.2-284.9-306.3-284.9-306.4L-284.9-306.4C-284.8-306.3-284.8-306.3-284.9-306.4L-284.9-306.4L-284.9-306.4l0.2,0.2 l-0.1,0.1v0.1c0.1-0.1,0.1-0.2,0.1-0.2v0.1v0.1l0.1-0.1c-0.1,0.3-0.1,0.1-0.4,0.5c0-0.1,0.1-0.1,0.1-0.2c-0.1,0.1-0.1,0.1-0.1,0.2 s-0.1,0,0-0.2l0,0v-0.1v-0.1l-0.1,0.1c0-0.1,0.1-0.2,0.1-0.3v-0.1h0.1V-306.4z M-285.2-306.4L-285.2-306.4c0.1,0.1,0,0.1-0.1,0.2 C-285.3-306.2-285.3-306.2-285.2-306.4z M-287.8-298.1L-287.8-298.1L-287.8-298.1c0-0.1,0.1-0.2,0.2-0.5 C-287.6-298.4-287.7-298.3-287.8-298.1L-287.8-298.1z M-286.9-296.9c-0.1,0-0.1-0.1-0.2-0.1c-0.3,0-0.3-0.1-0.4-0.2 c0.1-0.1,0.1-0.2,0.2-0.4c0.1,0.1,0.2,0.2,0.2,0.4C-287-297.1-286.9-297-286.9-296.9L-286.9-296.9L-286.9-296.9z M-286.2-297.3 c-0.4-0.2-0.5-0.1-0.9-0.3c0.1,0.2,0.1,0,0.1,0.2c-0.2,0-0.2-0.3-0.4-0.2c0.9-2,2.5-7,2.5-7s-0.1,0.9,0.1,0c0.1-0.5,0-0.3,0-0.3 c0.1-0.5,0.2-1,0.1-0.9c-0.2,0.3,0-0.1,0.1-0.5c1.4,0.2,2.9,0.8,4.2,2.1c2.2,2.2-3.3,5.2-3.6,5.6c0.1,0,0.1,0.1,0.1,0.2 C-284.1-298.4-284.1-298.3-286.2-297.3L-286.2-297.3L-286.2-297.3z M-283.4-294.1L-283.4-294.1c0.1,0,0.2,0.1,0.4,0.3 c0.7,0.6,2.2,1.9,2.2,2c-0.1,0-1.5-1.3-2.2-2C-283.3-294-283.4-294.1-283.4-294.1z" style="fill: rgb(255, 255, 255);"/>
    <path class="st0" d="M-278.9-287.6c0,0.1-0.1,0.1-0.1,0.2l0,0c0.1,0.1,0.2,0,0.7,0.3c0.2-0.2,0-0.2-0.4-0.6 C-278.7-287.7-278.7-287.7-278.9-287.6C-278.8-287.7-278.9-287.6-278.9-287.6L-278.9-287.6z" style="fill: rgb(255, 255, 255);"/>
    <path class="st0" d="M-279.2-287.6L-279.2-287.6c0.1,0,0.1,0,0.1,0S-279.2-287.6-279.2-287.6z" style="fill: rgb(255, 255, 255);"/>
    <path class="st0" d="M-285.1-305.7c0-0.1,0.1-0.2,0.2-0.4v-0.2c0,0.1-0.1,0.1-0.1,0.2C-285-306-285-305.9-285.1-305.7 C-285.1-305.8-285.1-305.7-285.1-305.7L-285.1-305.7z" style="fill: rgb(255, 255, 255);"/>
    <path class="st0" d="M-278.1-287.6c0,0-0.1,0,0-0.1c0.2,0.3,0.3,0.4,0.4,0.2c-0.1-0.1-0.3-0.1-0.3-0.3c0.3,0.2,0.5,0.5,0.8,0.7 c0,0,0.1-0.1,0.1,0c0.6,0.4,0.5,0.5,0.6,0.4c0-0.1-0.1-0.1-0.2-0.1l0.1-0.1v-0.1c-0.1-0.1-0.2-0.1-0.2-0.3 c-0.1-0.3-0.2-0.3-0.3-0.4c0,0,0-0.1,0-0.2c0,0,0,0-0.1,0c0,0-0.1-0.1-0.3-0.3c-0.3,0.1-0.6,0.2-0.9,0.3 C-278.3-287.7-278.1-287.5-278.1-287.6L-278.1-287.6z" style="fill: rgb(255, 255, 255);"/>
    <path class="st0" d="M-291.1-288L-291.1-288L-291.1-288L-291.1-288z" style="fill: rgb(255, 255, 255);"/>
    <path class="st0" d="M-291.1-288.2c0,0.1-0.1,0.2-0.1,0.2C-291.1-288.1-291-288.1-291.1-288.2z" style="fill: rgb(255, 255, 255);"/>
    <path class="st0" d="M-290.7-289.6c-0.1,0-0.1,0.2,0,0.2S-290.6-289.6-290.7-289.6L-290.7-289.6z" style="fill: rgb(255, 255, 255);"/>
    <path class="st0" d="M-290.7-288.4L-290.7-288.4L-290.7-288.4L-290.7-288.4z" style="fill: rgb(255, 255, 255);"/>
    <path class="st0" d="M-290.7-288.4c0,0.1,0.1,0.1,0.2,0.2C-290.6-288.2-290.6-288.3-290.7-288.4z" style="fill: rgb(255, 255, 255);"/>
    <path class="st0" d="M-290.7-288.7L-290.7-288.7C-290.5-288.8-290.6-288.8-290.7-288.7L-290.7-288.7z" style="fill: rgb(255, 255, 255);"/>
    <path class="st0" d="M-290.4-290.1c0.1,0,0-0.1,0-0.2C-290.4-290.3-290.5-290.2-290.4-290.1z" style="fill: rgb(255, 255, 255);"/>
    <path class="st0" d="M-290.3-290.5L-290.3-290.5c0.1,0,0.1-0.2,0-0.3C-290.3-290.7-290.4-290.6-290.3-290.5z" style="fill: rgb(255, 255, 255);"/>
    <path class="st0" d="M-290.2-290.8L-290.2-290.8c0-0.1,0.1-0.1,0-0.2C-290.3-291-290.3-290.9-290.2-290.8z" style="fill: rgb(255, 255, 255);"/>
    <path class="st0" d="M-290.1-291.1L-290.1-291.1c0.2-0.4,0.9-2.3,0.9-2.8C-289.3-293.7-290.2-291.1-290.1-291.1z" style="fill: rgb(255, 255, 255);"/>
    <path class="st0" d="M-289.8-290.5L-289.8-290.5c0-0.2,0-0.3,0-0.4C-289.9-290.8-290-290.6-289.8-290.5z" style="fill: rgb(255, 255, 255);"/>
    <path class="st0" d="M-288.9-293.6c0.1,0-0.6,1.9-0.6,1.8c0,0.2-0.3,0.6,0,0.7c0.1-0.3,0.6-2,0.9-2.8 C-288.9-294.1-288.7-293.8-288.9-293.6L-288.9-293.6z" style="fill: rgb(255, 255, 255);"/>
    <path class="st0" d="M-288.9-294.7c0-0.1,0-0.1-0.1-0.2l0,0c0,0.2-0.5,1.2,0,0.5C-288.9-294.5-288.9-294.6-288.9-294.7l-0.1,0.1 C-289-294.7-288.9-294.7-288.9-294.7L-288.9-294.7z" style="fill: rgb(255, 255, 255);"/>
    <path class="st0" d="M-288.2-294.3c0.1-0.1,0.2-0.1,0.3-0.1l0,0C-288-294.4-288.1-294.3-288.2-294.3L-288.2-294.3z" style="fill: rgb(255, 255, 255);"/>
    <path class="st0" d="M-285.1-305.9L-285.1-305.9c0,0,0.1-0.1,0.2-0.2c0,0,0,0,0-0.1l0.1-0.1l0,0 C-285.1-306-285.1-305.9-285.1-305.9L-285.1-305.9z" style="fill: rgb(255, 255, 255);"/>
    <path class="st0" d="M-285.1-305.7L-285.1-305.7L-285.1-305.7z" style="fill: rgb(255, 255, 255);"/>
    <path class="st0" d="M-284.8-306.3L-284.8-306.3L-284.8-306.3z" style="fill: rgb(255, 255, 255);"/>
    <path class="st0" d="M-284.8-306L-284.8-306C-284.8-306.1-284.8-306.1-284.8-306L-284.8-306L-284.8-306 C-284.8-306.1-284.8-306.1-284.8-306L-284.8-306C-284.9-306.1-284.9-306-284.8-306C-284.9-306-284.9-306-284.8-306L-284.8-306z" style="fill: rgb(255, 255, 255);"/>
    <path class="st0" d="M-284.8-306.2C-284.8-306.1-284.8-306.1-284.8-306.2C-284.8-306.1-284.8-306.1-284.8-306.2z" style="fill: rgb(255, 255, 255);"/>
    <path class="st0" d="M-284.3-296.2c0.1,0,0.3-0.1,0.3-0.2C-284.1-296.4-284.1-296.4-284.3-296.2 C-284.3-296.3-284.3-296.3-284.3-296.2L-284.3-296.2z" style="fill: rgb(255, 255, 255);"/>
    <path class="st0" d="M-283.9-296c0.2-0.1,0.4-0.3,0.5-0.4C-283.6-296.3-284-296.2-283.9-296z" style="fill: rgb(255, 255, 255);"/>
    <path class="st0" d="M-283.9-296.5c0.1,0,0.2,0,0.3-0.1l0,0C-283.7-296.6-283.8-296.5-283.9-296.5L-283.9-296.5z" style="fill: rgb(255, 255, 255);"/>
    <path class="st0" d="M-281.7-297.7c-0.6,0.4-1.2,0.7-1.7,1C-282.9-296.9-282.1-297.3-281.7-297.7L-281.7-297.7z" style="fill: rgb(255, 255, 255);"/>
    <path class="st0" d="M-281.8-297.2c0.1,0.1-0.4,0.3-0.3,0.2c-0.1,0.1-0.4,0.2-0.6,0.3c-0.3,0.2-1.1,0.9,1.5-0.7l0,0 C-281.3-297.7-281.3-297.3-281.8-297.2L-281.8-297.2z" style="fill: rgb(255, 255, 255);"/>
    <path class="st0" d="M-280.7-298.3c-0.9,0.8-1.7,1.2-0.5,0.6C-281-298-280.6-298.2-280.7-298.3z" style="fill: rgb(255, 255, 255);"/>
    <path class="st0" d="M-278.9-290.4C-279-290.4-279-290.4-278.9-290.4c-0.1,0-0.2,0-0.3,0C-279.1-290.3-278.8-289.9-278.9-290.4 L-278.9-290.4z" style="fill: rgb(255, 255, 255);"/>
    <path class="st0" d="M-278.4-290.1l-0.1-0.1c0,0,0,0.1-0.1,0.1c0,0,0.1,0.1,0.2,0.1C-278.4-290-278.4-290-278.4-290.1L-278.4-290.1 z" style="fill: rgb(255, 255, 255);"/>
    <path class="st0" d="M-278.3-290.3L-278.3-290.3c0.1,0,0.1,0,0.1-0.1l-0.1-0.1c0,0,0,0,0,0.1C-278.3-290.5-278.2-290.4-278.3-290.3 L-278.3-290.3z" style="fill: rgb(255, 255, 255);"/>
    <path class="st0" d="M-264.4-305.5c-2.5-3.7-7.2-2.6-8.9-2.4c0,0,1.7-0.5-0.1-0.1c-0.5,0.1-3.2,1.4-3.4,1.5c0.8-0.3,0.9-0.2,0.4,0 c-0.2,0-1,0.5-1.1,0.6c0.6-0.2,0.8-0.5,1.2-0.5c0.3-0.1,0.5-0.1,0.7-0.2c0,0-0.1,0-0.1,0.1c-0.5,0.3-1.7,0.8-1.9,1.4 c0.2,0.4,0.3,0.8,0.4,1.2h0.1c0.7-0.3,0.5,0,0.9-0.1c0.7-0.3,1.6-0.6,2.5-0.8c-0.8,1.9-2.2,6.2-2.9,8.1c-1.8,4.2-1.5,4-1.3,4.1 c-0.7,1.4-0.9,2.5-1,3c0.1,0.1,0.2,0,0.4-0.4c-0.1,0-0.1-0.1-0.1-0.2v-0.1c0.1,0,0.1,0.1,0.2,0.1c0-0.1,0.1-0.2,0.1-0.2l0,0 c0-0.2-0.3,0-0.1-0.2l0.1,0.1c0.1-0.2,0.2-0.4,0.3-0.6v0.1c-0.1,0.2-0.1,0.4-0.2,0.6l0,0c0.1,0.1,0.2,0.1,0.3,0.2 c0.1-0.2,0.1-0.3,0.3-0.3c-0.1-0.1,0-0.2,0.1-0.2l0,0c0,0.1,0,0.1,0,0.2c-0.1,0.1-0.1,0.3-0.2,0.4h0.1c-0.1,0.1-0.1,0.1-0.2,0.1 v0.1c-0.1,0-0.3,0.3-0.3,0.2c0.1-0.1,0.1-0.2,0.2-0.3l0,0v-0.1l0,0l0,0c-0.2,0.1-0.2,0-0.3-0.1c0,0.1-0.1,0.2-0.1,0.2 c0.1,0.1,0.1,0.2,0.2,0.3c0,0,0,0-0.1,0.1c0-0.1-0.1-0.1-0.2-0.2c-0.1,0.2-0.2,0.3-0.2,0.4c0,0,0.4-0.4-0.1,0.3l0,0 c0.1-0.1,0.1-0.3,0.3-0.4c-0.1,0.2-0.1,0.3-0.2,0.4c0.1,0.1,0.1,0.1,0.1,0.1c0.1,0.1,0.2,0.2,0.3,0.3l0,0c0,0,0-0.1,0.1-0.1l0,0 l0,0c-0.1,0,0.1-0.1,0.1-0.2l0,0c0.2-0.4,0.4-0.8,0.6-1.2l0,0l0,0c-0.1,0,0-0.2,0.1-0.2v0.1c0.1-0.2,0.2-0.4,0.3-0.6l0,0l0,0v-0.1 v0.1c0-0.1,0.1-0.2,0.1-0.3l0,0l0,0l0,0l0,0c0-0.1,0-0.1,0-0.2v0.1c0-0.1,0.1-0.1,0.1-0.2c0,0,0-0.1,0.1-0.2c0.2-0.5,0.5-1,0.7-1.5 c-0.2,0.2,0.2-0.5,0.2-0.7c0,0,0,0,0,0.1c0.5-1.1,0.9-2,1-2.3c0.4-0.9-0.5,1.2-0.7,2c0.2-0.2,0.7-1.6,0.7-1.6 c0.3,0.4-1,2.3-0.8,2.7c0.3-0.3,0.3-0.5,0.3-0.7c0.5-0.3,3.6-8.9,3.7-9.1c0,0.1-0.1,0.3,0,0.4c0.2-0.6,0.6-2.7,0.4-2 c0,0.1-0.3,0.2,0-0.2c0.1-0.1,0.1-0.1,0.1-0.2c0.2-0.5-0.3,0.4-0.4,0.5c0,0.2-0.1,0.4-0.2,0.6c0-0.7,0.4-1,0.3-1.5 c2.5-0.4,4.8-0.1,5.7,1.9c0-0.1,0.1-0.1,0.2-0.1c0.1-0.1,0.3-0.2,0.3-0.2l0,0c-0.2,0.1-0.3,0.1-0.4,0.1c-0.1,0-0.1,0.1-0.2,0.1 c0,0.1,0,0.2,0.1,0.4c0.3-0.1,0,0,0,0s0.1,0.6,0,0.9c-0.9,3.8-5.7,7.7-5.4,8.3c-0.5,0.4-0.7,0.8-1,1.1c-1.3,1.2-6.8,5-0.7,1.2 c-0.9,0.9-2.4,1.6-2.5,1.7c0.1,0,0.2-0.2,0.3-0.1c-3.4,1.8,1.7-0.8-0.7,0.6c-0.9,0.4-1.6,0.8-2.1,1c0.1,0.1,0.1,0.2,0.2,0.2 c2.1-0.8,4.2-2,6-3.5l0.1-0.1l0,0l0.1-0.1c0-0.1,0.1-0.2,0.2-0.2l0,0l0,0c3.1-2.6,5.5-5.7,6.5-7.8c-1,2.5-2.8,4-2.9,4.6 c0.5-0.5,2-2.6,2.4-3.2c0,0.7-2.5,3.6-2.9,4.2c0,0.2-0.7,1.3,0.8-0.8c0.1-0.1,0,0.1,0.1,0.1c0.6-0.7,1.7-2.1,2.3-3.2 c1.7-2.3,2.3-5,0.9-7.3L-264.4-305.5L-264.4-305.5z M-275.4-306.6C-274.8-307-274.8-306.8-275.4-306.6z M-278.2-289.6 C-278.1-289.7-278.1-289.7-278.2-289.6c0.1,0,0.1,0,0.1,0H-278.2C-278.1-289.6-278.1-289.6-278.2-289.6L-278.2-289.6L-278.2-289.6z M-278-289.4C-278.1-289.4-278.1-289.4-278-289.4C-278-289.5-277.9-289.5-278-289.4z M-277.9-289.5 C-277.8-289.5-277.8-289.5-277.9-289.5C-277.8-289.4-277.9-289.4-277.9-289.5z M-276.7-291.7c-0.1,0,0-0.1,0.3-0.7l0,0 C-276.1-293.3-276.1-292.9-276.7-291.7L-276.7-291.7z M-275.7-293.9c0,0,0-0.1,0-0.2C-275.7-294-275.7-294-275.7-293.9z M-274.4-296.6c0-0.1,0,0,0.2-0.5C-274.3-296.9-274.3-296.7-274.4-296.6z M-276.9-288.6C-276.8-288.6-276.8-288.6-276.9-288.6 C-276.8-288.4-276.8-288.6-276.9-288.6z M-274.3-290c-0.1-0.1-0.7,0.2-0.5,0c0.7-0.2,1.2-1,1.4-0.8 C-273.8-290.5-274.1-290.3-274.3-290L-274.3-290L-274.3-290z M-273.4-290.8L-273.4-290.8c0-0.1,0.2-0.3,0.3-0.2 C-273.2-291-273.3-290.9-273.4-290.8z M-263.9-301.8c-0.1,0.3-0.2,0.8-0.3,1C-264-301.5-263.9-301.5-263.9-301.8L-263.9-301.8z" style="fill: rgb(255, 255, 255);"/>
    <path class="st0" d="M-280.1-287.4c0.1,0.1,0.3-0.1,0.5-0.2c0.1,0,0.2,0,0.4-0.1l-0.1-0.1C-280.1-287.5-280-287.7-280.1-287.4 L-280.1-287.4z" style="fill: rgb(255, 255, 255);"/>
    <path class="st0" d="M-276.8-306.5L-276.8-306.5L-276.8-306.5z" style="fill: rgb(255, 255, 255);"/>
    <path class="st0" d="M-278.6-287.8c0.1,0,0.1,0,0.2-0.1c-0.1-0.1-0.3-0.2-0.4-0.3C-278.8-288-278.7-287.8-278.6-287.8L-278.6-287.8 z" style="fill: rgb(255, 255, 255);"/>
    <path class="st0" d="M-279.4-286.8c0.1,0,0.1-0.2,0.1-0.3l0.1-0.1c0.1-0.1,0.1-0.2,0.2-0.3l-0.1-0.1 C-279.3-287.2-279.4-286.9-279.4-286.8L-279.4-286.8z" style="fill: rgb(255, 255, 255);"/>
    <path class="st0" d="M-278.3-288.5C-278.3-288.5-278.3-288.4-278.3-288.5L-278.3-288.5L-278.3-288.5L-278.3-288.5z" style="fill: rgb(255, 255, 255);"/>
    <path class="st0" d="M-277.9-288L-277.9-288c0.1,0,0-0.2,0-0.3l0,0c-0.1,0-0.1,0.1-0.2,0.1C-278-288.2-277.9-288.1-277.9-288 L-277.9-288z" style="fill: rgb(255, 255, 255);"/>
    <path class="st0" d="M-278.2-288.5C-278.2-288.4-278.3-288.4-278.2-288.5c-0.1,0.2-0.2,0.3-0.3,0.4c0.1,0,0.3-0.1,0.4-0.2 C-278.2-288.3-278.3-288.3-278.2-288.5c0.1,0.1,0.2,0.1,0.3,0.2c0,0,0.1,0,0.1-0.1c-0.1-0.1-0.2-0.2-0.2-0.2c0-0.2-0.1-0.2-0.2-0.2 C-278.1-288.7-278.2-288.6-278.2-288.5L-278.2-288.5L-278.2-288.5z" style="fill: rgb(255, 255, 255);"/>
    <path class="st0" d="M-277.5-289.2C-277.4-289.3-277.5-289.3-277.5-289.2l-0.1-0.1C-277.6-289.2-277.5-289.2-277.5-289.2 L-277.5-289.2z" style="fill: rgb(255, 255, 255);"/>
    <path class="st0" d="M-276.8-289.2C-276.9-289.3-277-289.2-276.8-289.2L-276.8-289.2z" style="fill: rgb(255, 255, 255);"/>
    <path class="st0" d="M-276.6-289c0,0-0.1-0.1-0.1,0H-276.6C-276.7-289-276.7-289-276.6-289L-276.6-289z" style="fill: rgb(255, 255, 255);"/>
    <path class="st0" d="M-277.9-290.2L-277.9-290.2L-277.9-290.2L-277.9-290.2z" style="fill: rgb(255, 255, 255);"/>
    <path class="st0" d="M-277.9-290.2L-277.9-290.2C-278-290.2-278-290.2-277.9-290.2C-278-290.2-277.9-290.2-277.9-290.2z" style="fill: rgb(255, 255, 255);"/>
    <path class="st0" d="M-278-290.1c0,0,0.1,0,0.1,0.1v-0.1C-277.9-290.1-277.9-290.1-278-290.1L-278-290.1L-278-290.1z" style="fill: rgb(255, 255, 255);"/>
    <path class="st0" d="M-278-289c0,0.1-0.1,0.1-0.1,0.2C-278-288.9-277.9-289-278-289z" style="fill: rgb(255, 255, 255);"/>
    <path class="st0" d="M-277.6-289.1L-277.6-289.1c-0.1,0.1,0,0.1,0,0.2C-277.6-289-277.5-289.1-277.6-289.1z" style="fill: rgb(255, 255, 255);"/>
    <path class="st0" d="M-277.3-290.3C-277.3-290.3-277.4-290.2-277.3-290.3C-277.3-290.2-277.3-290.3-277.3-290.3z" style="fill: rgb(255, 255, 255);"/>
    <path class="st0" d="M-277.4-289.5L-277.4-289.5C-277.2-289.6-277.3-289.6-277.4-289.5z" style="fill: rgb(255, 255, 255);"/>
    <path class="st0" d="M-277.1-290.9L-277.1-290.9L-277.1-290.9z" style="fill: rgb(255, 255, 255);"/>
    <path class="st0" d="M-276.9-291.2L-276.9-291.2L-276.9-291.2z" style="fill: rgb(255, 255, 255);"/>
    <path class="st0" d="M-276.7-291.6L-276.7-291.6c0,0.1-0.1,0.1-0.1,0.2l0,0C-276.7-291.5-276.6-291.5-276.7-291.6L-276.7-291.6z" style="fill: rgb(255, 255, 255);"/>
    <path class="st0" d="M-276.6-291.1c0-0.1,0.1-0.3,0.1-0.4C-276.6-291.4-276.7-291.2-276.6-291.1z" style="fill: rgb(255, 255, 255);"/>
    <path class="st0" d="M-276.5-291.1C-276.6-291.1-276.6-291.1-276.5-291.1C-276.6-291.1-276.6-291.1-276.5-291.1L-276.5-291.1 L-276.5-291.1z" style="fill: rgb(255, 255, 255);"/>
    <path class="st0" d="M-276.1-292.6L-276.1-292.6C-276.1-292.5-276-292.5-276.1-292.6C-276-292.5-276-292.6-276.1-292.6z" style="fill: rgb(255, 255, 255);"/>
    <path class="st0" d="M-276.2-291.7c0.2-0.4,0.3-0.7,0.4-1c-0.2-0.2,0,0.1-0.2,0.2c0.1,0.1-0.1,0.3-0.1,0.2c0,0.1-0.1,0.2-0.1,0.4 C-276.3-291.8-276.3-291.5-276.2-291.7z" style="fill: rgb(255, 255, 255);"/>
    <path class="st0" d="M-276.2-288.5L-276.2-288.5c0.2-0.1,0.3-0.1,0.4-0.2C-275.9-288.7-276.2-288.6-276.2-288.5z" style="fill: rgb(255, 255, 255);"/>
    <path class="st0" d="M-275.9-293.3c0-0.2,0.1-0.3,0.1-0.4c-0.1,0.2-0.2,0.4-0.3,0.6C-276-293.1-275.9-293.2-275.9-293.3z" style="fill: rgb(255, 255, 255);"/>
    <path class="st0" d="M-275.4-288.5c0.1-0.1,0.3-0.1,0.3-0.2C-275.3-288.6-275.4-288.5-275.4-288.5z" style="fill: rgb(255, 255, 255);"/>
    <path class="st0" d="M-274.7-289L-274.7-289L-274.7-289C-274.3-289.1-274.3-289.2-274.7-289z" style="fill: rgb(255, 255, 255);"/>
    <path class="st0" d="M-273.7-289.9L-273.7-289.9c0.1,0,0.3-0.2,0.3-0.3C-273.4-290.2-273.7-290-273.7-289.9L-273.7-289.9z" style="fill: rgb(255, 255, 255);"/>
    <path class="st0" d="M-272.5-290.8c0.1,0,0.2-0.1,0.3-0.2C-272.3-291-272.5-290.9-272.5-290.8z" style="fill: rgb(255, 255, 255);"/>
    <path class="st0" d="M-272.5-290.8L-272.5-290.8L-272.5-290.8L-272.5-290.8z" style="fill: rgb(255, 255, 255);"/>
    <path class="st0" d="M-271.8-291.3c0.1,0,0.3-0.2,0.3-0.3c0,0-0.1,0-0.1,0.1C-271.7-291.5-271.8-291.4-271.8-291.3z" style="fill: rgb(255, 255, 255);"/>
    <path class="st0" d="M-271.8-291.3L-271.8-291.3L-271.8-291.3L-271.8-291.3z" style="fill: rgb(255, 255, 255);"/>
    <path class="st0" d="M-271.4-291.1c0.2-0.2,0.4-0.4,0.5-0.6C-271.1-291.5-271.5-291.3-271.4-291.1z" style="fill: rgb(255, 255, 255);"/>
    <path class="st0" d="M-271.4-291.7c0.1-0.1,0.2-0.1,0.2-0.2C-271.3-291.8-271.3-291.8-271.4-291.7L-271.4-291.7z" style="fill: rgb(255, 255, 255);"/>
    <path class="st0" d="M-269.9-292.8L-269.9-292.8c-0.7,0.7-0.9,0.8-0.9,0.8C-268.6-293.9-268.7-294-269.9-292.8z" style="fill: rgb(255, 255, 255);"/>
    <path class="st0" d="M-269.1-293.1L-269.1-293.1c0.1,0.1-0.4,0.5-0.3,0.3c-0.1,0.2-0.4,0.4-0.6,0.5c-0.2,0.2-1,1.2,1.4-1.2 C-268.7-293.8-268.7-293.4-269.1-293.1L-269.1-293.1z" style="fill: rgb(255, 255, 255);"/>
    <path class="st0" d="M-268.3-294.2c0.1-0.3,0.6-0.6,0.5-0.8l0,0C-268.1-294.6-269.6-293.2-268.3-294.2z" style="fill: rgb(255, 255, 255);"/>
    <path class="st0" d="M-266.1-303.4L-266.1-303.4C-266.2-303.3-266.2-303.3-266.1-303.4z" style="fill: rgb(255, 255, 255);"/>
    <path class="st0" d="M-246.2-297.6c0.1,0,0,0.1,0.1,0.1c0.8-0.5,1.8-1.6,2.2-2.5c0.1-0.1,0.2,0.2,0.6-0.8c0.7-1.6,0.4-3.9-2.1-5.7 l-0.1,0.2c-3-2.2-5.7-1.6-6.7-1.7c0.1,0,1-0.1,0.5-0.1c-0.7,0-0.7,0-3,0.8c-0.2,0.1-0.3,0.1-0.3,0.1c0.1,0,0.3,0,0.5,0.1 c-0.2,0.2-1.2,0.2-1.4,0.5c1-0.4,2.3-0.5,2.3-0.5c-0.1,0.1-3.2,0.7-2,1.8c-0.2,0.3-0.1,0.3-0.1,0.5c0,0.1-0.2,0.2-0.1,0.3 c0.5,0.1,0.5-0.3,1.2,0c0,0,0,0.1,0,0c0.2,0,0.6-0.1,1.1-0.2v0.2c-0.2,0-0.1,0.3-0.4,1.4c-1.2,4.6-2.2,7.2-2.7,8.6h-0.1 c-0.2,0-0.4,0.1-0.7,0.1c-0.1,0-0.1-0.1-0.3,0.1c0.1,0.1,0.3,0,0.5-0.1h0.5c-0.4,1.1-0.5,1.5-0.1,1.6c-0.1,0.3-0.1,0.5-0.1,0.8 c0,0.1-0.3,1.1-0.4,1.3c0,0,0.1,0.6,0,1.1c0.3,0.1,0.2-0.6,0.8-1.6c0,0.5-0.4,1.5-0.3,1.6c0.1,0,0-0.2,0.1-0.2 c-0.8,2.2,0.6-1.4-0.1,0.9c-0.1,0.3-0.2,0.6-0.2,0.9c0,0,0.1,0,0.1,0.1c-0.2,1-0.3,1-0.2,1.1c0-0.1,0.1-0.2,0.1-0.3v-0.1 c0.1-0.2,0.1-0.4,0.2-0.5c0.3-0.5,0.2-0.6,0.3-0.8c0-0.1,0.1-0.1,0.2-0.2v-0.1c0-0.2,0.2-0.3,0.2-0.5c0.2-0.4,0.3-0.7,0.4-1 c0.2-0.1,0.1-0.3,0.2-0.5c0-0.1,0.8-2.2,1.4-3.9h-0.2c-0.1,0.3-0.1,0.5,0,0.6c0.1-0.1,0-0.2,0-0.3c0.1,0,0.3,0,0.3-0.1 c-0.1,0-0.2,0-0.2,0c0.1-0.1,0.1-0.2,0.1-0.3h0.2c-0.1,0.4-0.3,0.8-0.3,0.9c-0.2,0.5,0.1,0.9,0.2-0.1c0-0.5,0.1-0.1,0.1-0.2 s0.1-0.4,0.3-0.8c0.1,0,0.2-0.1,0.3-0.1c1.7-0.5,2.1-0.6,2.2-0.6c-0.1,0,0.1,0,0,0c1.8-0.4,6.4-3.6,7.2-5.8c-0.6,1.9-2.6,3-2.6,3.5 c1.2-0.9,2.2-2.4,2.4-2.3c-0.9,1.8-3,2.8-3.1,3.4C-246.7-297-246.5-297.3-246.2-297.6L-246.2-297.6z M-254.8-304.9L-254.8-304.9 C-254.8-304.9-254.8-304.8-254.8-304.9C-254.8-304.8-254.8-304.8-254.8-304.9z M-256.4-290.1c-0.2,0-0.1,0.1-0.2,0.2 c0.2-0.3,0.1-0.9,0.4-0.8C-256.4-290.5-256.4-290.3-256.4-290.1z M-256.3-290.8L-256.3-290.8c-0.1,0-0.1-0.2,0-0.2 C-256.3-290.9-256.3-290.9-256.3-290.8L-256.3-290.8z M-250.6-305.2L-250.6-305.2C-250.6-305.2-250.6-305.1-250.6-305.2 L-250.6-305.2z M-251-305v-0.2h0.1c0,0.3-0.1,0.5-0.1,0.6C-251.1-304.7-251-304.8-251-305L-251-305z M-253.6-304.6 c0.1,0,0.2,0,0.4,0.1C-252.6-304.3-253.6-304.5-253.6-304.6L-253.6-304.6z M-254-295.2L-254-295.2L-254-295.2L-254-295.2 L-254-295.2z M-253.9-295.4L-253.9-295.4c0-0.1,0-0.3,0.1-0.4h0.1C-253.8-295.7-253.9-295.6-253.9-295.4z M-253.6-295.3 L-253.6-295.3c-0.1,0-0.2,0-0.3,0v-0.1C-253.8-295.4-253.7-295.4-253.6-295.3L-253.6-295.3L-253.6-295.3L-253.6-295.3L-253.6-295.3 z M-253.5-295.5L-253.5-295.5L-253.5-295.5c-0.1,0.1-0.2,0.1-0.2,0.1v-0.1c0.1-0.1,0.1-0.2,0.1-0.3c0.1,0,0.1,0,0.2,0 C-253.5-295.7-253.5-295.6-253.5-295.5C-253.6-295.5-253.6-295.5-253.5-295.5L-253.5-295.5z M-253.5-296.8L-253.5-296.8 c-0.1,0.3-0.1,0.6-0.2,0.9l-0.1,0.1C-253.6-296.3-253.5-296.6-253.5-296.8L-253.5-296.8L-253.5-296.8z M-253.5-297.1 c0-0.1,0-0.1,0.2-0.5C-253.3-297.4-253.4-297.2-253.5-297.1z M-252.9-295.5L-252.9-295.5c-0.1-0.1-0.3,0-0.4,0v-0.1 c0.5-0.1,1.1-0.6,1.2-0.3C-252.3-295.8-252.6-295.6-252.9-295.5L-252.9-295.5z M-252-295.9L-252-295.9c0-0.1,0.2-0.2,0.3-0.1 C-251.8-296-251.9-295.9-252-295.9z M-253.2-295.7L-253.2-295.7L-253.2-295.7L-253.2-295.7c0-0.1,0-0.1,0.1-0.2 c0.5-0.1,1.1-0.3,1.7-0.4C-251.9-296.1-252.7-295.9-253.2-295.7z M-245.9-301.9L-245.9-301.9c-1.7,2.9-4.3,3.3-3.9,4 c-0.7,0.4-0.3,0.4-1.7,0.9c-0.3,0.1-0.6,0.2-0.9,0.3c-0.2,0.1-0.4,0.2-0.6,0.4c0.9-2.8,2.4-7.1,2.4-7.1c0,0.1-0.1,0.3,0,0.4 c0.1-0.2,0.2-0.4,0.2-0.6c0.1-0.5,0-0.1-0.1-0.1c0.1-0.3,0.1-0.8,0.1-0.7c0,0-0.1,0.2-0.1,0c0-0.1,0-0.4,0.1-0.7 c1,0,2.1,0.2,2.8,0.7C-246.6-303.8-245.8-303.3-245.9-301.9C-245.9-302-245.9-302-245.9-301.9L-245.9-301.9c0.2,0,0.3,0.1,0.7,0.3 C-245.6-301.9-245.9-301.9-245.9-301.9L-245.9-301.9z M-243.7-303.1c0.1,0.3,0.1,0.8,0,1.1l0,0 C-243.7-302.4-243.7-302.7-243.7-303.1z" style="fill: rgb(255, 255, 255);"/>
    <path class="st0" d="M-253.6-295.5L-253.6-295.5L-253.6-295.5L-253.6-295.5z" style="fill: rgb(255, 255, 255);"/>
    <path class="st0" d="M-245.9-302L-245.9-302L-245.9-302z" style="fill: rgb(255, 255, 255);"/>
    <path class="st0" d="M-257.1-286.9L-257.1-286.9C-257.5-286-256.9-286.9-257.1-286.9z" style="fill: rgb(255, 255, 255);"/>
    <path class="st0" d="M-256.1-288.8c0-0.1,0.1-0.1,0-0.2C-256.1-289-256.2-288.9-256.1-288.8z" style="fill: rgb(255, 255, 255);"/>
    <path class="st0" d="M-255.7-290.4c-0.1,0-0.1,0.2,0,0.2C-255.6-290.3-255.6-290.4-255.7-290.4L-255.7-290.4z" style="fill: rgb(255, 255, 255);"/>
    <path class="st0" d="M-255.6-289.1c-0.1,0.1,0,0.2,0,0.2C-255.6-289-255.5-289.1-255.6-289.1z" style="fill: rgb(255, 255, 255);"/>
    <path class="st0" d="M-255.6-289.2C-255.6-289.2-255.6-289.1-255.6-289.2C-255.6-289.1-255.6-289.1-255.6-289.2L-255.6-289.2z" style="fill: rgb(255, 255, 255);"/>
    <path class="st0" d="M-255.5-291.1c0,0-0.1,0.1,0,0.2C-255.4-290.9-255.5-291-255.5-291.1z" style="fill: rgb(255, 255, 255);"/>
    <path class="st0" d="M-255.5-289.5L-255.5-289.5C-255.4-289.6-255.5-289.6-255.5-289.5z" style="fill: rgb(255, 255, 255);"/>
    <path class="st0" d="M-255.4-291.1L-255.4-291.1c0.1,0,0.1-0.2,0-0.3C-255.4-291.3-255.4-291.2-255.4-291.1z" style="fill: rgb(255, 255, 255);"/>
    <path class="st0" d="M-255.2-291.4c0-0.1,0.1-0.1,0-0.2C-255.3-291.6-255.3-291.5-255.2-291.4z" style="fill: rgb(255, 255, 255);"/>
    <path class="st0" d="M-254.8-293c-0.2,0.3-0.2,0.8-0.4,1.1v0.1c0,0,0,0,0.1,0C-255-292.1-254.8-292.6-254.8-293L-254.8-293z" style="fill: rgb(255, 255, 255);"/>
    <path class="st0" d="M-254.8-291.2c0-0.2,0-0.3,0-0.5C-254.9-291.5-255-291.2-254.8-291.2z" style="fill: rgb(255, 255, 255);"/>
    <path class="st0" d="M-254.5-293.7c-0.1,0.2-0.6,1,0,0.5C-254.6-293.4-254.4-293.6-254.5-293.7z" style="fill: rgb(255, 255, 255);"/>
    <path class="st0" d="M-254.6-292.7L-254.6-292.7c0.1,0,0,0.3-0.1,0.2c0,0.2-0.3,0.6,0,0.7c0.2-0.4,0.2-0.8,0.3-1.2 C-254.7-293.1-254.4-292.9-254.6-292.7L-254.6-292.7z" style="fill: rgb(255, 255, 255);"/>
    <path class="st0" d="M-253.3-294.1c-0.2,0-0.2,0.1-0.3,0.2C-253.5-294-253.3-294-253.3-294.1z" style="fill: rgb(255, 255, 255);"/>
    <path class="st0" d="M-253.3-294.1L-253.3-294.1L-253.3-294.1L-253.3-294.1z" style="fill: rgb(255, 255, 255);"/>
    <path class="st0" d="M-252.8-294.3L-252.8-294.3L-252.8-294.3C-252.5-294.3-252.6-294.4-252.8-294.3z" style="fill: rgb(255, 255, 255);"/>
    <path class="st0" d="M-252.1-294.9L-252.1-294.9c0.1,0,0.3,0,0.3-0.1C-251.9-295-252.2-294.9-252.1-294.9z" style="fill: rgb(255, 255, 255);"/>
    <path class="st0" d="M-251-295.2c0.1,0,0.2-0.1,0.2-0.1S-251-295.3-251-295.2z" style="fill: rgb(255, 255, 255);"/>
    <path class="st0" d="M-251-295.2L-251-295.2L-251-295.2L-251-295.2z" style="fill: rgb(255, 255, 255);"/>
    <path class="st0" d="M-250.3-295.5c0.1,0,0.3-0.1,0.3-0.2C-250.1-295.7-250.3-295.6-250.3-295.5z" style="fill: rgb(255, 255, 255);"/>
    <path class="st0" d="M-249.7-295.9c-0.1,0-0.2,0.1-0.2,0.1C-249.8-295.8-249.7-295.8-249.7-295.9z" style="fill: rgb(255, 255, 255);"/>
    <path class="st0" d="M-249.8-295.2L-249.8-295.2c0.2-0.1,0.3-0.2,0.4-0.4C-249.6-295.5-249.9-295.4-249.8-295.2z" style="fill: rgb(255, 255, 255);"/>
    <path class="st0" d="M-249.4-296c0.5-0.2,1-0.5,1.4-0.8C-248.1-296.7-249-296.2-249.4-296z" style="fill: rgb(255, 255, 255);"/>
    <path class="st0" d="M-249.6-295.9L-249.6-295.9c0,0,0.1,0,0.2-0.1C-249.4-295.9-249.5-295.9-249.6-295.9L-249.6-295.9z" style="fill: rgb(255, 255, 255);"/>
    <path class="st0" d="M-248-296.4c0.1,0.1-0.3,0.3-0.3,0.2c-0.2,0.2-0.9,0.4-0.9,0.7c0.6-0.3,0.9-0.6,1.6-1 C-247.6-296.8-247.7-296.4-248-296.4L-248-296.4z" style="fill: rgb(255, 255, 255);"/>
    <path class="st0" d="M-246.8-297.6L-246.8-297.6c-0.3,0.2-0.9,0.5-1,0.8c0.3-0.2,0.4-0.1,0.5-0.2 C-247.2-297.3-246.8-297.4-246.8-297.6L-246.8-297.6z" style="fill: rgb(255, 255, 255);"/>
    <path class="st0" d="M-245.9-302L-245.9-302L-245.9-302z" style="fill: rgb(255, 255, 255);"/>
    <path class="st0" d="M-245.9-302L-245.9-302L-245.9-302L-245.9-302z" style="fill: rgb(255, 255, 255);"/>
    <path class="st0" d="M-234.3-291.1c-0.1,0.2-0.2,0.4-0.4,0.6c0.1,0,0.2,0,0.3-0.1c0.1-0.1,0.2-0.3,0.3-0.5 C-234.2-291.1-234.3-291.1-234.3-291.1L-234.3-291.1z" style="fill: rgb(255, 255, 255);"/>
    <path class="st0" d="M-235.4-290.4c0.1,0,0.3-0.1,0.4-0.1c0-0.1,0.1-0.3,0.2-0.6l0,0c-0.1,0-3.7,0.4-5.2,1.1 c-0.5,0.2-0.4,0.1-0.6,0.1h-0.1c0.4-0.1,1.6-0.5,1.6-0.7c-0.1,0-0.1,0.1-0.1,0.1c-0.2-0.2-1.1,0.5-1.3,0.1c1.1-0.5,1.7-0.4,1.8-0.8 c-0.3,0-0.3,0.2-0.5,0.3c-0.1,0,0-0.1,0-0.1c-0.4,0-1,0.3-1.3,0.5c0-0.1,0.1-0.3,0.1-0.4c-0.3-0.2,0,0-0.3,0.2c0.1,0,0,0.3-0.1,0.2 v0.1c-0.1,0-0.2,0-0.3,0c0.1-0.2,0.1-0.4,0.1-0.6c-0.1,0.1-0.2,0.3-0.2,0.5c-0.5,0.1-1.1,0.3-1.8,0.6c0.6-1.4,1.5-3.5,1.7-4.4 c0-0.1,0-0.1,0.1-0.1c0.2-0.3,0.2-0.7,0.3-1c0.8-1.7-0.7,1.7-0.5,1.9c0-0.1,0-0.2,0-0.2c0.2-0.1,0.1-0.4,0.3-0.6 c0-0.4,0.3-0.6,0.3-0.9c0.4,0.4-0.9,2.2-0.5,2.6c0.2-0.3,0.1-0.5,0.1-0.8c0.6-0.3,4-12.9,4-12.8c0,0-0.1,0.6,0,0.2 c0.2-0.7,0-0.6,0-0.7s0.1-1.1,0.1-1.2c-0.1,0.1-0.1,0.1-0.1,0.2s-0.3,0.2-0.1-0.3c0.1-0.1,0.1-0.3,0.1-0.4 c-0.1,0.3-0.2,0.6-0.4,0.7v0.1h-0.1c0-0.1,0-0.1,0-0.1c0-0.7,0.3-0.8-0.5-1.2c-0.3,0.1,0,0-0.4-0.2h0.2c-0.1,0-0.3-0.1-0.4-0.1 c-0.2,0-0.1,0.5-0.6,0.4c-0.2,0.2-0.6,1.5-0.8,1.9c0.2,0.3,0,0.3,0,0.7c0,0.2-1.4,5.5-1.4,5.6v0.1c0,0,0.1,0,0.1,0.1 c-0.1,0-0.1,0-0.1-0.1c-0.2,0.6-0.1,0.8-0.3,1.2c0,0.1-0.1,0.1-0.1,0.2s0,0.3-0.1,0.5c-0.9,4.3-2.4,6.3-1.7,6.6 c-0.1,0.3-0.1,0.5-0.1,0.7c-0.1,0.5-0.4,1.2-0.4,1.2c0,0.2,0,0.4,0,0.5c-0.2,1.8,0.6-1.1,0.8-0.8c-0.2,0.2,0,0.2-0.4,1 c0,0.1-0.1,0.2,0,0.2c-1.2,0.5-2.1,1-2.1,1s0.5-0.5-0.1-0.1c-0.1,0.1-0.1,0.1-0.2,0.2c0.3-0.1-0.8,0.8-0.8,0.9c0.2,0,0-0.1,0.3,0 c0,0.1-0.2,0.1-0.3,0.2c-0.2,0.1-0.4,0.2,0.1,0.1c0.1,0,0.2-0.1,0.3,0c0.1-0.1,0.3-0.2,0.4-0.3c-0.1,0.1-0.2,0.1-0.3,0.3 c0,0,0,0.1-0.1,0.1c-0.9,0.7-0.3,0.6-0.2,1.5c0,0.1-0.1,0.1,0,0.2c0.2,0.2,0.5,0,0.7,0.3c0.5,0,0.8-0.3,1.2-0.4 c0.4-0.9,7.2-2.8,7.5-3.2c-0.1,0,0-0.1-0.1-0.2c0.2,0,0.3-0.1,0.4-0.2c0.1,0,0.2-0.1,0.3-0.1c0,0,0,0,0-0.1h-0.1c0.1,0,0.1,0,0.1,0 v0.1c0,0,0.1,0,0.1-0.1c0.1,0,0.1,0,0.2,0l-0.1,0.1c0.1,0,0.1,0,0.1-0.1c0.2-0.1,0.3-0.1,0.3-0.1c0.2-0.1,0.2-0.2,0.7-0.4 c0-0.3-0.4,0-1.2,0c0.3-0.2,1-0.2,1.1-0.4C-235.3-290.3-235.4-290.2-235.4-290.4C-235.4-290.3-235.4-290.3-235.4-290.4 c-0.3,0.1-0.5,0.4-0.6,0.1c0.1,0,0.3-0.1,0.4-0.2C-235.5-290.3-235.4-290.4-235.4-290.4L-235.4-290.4 C-235.4-290.3-235.4-290.3-235.4-290.4c0.2,0.1,0.3,0.1,0.4,0.1v-0.1C-235.1-290.4-235.2-290.3-235.4-290.4L-235.4-290.4z M-237.3-307.5L-237.3-307.5c0.1,0.5-0.1,0.7,0,0.2l0,0C-237.3-307.4-237.3-307.5-237.3-307.5z M-240.2-296.5L-240.2-296.5 L-240.2-296.5c0,0.2-0.1,0.4-0.2,0.5C-240.4-296.2-240.4-296.2-240.2-296.5L-240.2-296.5z M-243.6-289.4 C-243.6-289.4-243.6-289.5-243.6-289.4L-243.6-289.4z M-243.3-289.6L-243.3-289.6c-0.2,0-0.2,0.1-0.3,0.1c0.2-0.3,0.1-0.8,0.4-0.7 C-243.2-290-243.2-289.8-243.3-289.6z M-243.1-290.2L-243.1-290.2c-0.1,0-0.1-0.2,0-0.2C-243.1-290.3-243.1-290.3-243.1-290.2z M-241.2-289.5L-241.2-289.5l-0.1,0.1C-241.2-289.4-241.2-289.5-241.2-289.5c0.1-0.1,0.2-0.1,0.3-0.1 C-241-289.5-241-289.5-241.2-289.5L-241.2-289.5z M-236.1-290.2c0.1,0,0.1,0,0.1,0S-236.1-290.2-236.1-290.2z" style="fill: rgb(255, 255, 255);"/>
    <path class="st0" d="M-240.4-291.7c0,0.1-0.5,1.1,0,0.5C-240.5-291.4-240.2-291.5-240.4-291.7z" style="fill: rgb(255, 255, 255);"/>
    <path class="st0" d="M-235.4-290.3L-235.4-290.3L-235.4-290.3L-235.4-290.3L-235.4-290.3L-235.4-290.3z" style="fill: rgb(255, 255, 255);"/>
    <path class="st0" d="M-235.8-289.4c0,0,0.1,0,0.1-0.1L-235.8-289.4z" style="fill: rgb(255, 255, 255);"/>
    <path class="st0" d="M-235.2-289.6c0-0.1-0.1,0-0.1,0.1C-235.3-289.5-235.2-289.5-235.2-289.6z" style="fill: rgb(255, 255, 255);"/>
    <path class="st0" d="M-234.8-290L-234.8-290C-234.9-290.1-234.9-290-234.8-290z" style="fill: rgb(255, 255, 255);"/>
    <path class="st0" d="M-234.6-290.1C-234.5-290.1-234.5-290.1-234.6-290.1C-234.5-290.1-234.5-290.1-234.6-290.1 C-234.5-290.1-234.6-290.1-234.6-290.1L-234.6-290.1z" style="fill: rgb(255, 255, 255);"/>
    <path class="st0" d="M-224.2-297.8c0.1-2.6,0.4-4.6,0.4-5.4c0-0.9-0.2-0.9,0-1.2c-0.1-0.3-0.1-0.6,0-0.7l0,0c0-0.1,0-0.1,0,0.1 c0,0.3,0.1,0.1,0-0.3h-0.1l0,0c0-0.1,0-0.2,0-0.3c-0.1,0.4-0.1-0.1-0.1-0.3c0-0.5-0.3-0.5-0.3-1.2c-0.1,0.4,0.1,0.2-0.2,0.4 c-0.1-0.2,0.1-0.8-0.1-0.9c-0.1,0.2,0,0.7-0.2,0.9c0,0.2,0.1,0.4,0,0.6c-0.3-0.4,0.1-1.7-0.9-1.6c-0.1-0.7-0.6-0.3-0.9-0.9 c-0.1-0.1,0-0.2-0.1-0.2c-1.3,0.4-1.9,1.9-4.1,7.3c-1.3,3.1-2.5,5.2-3,6.5c-1.6,0.6-0.2,0.4-1.3,0.9c-0.6,0.3-0.7,0.3-0.8,0.4 c-0.2,0.1-0.1,0.2-0.6,0.5c0.1,0.3,0.3,0,1.2-0.1c-0.3,0.3-1,0.3-1,0.5c0,0,0.1-0.1,0.1,0c-0.3,0.1-0.5,0.1-0.5,0.3 c0.1-0.1,0.3-0.2,0.5-0.1c-0.3,0.1-0.7,0.2-1.1,0.4c0,0,0.1,0-0.2,0.1c-0.1,0-0.4,0.2-0.4,0.2l0,0c0,0.1,0.1,0.1,0.1,0.1 c0-0.1,0.1,0,0.2,0c0.1,0,0.1-0.1,0.3,0c0.4,0.1,0.4-0.1,0.6-0.1c0.1,0,0.1,0.1,0.2,0c0,0,0-0.1,0.1-0.1c0.1,0,1-0.1,1-0.1 c0.1,0.1,0.2,0,0.3-0.1s0.3,0,0.4-0.1c0.3-0.2,0.4-0.2,0.5-0.2c0,0.1-0.1,0.1-0.1,0.2c-0.1,0-0.1,0.1-0.1,0.1 c0.2,0-0.1,0.4-0.1,0.5c-0.1,0.3-0.2,0.6-0.3,0.8c0.1,0,0.1,0.1,0.2,0.1c0.1,0,0.1-0.1,0.3-0.1c0.2-0.3,0.3-0.6,0.5-0.8 c0,0.3-0.1,0.5-0.3,0.8h0.1c0.1-0.2,0.1-0.3,0.3-0.3c-0.1,0.1-0.1,0.2-0.1,0.3c0.1,0,0.2,0,0.3,0h0.1l-0.1,0.1 c0.1,0,0.3-0.2,0.2,0.1c0,0,0,0-0.6,0.1l0,0l0,0l-0.1,0.1c0,0,0,0,0-0.1c-0.2,0-0.2,0.2-0.3,0.2c0,0,0,0,0-0.1h-0.1 c-0.1,0.2-0.2,0.3-0.1,0.4c0.1,0,0-0.2,0.2-0.2c0,0.1-0.1,0.2-0.1,0.2l0,0c0,0,0,0-0.1,0.1c-0.2,0.3-0.3,0.5-0.1,0.5 c0.2-0.6,0.9-1.9-0.6,1.5c-1.2,2.6,1.4-1.7,2.7-4.4c0,0.1-0.1,0.1,0.1,0c-0.2,0.2,0.2,0.1,0.1,0c0.2-0.1,0.4-0.1,0.6-0.2 c0,0.1,0,0.1,0.1,0.2c0.2-0.3-0.5,0,4.2-1.2c0,0.3,0,0.4,0.1,0.5c0.4-0.6,0.2,1.2,0.5,2.9c0.2,0.7,0.3-0.6,0.3-1 c0.3-1.7,0.1,0.9,0.2,1c0.1,0,0-0.1,0.1-0.2c0,0.5-0.2,0.8,0,0.8c0-0.5,0.1-0.8,0.1-0.7c0,0.3-0.1,1.2-0.1,1.7 c0,0.1,0.1-0.1,0.1,0.3c0,0.6,0,0.8,0,0.8c0.1,0,0.1,0.2,0.1,0.3c0.1-0.2,0.1-0.5,0-0.4c0-0.1,0.3-1.5,0.3-1.7c0-0.1-0.1,0,0-0.3 c0.1-0.2,0.2-1.1,0.3-2.2v-0.1c0-0.5,0.1-1,0.1-1.5c0-0.2,0-0.4,0-0.4c0-0.1,0-0.2,0-0.3c-0.1,0.1,0-0.6,0-0.8l0,0l0,0 c0.1-1.6,0.2-2.5,0.1-0.5c0,0.3,0.3,0.6,0.1,0.1c0.2-0.2,0-0.3,0.2-0.6c-0.1-0.5,0.1-0.8,0.1-1.2c0.5,0.2-0.3,2.5,0.3,2.7 c0.1-0.4,0-0.6-0.1-0.9c0.1-0.1,0.2,0.3,0.1-0.3c0,0,0.2-0.7,0.1-1.6C-224.4-297.4-224.3-297-224.2-297.8L-224.2-297.8z M-235.8-292.8L-235.8-292.8L-235.8-292.8L-235.8-292.8c0-0.1-0.3-0.1-0.2-0.2c0.2,0,0.5-0.3,0.6,0 C-235.6-292.9-235.7-292.9-235.8-292.8L-235.8-292.8z M-235.4-293L-235.4-293C-235.4-293.1-235.3-293.1-235.4-293 C-235.3-293.1-235.4-293.1-235.4-293z M-235-292.5C-235-292.5-234.9-292.6-235-292.5C-234.9-292.5-235-292.4-235-292.5z M-233.8-291.4L-233.8-291.4L-233.8-291.4L-233.8-291.4c-0.1-0.1,0-0.2,0.1-0.2C-233.7-291.6-233.8-291.5-233.8-291.4L-233.8-291.4 z M-234.3-289.7c0-0.1,0.1-0.1,0.1-0.1C-234.1-289.7-234.2-289.7-234.3-289.7z M-229.5-298.8c-0.1,0.2-0.1,0.4-0.3,0.6 C-229.7-298.3-229.6-298.5-229.5-298.8z M-232.2-293.2L-232.2-293.2C-232-293.3-232-293.3-232.2-293.2 C-232.2-293.2-232.2-293.2-232.2-293.2z M-232.3-292.8c-0.2,0.1-0.2,0.1,0-0.2l0,0C-232-293.1-232.1-293-232.3-292.8z M-232.1-292.8L-232.1-292.8c0-0.1,0.1-0.2,0.1-0.3c0.1,0,0.3,0,0.4-0.1C-231.7-293-231.9-292.9-232.1-292.8L-232.1-292.8z M-231.9-293.2L-231.9-293.2c0.1-0.1,0.1-0.2,0.3-0.2C-231.3-293.5-231.3-293.4-231.9-293.2z M-231-293.6L-231-293.6 c0.1,0,0.2,0,0.4-0.1C-230.8-293.6-230.9-293.6-231-293.6L-231-293.6z M-230.8-296.2L-230.8-296.2 C-229.6-298.5-229.8-298.1-230.8-296.2L-230.8-296.2z M-230.1-296.4L-230.1-296.4c-0.6,0.2-0.1,0,0.2-0.8 C-229.8-296.9-229.7-297.4-230.1-296.4z M-227.5-297.3L-227.5-297.3c-0.8,0.4,0.6,0-2.3,0.8C-226.4-303.5-227.3-303.2-227.5-297.3z M-226.2-290.9c-0.2,0.1-0.2,0.6-0.2-0.1l0,0c0-0.4,0-0.5,0.2-0.5V-290.9z M-226.2-291.7c0,0.1,0,0.1,0,0.2 C-226.3-291.6-226.3-291.7-226.2-291.7L-226.2-291.7z M-225.1-297.2C-225.1-297.1-225-297.1-225.1-297.2L-225.1-297.2 C-225.1-297.1-225.1-297.2-225.1-297.2L-225.1-297.2C-225-298.4-225-298.8-225.1-297.2L-225.1-297.2z M-225-298.5 c0-0.2,0-0.3,0.1-0.6C-224.9-298.9-224.9-298.6-225-298.5z" style="fill: rgb(255, 255, 255);"/>
    <path class="st0" d="M-234.2-290.7L-234.2-290.7L-234.2-290.7L-234.2-290.7z" style="fill: rgb(255, 255, 255);"/>
    <path class="st0" d="M-234.9-290.4C-234.9-290.4-234.9-290.5-234.9-290.4L-234.9-290.4c0,0.3,0.1,0.2,0.3-0.1 C-234.8-290.5-234.8-290.5-234.9-290.4C-234.9-290.5-234.9-290.5-234.9-290.4L-234.9-290.4z" style="fill: rgb(255, 255, 255);"/>
    <path class="st0" d="M-237.7-291.8L-237.7-291.8C-237.8-291.8-237.7-291.8-237.7-291.8z" style="fill: rgb(255, 255, 255);"/>
    <path class="st0" d="M-236.3-291.9C-236.3-291.9-236.4-291.9-236.3-291.9C-236.3-291.8-236.3-291.8-236.3-291.9z" style="fill: rgb(255, 255, 255);"/>
    <path class="st0" d="M-236-291.5C-236.1-291.5-236.1-291.5-236-291.5C-236.1-291.5-236-291.4-236-291.5z" style="fill: rgb(255, 255, 255);"/>
    <path class="st0" d="M-235.8-291.6L-235.8-291.6C-235.7-291.5-235.7-291.6-235.8-291.6z" style="fill: rgb(255, 255, 255);"/>
    <path class="st0" d="M-235.3-292.2L-235.3-292.2c-0.1,0-0.2,0-0.2,0.1C-235.4-292-235.3-292.1-235.3-292.2z" style="fill: rgb(255, 255, 255);"/>
    <path class="st0" d="M-234.7-292.3c0.1,0.1,0.1,0,0.1-0.1C-234.6-292.4-234.7-292.4-234.7-292.3z" style="fill: rgb(255, 255, 255);"/>
    <path class="st0" d="M-234.6-292.4L-234.6-292.4L-234.6-292.4L-234.6-292.4L-234.6-292.4z" style="fill: rgb(255, 255, 255);"/>
    <path class="st0" d="M-234.6-292.4L-234.6-292.4C-234.5-292.4-234.5-292.3-234.6-292.4L-234.6-292.4 C-234.5-292.5-234.6-292.5-234.6-292.4L-234.6-292.4L-234.6-292.4L-234.6-292.4z" style="fill: rgb(255, 255, 255);"/>
    <path class="st0" d="M-234.2-290.7c0.1,0,0.1,0,0.2,0c0-0.1,0.1-0.2,0.1-0.3h-0.1l0,0v0.1C-234.1-290.8-234.1-290.8-234.2-290.7 L-234.2-290.7z" style="fill: rgb(255, 255, 255);"/>
    <path class="st0" d="M-234.2-290.7C-234.2-290.7-234.2-290.6-234.2-290.7C-234.2-290.6-234.2-290.6-234.2-290.7 C-234.2-290.6-234.2-290.7-234.2-290.7L-234.2-290.7z" style="fill: rgb(255, 255, 255);"/>
    <path class="st0" d="M-233.9-289.1L-233.9-289.1c0.1-0.1,0.2-0.1,0.1-0.2C-233.8-289.2-234-289.1-233.9-289.1L-233.9-289.1z" style="fill: rgb(255, 255, 255);"/>
    <path class="st0" d="M-233.2-289.6L-233.2-289.6c-0.1,0.2-0.1,0.2-0.1,0.3C-233.3-289.4-233.1-289.6-233.2-289.6z" style="fill: rgb(255, 255, 255);"/>
    <path class="st0" d="M-233.1-290.7c0.1,0,0.1-0.2,0.1-0.2C-233.1-290.9-233.2-290.7-233.1-290.7z" style="fill: rgb(255, 255, 255);"/>
    <path class="st0" d="M-233.2-289.8L-233.2-289.8C-233-289.9-233.1-289.9-233.2-289.8z" style="fill: rgb(255, 255, 255);"/>
    <path class="st0" d="M-232.8-291.4L-232.8-291.4c0.1,0,0.1-0.1,0.1-0.2C-232.8-291.5-232.8-291.4-232.8-291.4z" style="fill: rgb(255, 255, 255);"/>
    <path class="st0" d="M-232.6-291.8c0.1,0,0.1-0.2,0.1-0.3C-232.5-292-232.6-291.9-232.6-291.8z" style="fill: rgb(255, 255, 255);"/>
    <path class="st0" d="M-232-291.8L-232-291.8c0-0.1,0.1-0.3,0-0.4C-232-292.1-232.2-291.9-232-291.8L-232-291.8z" style="fill: rgb(255, 255, 255);"/>
    <path class="st0" d="M-225.5-289.7C-225.5-289.7-225.6-289.7-225.5-289.7C-225.6-289.5-225.4-289.7-225.5-289.7z" style="fill: rgb(255, 255, 255);"/>
    <path class="st0" d="M-225.4-291.9L-225.4-291.9c0.1-0.1,0-0.2,0-0.2l0,0C-225.4-292-225.4-292-225.4-291.9L-225.4-291.9 L-225.4-291.9z" style="fill: rgb(255, 255, 255);"/>
    <path class="st0" d="M-225.4-291.4c-0.1,0.1,0,0.3,0,0.3C-225.3-291.1-225.3-291.3-225.4-291.4L-225.4-291.4z" style="fill: rgb(255, 255, 255);"/>
    <path class="st0" d="M-225.4-291.4L-225.4-291.4L-225.4-291.4L-225.4-291.4z" style="fill: rgb(255, 255, 255);"/>
    <path class="st0" d="M-225.3-293.5c0,0.6-0.1,0.7,0,0.7c0.2-0.8,0.1-1.3,0-1.2C-225.3-293.9-225.3-293.7-225.3-293.5 C-225.3-293.6-225.3-293.5-225.3-293.5L-225.3-293.5z" style="fill: rgb(255, 255, 255);"/>
    <path class="st0" d="M-225.3-292.6c-0.1,0-0.1,0.1,0,0.1C-225.3-292.6-225.2-292.6-225.3-292.6z" style="fill: rgb(255, 255, 255);"/>
    <path class="st0" d="M-225.3-292.5c0,0.1,0,0.2,0,0.2C-225.2-292.3-225.3-292.4-225.3-292.5z" style="fill: rgb(255, 255, 255);"/>
    <path class="st0" d="M-225.1-294.6c-0.1-0.2,0.1-0.4-0.1-0.5c0,0.3,0,0.5-0.1,0.8C-225.2-294.3-225.2-294.4-225.1-294.6 L-225.1-294.6z" style="fill: rgb(255, 255, 255);"/>
    <path class="st0" d="M-225.1-290.6L-225.1-290.6C-225-290.7-225.1-290.7-225.1-290.6z" style="fill: rgb(255, 255, 255);"/>
    <path class="st0" d="M-225.1-290.2c0,0.2,0,0.2,0,0.3C-225.1-290-225-290.2-225.1-290.2z" style="fill: rgb(255, 255, 255);"/>
    <path class="st0" d="M-224.8-292.4c0-0.1-0.1-0.2-0.1-0.3C-224.9-292.6-225-292.4-224.8-292.4z" style="fill: rgb(255, 255, 255);"/>
    <path class="st0" d="M-224.7-292.4L-224.7-292.4C-224.7-292.4-224.8-292.4-224.7-292.4C-224.8-292.4-224.8-292.4-224.7-292.4 L-224.7-292.4z" style="fill: rgb(255, 255, 255);"/>
    <path class="st0" d="M-224.9-293.9L-224.9-293.9c0.2,0.1,0.1,0.3,0,0.2c0,0.1,0,0.2,0,0.4c0,0.4,0.2,0.7,0.2,0c0-0.3-0.1-0.5,0-0.9 C-225-294.3-224.7-294.2-224.9-293.9z" style="fill: rgb(255, 255, 255);"/>
    <path class="st0" d="M-216.6-307L-216.6-307C-216.3-306.8-216.2-306.7-216.6-307z" style="fill: rgb(255, 255, 255);"/>
    <path class="st0" d="M-207.3-305c0-0.1,0.1-0.2,0.3-0.2c0-0.4-0.1-0.4,0.2-1c-0.8,0.8,0.3-0.5,0-0.7v-0.3c-0.1,0.1-0.2,0.7-0.6,0.9 c-0.3,1-0.1,0.1-0.1,0c0.1-0.6,0.5-0.8,0.1-1.1c-0.1,0,0.1-0.1-0.2-0.3c-0.2-0.1-0.9-0.2-0.5-0.8c0.2-0.3-0.2-0.1-0.5,0.3 c0.8,0.6,0.9,0.5,0.2,0.3c-0.4-0.1-0.3,0-0.2-0.3c-0.2-0.1-0.3,0.4-0.6,0.5c0.9,0.4,0.6,0.2,0.2,0.1c-0.1,0.1-0.2,0.1-0.2,0.1 c-0.8,0.7-3.4,8.8-3.8,10.3c-0.2-0.7,0.2,0.2,0-1.2c-0.8-4.4-0.3-5.3-0.9-6.5c-0.4-0.8-0.1-0.5-0.3-0.3c-0.1-0.1,0.1-0.3,0-0.5 c0,0-0.1,0.4-0.2,0.5c0.1,0.1,0.1,0.3,0.1,0.5c-0.1-0.1-0.3-1.2-0.6-1.3c-0.8,0-0.2,0.2-0.9,0c0.1-0.4-0.1-0.6-0.6-0.7 c0-0.1-0.1-0.2-0.1-0.3c-0.2-0.1-0.3-0.2-0.4-0.2c-0.1,0-0.1,0.2-0.6,0.4c-0.8,0.3-1.8,3.7-1.9,3.8c-4.1,9-4.1,11.3-4.4,12.6 l-0.4,1.2c-0.1,0.3,0.1,0.1-0.1,1.1c0.3,0.1,0.4-0.6,0.6-1c0.7-1.4-0.2,0.9-0.1,1c0,0,0.4-0.5-0.1,0.4c0.1,0.1-0.1,0.2,0.1,0.2 c0-0.2,0-0.4,0.2-0.6c0.2-0.3,0.1-0.8,0.4-0.7c-0.1,0.2-0.1,0.4-0.1,0.6l0,0c-0.1,0-0.1,0.1-0.2,0.2c-0.1,0.5-0.3,1-0.4,1.6 c0,0,0.1,0,0.1,0.1c-0.3,1-0.4,1-0.2,1.1c0.1,0,0.1-0.2,0.1-0.3c2-5,3-7.5,3.4-8.4c-0.3,0.7-0.6,1.7-0.5,1.8l0.7-1.7 c0.2,0.2,0.3-0.3-0.2,1.1c-0.3,0.7-0.6,1.1-0.3,1.4c0.7-1.1-0.2-0.3,4.5-10.6c1.4,7.7,0.8,8.3,1.5,8.3c0,0.2,0.1,0.4,0.1,0.6 c0.1,0.6,0.1,1,0.1,1.1c0,0.2,0.1,0.2,0.3,0.9c0.3,0,0.1-0.6,0.2-1c0.2-1.4,0.2,0.8,0.3,0.8c0,0,0-0.1,0.1-0.2 c0,0.4-0.1,0.6,0.1,0.6c0-0.1-0.1-0.3-0.1-0.4l0,0c0.1-0.3-0.2-0.7,0.1-0.8c-0.1,0-0.1-0.1,0-0.1l0,0l0,0l0,0c0,0.1,0,0.1,0,0.1 l0,0c0,0.2,0,0.3,0.1,0.5c-0.1,0-0.1,0.1-0.1,0.1l0,0c0.1,0.5,0.1,0.9,0.1,1.5c0,0,0.1,0,0.1,0.1c0,0.6,0,0.4,0.1,0.8 c0,0.1-0.1,0.1,0.1,0.2c0.1-0.1,0-0.3-0.1-0.4v-0.1c0-0.1,0-0.2,0-0.4c0.2-0.6-0.1-0.7,0-0.7c0.3-0.6,0.2-0.6,0.3-1.2 c0.5-1.6,0,1,0.1,1.1c0.1,0,0-0.2,0.1-0.2c-0.1,0.5-0.2,0.8,0,0.8c0-0.2,0-0.5,0.1-0.7c0,0.6-0.2,1.1-0.2,1.7c0,0,0.1,0,0.1,0.1 c-0.3,3.5,0.8-1.8,1.9-7.2c0.4-1.3,0.9-2.9,0,0.4c-0.1,0.3,0.1,0.7,0,0.2c0.2-0.1,0.2-0.6,0.4-1c0.3-0.7,0.1-0.6,0.4-0.5 c-0.1,0.7-0.9,2.3-0.5,2.6c0.2-0.4,0-0.6,0-0.8c0,0,3.3-8.8,3.5-9.1c0,0.2-0.1,0.3,0,0.4c0.1-0.3,0.3-0.6,0.3-0.8 c0,0-0.1,0.1-0.1,0s0-0.2,0.1-0.2h-0.1C-207.2-305-207.3-304.9-207.3-305L-207.3-305z M-223.2-289L-223.2-289c-0.1,0-0.1-0.2,0-0.2 C-223.2-289.1-223.2-289-223.2-289z M-220.3-294.9L-220.3-294.9L-220.3-294.9c0-0.1,0-0.1,0.2-0.5 C-220.1-295.2-220.2-295.1-220.3-294.9C-220.3-295-220.3-294.9-220.3-294.9z M-215.8-305.3L-215.8-305.3c0-0.1,0-0.1,0.1-0.1 C-215.5-305.4-215.6-305.4-215.8-305.3z M-213.7-298.5c0,0.1,0.1,0.1,0.1,0.2C-213.6-298.1-213.7-297.8-213.7-298.5z M-213.3-293.2 L-213.3-293.2c0-0.1-0.1-0.2-0.1-0.3c0-0.3,0-0.1,0.1-0.1C-213.2-293.6-213.3-293.5-213.3-293.2L-213.3-293.2z M-213.3-295.8 c-0.1-0.4,0-1.1-0.2-1.9l0,0C-213.4-296.9-213.3-296.2-213.3-295.8c0,0.1,0.1,0.2,0.1,0.2C-213.4-294.7-213.3-294.9-213.3-295.8z M-213.2-295.7L-213.2-295.7c0.1-0.1-0.1-0.4,0-0.6c-0.2-0.3,0-0.6-0.1-0.9C-212.7-297-213.1-295.5-213.2-295.7L-213.2-295.7z M-212.5-291L-212.5-291c-0.2,0-0.2,0.2-0.3,0.2c0.2-0.3,0-0.9,0.3-0.9C-212.5-291.1-212.5-291.4-212.5-291L-212.5-291z M-212.5-291.6c0,0-0.1-0.2,0.1-0.2C-212.5-291.7-212.4-291.6-212.5-291.6z M-210.1-298.2L-210.1-298.2c0-0.2,0.1-0.3,0.2-0.5 C-210-298.5-210-298.3-210.1-298.2z M-208.9-307.2L-208.9-307.2L-208.9-307.2C-208.8-307.2-208.8-307.2-208.9-307.2z" style="fill: rgb(255, 255, 255);"/>
    <path class="st0" d="M-223.6-288.2C-223.6-288.2-223.7-288.2-223.6-288.2C-223.7-288.2-223.6-288.2-223.6-288.2L-223.6-288.2 L-223.6-288.2L-223.6-288.2z" style="fill: rgb(255, 255, 255);"/>
    <path class="st0" d="M-214-291.4L-214-291.4c0-0.1,0-0.1,0-0.2C-213.9-291.5-214-291.4-214-291.4L-214-291.4z" style="fill: rgb(255, 255, 255);"/>
    <path class="st0" d="M-213.9-292.1L-213.9-292.1L-213.9-292.1L-213.9-292.1z" style="fill: rgb(255, 255, 255);"/>
    <path class="st0" d="M-197.9-304.8c-0.3-0.1-0.5,0-0.7,0c0-0.2,0.1,0,0.1-0.1c1,0.1,0.4,0,0.4-0.1c0,0,0.2-0.1,0.5-0.1 c-0.1-0.1-0.2,0-0.3-0.1c0.3,0.1,0.7-0.2,0.9,0h0.1c0,0,0.1-0.1,0.2,0c0.3,0,0.3-0.1-0.4-0.1c-0.4,0-1.2,0.1-1.2-0.1 c0.9-0.2,0.9-0.3,1.1-0.3c0.2,0,0,0,1.2-0.2c0.1-0.2,0-0.6,0.2-1c0-0.1,0.3-0.1-0.2-0.4c-0.4-0.2,0-0.4-0.6-0.4 c-0.2,0-0.4,0-0.7-0.1c-0.7,0.5-6.9,0.2-6.9,1.1c-0.2,0-0.3,0.1-0.4,0.1c-0.4,0.1-0.7,0.1-0.8,0.2c-0.1,0-0.2,0.1-0.3,0.2 c-1,0.5,0.8,0,0.7,0.3c-0.2-0.1-0.1,0-0.7,0.1c-0.1,0-0.1-0.1-0.2,0.1c0,0,0.1,0,0.1,0.1c-0.3,0-0.5,0-0.4,0.1c0.1,0,0.3-0.1,0.4,0 c-0.3,0.1-0.6,0.1-0.9,0.2c0,0,0,0.1-0.1,0.1c-0.1,0-0.2,0-0.3,0.1c0,0.1,0,0.1,0,0.2l0,0c0.1,0,0.2-0.1,0.3,0c0.3,0.1,0.3,0,0.4,0 l0.1,0.1c0.2,0,1,0,1.3,0c0,0,0,0,0.1,0l0,0l0,0l0,0l0,0c0.1,0,0.2,0,0.2,0l0,0c0-0.1,0.1-0.1,0.1-0.1h0.1l0.1-0.1 c-0.1,0.2-0.2,0.3-0.3,0.5c0,0,0,0-0.1,0.4c-0.1,0.2-0.1,0.3-0.1,0.4c-0.1,0.2-0.5,1.2-2.5,5.7c-0.1,0.1-0.8,0.3-0.9,0.3 c-0.1,0-0.2,0.2-0.3,0.2c-0.9,0.7,0.8-0.1,0.7,0.2c-0.2,0-0.1,0.1-0.7,0.2c-0.1,0-0.1,0-0.2,0.1c0,0,0.1,0,0.1,0.1 c-0.3,0-0.5,0-0.4,0.2c0.1-0.1,0.2-0.2,0.4-0.1c-0.3,0.1-0.7,0.2-1,0.3v0.1c-0.7,0.2-0.7,0.1-0.7,0.3c0.1,0.1,0.1,0,0.2,0h0.1 c0.1,0,0.2-0.1,0.3,0c0.3,0.1,0.4-0.1,0.5-0.1l0.1,0.1c0,0,0,0,0.1,0c0.1,0,0.2,0,0.3,0c0.9-0.1,0.5-0.4-0.2,1.7 c-0.5,1.5-0.7,1.6-0.4,1.8c-0.1,0.3-0.1,0.6-0.2,0.8c-0.2,0.7-0.4,1.1-0.4,1.3c-0.2,0.6,0.1,1.1-0.4,1.5c-0.3,0.2-0.4,0.2-0.4,0.3 c0.5,0,0.9-0.4,0.9-0.2c0.2,0.2-0.7,0.3-0.7,0.4c0,0,0.5,0-0.3,0.1c0,0.1-0.1,0-0.1,0.2c0.2-0.1,0.3-0.2,0.5-0.2 c-0.4,0.2-0.8,0.3-1.2,0.5v0.1c-0.8,0.4-0.8,0.3-0.8,0.5c0.1,0.1,0.1-0.1,0.2-0.1h0.1c0.1,0,0.2-0.1,0.4-0.1c0.4,0,0.5-0.1,0.6-0.2 c0.1,0,0.1,0,0.2,0c0,0,0,0,0.1,0c0.1-0.1,0,0,0.9-0.3c-0.2,0.5,0,0.1-0.2,0.7c-0.1,0-0.2,0.1,0,0v-0.2c-0.3,1.9,0.2-0.5,0.3-0.2 c0.1,0,0.2-0.6,0.2-0.7l4.7-1.8c-1,0.6-1.8,0.6-1.8,0.9c0.1,0,0.1-0.1,0.1-0.1c0.2,0.1,0.3-0.1,0.5-0.1c0.2-0.2,0.5-0.1,0.8-0.3 c0,0.3,0.5-0.1-1.7,0.9c0,0.1-0.1,0.1-0.1,0.2c0.1-0.1,0.4-0.1,0.5-0.2l0,0c1.6-0.6,6.2-2.3,6.8-2.4c-0.1,0.1-0.2,0-0.3,0.2 c1-0.2,0.4-0.4,1.5-0.8c-0.2,0-0.1,0.1-0.3-0.1c0.1-0.1,0.5,0,0.6-0.2c-0.2,0-0.5,0.1-0.6,0c-0.1,0.1-0.3,0.1-0.4,0.1 c0.1-0.1,0.2-0.1,0.3-0.2c0.4-0.3,0.5,0,0.8-0.5c0-0.7-0.2-0.2,0-0.9c0.5-2-6.2,1.2-8.1,2c-3.1,1.1-2.3,1.5-2,0.4 c0-0.1,0.5-1.2,0.9-2.3c-0.5,0.6,0-0.3,0.1-0.5l0,0c0.1,0.1-0.1,0.3-0.1,0.5c0.7-1.8,1.6-3.8,1.1-2.6c-0.4,1-0.9,1.9-0.8,2.2 c0.1-0.1,0-0.2,0-0.3c0.1,0,0.8-1.6,0.8-1.6c0.3,0.5-1.1,2.3-0.8,2.8c0.2-0.3,0.1-0.5,0.2-0.8c0.1,0,0,0.1,0.1,0.1 c0.2-0.3,0.6-1.3,0.7-1.9c0.1-0.1,0,0.3,0.5-0.7c0.1,0,5.6-1.1,5.7-1.1c-0.1,0.1-0.2,0-0.2,0.1c0.7-0.1,0.3-0.4,1.2-0.6 c-0.2-0.1-0.1,0.1-0.2-0.1c0.1-0.1,0.4,0,0.5-0.1c-0.1-0.1-0.4,0-0.5-0.1c-0.1,0.1-0.2,0.1-0.3,0.1c0.1-0.1,0.2-0.1,0.3-0.1 c0.1-0.1-0.1-0.1,0.2-0.1c0.8-0.2,0.3-0.6,0.6-1.2c0-0.1,0.3-0.1-0.2-0.4c-0.3-0.1-0.2-0.6-2-0.1c-0.2,0-1.3,0.5-1.8,0.5h-0.1 c-0.1,0-0.1,0.1-0.2,0.1c-0.3,0.1-0.6,0.1-0.9,0.2c-0.9,0.4-0.4,0.3,0.7-2.4c1.3-3.2,0.6-2.6,1.1-2.8l0,0c0-0.1,0,0,0.1-0.1v0.1 c0.3,0,1.1,0,1.9,0l0,0C-199.3-304.6-198.6-304.7-197.9-304.8L-197.9-304.8z M-205.4-305.2L-205.4-305.2L-205.4-305.2 c0-0.1-0.2-0.1-0.2-0.2c0.2,0.1,0.5-0.2,0.5,0.1C-205.2-305.2-205.3-305.2-205.4-305.2L-205.4-305.2z M-205.1-305.3L-205.1-305.3 C-205.1-305.4-205-305.4-205.1-305.3C-205-305.3-205-305.3-205.1-305.3z M-209.7-289.5c0.2-0.1,0.2-0.5,0.7-1.6 c0,0.4-0.5,1.4-0.5,1.5l0,0C-209.5-289.6-209.6-289.5-209.7-289.5L-209.7-289.5z M-209.7-288.6L-209.7-288.6 c-0.1-0.1-0.4,0-0.3-0.1C-210-288.6-208.8-289.2-209.7-288.6z M-209.3-289.1C-209.4-289-209.4-289-209.3-289.1 C-209.3-289.2-209.3-289.2-209.3-289.1z M-209-289.9L-209-289.9c-0.2,0-0.1,0.1-0.2,0.2c0.2-0.3,0.2-0.9,0.4-0.8 C-208.9-290.3-209-290.1-209-289.9L-209-289.9z M-208.8-290.5L-208.8-290.5c-0.1,0,0-0.2,0-0.2 C-208.8-290.6-208.8-290.6-208.8-290.5z M-204.2-290.2C-203.7-290.3-204-290.2-204.2-290.2L-204.2-290.2L-204.2-290.2 C-204.3-290.1-204.3-290.1-204.2-290.2L-204.2-290.2C-204.2-290.1-204.2-290.1-204.2-290.2L-204.2-290.2z M-208.3-290.3 L-208.3-290.3v0.1c0,0,0,0-0.1,0C-208.3-290.2-208.3-290.3-208.3-290.3C-208.3-290.4-208.3-290.4-208.3-290.3L-208.3-290.3z M-208.3-291.1L-208.3-291.1L-208.3-291.1L-208.3-291.1c0,0,0-0.1,0-0.2C-208.3-291.2-208.3-291.1-208.3-291.1z M-208.2-295.5 C-208.2-295.5-208.2-295.6-208.2-295.5L-208.2-295.5C-208.1-295.5-208.2-295.5-208.2-295.5L-208.2-295.5z M-208.1-291.5 L-208.1-291.5L-208.1-291.5c0-0.1,0-0.2,0-0.3C-208-291.7-208-291.6-208.1-291.5L-208.1-291.5z M-208.1-296.8 c0-0.1-0.2-0.1-0.2-0.1c0.2,0,0.5-0.3,0.5,0c0-0.1,0.1-0.1,0.1,0h-0.1l0,0C-207.9-296.9-208-296.8-208.1-296.8z M-208-291.8 L-208-291.8L-208-291.8c-0.1-0.1,0-0.2,0-0.2C-207.9-291.9-207.9-291.8-208-291.8L-208-291.8z M-207.9-292L-207.9-292L-207.9-292 C-207.8-292.2-206.9-294.4-207.9-292z M-204.4-296.7c-0.8,0.2-0.7,0.2-0.5-0.1C-204.3-297-203.7-296.9-204.4-296.7z M-203.4-297.3 L-203.4-297.3C-203-297.4-203.4-297.2-203.4-297.3L-203.4-297.3L-203.4-297.3z M-203.7-297.2c-0.9,0.3-1.3,0.2-0.9,0.2l0,0 c0.2,0,0.4-0.1,0.6-0.2C-204-297.1-204-297.1-203.7-297.2L-203.7-297.2z M-202.2-304L-202.2-304c0-0.1,0-0.3,0.1-0.3 C-202.1-304.2-202.1-304.1-202.2-304L-202.2-304z M-202.1-304.7L-202.1-304.7L-202.1-304.7c0.1,0,0.1,0,0.1,0 C-202-304.6-202.1-304.3-202.1-304.7z M-201.8-304.8C-202.1-304.8-202-304.8-201.8-304.8C-201.8-304.9-201.8-304.9-201.8-304.8z M-201.8-304.6c0-0.1,0-0.1,0.1-0.1C-201.6-304.7-201.7-304.7-201.8-304.6z M-201.6-304.8c0,0,0,0-0.2,0 C-201.7-305-200.6-305-201.6-304.8z M-201-305c0,0,0.2,0,0.3,0C-200.8-304.9-200.9-304.9-201-305z" style="fill: rgb(255, 255, 255);"/>
    <path class="st0" d="M-207-288.7C-207-288.7-206.9-288.7-207-288.7C-206.9-288.7-206.9-288.7-207-288.7 C-206.9-288.7-206.9-288.7-207-288.7L-207-288.7z" style="fill: rgb(255, 255, 255);"/>
    <path class="st0" d="M-210.2-287.5L-210.2-287.5c0.1,0,0.1,0,0.1-0.1C-210.1-287.5-210.2-287.5-210.2-287.5z" style="fill: rgb(255, 255, 255);"/>
    <path class="st0" d="M-209.1-287.8c0.1,0,0.1,0,0.1-0.1C-209-287.9-209.1-287.9-209.1-287.8z" style="fill: rgb(255, 255, 255);"/>
    <path class="st0" d="M-209.1-287.8L-209.1-287.8L-209.1-287.8L-209.1-287.8z" style="fill: rgb(255, 255, 255);"/>
    <path class="st0" d="M-208.6-288.1c0.1,0,0.1,0,0.1-0.1C-208.5-288.2-208.6-288.2-208.6-288.1z" style="fill: rgb(255, 255, 255);"/>
    <path class="st0" d="M-208.7-288.1C-208.7-288.1-208.6-288.1-208.7-288.1C-208.6-288.1-208.6-288.1-208.7-288.1L-208.7-288.1z" style="fill: rgb(255, 255, 255);"/>
    <path class="st0" d="M-208.4-295.9L-208.4-295.9C-208.5-295.9-208.6-295.9-208.4-295.9C-208.5-295.8-208.4-295.8-208.4-295.9z" style="fill: rgb(255, 255, 255);"/>
    <path class="st0" d="M-208.3-288.2L-208.3-288.2L-208.3-288.2L-208.3-288.2z" style="fill: rgb(255, 255, 255);"/>
    <path class="st0" d="M-208.3-288.2c0.1,0.1,0.1,0,0.1-0.1C-208.2-288.3-208.3-288.2-208.3-288.2z" style="fill: rgb(255, 255, 255);"/>
    <path class="st0" d="M-208.1-288.3L-208.1-288.3C-208.2-288.4-208.2-288.2-208.1-288.3z" style="fill: rgb(255, 255, 255);"/>
    <path class="st0" d="M-208-287.8L-208-287.8c0.1-0.1,0.2-0.1,0.2-0.2C-207.9-288-208.1-288-208-287.8z" style="fill: rgb(255, 255, 255);"/>
    <path class="st0" d="M-207.9-288.3L-207.9-288.3L-207.9-288.3L-207.9-288.3z" style="fill: rgb(255, 255, 255);"/>
    <path class="st0" d="M-207.8-288.4C-207.8-288.3-207.9-288.3-207.8-288.4c0.2,0,0.6-0.1,0.8-0.3 C-207.3-288.6-207.6-288.4-207.8-288.4L-207.8-288.4z" style="fill: rgb(255, 255, 255);"/>
    <path class="st0" d="M-207.7-291.5L-207.7-291.5c0-0.2,0-0.3,0-0.4C-207.7-291.7-207.8-291.5-207.7-291.5L-207.7-291.5z" style="fill: rgb(255, 255, 255);"/>
    <path class="st0" d="M-206.9-288.4c-0.5,0.3-0.8,0.2-0.8,0.5C-207.5-288-206.7-288.3-206.9-288.4z" style="fill: rgb(255, 255, 255);"/>
    <path class="st0" d="M-207.7-287.9L-207.7-287.9L-207.7-287.9L-207.7-287.9z" style="fill: rgb(255, 255, 255);"/>
    <path class="st0" d="M-207.4-292c0.2-0.4,0.3-0.8,0.4-1.1l0,0c-0.2-0.2,0,0.1-0.2,0.3C-207.1-292.8-207.7-292.2-207.4-292z" style="fill: rgb(255, 255, 255);"/>
    <path class="st0" d="M-207.2-293.6L-207.2-293.6L-207.2-293.6L-207.2-293.6z" style="fill: rgb(255, 255, 255);"/>
    <path class="st0" d="M-206.9-288.7L-206.9-288.7C-207-288.7-207-288.7-206.9-288.7z" style="fill: rgb(255, 255, 255);"/>
    <path class="st0" d="M-206.7-288.7c0.1-0.1,0.3-0.1,0.3-0.2c-0.3,0.1-0.5,0.2-0.5,0.2S-206.9-288.7-206.7-288.7L-206.7-288.7z" style="fill: rgb(255, 255, 255);"/>
    <path class="st0" d="M-205.8-304.4L-205.8-304.4C-205.8-304.4-205.7-304.4-205.8-304.4L-205.8-304.4z" style="fill: rgb(255, 255, 255);"/>
    <path class="st0" d="M-205.8-304.4C-205.8-304.4-205.9-304.4-205.8-304.4C-205.8-304.3-205.8-304.3-205.8-304.4z" style="fill: rgb(255, 255, 255);"/>
    <path class="st0" d="M-205.6-304L-205.6-304C-205.6-304-205.5-303.9-205.6-304L-205.6-304z" style="fill: rgb(255, 255, 255);"/>
    <path class="st0" d="M-205.3-304C-205.3-304.1-205.4-304.1-205.3-304C-205.4-304-205.3-304-205.3-304L-205.3-304L-205.3-304z" style="fill: rgb(255, 255, 255);"/>
    <path class="st0" d="M-204.9-304.5h-0.1C-205-304.4-204.9-304.4-204.9-304.5L-204.9-304.5z" style="fill: rgb(255, 255, 255);"/>
    <path class="st0" d="M-205-304L-205-304L-205-304z" style="fill: rgb(255, 255, 255);"/>
    <path class="st0" d="M-204.9-305C-204.9-304.9-204.8-305-204.9-305C-204.8-305-204.9-305-204.9-305L-204.9-305L-204.9-305z" style="fill: rgb(255, 255, 255);"/>
    <path class="st0" d="M-204.7-305c0,0.1,0.1,0,0.1-0.1l0,0C-204.6-305-204.6-305-204.7-305L-204.7-305L-204.7-305z" style="fill: rgb(255, 255, 255);"/>
    <path class="st0" d="M-201.6-304.6L-201.6-304.6c0.2,0,0.1,0,0.1-0.1C-201.6-304.6-201.6-304.6-201.6-304.6L-201.6-304.6 L-201.6-304.6z" style="fill: rgb(255, 255, 255);"/>
    <path class="st0" d="M-181-306c-0.3,0-0.7,0-0.8-0.1c-0.2,0.1-0.3,0.1-0.5,0.1c0.5-0.5,1.9,0,1.5-1.3l-0.1,0.1 c0-0.2-0.1-0.6-0.1-0.6c-0.1-0.1-0.4-0.2-0.4-0.2c-0.5-0.6-2.5,0.1-5.5,0.5c0-0.3,0.1-0.5,0.1-0.6c0,0.1-0.1,0.1-0.2,0.2 c0-0.2,0.2-0.5,0.3-0.8c0.1-0.6-0.3,0.6-0.5,0.8c-0.1,0.6-0.1,0.5-0.2,0.5c0,0,0.1-0.2,0.1-0.4c0-0.9,0.6-1.3-0.4-1.7 c-0.2,0.1-0.1,0-0.2-0.1c0,0-0.3-0.2-0.4-0.2c-0.2,0-0.2-0.1-0.5,0.3c-0.3,0.5-0.3-0.1-0.6,0.7c-0.2,0.4-0.4,1.2-0.7,1.7 c0,0.2-4.6,0.5-5.1,0.9c0.1,0,0,0.1,0,0.2c-0.3,0-0.5,0.1-0.8,0.2l0,0c0,0.1-0.1,0.1-0.2,0.2c-0.1,0-0.3,0-0.4,0.1l0.2,0.4h-0.1 c-0.1,0.1-0.2,0-0.3,0.1c0.1,0,0.2,0,0.4,0c0.1,0.1,0.4,0.1,0.6,0.1c-0.1,0.2-0.5,0-0.6,0.1c0.1,0.2,0.5,0.1,0,0.2 c-0.6,0.1-0.5,0.3-1,0.4c0-0.1,0.1,0,0.2-0.1c-0.1,0-0.4,0-0.5,0.1c0,0-1,0-2,0c0,0,0,0.1-0.1,0.1c-0.3,0-0.7,0.1-1,0.1 c-0.1,0-0.1-0.2-0.2,0.1c0.1,0.1,0.2,0,0.4,0h0.1c0.1,0,0.3,0,0.4,0c0.1,0,0.3,0.1,0.6,0.1c0.1,0,0.2,0,0.3,0s0.2,0.1,0.3,0.1 c1-0.1,1.8,0,2.2-0.1c0.2-0.1,0.5,0,0.7-0.1c0.1,0,0.2-0.1,0.3-0.1c0.2-0.1,0.3-0.1,0.5-0.1c1.6,0.1,4.7-0.5,4.7-0.3 c-1.3,0.3-2.3,0.1-2.4,0.4c0.1,0,0.1-0.1,0.2-0.1c0.1,0.1,1.8-0.1,1.8-0.1c-0.1,0.3-1.8,0.3-2.5,0.4c-0.1,0.1-0.4,0.3,0,0.2 c0.2,0,0.3-0.1,0.5-0.2c0.1,0.1-0.2,0.2,0.3,0c0.1,0,0.7,0.1,1.6-0.2c0.5,0.1-3.3,10.2-3,11.2c0.1-0.1,0.1,0,0.2,0 c-0.1,0.3-0.1,0.6-0.1,0.9c-1.5,6,0.2,0.8,0.3,1.1c-0.2,0.3,0,0.2-0.5,1.4c0,0.1-0.1,0.2,0,0.4c0.1,0,0-0.2,0.1-0.2 c-0.3,0.7-0.4,0.9-0.2,0.9c0.1-0.4,0.7-2.1-0.4,1.2c0,0,0.1,0.1,0,0.1c0,0-0.5,1.2-0.3,1.4c0.2-0.1,0.1-0.3,0.2-0.4 c0,0,0.6-1.1,0.7-1.3c0.1-0.3,0.9-2.2,1-2.5c0.1-0.1,2.4-7.4,2.4-7.6c0.5-1.3-0.9,2.5-0.7,2.8c0-0.1,0-0.2,0-0.3 c0.2-0.1,0.1-0.5,0.3-0.7c0-0.5,0.3-0.8,0.4-1.2c0.4,0.4-0.9,2.8-0.6,3.3c0,0,3.3-10.8,3.8-10.8c3.5-0.3,4.4-0.3,5.3-0.8 c0.2-0.1,0.4-0.2,0.5-0.2c-0.1,0-0.1-0.1-0.2-0.1C-181.6-305.9-181.3-305.8-181-306C-180.9-305.9-180.9-306-181-306L-181-306z M-193.6-289.9L-193.6-289.9c-0.2,0-0.2,0.2-0.3,0.2c0.2-0.4,0.2-1,0.5-0.9C-193.5-290.4-193.6-290.1-193.6-289.9L-193.6-289.9z M-193.4-290.7L-193.4-290.7c-0.1-0.1-0.1-0.2,0-0.2C-193.4-290.8-193.4-290.8-193.4-290.7z M-190.3-298.5L-190.3-298.5 C-190.3-298.5-190.3-298.6-190.3-298.5c0-0.1,0.1-0.2,0.2-0.7C-190.1-298.9-190.1-298.7-190.3-298.5L-190.3-298.5z" style="fill: rgb(255, 255, 255);"/>
    <path class="st0" d="M-197.5-305L-197.5-305c0.2,0,0.4,0,0.6-0.1c0,0,0,0,0-0.1C-197.2-305.1-197.4-305.1-197.5-305 C-197.6-305-197.5-305-197.5-305z" style="fill: rgb(255, 255, 255);"/>
    <path class="st0" d="M-196.9-305.1L-196.9-305.1c0.1,0,0.1,0,0.2,0l0,0C-196.7-305.1-196.8-305.1-196.9-305.1L-196.9-305.1 L-196.9-305.1z" style="fill: rgb(255, 255, 255);"/>
    <path class="st0" d="M-172-305.3C-172.1-305.3-172.1-305.3-172-305.3z" style="fill: rgb(255, 255, 255);"/>
    <path class="st0" d="M-169.1-301l0.1-0.1C-169-301.1-169-301-169.1-301z" style="fill: rgb(255, 255, 255);"/>
    <path class="st0" d="M-165.4-304.7c0-0.2,0.1,0,0.1-0.1c1,0.1,0.4,0,0.4-0.1c0,0,0.2-0.1,0.5-0.1c-0.1-0.1-0.2,0-0.3-0.1 c0.3,0.1,0.7-0.2,0.9,0h0.1l-2.4-0.1c0.3,0,2.8,0,2.1-0.1c-0.4,0-0.9,0-0.9-0.3c0.9-0.2,0-0.3,0.2-0.3s-1.2,0,0.1-0.2 c0.1,0-0.5,0-0.4,0c1.2-1.5,1.1-1.2,1.2-1.9c-0.1,0-0.1,0-0.1-0.1c0.1-0.1,0.1-0.2,0.1-0.2s-0.1,0.1-0.2,0c0-0.2,0.3-0.2,0.2-0.3 c-0.1,0-0.2,0.1-0.3,0.1c0.1-0.2,0.3-0.5,0.2-0.8c-0.3-0.4-0.2-0.3-0.4-0.4c0-0.3-0.1-0.2,0-0.4c0-0.1,0.3-0.2,0.2-0.3 c-0.3-0.1-0.6,0.1-0.7,0.2c0.1,0.2,0.5,0.6,0.3,0.4c-0.4-0.5-0.3-0.3-0.3-0.3l-0.1-0.1c0,0-0.2,0-0.3-0.1c-0.7,0.3-0.8,0.9-1,0.9 c0.1,0.2-0.2,0.3-0.3,0.6s-0.2,0.5-0.6,1c-2.4-2.1-9.1-1.2-11.3,3.3c-2.1,4.3,2.1,6.2,3.5,7.4c4.9,3.6,4.2,5.1,4,5.4 c0.6,0.2,0.3,0.1-0.1,0l0,0c-0.2,0.5-0.2,0.5,0,0.6c-1.3,2-5.5,2.4-5.2,2.5c1,0.3,4.9-0.9,2.6-0.1c-1.6,0.5-2.4,0.4-2.5,0.5 c0.1,0.1,0.2,0,0.3,0.1l0,0c0.6,0,1.7-0.4,1.8-0.2c-1.2,0.3-1.6,0.3-1.8,0.2c-0.5,0-1.5-0.2-1.6,0c3.5,0.3-0.4,0.3-2-0.5 c-0.5-0.3,0.7,0.7-1.7-1c-0.1,0,0-0.2-0.4-0.2c0,0,1.5,1.9,4.2,2.3c3.6,0.6,6.8-1.1,7.9-3.3c1.7-3.5-3.3-7-3.4-7.2 c-0.1-0.1-1.6-1.2,0.4,0.2c0.9,0.6,1.9,1.7,2.3,2.3c1.1,1.6,0.5,0-1.3-1.6c-0.1-0.1-0.1-0.1-0.1-0.1c-0.8-0.9-0.8-0.4-0.6-0.7 c2.9,2,4,5.9,3.6,4.3c-0.2-0.6-0.5-1-0.8-1.4c0-0.2,0.1,0.1,0.1-0.1c-2.1-4.3-9.9-5.8-6.1-9.1c0.6-0.5,2.3-1.3,3.4-1.3 c-0.2,0.1-0.4,0.1-0.5,0.1c0.1,0,0.3,0,0.6-0.1c0.4,0,2-0.4,2.5,0c0.4,0.4,0-0.1,0-0.1s-0.1-0.3,0.2-0.1c0.2,0.2,0.3,0.4,0.4,0.5 c-0.1,0.1-0.3,0.8-0.4,0.9c0.3,0,1.9,0,2.6-0.1C-166-304.2-165.2-304.7-165.4-304.7L-165.4-304.7z M-163.8-308.4 c-0.1,0.2-0.1,0.2-0.1,0.1v-0.1H-163.8L-163.8-308.4z M-164-308.4L-164-308.4L-164-308.4z M-173.4-288.2L-173.4-288.2 c0-0.1,0.4-0.2,0.4-0.1C-173.2-288.3-173.3-288.3-173.4-288.2z M-173.8-298.8c-0.1-0.1-0.4-0.3-0.8-0.6 C-174.3-299.3-174-299.1-173.8-298.8z M-168.3-305.1L-168.3-305.1c-0.1-0.2-0.3-0.4-0.4-0.5c-0.2-0.3,0-0.2-0.3-0.2 c-1.5-0.4,0.2,0,0.2,0c0.3,0,0.5,0.2,0.8,0.5C-168.2-305.3-168.3-305.2-168.3-305.1L-168.3-305.1z" style="fill: rgb(255, 255, 255);"/>
    <path class="st0" d="M-168.1-304.2c-0.1,0-0.2-0.1-0.3-0.1s-0.2,0-0.3,0l0,0c-0.3,0.6-0.4,1.2-0.4,1.3c0.1,0,0.1,0.1,0.2,0.1 c-0.1,0.2-0.1,0.4-0.1,0.5c-0.1,0.3-0.2,0.6-0.3,0.6c-0.1,0.2,0,0.2-0.1,0.7c0.2,0.1,0.3-0.3,0.5-0.5c0.4-0.4,0.2-0.2,0.1,0.1h0.1 c-0.1,0.1-0.1,0.2-0.1,0.3c-0.1-0.1-0.1,0-0.2,0c0,0.1,0,0.1,0,0.1s0.3-0.2-0.1,0.2c0.1,0.1-0.1,0.1,0.1,0.1c0-0.1,0-0.3,0.2-0.3 c-0.1,0.3-0.3,0.6-0.4,0.9c0,0,0.1,0,0,0c-0.1,0.2-0.1,0.4-0.2,0.6c0,0-0.1,0,0.1,0.2c0.1,0,0-0.1,0-0.2c0,0,0,0,0-0.1 c0.1-0.1,0.1-0.2,0.2-0.2c0.2-0.2,0.2-0.3,0.2-0.4c0,0,0.1,0,0.1-0.1l0,0l0.5-0.7c0.1,0,0.1-0.1,0.1-0.2s0.2-0.2,0.2-0.4 c0-0.1,0-0.2,0.1-0.2c0-0.1,0-0.2,0-0.2c0.6-0.7,1-2,1.1-2.2h0.1c-0.2,0.4-0.5,1-0.4,1.1c0-0.1,0-0.1,0-0.2c0.2,0,0.1-0.3,0.3-0.3 c0-0.3,0.2-0.4,0.2-0.6c0.2,0.2,0.2-0.3-0.4,1.4c0.1,0.1,0.1,0.1,0.1,0.2c0.2-0.2,0.1-0.3,0.1-0.5c0.1,0,0.4-0.6,0.8-1.4 C-166.6-304.2-167.3-304.3-168.1-304.2L-168.1-304.2z M-168.7-301.3L-168.7-301.3C-168.8-301.4-168.8-301.5-168.7-301.3 C-168.7-301.4-168.7-301.4-168.7-301.3z" style="fill: rgb(255, 255, 255);"/>
    <path class="st0" d="M-175.3-288L-175.3-288L-175.3-288L-175.3-288L-175.3-288z" style="fill: rgb(255, 255, 255);"/>
    <path class="st0" d="M-169-301.1c0-0.1,0.1-0.1,0.1-0.2C-168.9-301.3-169-301.2-169-301.1z" style="fill: rgb(255, 255, 255);"/>
    <path class="st0" d="M-169.1-300.9L-169.1-300.9C-169.1-300.9-169.1-301-169.1-300.9C-169.1-301-169.1-300.9-169.1-300.9 L-169.1-300.9z" style="fill: rgb(255, 255, 255);"/>
    <path class="st0" d="M-168.9-304.6C-168.9-304.6-168.9-304.5-168.9-304.6c-0.4,0.1-0.7,0.1-1,0.2c-0.1,0-0.1-0.2-0.2,0.1 c0.1,0.1,0.2,0,0.4,0h0.1c0.1,0,0.3,0,0.4,0c0.1,0,0.3,0.1,0.6,0.1c0.1-0.1,0.1-0.3,0.2-0.4C-168.7-304.6-168.8-304.6-168.9-304.6 L-168.9-304.6z" style="fill: rgb(255, 255, 255);"/>
    <path class="st0" d="M-151.4-306.6c-0.3,0.3-0.6,1-0.9,1.5c0.4-0.1,0.7-0.2,1-0.4c0.2-0.1,0.4-0.2,0.5-0.2c-0.1,0-0.1-0.1-0.2-0.1 c0.1-0.1,0.4,0,0.7,0c0.2,0,0.1-0.1,0.1-0.1c-0.3,0-0.7,0-0.8-0.1c-0.2,0.1-0.3,0.1-0.5,0.1c0.5-0.5,1.9,0,1.5-1.3l-0.1,0.1 c0-0.2-0.1-0.6-0.1-0.6c-0.1-0.1-0.4-0.2-0.4-0.2c-0.5-0.6-2.5,0.1-5.5,0.5c0-0.3,0.1-0.5,0.1-0.6c0,0.1-0.1,0.1-0.2,0.2 c0-0.2,0.2-0.5,0.3-0.8c0.1-0.6-0.3,0.6-0.5,0.8c-0.1,0.6-0.1,0.5-0.2,0.5c0,0,0.1-0.2,0.1-0.4c0-0.9,0.6-1.3-0.4-1.7 c-0.2,0.1-0.1,0-0.2-0.1c0,0-0.3-0.2-0.4-0.2c-0.2,0-0.2-0.1-0.5,0.3c-0.3,0.5-0.3-0.1-0.6,0.7c-0.2,0.4-0.4,1.2-0.7,1.7 c0,0.2-4.6,0.5-5.1,0.9c0.1,0,0,0.1,0,0.2c-0.2,0-0.3,0-0.5,0.1c-0.1,0.1-0.2,0.3-0.3,0.4c-0.4,0.5-0.7,1-0.9,1.4 c0.1,0,0.2,0,0.2,0c0.2-0.1,0.5,0,0.7-0.1c0.1,0,0.2-0.1,0.3-0.1c0.2-0.1,0.3-0.1,0.5-0.1c1.6,0.1,4.7-0.5,4.7-0.3 c-1.3,0.3-2.3,0.1-2.4,0.4c0.1,0,0.1-0.1,0.2-0.1c0.1,0.1,1.8-0.1,1.8-0.1c-0.1,0.3-1.8,0.3-2.5,0.4c-0.1,0.1-0.4,0.3,0,0.2 c0.2,0,0.3-0.1,0.5-0.2c0.1,0.1-0.2,0.2,0.3,0c0.1,0,0.7,0.1,1.6-0.2c0.5,0.1-3.3,10.2-3,11.2c0.1-0.1,0.1,0,0.2,0 c-0.1,0.3-0.1,0.6-0.1,0.9c-1.5,6,0.2,0.8,0.3,1.1c-0.2,0.3,0,0.2-0.5,1.4c0,0.1-0.1,0.2,0,0.4c0.1,0,0-0.2,0.1-0.2 c-0.3,0.7-0.4,0.9-0.2,0.9c0.1-0.4,0.7-2.1-0.4,1.2c0,0,0.1,0.1,0,0.1c0,0-0.5,1.2-0.3,1.4c0.2-0.1,0.1-0.3,0.2-0.4 c0,0,0.6-1.1,0.7-1.3c0.1-0.3,0.9-2.2,1-2.5c0.1-0.1,2.4-7.4,2.4-7.6c0.5-1.3-0.9,2.5-0.7,2.8c0-0.1,0-0.2,0-0.3 c0.2-0.1,0.1-0.5,0.3-0.7c0-0.5,0.3-0.8,0.4-1.2c0.4,0.4-0.9,2.8-0.6,3.3c0,0,3.3-10.8,3.8-10.8c1.4-0.1,2.4-0.2,3.1-0.3v-0.1 c0,0.1,0,0.1,0,0.1c0.2,0,0.4-0.1,0.6-0.1C-152.2-306-151-307.4-151.4-306.6L-151.4-306.6z M-162.9-289.9L-162.9-289.9 c-0.2,0-0.2,0.2-0.3,0.2c0.2-0.4,0.2-1,0.5-0.9C-162.8-290.4-162.8-290.1-162.9-289.9L-162.9-289.9z M-162.7-290.7L-162.7-290.7 c-0.1-0.1-0.1-0.2,0-0.2C-162.7-290.8-162.7-290.8-162.7-290.7z M-159.5-298.5L-159.5-298.5C-159.5-298.5-159.5-298.6-159.5-298.5 c0-0.1,0.1-0.2,0.2-0.7C-159.3-298.9-159.4-298.7-159.5-298.5C-159.5-298.6-159.5-298.5-159.5-298.5L-159.5-298.5z M-153-305 c0-0.1,0-0.1,0.1-0.2C-152.9-305.2-153-305.1-153-305z" style="fill: rgb(255, 255, 255);"/>
    <path class="st0" d="M-164.3-304.9L-164.3-304.9c0.2,0,0.4,0,0.6-0.1c0,0,0,0,0-0.1C-163.9-305-164.1-305-164.3-304.9 C-164.3-305-164.3-305-164.3-304.9z" style="fill: rgb(255, 255, 255);"/>
    <path class="st0" d="M-163.6-305l-2.5-0.1c0.1,0,0.1,0,0.2,0c0,0,0.4-0.2,0.3-0.2S-163.6-305.1-163.6-305 C-163.6-305.1-163.6-305.1-163.6-305L-163.6-305z" style="fill: rgb(255, 255, 255);"/>
    <path class="st0" d="M-142.5-304C-142.5-304-142.5-304.1-142.5-304c0-0.2,0.1-0.4,0.3-0.6l0,0c0,0,0,0-0.1-0.1 c-0.1,0.2-0.2,0.4-0.3,0.6C-142.5-304.1-142.5-304-142.5-304L-142.5-304z" style="fill: rgb(255, 255, 255);"/>
    <path class="st0" d="M-143.4-306.6L-143.4-306.6C-143.2-306.6-143.1-306.6-143.4-306.6z" style="fill: rgb(255, 255, 255);"/>
    <path class="st0" d="M-142.4-303.8L-142.4-303.8c-0.1,0.1-0.1,0.1-0.2,0.2c0-0.1,0-0.2,0.1-0.3l-0.1-0.1c-0.2,0.4-0.3,0.7-0.4,0.9 c0.3-1.4,1-2.8-0.1-2.8c0-0.4-0.1-0.4-0.2-0.5c0-0.1,0-0.1-0.1-0.2c-0.1,0-0.2,0-0.2,0c-1.9,0.8-5,15.2-9.1,16.9 c-0.7,0.3-0.7,0.1-0.7,0.3c0,0,0,0-0.1,0c-0.7,0.7-0.5,0.6-0.5,0.4c0.1-0.1,0.1-0.7,0.2-0.7c0.3,0.1,0.3,0.1,0.1-0.1 c-0.2,0.1-0.2,0.1-0.2,0c0.1,0,0.1,0,0.1,0c-2.4-4.6,1.3-11.3,0.7-11.6c0.1-0.3,1-2.8,0.9-2.9c-0.4,0.4-0.8,1.5-0.9,1.3 c0.1-0.2,0.1-0.2,0.3-0.6v-0.1c0-0.1-0.1,0,0.1-0.3c0,0,0.2-0.2,0.2-0.1c-0.1,0.1-0.1,0.2-0.2,0.4c0-0.1,0.1-0.2,0.1-0.3 c0-0.1,0.1-0.2,0.1-0.3c0,0,0,0.1-0.1,0.1c0.3-0.5,0.4-0.6,0.3-0.6c0-0.1,0.1-0.1,0.1-0.2c-0.1,0-0.3,0.1-0.5,0.1 c-0.1,0.1-0.1,0.2-0.1,0.2c-0.7,1.1-1.3,2.4-1.7,3.6c0,0-0.1,0.2-0.1,0.4c0,0.1-0.1,0.2-0.1,0.3l0,0l0,0c-0.3,0.8-0.5,1.6-0.7,2 c0-0.1,0-0.1,0-0.2c0.2-0.8,0.6-1.5,0.4-1.7c0,0.1,0,0.2,0,0.2c-0.1,0.1-0.5,1.2-0.5,1.4c-0.1,0.3,0,0.2-0.1,0.2 c0.3-1.6,0.9-2.3,0.7-2.6c-0.2,0.3-0.1,0.5-0.2,0.8c-0.5,0.3-2,6.8-1.7,8.8c-0.1,0.1-0.1-0.2-0.2,0c0,0.1,0.1,1.4,0.4,2 c2.8,6.6,9.4,0.3,11.9-6.4c1.6-4.1,0.8-1.8,0.8-1.7c0.8-1.8,1-3.7,1.5-5.7C-142.4-303.6-142.4-303.7-142.4-303.8L-142.4-303.8 L-142.4-303.8z M-152.4-304.9C-152.8-304.1-152.7-304.4-152.4-304.9z M-155.8-297.4L-155.8-297.4L-155.8-297.4L-155.8-297.4 c0,0.1-0.1,0.2-0.1,0.3C-155.9-297.2-155.8-297.3-155.8-297.4z M-156.9-291.7v-0.3C-156.9-291.9-156.9-291.8-156.9-291.7 L-156.9-291.7z M-156.8-291.1c-0.1-0.7,0-0.4,0.1,0.3l0,0C-156.8-290.8-156.8-291-156.8-291.1z M-154.6-287.4L-154.6-287.4 L-154.6-287.4c-0.8-0.3-1.8-1.5-2.2-3.2C-156.7-290.5-155.6-287.8-154.6-287.4C-154.7-287.5-154.6-287.5-154.6-287.4L-154.6-287.4 L-154.6-287.4z M-156.1-289.4L-156.1-289.4c0.3,0.4,1.1,2.4,3.3,1.9C-154.6-287.1-155.6-288.2-156.1-289.4z M-151.9-287.8 c0.3-0.2,0.8-0.5,1-0.6C-151.1-288.1-151.4-287.9-151.9-287.8z" style="fill: rgb(255, 255, 255);"/>
    <path class="st0" d="M-155-301.3c0.2-0.8,0.5-0.9,0.3-1.1C-154.7-302.3-155.2-301.2-155-301.3z" style="fill: rgb(255, 255, 255);"/>
    <path class="st0" d="M-155-300.5L-155-300.5L-155-300.5C-154.9-300.5-154.9-300.5-155-300.5C-154.9-300.5-154.9-300.5-155-300.5 L-155-300.5z" style="fill: rgb(255, 255, 255);"/>
    <path class="st0" d="M-154.7-301.2c0,0-0.1,0-0.2,0.2c0,0.2-0.1,0.3-0.1,0.4c0-0.1,0.1-0.2,0.1-0.3 C-154.8-300.9-154.7-301-154.7-301.2L-154.7-301.2z" style="fill: rgb(255, 255, 255);"/>
    <path class="st0" d="M-154.3-302.3C-154.3-302.3-154.3-302.4-154.3-302.3c-0.2,0.3-0.4,0.7-0.5,1 C-154.5-301.6-154.5-302-154.3-302.3L-154.3-302.3z" style="fill: rgb(255, 255, 255);"/>
    <path class="st0" d="M-154.4-302.8c0,0.1-0.1,0.2-0.1,0.3C-154.4-302.6-154.3-302.8-154.4-302.8z" style="fill: rgb(255, 255, 255);"/>
    <path class="st0" d="M-154.4-302.9L-154.4-302.9L-154.4-302.9L-154.4-302.9z" style="fill: rgb(255, 255, 255);"/>
    <path class="st0" d="M-154.1-302.6L-154.1-302.6C-154.2-302.6-154.2-302.6-154.1-302.6C-154.2-302.6-154.2-302.6-154.1-302.6z" style="fill: rgb(255, 255, 255);"/>
    <path class="st0" d="M-154.2-302.4L-154.2-302.4C-154.2-302.5-154.3-302.5-154.2-302.4z" style="fill: rgb(255, 255, 255);"/>
    <path class="st0" d="M-154.1-302.7c0-0.1,0.1-0.1,0-0.2C-154.1-302.9-154.1-302.8-154.1-302.7z" style="fill: rgb(255, 255, 255);"/>
    <path class="st0" d="M-154-302.9L-154-302.9L-154-302.9L-154-302.9z" style="fill: rgb(255, 255, 255);"/>
    <path class="st0" d="M-153.9-297.4L-153.9-297.4c0.1-0.1,0.2-0.4,0.1-0.4C-153.9-297.8-154-297.5-153.9-297.4L-153.9-297.4z" style="fill: rgb(255, 255, 255);"/>
    <path class="st0" d="M-153.9-303.3C-153.9-303.3-153.8-303.3-153.9-303.3C-153.8-303.3-153.8-303.3-153.9-303.3L-153.9-303.3z" style="fill: rgb(255, 255, 255);"/>
    <path class="st0" d="M-153.9-303.1c0,0,0.1-0.1,0-0.1C-153.9-303.2-153.9-303.2-153.9-303.1z" style="fill: rgb(255, 255, 255);"/>
    <path class="st0" d="M-153.6-303.7c0.1,0,0.1-0.2,0.1-0.2l0,0C-153.7-303.9-153.7-303.8-153.6-303.7z" style="fill: rgb(255, 255, 255);"/>
    <path class="st0" d="M-153.5-304.6L-153.5-304.6L-153.5-304.6C-153.7-304.5-153.6-304.5-153.5-304.6z" style="fill: rgb(255, 255, 255);"/>
    <path class="st0" d="M-153.4-304.9L-153.4-304.9L-153.4-304.9L-153.4-304.9C-153.5-304.9-153.5-304.9-153.4-304.9L-153.4-304.9z" style="fill: rgb(255, 255, 255);"/>
    <path class="st0" d="M-152.9-300c0-0.1,0.2-0.4,0.1-0.4C-152.9-300.3-153-300.1-152.9-300z" style="fill: rgb(255, 255, 255);"/>
    <path class="st0" d="M-152.8-303.7c0,0,0-0.1,0.1-0.1C-152.8-303.8-152.8-303.8-152.8-303.7L-152.8-303.7z" style="fill: rgb(255, 255, 255);"/>
    <path class="st0" d="M-128.1-303.1c-0.1-0.8-0.3-1.6-0.8-2.4h-0.3c-2.5-3.7-7.2-2.6-8.9-2.4c0,0,1.7-0.5-0.1-0.1 c-0.5,0.1-3.2,1.4-3.4,1.5c0.8-0.3,0.9-0.2,0.4,0c-0.2,0-1,0.5-1.1,0.6c0.6-0.2,0.8-0.5,1.2-0.5c0.3-0.1,0.5-0.1,0.7-0.2 c0,0-0.1,0-0.1,0.1c-0.6,0.3-2.4,1.1-1.8,1.8c0.1-0.1,0.1-0.3,0.2-0.4l0,0c0,0,0,0,0-0.1l0,0v0.1c0,0.1-0.1,0.3-0.1,0.5l0,0l0,0 c-0.1,0.2-0.2,0.4-0.2,0.5v0.1c0,0,0,0,0,0.1c0,0.1,0.1,0.1,0.1,0.1c0.1-0.2,0.2-0.4,0.1,0c0.1,0,0.3-0.1,0.5-0.2 c0.7-0.3,0.5,0,0.9-0.1c0.7-0.3,1.6-0.6,2.5-0.8c-0.8,1.9-2.2,6.2-2.9,8.1c-1.8,4.2-1.5,4-1.3,4.1c-0.7,1.4-0.9,2.5-1,3 c0.2,0.1,0.2-0.2,0.9-1.4v0.1c-0.1,0.2-0.1,0.4-0.2,0.6c-0.1,0.4-0.5,0.8-0.4,0.9c0,0,0.4-0.5-0.1,0.4c0,0.1-0.1,0.1,0,0.2 c0.1-0.2,0.1-0.5,0.4-0.6c-0.3,0.7-0.3,0.7-0.7,1.6v0.1v0.1c-1.1,0.4-0.9,0.1-1,0.4c0.1,0.1,0.3-0.1,0.5-0.2c0.2,0,0.3-0.1,0.5-0.1 c-0.2,0.4-0.4,0.8-0.3,0.9c0.1,0,0.1-0.2,0.1-0.3l0.1-0.1c0.1-0.1,0.1-0.3,0.3-0.5l0.1-0.1c2.6-0.7,5-2.1,7.2-3.9l0.1-0.1l0,0 l0.1-0.1c0-0.1,0.1-0.2,0.2-0.2l0,0l0,0c3.1-2.6,5.5-5.7,6.5-7.8c-1,2.5-2.8,4-2.9,4.6c0.5-0.5,2-2.6,2.4-3.2 c0,0.7-2.5,3.6-2.9,4.2c0,0.2-0.7,1.3,0.8-0.8c0.1-0.1,0,0.1,0.1,0.1c0.6-0.7,1.7-2.1,2.3-3.2c0.2-0.2,0.3-0.5,0.5-0.7 c0-0.1,0.1-0.2,0.1-0.2C-128.8-300.6-128.4-302-128.1-303.1L-128.1-303.1z M-128.7-301.8L-128.7-301.8c-0.1,0.4-0.2,0.8-0.3,1.1 C-128.8-301.5-128.8-301.5-128.7-301.8L-128.7-301.8z M-140.2-306.6C-139.6-307-139.6-306.8-140.2-306.6z M-139.1-297.1 c0,0.2-0.1,0.4-0.2,0.5C-139.2-296.7-139.3-296.6-139.1-297.1z M-140.5-294.1c0,0.1,0,0.1,0,0.2 C-140.5-293.9-140.5-294-140.5-294.1z M-141.3-292.4L-141.3-292.4c0.3-0.9,0.3-0.5-0.3,0.7C-141.6-291.7-141.5-291.8-141.3-292.4z M-143-289.7c0.2-0.3,0.3-0.8,0.5-0.8c-0.1-0.1,0-0.2,0.1-0.2l0,0c0,0.1,0,0.1,0,0.2l0,0c-0.1,0.2-0.2,0.4-0.2,0.6 C-142.8-289.9-143-289.6-143-289.7z M-139.2-290c-0.1-0.1-0.7,0.2-0.5,0c0.7-0.2,1.2-1,1.4-0.8C-138.6-290.5-138.9-290.3-139.2-290 L-139.2-290L-139.2-290z M-138.2-290.8L-138.2-290.8c0-0.1,0.2-0.3,0.3-0.2C-138-291-138.1-290.9-138.2-290.8z M-130.5-303 C-130.2-303.1-130.5-303-130.5-303s0.1,0.6,0,0.9c-0.9,3.8-5.7,7.7-5.4,8.3c-0.5,0.4-0.7,0.8-1,1.1c-1.3,1.2-6.8,5-0.7,1.2 c-0.9,0.9-2.4,1.6-2.5,1.7c0.1,0,0.2-0.2,0.3-0.1c-3.4,1.8,1.7-0.8-0.7,0.6c-1.3,0.7-2.3,1.1-2.9,1.3c0.1-0.2,0.3-0.5,0.5-0.8l0,0 l0,0c-0.1,0,0.1-0.1,0.1-0.2l0,0c0.2-0.4,0.4-0.8,0.6-1.2l0,0l0,0c-0.1,0,0-0.2,0.1-0.2v0.1c0.1-0.2,0.2-0.4,0.3-0.5l0,0l0,0v-0.1 v0.1c0-0.1,0.1-0.2,0.1-0.3l0,0l0,0l0,0l0,0c0-0.1,0-0.1,0-0.2v0.1c0-0.1,0.1-0.1,0.1-0.2c0,0,0-0.1,0.1-0.1c0.2-0.5,0.5-1,0.7-1.5 c-0.2,0.2,0.2-0.5,0.3-0.7c0,0,0,0,0,0.1c0.5-1.1,0.9-2,1-2.3c0.4-0.9-0.5,1.2-0.7,2c0.2-0.2,0.7-1.6,0.7-1.6 c0.3,0.4-1,2.3-0.8,2.7c0.2-0.3,0.1-0.5,0.2-0.8c0.5-0.3,3.6-8.9,3.7-9.1c0,0.1-0.1,0.3,0,0.4c0.2-0.6,0.6-2.7,0.4-2 c0,0.1-0.3,0.2,0-0.2c0.1-0.1,0.1-0.1,0.1-0.2c0.2-0.5-0.3,0.4-0.4,0.5c0,0.2-0.1,0.4-0.2,0.6c0-0.7,0.4-1,0.3-1.5 c2.5-0.4,4.8-0.1,5.7,1.9c0-0.1,0.1-0.1,0.2-0.1c0.1-0.1,0.3-0.2,0.3-0.2l0,0l0,0c-0.1,0.1-0.2,0.1-0.3,0.2c-0.1,0-0.1,0.1-0.2,0.1 C-130.6-303.3-130.5-303.2-130.5-303L-130.5-303z" style="fill: rgb(255, 255, 255);"/>
    <path class="st0" d="M-142.6-304.1C-142.6-304.2-142.6-304.2-142.6-304.1L-142.6-304.1L-142.6-304.1L-142.6-304.1z" style="fill: rgb(255, 255, 255);"/>
    <path class="st0" d="M-141.6-306.5L-141.6-306.5L-141.6-306.5z" style="fill: rgb(255, 255, 255);"/>
    <path class="st0" d="M-142.8-289c0,0.1-0.1,0.1-0.1,0.2C-142.8-288.9-142.7-289-142.8-289z" style="fill: rgb(255, 255, 255);"/>
    <path class="st0" d="M-142.5-290.5L-142.5-290.5L-142.5-290.5z" style="fill: rgb(255, 255, 255);"/>
    <path class="st0" d="M-142.4-289.1L-142.4-289.1c-0.1,0.1,0,0.1,0,0.2C-142.4-289-142.3-289.1-142.4-289.1z" style="fill: rgb(255, 255, 255);"/>
    <path class="st0" d="M-142.1-290.3v0.1C-142.2-290.2-142.1-290.3-142.1-290.3z" style="fill: rgb(255, 255, 255);"/>
    <path class="st0" d="M-142.2-289.5L-142.2-289.5C-142-289.6-142.1-289.6-142.2-289.5z" style="fill: rgb(255, 255, 255);"/>
    <path class="st0" d="M-141.9-290.9L-141.9-290.9L-141.9-290.9z" style="fill: rgb(255, 255, 255);"/>
    <path class="st0" d="M-141.7-291.2L-141.7-291.2L-141.7-291.2z" style="fill: rgb(255, 255, 255);"/>
    <path class="st0" d="M-141.5-291.6L-141.5-291.6c0,0.1-0.1,0.1-0.1,0.2l0,0C-141.5-291.5-141.4-291.5-141.5-291.6z" style="fill: rgb(255, 255, 255);"/>
    <path class="st0" d="M-141.4-291.1L-141.4-291.1L-141.4-291.1L-141.4-291.1z" style="fill: rgb(255, 255, 255);"/>
    <path class="st0" d="M-141.4-291.1c0-0.1,0.1-0.3,0.1-0.4C-141.4-291.4-141.5-291.2-141.4-291.1z" style="fill: rgb(255, 255, 255);"/>
    <path class="st0" d="M-140.8-292.5c0.1,0.1-0.1,0.3-0.1,0.2c0,0.1-0.1,0.2-0.1,0.4c-0.1,0.2,0,0.5,0.1,0.3c0.2-0.4,0.3-0.7,0.4-1 C-140.8-292.9-140.6-292.7-140.8-292.5L-140.8-292.5z" style="fill: rgb(255, 255, 255);"/>
    <path class="st0" d="M-140.9-292.6L-140.9-292.6C-140.9-292.5-140.9-292.5-140.9-292.6C-140.8-292.5-140.9-292.6-140.9-292.6 L-140.9-292.6z" style="fill: rgb(255, 255, 255);"/>
    <path class="st0" d="M-141-288.5L-141-288.5c0.2-0.1,0.3-0.1,0.4-0.2C-140.7-288.7-141-288.6-141-288.5z" style="fill: rgb(255, 255, 255);"/>
    <path class="st0" d="M-140.7-293.3c0-0.2,0.1-0.3,0.1-0.4c-0.1,0.2-0.2,0.4-0.3,0.6C-140.8-293.1-140.8-293.2-140.7-293.3 L-140.7-293.3z" style="fill: rgb(255, 255, 255);"/>
    <path class="st0" d="M-140.2-288.5c0.1-0.1,0.3-0.1,0.3-0.2C-140.1-288.6-140.2-288.5-140.2-288.5z" style="fill: rgb(255, 255, 255);"/>
    <path class="st0" d="M-139.5-289L-139.5-289L-139.5-289C-139.1-289.1-139.2-289.2-139.5-289z" style="fill: rgb(255, 255, 255);"/>
    <path class="st0" d="M-138.5-289.9L-138.5-289.9c0.1,0,0.3-0.2,0.3-0.3C-138.2-290.2-138.5-290-138.5-289.9z" style="fill: rgb(255, 255, 255);"/>
    <path class="st0" d="M-137.3-290.8c0.1,0,0.2-0.1,0.3-0.2C-137.1-291-137.3-290.9-137.3-290.8z" style="fill: rgb(255, 255, 255);"/>
    <path class="st0" d="M-137.3-290.8L-137.3-290.8L-137.3-290.8L-137.3-290.8z" style="fill: rgb(255, 255, 255);"/>
    <path class="st0" d="M-136.6-291.3c0.1,0,0.3-0.2,0.3-0.3c0,0-0.1,0-0.1,0.1C-136.5-291.5-136.6-291.4-136.6-291.3L-136.6-291.3z" style="fill: rgb(255, 255, 255);"/>
    <path class="st0" d="M-136.6-291.3L-136.6-291.3L-136.6-291.3L-136.6-291.3z" style="fill: rgb(255, 255, 255);"/>
    <path class="st0" d="M-136.2-291.1c0.2-0.2,0.4-0.4,0.5-0.6C-136-291.5-136.3-291.3-136.2-291.1z" style="fill: rgb(255, 255, 255);"/>
    <path class="st0" d="M-136.2-291.7c0.1-0.1,0.2-0.1,0.2-0.2C-136.1-291.8-136.2-291.8-136.2-291.7L-136.2-291.7z" style="fill: rgb(255, 255, 255);"/>
    <path class="st0" d="M-134.7-292.8L-134.7-292.8c-0.7,0.7-0.9,0.8-0.9,0.8C-133.4-293.9-133.5-294-134.7-292.8z" style="fill: rgb(255, 255, 255);"/>
    <path class="st0" d="M-133.9-293.1L-133.9-293.1c0.1,0.1-0.4,0.5-0.3,0.3c-0.1,0.2-0.4,0.4-0.6,0.5c-0.2,0.2-1,1.2,1.4-1.2 C-133.5-293.8-133.5-293.4-133.9-293.1L-133.9-293.1z" style="fill: rgb(255, 255, 255);"/>
    <path class="st0" d="M-133.1-294.2c0.1-0.3,0.6-0.6,0.5-0.8l0,0C-132.9-294.6-134.4-293.2-133.1-294.2z" style="fill: rgb(255, 255, 255);"/>
    <path class="st0" d="M-130.9-303.4L-130.9-303.4C-131-303.3-131-303.3-130.9-303.4z" style="fill: rgb(255, 255, 255);"/>
    <path class="st0" d="M-124.7-303.5c0,0.2-0.1,0.3,0,0.5c0.5-1.3-0.1-0.8,0.2-2.1c0-0.1,0.1-0.2,0.1-0.2c0,0.1-0.1,0.2-0.2,0.2 c-0.1-0.2,0.4-0.6,0.2-0.8l-0.1-0.1c-0.1,0.2-0.3,0.6-0.5,0.7c0,0.2,0,0.4-0.1,0.6c0-0.2,0.1-0.3,0-0.5c0-0.6,0.5-1.1-0.4-1.5 c-0.2,0-0.1,0-0.2-0.1c-0.1-0.1-0.6-0.2-0.6-0.2c-0.7,0-1.2,1.5-1.8,3.8c0.1,1.4-0.4,2.9-1.2,4.2c-0.3,1.2-1.6,6.3-1.4,6.8 c0.1-0.1,0.1,0,0.2,0.1c-0.1,0.3,0,0.6-0.1,0.8c-0.1,0.7-0.2,1.2-0.3,1.4c0,0.2,0,0.4,0,0.6c0,0.5-0.1,0.6,0,0.6 c0.5-0.6,0.7-2.7,0.6-1c0,0.4-0.3,0.9-0.2,1c0.1,0,0-0.2,0.1-0.2c-0.2,0.5-0.3,0.8-0.1,0.8c0-0.2,0-0.5,0.2-0.7 c-0.1,0.6-0.3,1.1-0.4,1.7c0,0,0.1,0,0.1,0.1c-0.1,0.4-0.1,0.7-0.1,0.9c0,0.1-0.2,0.1,0.1,0.2c0.1-0.1,0-0.2,0-0.3 c0,0,1.3-3.4,1.3-3.8c0.1-0.9,2.3-8.7,1.4-5.5c-0.4,1.4-0.5,1.6-0.3,1.8c0-0.1,0-0.2,0-0.2c0.2-0.1,0.1-0.5,0.3-0.6 c0-0.4,0.2-0.7,0.3-1.1c0.4,0.3-0.7,2.4-0.3,2.7c0.2-0.4,0-0.6,0-0.9C-127.4-294-125.3-302.4-124.7-303.5L-124.7-303.5z M-129.7-290.1c0,0.1,0,0.1,0,0.2l0,0C-129.9-290-129.8-290.1-129.7-290.1z M-129.8-289.3L-129.8-289.3c-0.2,0-0.2,0.1-0.3,0.2 c0.2-0.3,0.1-0.9,0.4-0.9C-129.8-289.7-129.8-289.5-129.8-289.3z M-127.2-297.4c0,0.2-0.1,0.4-0.2,0.5l0,0 C-127.4-297-127.3-297.2-127.2-297.4z" style="fill: rgb(255, 255, 255);"/>
    <path class="st0" d="M-124.6-305.4L-124.6-305.4C-124.5-305.4-124.5-305.4-124.6-305.4z" style="fill: rgb(255, 255, 255);"/>
    <path class="st0" d="M-112.4-305.4c0,0,0-0.1,0-0.2c-0.1-0.3-0.3-0.6-0.4-0.8l0,0l-0.1-0.1c0.3,0.5,0.5,1.1,0.6,1.6 C-112.3-304.9-112.3-305.3-112.4-305.4L-112.4-305.4z" style="fill: rgb(255, 255, 255);"/>
    <path class="st0" d="M-112.4-304.8L-112.4-304.8C-112.3-304.8-112.3-304.8-112.4-304.8L-112.4-304.8L-112.4-304.8z" style="fill: rgb(255, 255, 255);"/>
    <path class="st0" d="M-112.1-305.1L-112.1-305.1L-112.1-305.1L-112.1-305.1L-112.1-305.1z" style="fill: rgb(255, 255, 255);"/>
    <path class="st0" d="M-112.1-305v-0.1V-305c0-0.1,0-0.2,0-0.2c-0.1-0.4-0.3-1.1-0.9-1.6c-0.6-0.5-1.4-1.1-2.1-1 c0,0-2.5,0.1-3.7,1.2c-3.2,3.2-0.7,0.7,0-0.1c-0.2,0-0.3,0.4-0.5,0.4c-0.1,0.3-0.5,0.4-0.7,0.7c0,0,0-0.1-0.1-0.1 c0.7-0.8,1.3-1.2,1.7-1.5c-0.1,0-0.2,0.1-0.2,0.1c0-0.2,0.3-0.2,0.4-0.4h0.1v-0.1c-0.4,0.2-0.5,0.4-0.7,0.6c-0.1,0,0-0.1-0.1-0.1 l-0.1,0.1l0,0c-0.3,0.3-0.9,0.8-1.2,1.2c-0.1,0.1,0.1-0.3-0.7,0.7c-3,3.7-2.7,4.4-3.3,5.5c0-0.1,0.2-0.3,0.1-0.4 c-0.5,0.9-0.2,0.9-0.5,1.9l0,0c-0.8,2-0.8,3.1-0.2,0.7c0-0.1,0.2-0.8,0.4-0.8c0,0.2-0.3,0.5-0.2,0.6c0.1-0.1,0.2-0.3,0.3-0.5 c-1.5,4-2,9.5,2.2,10.3c-3.7-0.6-3.2-5.1-3.5-5.6c-0.1,2,0.7,4,1.4,4.6c1,1-2.2-0.6-1.5-6c-0.1-0.1-0.1-1.3-0.2,0 c-0.1,0.5,0,0.9,0.1,1.4c-0.1,0.1-0.2-0.4-0.2,0.4c0.1,1.4,0.3,2.9,1.2,4.1c0.8,0.9,0.4,0.6,0.6,0.7c2.5,2.3,6.4,0.3,8.7-3.4 c2.5-4,3.1-6.5,3.9-9.1c0,0.2,0,0.5-0.1,0.6c0-0.1,0-0.2,0.1-0.4C-111.2-302.3-111.9-304.4-112.1-305L-112.1-305z M-114.9-307.5 L-114.9-307.5c0,0.1-0.1,0.1-0.2,0H-114.9z M-120.5-304.9L-120.5-304.9L-120.5-304.9L-120.5-304.9c0,0.1,0,0-0.3,0.3 C-120.7-304.7-120.6-304.8-120.5-304.9z M-120.7-288.1L-120.7-288.1c0.1,0,0.1,0,0.2-0.1c0.4-0.1,0.8-0.3,1.2-0.5 c-0.3,0.2-0.8,0.4-1.2,0.5C-120.6-288.1-120.7-288.1-120.7-288.1z M-112.1-303.1c-0.4-1.4-0.6-2.8-1.8-3.5c-0.6,0-0.5,0.2-0.6,0.3 c-0.4-0.3-0.4-0.1-0.6-0.2c-0.3-0.1-0.6-0.6-0.1,0.7c0.3,0.7-0.1,0.1,0.2,1.3c0,0,0.2,0,0.8-0.2c-0.9,0.3-0.8,0.2-0.8,0.4 c0,0.1,0,0.2,0.1,0.3c0-0.3,0-0.1,1-0.3c0.1,0,0.2,0-0.4,0.1c-0.5,0.2-0.6,0.2-0.6,0.1c0.5,4.2-3.7,13.5-6.9,13.7 c0.1,0,0,0.1-0.1,0.6c0.1-0.5,0-0.5,0.1-0.6c-0.1,0-0.2,0-0.4-0.1c0,0,0,0.1-0.1,0.2c-0.1,0,0,0,0.1-0.2c0,0-0.1-0.1-0.3-0.2 c0,0.1-1.2,0.8-0.5,0.4c0.1-0.1,0.3-0.2,0.5-0.4c0.1,0.1-0.2-0.3-0.2-0.3c-0.8,0.4,0,0,0,0c-1.5-3.4,0.4-6-0.2-6.5 c0.8-1.1,1.4-4.4,3.8-7c2.2-2.5,2.7-1.7,2.5-2.3c0.4-0.1,0.4-0.3,1.6-0.3c0.4,0,0.2-0.2,0.8,0.1c0,0,0.1,0,0-0.1 c-0.5-0.6-1.4-0.4-1.2-0.5c0.2,0.1,0.4,0,0.6,0c0,0,0,0,0-0.1c0.2,0,0.4,0,0.6,0l0,0c0,0.1,0.1,0.1,0.2,0.2 c-0.1-0.1-0.2-0.1-0.4-0.2c0.2,0.1,0.3,0.2,0.4,0.2c0,0-0.3-0.3,0.1,0c0.2,0.1,0.3,0.3,0.4,0.2c-0.2-0.2-0.4-0.2-0.5-0.4 c0.8,0.5,0.7,0.6,1.1,0.9l0,0l0.1,0.1l0,0c0.3,0.3,0.4,0.6,0.4,0.8c0.2,0.4,0.3,0.9,0.3,0.9l-0.2-0.1 C-112.1-304-112-303.4-112.1-303.1L-112.1-303.1z" style="fill: rgb(255, 255, 255);"/>
    <path class="st0" d="M-111.7-300C-111.8-299.8-111.8-299.8-111.7-300z" style="fill: rgb(255, 255, 255);"/>
    <path class="st0" d="M-124.9-298.4c-0.4,0.7-1,3.2-0.7,2.8l0,0C-125.2-297.5-124.7-298.2-124.9-298.4z" style="fill: rgb(255, 255, 255);"/>
    <path class="st0" d="M-125.5-294.7c0.1,0.4-0.1,0.9,0,1.1C-125.4-294.6-124.9-296.6-125.5-294.7z" style="fill: rgb(255, 255, 255);"/>
    <path class="st0" d="M-125.5-293.6C-125.5-293.6-125.5-293.7-125.5-293.6L-125.5-293.6L-125.5-293.6z" style="fill: rgb(255, 255, 255);"/>
    <path class="st0" d="M-124.4-299.5c-0.1,0.2-0.2,0.7-0.2,0.9C-124.5-298.9-124.2-299.4-124.4-299.5z" style="fill: rgb(255, 255, 255);"/>
    <path class="st0" d="M-118.9-307.1C-118.9-307-118.9-307-118.9-307.1L-118.9-307.1L-118.9-307.1C-118.9-307-118.9-307-118.9-307.1 L-118.9-307.1z" style="fill: rgb(255, 255, 255);"/>
    <path class="st0" d="M-118.8-307.2c-0.1,0-0.1,0.1-0.1,0.1C-118.8-307.1-118.8-307.2-118.8-307.2z" style="fill: rgb(255, 255, 255);"/>
    <path class="st0" d="M-118.4-307.2c0.3-0.2,0.8-0.4,0.3-0.3C-118.2-307.4-118.2-307.3-118.4-307.2z" style="fill: rgb(255, 255, 255);"/>
    <path class="st0" d="M-117.7-307.9L-117.7-307.9c0-0.1,0.3-0.2,0.2-0.1c0.1-0.1,0.2-0.1,0.4-0.2s0.9-0.5-0.9,0.3 C-118-307.6-118-307.9-117.7-307.9z" style="fill: rgb(255, 255, 255);"/>
    <path class="st0" d="M-117.2-307.8L-117.2-307.8c0.5-0.2,0.7-0.1,0.6-0.2C-117.5-307.9-118.4-307.4-117.2-307.8z" style="fill: rgb(255, 255, 255);"/>
    <path class="st0" d="M-116.2-308.5L-116.2-308.5c-0.2,0.1-0.3,0.2-0.4,0.2C-116.5-308.3-116.2-308.3-116.2-308.5z" style="fill: rgb(255, 255, 255);"/>
    <path class="st0" d="M-116.4-308.1C-116.4-308.1-116.5-308.1-116.4-308.1C-116.4-308-116.2-308.1-116.4-308.1z" style="fill: rgb(255, 255, 255);"/>
    <path class="st0" d="M-116-308.2c-0.1-0.1-0.2,0-0.2,0.1C-116.1-308.1-116-308.1-116-308.2z" style="fill: rgb(255, 255, 255);"/>
    <path class="st0" d="M-115.5-308.2L-115.5-308.2c-0.1-0.1-0.2,0-0.2,0C-115.7-308.1-115.6-308.1-115.5-308.2z" style="fill: rgb(255, 255, 255);"/>
    <path class="st0" d="M-115.1-304.4L-115.1-304.4C-115.1-304.3-115.1-304.3-115.1-304.4z" style="fill: rgb(255, 255, 255);"/>
    <path class="st0" d="M-114.8-308.1c0-0.1-0.2-0.1-0.2,0C-115-308.1-114.8-308-114.8-308.1z" style="fill: rgb(255, 255, 255);"/>
    <path class="st0" d="M-114.4-307.3h-0.1c-0.1,0-0.1,0-0.2,0C-114.7-307.3-114.6-307.3-114.4-307.3L-114.4-307.3z" style="fill: rgb(255, 255, 255);"/>
    <path class="st0" d="M-113.8-308.1L-113.8-308.1L-113.8-308.1C-114-308.3-114.1-308.2-113.8-308.1L-113.8-308.1z" style="fill: rgb(255, 255, 255);"/>
    <path class="st0" d="M-113.4-307.9L-113.4-307.9c-0.1,0-0.1-0.1-0.1,0C-113.5-307.9-113.5-307.9-113.4-307.9z" style="fill: rgb(255, 255, 255);"/>
    <path class="st0" d="M-113.5-307.5c0.1,0,0.2,0.2,0.2,0.1C-113.3-307.4-113.4-307.5-113.5-307.5z" style="fill: rgb(255, 255, 255);"/>
    <path class="st0" d="M-304.1-306.3" style="fill: rgb(255, 255, 255);"/>
    <path class="st0" d="M-304.1-306.3" style="fill: rgb(255, 255, 255);"/>
  </g>
</svg>