<svg viewBox="326.2598 315.5157 212.1214 26.4273" width="212.1214" height="26.4273" xmlns="http://www.w3.org/2000/svg">
  <g transform="matrix(1, 0, 0, 1, 323.559814453125, 310.44293212890625)">
    <path d="M22.8,8.8c0,0.1-0.1,0.2-0.1,0.3C22.7,9,22.8,8.9,22.8,8.8z"/>
    <path d="M22.3,9.9c0,0,0.3-0.2,0.3-0.2c0.1-0.2,0.1-0.8,0.1-1.1c0-0.1,0-0.2-0.1-0.3l-0.1,0.1c0-0.2-0.1-0.6-0.1-0.6 c-0.1-0.1-0.4-0.2-0.4-0.2c-0.5-0.6-2.5,0.1-5.5,0.5c0-0.3,0.1-0.5,0.1-0.6c0,0.1-0.1,0.1-0.2,0.2c0-0.2,0.2-0.5,0.3-0.8 c0.1-0.6-0.3,0.6-0.5,0.8C16.1,8.1,16.1,8,16.1,8c0,0,0.1-0.2,0.1-0.4c0-0.9,0.6-1.3-0.4-1.7c-0.2,0.1-0.1,0-0.2-0.1 c0,0-0.3-0.2-0.4-0.2c-0.2,0-0.2-0.1-0.5,0.3c-0.3,0.5-0.3-0.1-0.6,0.7c-0.2,0.4-0.4,1.2-0.7,1.7c0,0.2-4.6,0.5-5.1,0.9 c0.1,0,0,0.1,0,0.2c-0.3,0-0.5,0.1-0.8,0.2C6.4,9.8,6.5,9.8,6.4,9.8c-0.2,0-0.2,0.1-1.1,0.3c0,0.3,0.8,0.1,1.2,0.1 c0.7,0,0.6,0.1,0.4,0.1c0,0,0,0,0,0c-0.1,0-0.1,0-0.2,0h0c0,0,0,0,0,0c0,0-0.1,0-0.1,0c0,0,0,0,0,0.1c-0.2,0-0.4,0.1-0.6,0.1v0 c0,0,0-0.1,0-0.1c-0.3,0-0.5,0.1-0.5,0.1c0,0,0.6,0.1-0.4,0.1c0,0.1-0.2,0-0.1,0.1c0.2,0,0.4-0.1,0.7,0c-0.7,0.1-1.4,0.1-1.7,0.2 c0,0,0,0.1-0.1,0.1c-0.3,0-0.7,0.1-1,0.1c-0.1,0-0.1-0.2-0.2,0.1c0.1,0.1,0.2,0,0.4,0c0,0,0.1,0,0.1,0c0.1,0,0.3,0,0.4,0 c0.1,0,0.3,0.1,0.6,0.1c0.1,0,0.2,0,0.3,0s0.2,0.1,0.3,0.1c1-0.1,1.8,0,2.2-0.1c0.2-0.1,0.5,0,0.7-0.1c0.1,0,0.2-0.1,0.3-0.1 C8,11.1,8.2,11,8.3,11c1.6,0.1,4.7-0.5,4.7-0.3c-1.3,0.3-2.3,0.1-2.4,0.4c0.1,0,0.1-0.1,0.2-0.1c0.1,0.1,1.8-0.1,1.8-0.1 c-0.1,0.3-1.8,0.3-2.5,0.4c-0.1,0.1-0.4,0.3,0,0.2c0.2,0,0.3-0.1,0.5-0.2c0.1,0.1-0.2,0.2,0.3,0c0.1,0,0.7,0.1,1.6-0.2 c0.5,0.1-3.3,10.2-3,11.2c0.1-0.1,0.1,0,0.2,0c-0.1,0.3-0.1,0.6-0.1,0.9c-1.5,6,0.2,0.8,0.3,1.1c-0.2,0.3,0,0.2-0.5,1.4 c0,0.1-0.1,0.2,0,0.4c0.1,0,0-0.2,0.1-0.2c-0.3,0.7-0.4,0.9-0.2,0.9c0.1-0.4,0.7-2.1-0.4,1.2c0,0,0.1,0.1,0,0.1 c0,0-0.5,1.2-0.3,1.4c0.2-0.1,0.1-0.3,0.2-0.4c0,0,0.6-1.1,0.7-1.3c0.1-0.3,0.9-2.2,1-2.5c0.1-0.1,2.4-7.4,2.4-7.6 c0.5-1.3-0.9,2.5-0.7,2.8c0-0.1,0-0.2,0-0.3c0.2-0.1,0.1-0.5,0.3-0.7c0-0.5,0.3-0.8,0.4-1.2c0.4,0.4-0.9,2.8-0.6,3.3 c0,0,3.3-10.8,3.8-10.8c1.5-0.1,2.5-0.2,3.2-0.3C19.8,11,21.1,11.1,22.3,9.9z M9.9,25.6L9.9,25.6c-0.2,0-0.2,0.2-0.3,0.2 c0.2-0.4,0.2-1,0.5-0.9C10,25.1,10,25.4,9.9,25.6L9.9,25.6z M10.1,24.8L10.1,24.8c-0.1-0.1-0.1-0.2,0-0.2 C10.1,24.7,10.1,24.7,10.1,24.8z M13.3,17L13.3,17C13.3,17,13.3,16.9,13.3,17c0-0.1,0.1-0.2,0.2-0.7C13.5,16.6,13.4,16.8,13.3,17 C13.3,17,13.3,17,13.3,17z"/>
    <path d="M22.2,9.5C22.2,9.6,22.2,9.6,22.2,9.5C22.2,9.6,22.2,9.6,22.2,9.5C22.2,9.6,22.3,9.6,22.2,9.5C22.2,9.5,22.2,9.5,22.2,9.5 L22.2,9.5z"/>
    <path d="M5.7,10.4c0.1,0.1,0.2,0,0.3,0.1c0.2,0,0.4,0,0.6-0.1C6.5,10.2,6.1,10.4,5.7,10.4z"/>
    <path d="M6.7,10.4c0.1,0,0.1,0,0.2,0C6.8,10.3,6.7,10.3,6.7,10.4z"/>
    <path d="M28.6,14.8c2.3-6.1,1.3-4.3,1.8-6.4c0.1-0.2,0.1-0.3,0.1-0.4c0,0.1-0.1,0.3-0.3,0.4l-0.1-0.1c0-0.3,0.5-1,0.3-1.2 c0,0-0.6,1.7-0.7,1.9c0-0.2,0.1-0.4,0.1-0.6c0-0.6,0.4-1,0.2-1.4c-0.1-0.2-0.1-0.1-0.5-0.5c-0.2,0-0.1-0.1-0.1-0.2c0,0,0,0,0,0 c0,0,0,0,0,0c0,0,0,0,0,0c0,0-0.2-0.2-0.4-0.3c-0.2-0.2-0.5,0.8-0.6,0.9c0,0-0.2,0,0.5,0.2h-0.1c-0.7-0.2-0.7-0.3-1,0.7 c-0.3,0.8-2.6,8.4-2.7,9c0,0-4.5,1-4.6,1c0,0,2.2-6.9,2.2-6.9c0,0-0.2,0.9,0.1,0.1c0.2-0.7,0-0.5,0-0.5c0,0,0-0.1,0-0.8 c0-0.3,0.1-0.4,0.1-0.5c0,0.1-0.1,0.2-0.2,0.2c0-0.1,0-0.2,0.1-0.3c-0.1,0.1-0.1,0.1-0.2,0.1c0,0.1-0.1,0.1-0.1,0.1 c0,0.1,0,0.1-0.1,0.2c0.1,0,0.2,0,0.3,0c0,0,0.1,0.1-0.1,0.1c-0.1,0-0.2,0-0.2,0c0,0.1-0.1,0.2-0.1,0.2c0-0.1,0-0.2,0-0.2 c-0.2,0-0.3,0-0.3,0C21.9,9.7,22,9.8,22,9.8c-0.1,0-0.3,0.1-0.5,0.2c-0.5,0.3-1,0.4-2,0.5c-1,3.3-2.8,9.7-2.8,9.7 c-0.1,0.2,0,0-0.8,0.3c0,0,0,0.1-0.1,0.1c-0.2,0.1-0.4,0.1-0.6,0.2c0,0-0.1-0.2-0.1,0.2c0.1,0.1,0.1,0,0.2-0.1c0,0,0.1,0,0.1,0 c0.1,0,0.2-0.1,0.3,0c0.4,0.1,0.4,0,0.6-0.1c0.1,0,0.1,0.1,0.2,0.1c0,0,0.1,0,0.1,0c-0.1,0.6-0.3,0.7,0.1,0.9c0,0-0.4,2.1-0.4,2.1 c0,0.1,0,0.4,0,0.6c-0.1,0.5-0.1,0.6,0,0.7c0.4-0.5,0.1-0.1,0.8-1.6c0,0,0,0.1,0,0.1c-0.1,0.1-0.1,0.3-0.1,0.5C16.9,24,17,24,17,24 c-0.1,0.3-0.1,0.4-0.2,0.6v0h0c0,0,0,0,0,0v-0.1c-0.2,0-0.1,0.2-0.2,0.2c0.1-0.1,0.1-0.2,0.1-0.3c-0.1,0.3-0.3,0.5-0.2,0.6 c0,0,0.4-0.5-0.1,0.4c0.1,0.1-0.1,0.2,0.1,0.2c0-0.2,0-0.5,0.3-0.7c-0.1,0.4-0.3,0.9-0.5,1.7c0,0,0.1,0,0.1,0.1 c-0.1,0.5-0.3,1.1-0.2,1.2c0.1-0.1,0.1-0.2,0.1-0.3c0,0,0-0.1,0-0.1c0.1-0.2,0.1-0.4,0.2-0.5c0.3-0.4,0.2-0.6,0.2-0.8 c0,0,0.5-1.1,0.8-1.9c0-0.1,0-0.2,0.1-0.3c0,0,0,0,0,0c0.1-0.3,0.2-0.6,0.2-0.7c0-0.1,0-0.2,0-0.3c0,0,0-0.1,0-0.2c0,0,0,0,0,0 c0,0,0-0.1,0-0.1c0,0,0-0.1,0-0.2c0,0,0,0,0,0c0,0,0-0.1,0-0.1c0,0,0,0,0,0c0.2-0.3,0.2-0.8,0.4-1.1c0,0.1,0,0.1,0,0.2 c0.1-0.2,0.2-0.6,0.3-0.6c-0.3,0.6-0.1,0.7,0.1,0.3c-0.2,0.1-0.1,0,0,0c0-0.1,0-0.2,0.1-0.3c0.5-0.1,0.1-0.1,0.2,0.3 c-0.1,0-0.3,0.3,0.1,0.2c0,0,0,0,0.1,0c0.5-0.1,0.7-0.2,0.6-0.3c-0.1,0-0.1,0.1-0.2,0c0,0.1-0.2,0.1-0.1,0c-0.2,0.2-0.1,0-0.1-0.3 c0.3-0.1,0.6-0.3,0-0.1c0-0.2,0-0.1,0.3-0.2c0.1,0,0.1,0,0.1,0c-0.4-0.2,0.3-0.2,0.4-0.2c0,0.2-0.2,0.1-0.3,0.2 c0.3,0,0.2,0.1,0.8-0.1c0.1,0,0.4-0.1,0.5-0.1c0.3,0,0.5-0.2,0.8-0.2c1.1,0-0.7,0.2-1.2,0.4c0.1,0.2,0.3-0.1,0.4,0 c0.2-0.2,0.5,0,0.7-0.2c-0.1,0.6-1.7,0.2-1.8,0.8c0.3,0,0.4-0.2,0.5-0.3c0,0.1-0.1,0.1,0,0.2c0.2,0,0.9-0.2,1.3-0.4 c0,0,0,0.1,0.1,0.1c0.2,0,1.3-0.3,1.8-0.3c0.2,0-0.8,3.1-0.7,3.5c0.6-0.7-0.8,4.1-0.4,4.1c0,0,0.2,0,0.4-0.7c1-3.4,0,0.9-0.1,1.2 c0.1,0.1-0.1,0.2,0.1,0.2c0.1-0.3,0.1-0.6,0.3-0.9c-0.2,0.9-0.3,0.7-0.5,2.1c0,0,0.1,0,0.1,0.1c-0.1,0.7-0.5,1.3-0.3,1.5 c0.1-0.1,0.1-0.2,0.1-0.4c0,0,0.1-0.1,0.1-0.1c0.6-1.3,0.5-1.5,0.5-1.7c0,0,0.5-1.3,0.9-2.4c0,0,0,0,0,0c-0.1,0,0-0.2,0-0.3h0 c0,0,0,0,0,0c0.1-0.4,0.2-0.7,0.2-1c0-0.1,0-0.1,0-0.2l0,0c0-0.1,0-0.2,0-0.3c0,0,0,0,0,0c0-0.1,0-0.1,0-0.1c0,0,0-0.1,0-0.1 c0-0.1,0-0.1,0-0.2c0-0.2,0.5-2,0.4-1.3c0,0.1,0,0.1,0,0.2c0.4-1.1,0.7-2.3,1.1-3.8c0.1,0,0.1-0.2-0.1,0.5 c-0.6,1.7-0.3,1.8-0.3,1.5c0-0.3,0.1-0.1,0.2-0.6c0.2-1.1,0.9-2.5,0.4-0.5c-0.9,3.2-0.3,2.5-0.3,1.8c0-0.8,0-0.3,0.1-0.4 c0.1-0.3,0.2-0.9,0.3-0.8c0.4-1.9,0.4-1.7,0.8-1.7c-0.1,0.1-0.2,0-0.3,0.1c0.8-0.1,0.4-0.3,1.6-0.8c-0.1-0.1-0.1,0.1-0.2-0.1 c0.1-0.1,0.2-0.1,0.2-0.1c0.1-0.1-0.1-0.1-0.2-0.2C28.2,18.9,28,19,27.8,19c0.1-0.1,0.2-0.1,0.4-0.2c1-0.8,0.6-0.4,0.8-2.2 c0-0.1-0.1-0.2-0.2-0.4C27.9,15.9,27.9,16.7,28.6,14.8L28.6,14.8z M17,24L17,24c-0.1,0-0.1-0.2,0-0.2C17,23.8,17,23.9,17,24z M17.9,23.5c-0.1,0,0-0.2,0-0.2C17.9,23.3,17.9,23.4,17.9,23.5z M19.2,20.7L19.2,20.7c-0.3,0.1-0.4,0-0.4-0.1c0,0,0,0,0,0 c0,0,0,0.1,0,0.2c0-0.1,0-0.1,0-0.2c0,0,0,0,0,0c0,0,0,0,0,0c0,0,0,0,0,0c0-0.1,0-0.1,0.1-0.1C19.3,20.6,19.3,20.5,19.2,20.7z M19.7,18C19.7,18,19.6,18,19.7,18L19.7,18c0-0.1,0-0.2,0-0.3C19.6,18,19.6,18,19.7,18L19.7,18z M19.8,17.3L19.8,17.3 C20.1,16.4,19.9,17.2,19.8,17.3z M22.6,19.9L22.6,19.9c0,0,0.2,0,0.4,0C22.8,19.9,22.7,20,22.6,19.9z M23.5,27.6L23.5,27.6 c-0.2,0-0.2,0.2-0.3,0.2c0.2-0.4,0.1-1,0.4-1C23.6,27.1,23.6,27.2,23.5,27.6L23.5,27.6z M23.7,26.7L23.7,26.7c-0.1,0-0.1-0.2,0-0.2 C23.7,26.5,23.7,26.6,23.7,26.7z M24.4,26.1c-0.1,0,0-0.2,0-0.2C24.5,26,24.5,26.1,24.4,26.1z M28.5,18.9 C28.5,19,28.5,19,28.5,18.9L28.5,18.9z"/>
    <path d="M18.5,21.7c-0.1,0.2-0.2,0.4-0.2,0.6C18.3,22.1,18.4,22,18.5,21.7z"/>
    <path d="M22.8,8.8c0-0.1,0-0.2,0-0.2c0,0,0,0,0,0C22.8,8.6,22.8,8.7,22.8,8.8L22.8,8.8z"/>
    <path d="M16.9,24.1c-0.1,0.1-0.1,0.2-0.1,0.4C16.8,24.3,16.9,24.2,16.9,24.1C16.9,24.1,16.9,24.1,16.9,24.1L16.9,24.1z"/>
    <path d="M17.1,25.7c0-0.1,0.1-0.1,0-0.2C17.2,25.5,17,25.6,17.1,25.7z"/>
    <path d="M17.6,24.3L17.6,24.3c0.1-0.1,0.1-0.2,0.1-0.3C17.7,24.1,17.6,24.2,17.6,24.3C17.6,24.3,17.6,24.3,17.6,24.3L17.6,24.3z"/>
    <path d="M17.6,25.3L17.6,25.3c0,0.1,0,0.1,0,0.2C17.6,25.4,17.7,25.3,17.6,25.3z"/>
    <path d="M17.7,25L17.7,25c0.1,0,0.1-0.1,0.1-0.1C17.8,24.9,17.8,25,17.7,25z"/>
    <path d="M18,23c0.1,0,0.1-0.1,0-0.2C18,22.8,18,22.9,18,23C18,23,18,23,18,23L18,23z"/>
    <path d="M18.2,22.6L18.2,22.6C18.2,22.6,18.2,22.6,18.2,22.6C18.1,22.6,18.1,22.6,18.2,22.6C18.1,22.7,18.1,22.7,18.2,22.6 L18.2,22.6z"/>
    <path d="M18.5,21.7c0-0.1,0-0.2,0.1-0.3C18.5,21.6,18.5,21.6,18.5,21.7C18.5,21.7,18.5,21.7,18.5,21.7z"/>
    <path d="M18.2,22.5L18.2,22.5c0-0.1,0-0.1,0-0.1C18.2,22.4,18.2,22.4,18.2,22.5C18.2,22.5,18.2,22.5,18.2,22.5L18.2,22.5z"/>
    <path d="M18.5,23L18.5,23c0-0.2,0-0.3,0-0.4C18.4,22.7,18.3,22.9,18.5,23L18.5,23z"/>
    <path d="M18.9,21.3L18.9,21.3L18.9,21.3c0,0.1,0,0.2-0.1,0.3c0.1,0,0,0.3-0.1,0.2c0,0.2-0.3,0.6,0,0.7 C18.7,22.5,19.2,21.2,18.9,21.3z"/>
    <path d="M20,20.5C20,20.5,20,20.5,20,20.5C20,20.5,20,20.5,20,20.5C19.9,20.5,20,20.5,20,20.5L20,20.5z"/>
    <path d="M20.7,20.5c-0.1,0-0.2,0.1-0.2,0.1h0C20.6,20.6,20.7,20.5,20.7,20.5z"/>
    <path d="M23.7,28.7c0,0.1-0.1,0.2-0.1,0.2C23.7,28.8,23.7,28.7,23.7,28.7z"/>
    <path d="M23.7,28.9C23.6,28.9,23.6,28.9,23.7,28.9C23.6,28.9,23.6,28.9,23.7,28.9L23.7,28.9z"/>
    <path d="M24.2,28.4L24.2,28.4c-0.1,0.1,0,0.2,0,0.2C24.1,28.6,24.3,28.4,24.2,28.4z"/>
    <path d="M24.3,26.8c0,0.1,0,0.2-0.1,0.2C24.3,27,24.3,26.8,24.3,26.8z"/>
    <path d="M24.3,27.9L24.3,27.9C24.5,27.7,24.4,27.7,24.3,27.9z"/>
    <path d="M24.6,25.6c0.1,0,0.1-0.1,0-0.2C24.6,25.5,24.6,25.6,24.6,25.6L24.6,25.6L24.6,25.6z"/>
    <path d="M24.7,25.3c0-0.1,0.1-0.1,0-0.2c0,0,0,0,0,0.1C24.6,25.2,24.6,25.2,24.7,25.3C24.6,25.3,24.6,25.3,24.7,25.3L24.7,25.3z"/>
    <path d="M24.7,25C24.7,25,24.7,25,24.7,25L24.7,25c0.2-0.4,0.3-0.7,0.4-1.1c0,0.1-0.1,0.2-0.1,0.3C24.9,24.6,24.8,24.8,24.7,25z"/>
    <path d="M25.3,25.8c0-0.2,0-0.3,0-0.5C25.3,25.5,25.1,25.7,25.3,25.8z"/>
    <path d="M25.6,23.9c0.2,0.1-0.5,1-0.2,1.2c0.2-0.6,0.3-1.2,0.4-1.4C25.6,23.6,25.8,23.8,25.6,23.9L25.6,23.9z"/>
    <path d="M25.7,22.5L25.7,22.5c-0.1,0.3-0.4,0.9-0.3,1.1c0.1-0.2,0.2-0.2,0.3-0.4C25.7,22.9,25.9,22.6,25.7,22.5L25.7,22.5z"/>
    <path d="M29.3,6.4L29.3,6.4C29.3,6.4,29.3,6.4,29.3,6.4C29.3,6.4,29.3,6.4,29.3,6.4C29.3,6.4,29.3,6.4,29.3,6.4L29.3,6.4z"/>
    <path d="M29.6,6.5C29.6,6.5,29.5,6.5,29.6,6.5L29.6,6.5z"/>
    <path d="M35.8,9.8c-0.1,0.2,0.8-1.3,0.6-1.2c0,0.2,0,0.4-0.1,0.6c0-0.2,0.1-0.3,0-0.5c0-0.2-0.9,1.2-0.9,1c-0.3,0,0.8-0.9,0.6-1 c-0.1-0.1-1.4,1-1.4,0.9c0-0.2-0.1-0.2,0.1-0.5c-0.2-0.2-0.3-0.4-0.3-0.6c-0.1,0-0.2-0.1-0.3-0.1c-1.1,0-1.5,3.2-2.9,7.8 c-0.2,0.5-1.7,6.5-1.5,7c0.1-0.1,0.1,0,0.2,0.1C30,23.7,30,24,30,24.2c-0.1,0.7-0.2,1.2-0.3,1.4c0,0.2,0,0.4,0,0.6 c0,0.5-0.1,0.6,0,0.6c0.5-0.6,0.7-2.7,0.6-1c0,0.4-0.3,0.9-0.2,1c0.1,0,0-0.2,0.1-0.2c-0.2,0.5-0.3,0.8-0.1,0.8 c0-0.2,0-0.5,0.2-0.7c-0.1,0.6-0.3,1.1-0.4,1.7c0,0,0.1,0,0.1,0.1c-0.1,0.4-0.1,0.7-0.1,0.9c0,0.1-0.2,0.1,0.1,0.2 c0.1-0.1,0-0.2,0-0.3c0,0,1.3-3.4,1.3-3.8c0.1-0.9,2.3-8.7,1.4-5.5c-0.4,1.4-0.5,1.6-0.3,1.8c0-0.1,0-0.2,0-0.2 c0.2-0.1,0.1-0.5,0.3-0.6c0-0.4,0.2-0.7,0.3-1.1c0.4,0.3-0.7,2.4-0.3,2.7c0.2-0.4,0-0.6,0-0.9c0.3-0.2,2.5-8.6,3-9.7 c0,0.2-0.1,0.3,0,0.5c0.5-1.3-0.1-0.8,0.2-2.1c0-0.1,0.1-0.2,0.1-0.2c0,0.1-0.1,0.2-0.2,0.2c0-0.1,0.2-0.4,0.2-0.6 C36,9.8,35.9,9.8,35.8,9.8C35.8,9.8,35.8,9.8,35.8,9.8L35.8,9.8z M30.7,26.2L30.7,26.2c-0.2,0-0.2,0.1-0.3,0.2 c0.2-0.3,0.1-0.9,0.4-0.9C30.8,25.8,30.7,26,30.7,26.2z M30.8,25.5L30.8,25.5c-0.1,0-0.1-0.2,0-0.2C30.8,25.4,30.8,25.5,30.8,25.5z M33.1,18.6L33.1,18.6c0-0.1,0.1-0.3,0.2-0.5C33.3,18.3,33.2,18.5,33.1,18.6z"/>
    <path d="M36,10.1L36,10.1C36,10.1,36,10.1,36,10.1z"/>
    <path d="M47.3,27.6C47.3,27.6,47.2,27.5,47.3,27.6c0.2-0.8,0.3-0.9,0.5-1.3c0,0-0.1,0-0.1-0.1c0,0.1-0.1,0.2-0.1,0.3 c-0.1-0.1,0-0.1,0-0.2c0,0,0-0.1,0.1-0.1c-0.8-0.7-3.1-3.1-1.7-1.8c0.2,0.1,0.3,0.2,0.4,0.4c0.2,0,0.3,0.3,0.5,0.2 c0-0.1-0.1,0-0.2,0c0.1-0.2-0.2-0.2-0.2-0.4c-0.3-0.1-0.3-0.3-0.5-0.5c0.3-0.2,0.8,0.7,1.2,0.9c0,0,0,0,0,0l0,0 c0.1-0.1,0.1,0,0.2,0.1c0,0,0,0,0.1,0c-0.1-0.2-0.3-0.2-0.4-0.2c0-0.1,0.1,0,0.1-0.1c-0.1-0.1-0.3-0.2-0.2-0.2 c-0.4-0.4-4.8-4.4-5.2-4.8l-0.2-0.2c0.1,0,0.1-0.1,0.2-0.1c0.1,0,0.3-0.1,0.5-0.2c0.1,0,0.2-0.1,0.2-0.1c0,0,0,0,0,0 c0,0,0.1,0,0.1-0.1c0-0.1,0.2-0.1,0.2-0.1l0,0c0.1,0,0.1-0.1,0.2-0.1c0,0,0,0,0,0c0,0,1.5-0.8,1.7-1c1.9-1.2,3.9-2.9,4.1-4.9 c-0.1,2.1-2.6,3.8-2.7,4.2c1.4-1,3.1-3.8,2.3-2.2c-0.8,1.4-2.4,2.5-2.8,2.8c0,0.2-0.6,0.8,0.2,0.1c0.2-0.2,0.3-0.4,0.6-0.7 c0.1,0-0.2,0.4,0.6-0.4c0.6-0.6,1.3-1,1.8-2.4c0.1-0.1,0.1,0,0.2-0.1c0.5-0.9,0.6-1.9,0.4-2.8c-0.2,0.1-0.4,0.1-0.5,0.1 c0,0-0.3-0.5-0.2-0.3c0.2,0.3,0-0.1,0.4-0.5c-0.2-0.2-0.2-0.3-0.2-0.5c-0.2-0.3-0.4-0.7-0.6-0.9c-2.8-3.1-5.5-3.4-9.6-3.2 c0.3-0.1,0.6,0,0.8-0.2c-1.4,0-4.6,1.5-3.7,1.2c0.1,0,0.1-0.1,0.3,0c-0.1,0.1-0.4,0.1-0.8,0.3c-0.4,0.2-1,0.6,0.1,0.1 c0.6-0.3,0.8-0.1,0.9-0.2c0.3-0.1,0.6-0.3,0.9-0.3c-0.2,0.1-2.3,0.7-2.4,1.5c-0.1,0.3-0.2,1.1-0.2,1.1c0.1,0.1,0,0.2,0.2,0.1 c0.5,0.3,0.9-0.2,0.9,0.1c0.1,0,0.3-0.2,0.4-0.1c0.1-0.1-0.1,0.2,0,0.1l0.1,0c0,0,0.2-0.2,0.2-0.2c0,0,0.1,0,0.1,0 c-0.1-0.3,0-0.1,0,0c0.1,0.1,1-0.3,2.5-0.5c-0.1,0.2-0.2,0.5-0.3,0.6c0.2,1-2.7,7.9-3.3,10.7c-0.4,0-0.8,0.1-1.2,0.1 c-0.7,0.1-0.1,0.2,1.1,0.2c-0.1,0.6-1.3,5.9-1.2,5.9c0.4-0.5,0.3-0.6,0.6-1.1c0.8-1.5-0.2,1-0.2,1.1c0.1,0,0-0.2,0.1-0.2 c-0.2,0.5-0.4,0.7-0.2,0.8c0.3-0.9,0.7-0.9,0.2,0.2c-0.4,0.9-0.3,0.9-0.3,0.9c-0.4,1-0.5,1-0.3,1.1c0.1,0,0.1-0.2,0.1-0.3 c0,0,0-0.1,0-0.1c0.1-0.1,0.1-0.3,0.2-0.5c0.4-0.4,0.3-0.6,0.4-0.8c0-0.1,0.1-0.1,0.2-0.2c0.1-0.3,1-2.6,1-2.7 c0-0.1,0.2-0.7,0.2-0.8c0.1-0.3,0.9-2.7,1.3-3.6c0.2,0,0.3-0.1,0.5-0.1c0,0.1-0.1,0.2-0.1,0.2c0,0,0,0-0.1,0c0,0,0,0,0,0.1h0.1 c0,0.2,0,0.3,0.1,0.5c0.2-0.4,0.1-0.5,0.1-0.8c0,0,0.1,0.1,0.1,0.1c0.1,0.1,0.2,0.2,0.3,0.3c0,0,0.1,0.1,0.3,0.2c0,0,0,0,0.1,0 c0,0,0,0,0,0h0c0,0,0,0,0,0c0,0,0,0,0,0c0.5,0.3,1.2,0.8,1.5,1.1c0,0,0,0.1,0.1,0.1c0.1,0.1,0.2,0.1,0.2,0.1c0,0,5.6,5,5.9,5 c0-0.1,0.1-0.1,0.2-0.2c0.1,0.1,0.3,0.2,0.4,0.2c0.1,0.1,0.2,0.1,0.3,0.2C47.1,27.8,47.2,27.7,47.3,27.6L47.3,27.6L47.3,27.6z M48.5,12.1L48.5,12.1c-0.1-0.2-0.2-0.7-0.3-1C48.4,11.4,48.5,11.8,48.5,12.1z M34.7,26.3L34.7,26.3c-0.3,0-0.2,0.1-0.3,0.2 c0.2-0.3,0.2-0.9,0.5-0.8C34.8,26,34.7,26.1,34.7,26.3z M34.9,25.7L34.9,25.7c-0.1,0-0.1-0.2,0-0.2C34.9,25.6,34.9,25.6,34.9,25.7z M38.1,18.8L38.1,18.8C38,18.9,38,18.9,38.1,18.8c0.1-0.5,0.3-1,0.3-1C38.3,18.2,38.2,18.5,38.1,18.8z M41.4,9.1L41.4,9.1 c-0.1,0.1-0.1,0.1-0.2,0.1c0,0.1,0,0.1,0,0.2c0,0,0.1-0.1,0.1-0.1C41.3,9.3,41.4,9.2,41.4,9.1L41.4,9.1C41.5,9.2,41.5,9.2,41.4,9.1 L41.4,9.1L41.4,9.1l0.2,0.2l-0.1,0.1v0.1c0.1-0.1,0.1-0.2,0.1-0.2v0.1c0,0,0,0.1,0,0.1l0.1-0.1c-0.1,0.3-0.1,0.1-0.4,0.5 c0-0.1,0.1-0.1,0.1-0.2c-0.1,0.1-0.1,0.1-0.1,0.2c0,0.1-0.1,0,0-0.2c0,0,0,0,0,0c0,0,0-0.1,0-0.1c0,0,0-0.1,0-0.1 c0,0-0.1,0.1-0.1,0.1c0-0.1,0.1-0.2,0.1-0.3c0,0,0-0.1,0-0.1H41.4z M41.1,9.1L41.1,9.1c0.1,0.1,0,0.1-0.1,0.2 C41,9.3,41,9.3,41.1,9.1z M38.5,17.4L38.5,17.4C38.5,17.4,38.5,17.4,38.5,17.4c0-0.1,0.1-0.2,0.2-0.5 C38.7,17.1,38.6,17.2,38.5,17.4C38.5,17.4,38.5,17.4,38.5,17.4z M39.4,18.6c-0.1,0-0.1-0.1-0.2-0.1c-0.3,0-0.3-0.1-0.4-0.2 c0.1-0.1,0.1-0.2,0.2-0.4c0.1,0.1,0.2,0.2,0.2,0.4C39.3,18.4,39.4,18.5,39.4,18.6L39.4,18.6L39.4,18.6z M40.1,18.2 c-0.4-0.2-0.5-0.1-0.9-0.3c0.1,0.2,0.1,0,0.1,0.2c-0.2,0-0.2-0.3-0.4-0.2c0.9-2,2.5-7,2.5-7c0,0-0.1,0.9,0.1,0c0.1-0.5,0-0.3,0-0.3 c0.1-0.5,0.2-1,0.1-0.9c-0.2,0.3,0-0.1,0.1-0.5c1.4,0.2,2.9,0.8,4.2,2.1c2.2,2.2-3.3,5.2-3.6,5.6c0.1,0,0.1,0.1,0.1,0.2 C42.2,17.1,42.2,17.2,40.1,18.2L40.1,18.2L40.1,18.2z M42.9,21.4L42.9,21.4c0.1,0,0.2,0.1,0.4,0.3c0.7,0.6,2.2,1.9,2.2,2 c-0.1,0-1.5-1.3-2.2-2C43,21.5,42.9,21.4,42.9,21.4z"/>
    <path d="M47.4,27.9c0,0.1-0.1,0.1-0.1,0.2c0,0,0,0,0,0c0.1,0.1,0.2,0,0.7,0.3c0.2-0.2,0-0.2-0.4-0.6C47.6,27.8,47.6,27.8,47.4,27.9 C47.5,27.8,47.4,27.9,47.4,27.9L47.4,27.9z"/>
    <path d="M47.1,27.9C47.1,27.9,47.1,27.9,47.1,27.9c0.1,0,0.1,0,0.1,0C47.2,27.9,47.1,27.9,47.1,27.9z"/>
    <path d="M41.2,9.8c0-0.1,0.1-0.2,0.2-0.4V9.2c0,0.1-0.1,0.1-0.1,0.2C41.3,9.5,41.3,9.6,41.2,9.8C41.2,9.7,41.2,9.8,41.2,9.8 L41.2,9.8z"/>
    <path d="M48.2,27.9c0,0-0.1,0,0-0.1c0.2,0.3,0.3,0.4,0.4,0.2c-0.1-0.1-0.3-0.1-0.3-0.3c0.3,0.2,0.5,0.5,0.8,0.7c0,0,0.1-0.1,0.1,0 c0.6,0.4,0.5,0.5,0.6,0.4c0-0.1-0.1-0.1-0.2-0.1l0.1-0.1c0,0,0-0.1,0-0.1c-0.1-0.1-0.2-0.1-0.2-0.3c-0.1-0.3-0.2-0.3-0.3-0.4 c0,0,0-0.1,0-0.2c0,0,0,0-0.1,0c0,0-0.1-0.1-0.3-0.3c-0.3,0.1-0.6,0.2-0.9,0.3C48,27.8,48.2,28,48.2,27.9L48.2,27.9z"/>
    <path d="M35.2,27.5C35.2,27.5,35.2,27.5,35.2,27.5C35.2,27.5,35.2,27.5,35.2,27.5L35.2,27.5z"/>
    <path d="M35.2,27.3c0,0.1-0.1,0.2-0.1,0.2C35.2,27.4,35.3,27.4,35.2,27.3z"/>
    <path d="M35.6,25.9c-0.1,0-0.1,0.2,0,0.2C35.7,26.1,35.7,25.9,35.6,25.9L35.6,25.9z"/>
    <path d="M35.6,27.1L35.6,27.1C35.6,27.1,35.6,27.1,35.6,27.1C35.6,27.1,35.6,27.1,35.6,27.1z"/>
    <path d="M35.6,27.1c0,0.1,0.1,0.1,0.2,0.2C35.7,27.3,35.7,27.2,35.6,27.1z"/>
    <path d="M35.6,26.8L35.6,26.8C35.8,26.7,35.7,26.7,35.6,26.8L35.6,26.8z"/>
    <path d="M35.9,25.4c0.1,0,0-0.1,0-0.2C35.9,25.2,35.8,25.3,35.9,25.4z"/>
    <path d="M36,25L36,25c0.1,0,0.1-0.2,0-0.3C36,24.8,35.9,24.9,36,25z"/>
    <path d="M36.1,24.7L36.1,24.7c0-0.1,0.1-0.1,0-0.2C36,24.5,36,24.6,36.1,24.7z"/>
    <path d="M36.2,24.4L36.2,24.4c0.2-0.4,0.9-2.3,0.9-2.8C37,21.8,36.1,24.4,36.2,24.4z"/>
    <path d="M36.5,25L36.5,25c0-0.2,0-0.3,0-0.4C36.4,24.7,36.3,24.9,36.5,25z"/>
    <path d="M37.4,21.9c0.1,0-0.6,1.9-0.6,1.8c0,0.2-0.3,0.6,0,0.7c0.1-0.3,0.6-2,0.9-2.8C37.4,21.4,37.6,21.7,37.4,21.9L37.4,21.9z"/>
    <path d="M37.4,20.8c0-0.1,0-0.1-0.1-0.2l0,0c0,0.2-0.5,1.2,0,0.5C37.4,21,37.4,20.9,37.4,20.8l-0.1,0.1 C37.3,20.8,37.4,20.8,37.4,20.8L37.4,20.8z"/>
    <path d="M38.1,21.2c0.1-0.1,0.2-0.1,0.3-0.1c0,0,0,0,0,0C38.3,21.1,38.2,21.2,38.1,21.2L38.1,21.2z"/>
    <path d="M41.2,9.6C41.2,9.6,41.2,9.6,41.2,9.6c0,0,0.1-0.1,0.2-0.2c0,0,0,0,0-0.1c0,0,0.1-0.1,0.1-0.1h0 C41.2,9.5,41.2,9.6,41.2,9.6L41.2,9.6z"/>
    <path d="M41.2,9.8C41.2,9.8,41.2,9.8,41.2,9.8C41.2,9.8,41.2,9.8,41.2,9.8z"/>
    <path d="M41.5,9.2C41.5,9.2,41.5,9.2,41.5,9.2C41.5,9.2,41.5,9.2,41.5,9.2z"/>
    <path d="M41.5,9.5L41.5,9.5C41.5,9.4,41.5,9.4,41.5,9.5L41.5,9.5L41.5,9.5C41.5,9.4,41.5,9.4,41.5,9.5L41.5,9.5 C41.4,9.4,41.4,9.5,41.5,9.5C41.4,9.5,41.4,9.5,41.5,9.5L41.5,9.5z"/>
    <path d="M41.5,9.3C41.5,9.4,41.5,9.4,41.5,9.3C41.5,9.4,41.5,9.4,41.5,9.3z"/>
    <path d="M42,19.3c0.1,0,0.3-0.1,0.3-0.2C42.2,19.1,42.2,19.1,42,19.3C42,19.2,42,19.2,42,19.3L42,19.3z"/>
    <path d="M42.4,19.5c0.2-0.1,0.4-0.3,0.5-0.4C42.7,19.2,42.3,19.3,42.4,19.5z"/>
    <path d="M42.4,19c0.1,0,0.2,0,0.3-0.1l0,0C42.6,18.9,42.5,19,42.4,19C42.4,19,42.4,19,42.4,19z"/>
    <path d="M44.6,17.8c-0.6,0.4-1.2,0.7-1.7,1C43.4,18.6,44.2,18.2,44.6,17.8C44.6,17.8,44.6,17.8,44.6,17.8z"/>
    <path d="M44.5,18.3c0.1,0.1-0.4,0.3-0.3,0.2c-0.1,0.1-0.4,0.2-0.6,0.3c-0.3,0.2-1.1,0.9,1.5-0.7l0,0C45,17.8,45,18.2,44.5,18.3 L44.5,18.3z"/>
    <path d="M45.6,17.2c-0.9,0.8-1.7,1.2-0.5,0.6C45.3,17.5,45.7,17.3,45.6,17.2z"/>
    <path d="M47.4,25.1C47.3,25.1,47.3,25.1,47.4,25.1c-0.1,0-0.2,0-0.3,0C47.2,25.2,47.5,25.6,47.4,25.1L47.4,25.1z"/>
    <path d="M47.9,25.4c0,0-0.1-0.1-0.1-0.1c0,0,0,0.1-0.1,0.1c0,0,0.1,0.1,0.2,0.1C47.9,25.5,47.9,25.5,47.9,25.4L47.9,25.4z"/>
    <path d="M48,25.2C48,25.2,48,25.2,48,25.2c0.1,0,0.1,0,0.1-0.1c0,0-0.1-0.1-0.1-0.1c0,0,0,0,0,0.1C48,25,48.1,25.1,48,25.2L48,25.2 z"/>
    <path d="M61.9,10c-2.5-3.7-7.2-2.6-8.9-2.4c0,0,1.7-0.5-0.1-0.1c-0.5,0.1-3.2,1.4-3.4,1.5c0.8-0.3,0.9-0.2,0.4,0 c-0.2,0-1,0.5-1.1,0.6c0.6-0.2,0.8-0.5,1.2-0.5C50.3,9,50.5,9,50.7,8.9c0,0-0.1,0-0.1,0.1c-0.5,0.3-1.7,0.8-1.9,1.4 c0.2,0.4,0.3,0.8,0.4,1.2c0,0,0.1,0,0.1,0c0.7-0.3,0.5,0,0.9-0.1c0.7-0.3,1.6-0.6,2.5-0.8c-0.8,1.9-2.2,6.2-2.9,8.1 c-1.8,4.2-1.5,4-1.3,4.1c-0.7,1.4-0.9,2.5-1,3c0.1,0.1,0.2,0,0.4-0.4c-0.1,0-0.1-0.1-0.1-0.2v-0.1c0.1,0,0.1,0.1,0.2,0.1 c0-0.1,0.1-0.2,0.1-0.2c0,0,0,0,0,0c0-0.2-0.3,0-0.1-0.2c0,0,0.1,0.1,0.1,0.1c0.1-0.2,0.2-0.4,0.3-0.6v0.1 c-0.1,0.2-0.1,0.4-0.2,0.6c0,0,0,0,0,0c0.1,0.1,0.2,0.1,0.3,0.2c0.1-0.2,0.1-0.3,0.3-0.3c-0.1-0.1,0-0.2,0.1-0.2l0,0 c0,0.1,0,0.1,0,0.2c-0.1,0.1-0.1,0.3-0.2,0.4c0,0,0.1,0,0.1,0c-0.1,0.1-0.1,0.1-0.2,0.1c0,0,0,0.1,0,0.1c-0.1,0-0.3,0.3-0.3,0.2 c0.1-0.1,0.1-0.2,0.2-0.3c0,0,0,0,0,0v-0.1c0,0,0,0,0,0c0,0,0,0,0,0c-0.2,0.1-0.2,0-0.3-0.1c0,0.1-0.1,0.2-0.1,0.2 c0.1,0.1,0.1,0.2,0.2,0.3c0,0,0,0-0.1,0.1c0-0.1-0.1-0.1-0.2-0.2c-0.1,0.2-0.2,0.3-0.2,0.4c0,0,0.4-0.4-0.1,0.3c0,0,0,0,0,0 c0.1-0.1,0.1-0.3,0.3-0.4c-0.1,0.2-0.1,0.3-0.2,0.4c0.1,0.1,0.1,0.1,0.1,0.1c0.1,0.1,0.2,0.2,0.3,0.3c0,0,0,0,0,0 c0,0,0-0.1,0.1-0.1c0,0,0,0,0,0h0c-0.1,0,0.1-0.1,0.1-0.2c0,0,0,0,0,0c0.2-0.4,0.4-0.8,0.6-1.2c0,0,0,0,0,0l0,0 c-0.1,0,0-0.2,0.1-0.2c0,0,0,0.1,0,0.1c0.1-0.2,0.2-0.4,0.3-0.6c0,0,0,0,0,0l0,0c0,0,0-0.1,0-0.1c0,0,0,0.1,0,0.1 c0-0.1,0.1-0.2,0.1-0.3c0,0,0,0,0,0c0,0,0,0,0,0h0c0,0,0,0,0,0c0-0.1,0-0.1,0-0.2c0,0,0,0.1,0,0.1c0-0.1,0.1-0.1,0.1-0.2 c0,0,0-0.1,0.1-0.2c0.2-0.5,0.5-1,0.7-1.5c-0.2,0.2,0.2-0.5,0.2-0.7c0,0,0,0,0,0.1c0.5-1.1,0.9-2,1-2.3c0.4-0.9-0.5,1.2-0.7,2 c0.2-0.2,0.7-1.6,0.7-1.6c0.3,0.4-1,2.3-0.8,2.7C51,22.2,51,22,51,21.8c0.5-0.3,3.6-8.9,3.7-9.1c0,0.1-0.1,0.3,0,0.4 c0.2-0.6,0.6-2.7,0.4-2c0,0.1-0.3,0.2,0-0.2c0.1-0.1,0.1-0.1,0.1-0.2c0.2-0.5-0.3,0.4-0.4,0.5c0,0.2-0.1,0.4-0.2,0.6 c0-0.7,0.4-1,0.3-1.5c2.5-0.4,4.8-0.1,5.7,1.9c0-0.1,0.1-0.1,0.2-0.1c0.1-0.1,0.3-0.2,0.3-0.2v0C60.9,12,60.8,12,60.7,12 c-0.1,0-0.1,0.1-0.2,0.1c0,0.1,0,0.2,0.1,0.4c0.3-0.1,0,0,0,0c0,0,0.1,0.6,0,0.9c-0.9,3.8-5.7,7.7-5.4,8.3c-0.5,0.4-0.7,0.8-1,1.1 c-1.3,1.2-6.8,5-0.7,1.2c-0.9,0.9-2.4,1.6-2.5,1.7c0.1,0,0.2-0.2,0.3-0.1c-3.4,1.8,1.7-0.8-0.7,0.6c-0.9,0.4-1.6,0.8-2.1,1 c0.1,0.1,0.1,0.2,0.2,0.2c2.1-0.8,4.2-2,6-3.5c0,0,0.1-0.1,0.1-0.1c0,0,0,0,0,0c0,0,0.1-0.1,0.1-0.1c0-0.1,0.1-0.2,0.2-0.2v0 c0,0,0,0,0,0c3.1-2.6,5.5-5.7,6.5-7.8c-1,2.5-2.8,4-2.9,4.6c0.5-0.5,2-2.6,2.4-3.2c0,0.7-2.5,3.6-2.9,4.2c0,0.2-0.7,1.3,0.8-0.8 c0.1-0.1,0,0.1,0.1,0.1c0.6-0.7,1.7-2.1,2.3-3.2c1.7-2.3,2.3-5,0.9-7.3L61.9,10L61.9,10z M50.9,8.9C51.5,8.5,51.5,8.7,50.9,8.9z M48.1,25.9C48.2,25.8,48.2,25.8,48.1,25.9c0.1,0,0.1,0,0.1,0H48.1C48.2,25.9,48.2,25.9,48.1,25.9C48.1,25.9,48.1,25.9,48.1,25.9 L48.1,25.9z M48.3,26.1c-0.1,0-0.1,0-0.1-0.1C48.3,26,48.4,26,48.3,26.1z M48.4,26C48.5,26,48.5,26,48.4,26 C48.5,26.1,48.4,26.1,48.4,26z M49.6,23.8c-0.1,0,0-0.1,0.3-0.7l0,0C50.2,22.2,50.2,22.6,49.6,23.8L49.6,23.8z M50.6,21.6 c0,0,0-0.1,0-0.2C50.6,21.5,50.6,21.5,50.6,21.6z M51.9,18.9c0-0.1,0,0,0.2-0.5C52,18.6,52,18.8,51.9,18.9z M49.4,26.9 C49.5,26.9,49.5,26.9,49.4,26.9C49.5,27.1,49.5,26.9,49.4,26.9z M52,25.5c-0.1-0.1-0.7,0.2-0.5,0c0.7-0.2,1.2-1,1.4-0.8 C52.5,25,52.2,25.2,52,25.5L52,25.5L52,25.5z M52.9,24.7L52.9,24.7c0-0.1,0.2-0.3,0.3-0.2C53.1,24.5,53,24.6,52.9,24.7z M62.4,13.7 c-0.1,0.3-0.2,0.8-0.3,1C62.3,14,62.4,14,62.4,13.7L62.4,13.7z"/>
    <path d="M46.2,28.1c0.1,0.1,0.3-0.1,0.5-0.2c0.1,0,0.2,0,0.4-0.1c0,0-0.1-0.1-0.1-0.1C46.2,28,46.3,27.8,46.2,28.1L46.2,28.1z"/>
    <path d="M49.5,9C49.5,9,49.5,9,49.5,9C49.5,9,49.5,9,49.5,9z"/>
    <path d="M47.7,27.7c0.1,0,0.1,0,0.2-0.1c-0.1-0.1-0.3-0.2-0.4-0.3C47.5,27.5,47.6,27.7,47.7,27.7L47.7,27.7z"/>
    <path d="M46.9,28.7c0.1,0,0.1-0.2,0.1-0.3c0,0,0.1-0.1,0.1-0.1c0.1-0.1,0.1-0.2,0.2-0.3c0,0-0.1-0.1-0.1-0.1 C47,28.3,46.9,28.6,46.9,28.7L46.9,28.7z"/>
    <path d="M48,27C48,27,48,27.1,48,27C48,27,48,27,48,27C48,27,48,27,48,27L48,27z"/>
    <path d="M48.4,27.5L48.4,27.5c0.1,0,0-0.2,0-0.3c0,0,0,0,0,0c-0.1,0-0.1,0.1-0.2,0.1C48.3,27.3,48.4,27.4,48.4,27.5L48.4,27.5z"/>
    <path d="M48.1,27C48.1,27.1,48,27.1,48.1,27c-0.1,0.2-0.2,0.3-0.3,0.4c0.1,0,0.3-0.1,0.4-0.2C48.1,27.2,48,27.2,48.1,27 c0.1,0.1,0.2,0.1,0.3,0.2c0,0,0.1,0,0.1-0.1c-0.1-0.1-0.2-0.2-0.2-0.2c0-0.2-0.1-0.2-0.2-0.2C48.2,26.8,48.1,26.9,48.1,27 C48.1,27,48.1,27,48.1,27L48.1,27z"/>
    <path d="M48.8,26.3C48.9,26.2,48.8,26.2,48.8,26.3l-0.1-0.1C48.7,26.3,48.8,26.3,48.8,26.3L48.8,26.3z"/>
    <path d="M49.5,26.3C49.4,26.2,49.3,26.3,49.5,26.3L49.5,26.3z"/>
    <path d="M49.7,26.5c0,0-0.1-0.1-0.1,0L49.7,26.5C49.6,26.5,49.6,26.5,49.7,26.5L49.7,26.5z"/>
    <path d="M48.4,25.3C48.4,25.3,48.4,25.3,48.4,25.3C48.4,25.3,48.4,25.3,48.4,25.3L48.4,25.3z"/>
    <path d="M48.4,25.3C48.4,25.3,48.4,25.3,48.4,25.3C48.3,25.3,48.3,25.3,48.4,25.3C48.3,25.3,48.4,25.3,48.4,25.3z"/>
    <path d="M48.3,25.4c0,0,0.1,0,0.1,0.1c0,0,0-0.1,0-0.1C48.4,25.4,48.4,25.4,48.3,25.4C48.3,25.4,48.3,25.4,48.3,25.4L48.3,25.4z"/>
    <path d="M48.3,26.5c0,0.1-0.1,0.1-0.1,0.2C48.3,26.6,48.4,26.5,48.3,26.5z"/>
    <path d="M48.7,26.4L48.7,26.4c-0.1,0.1,0,0.1,0,0.2C48.7,26.5,48.8,26.4,48.7,26.4z"/>
    <path d="M49,25.2C49,25.2,48.9,25.3,49,25.2C49,25.3,49,25.2,49,25.2z"/>
    <path d="M48.9,26L48.9,26C49.1,25.9,49,25.9,48.9,26z"/>
    <path d="M49.2,24.6C49.2,24.6,49.2,24.6,49.2,24.6C49.2,24.6,49.2,24.6,49.2,24.6z"/>
    <path d="M49.4,24.3C49.4,24.3,49.4,24.3,49.4,24.3C49.4,24.3,49.4,24.3,49.4,24.3z"/>
    <path d="M49.6,23.9C49.6,23.9,49.6,23.9,49.6,23.9c0,0.1-0.1,0.1-0.1,0.2c0,0,0,0,0,0C49.6,24,49.7,24,49.6,23.9L49.6,23.9z"/>
    <path d="M49.7,24.4c0-0.1,0.1-0.3,0.1-0.4C49.7,24.1,49.6,24.3,49.7,24.4z"/>
    <path d="M49.8,24.4C49.7,24.4,49.7,24.4,49.8,24.4C49.7,24.4,49.7,24.4,49.8,24.4L49.8,24.4L49.8,24.4z"/>
    <path d="M50.2,22.9L50.2,22.9C50.2,23,50.3,23,50.2,22.9C50.3,23,50.3,22.9,50.2,22.9z"/>
    <path d="M50.1,23.8c0.2-0.4,0.3-0.7,0.4-1c-0.2-0.2,0,0.1-0.2,0.2c0.1,0.1-0.1,0.3-0.1,0.2c0,0.1-0.1,0.2-0.1,0.4 C50,23.7,50,24,50.1,23.8z"/>
    <path d="M50.1,27L50.1,27c0.2-0.1,0.3-0.1,0.4-0.2C50.4,26.8,50.1,26.9,50.1,27z"/>
    <path d="M50.4,22.2c0-0.2,0.1-0.3,0.1-0.4c-0.1,0.2-0.2,0.4-0.3,0.6C50.3,22.4,50.4,22.3,50.4,22.2z"/>
    <path d="M50.9,27c0.1-0.1,0.3-0.1,0.3-0.2C51,26.9,50.9,27,50.9,27z"/>
    <path d="M51.6,26.5L51.6,26.5L51.6,26.5C52,26.4,52,26.3,51.6,26.5z"/>
    <path d="M52.6,25.6L52.6,25.6c0.1,0,0.3-0.2,0.3-0.3C52.9,25.3,52.6,25.5,52.6,25.6L52.6,25.6z"/>
    <path d="M53.8,24.7c0.1,0,0.2-0.1,0.3-0.2C54,24.5,53.8,24.6,53.8,24.7z"/>
    <path d="M53.8,24.7C53.8,24.7,53.8,24.7,53.8,24.7C53.8,24.7,53.8,24.7,53.8,24.7L53.8,24.7z"/>
    <path d="M54.5,24.2c0.1,0,0.3-0.2,0.3-0.3c0,0-0.1,0-0.1,0.1C54.6,24,54.5,24.1,54.5,24.2z"/>
    <path d="M54.5,24.2C54.5,24.2,54.5,24.2,54.5,24.2C54.5,24.2,54.5,24.2,54.5,24.2L54.5,24.2z"/>
    <path d="M54.9,24.4c0.2-0.2,0.4-0.4,0.5-0.6C55.2,24,54.8,24.2,54.9,24.4z"/>
    <path d="M54.9,23.8c0.1-0.1,0.2-0.1,0.2-0.2C55,23.7,55,23.7,54.9,23.8C54.9,23.8,54.9,23.8,54.9,23.8z"/>
    <path d="M56.4,22.7L56.4,22.7c-0.7,0.7-0.9,0.8-0.9,0.8C57.7,21.6,57.6,21.5,56.4,22.7z"/>
    <path d="M57.2,22.4L57.2,22.4c0.1,0.1-0.4,0.5-0.3,0.3c-0.1,0.2-0.4,0.4-0.6,0.5c-0.2,0.2-1,1.2,1.4-1.2 C57.6,21.7,57.6,22.1,57.2,22.4L57.2,22.4z"/>
    <path d="M58,21.3c0.1-0.3,0.6-0.6,0.5-0.8v0C58.2,20.9,56.7,22.3,58,21.3z"/>
    <path d="M60.2,12.1L60.2,12.1C60.1,12.2,60.1,12.2,60.2,12.1z"/>
    <path d="M80.1,17.9c0.1,0,0,0.1,0.1,0.1c0.8-0.5,1.8-1.6,2.2-2.5c0.1-0.1,0.2,0.2,0.6-0.8c0.7-1.6,0.4-3.9-2.1-5.7l-0.1,0.2 c-3-2.2-5.7-1.6-6.7-1.7c0.1,0,1-0.1,0.5-0.1c-0.7,0-0.7,0-3,0.8c-0.2,0.1-0.3,0.1-0.3,0.1c0.1,0,0.3,0,0.5,0.1 c-0.2,0.2-1.2,0.2-1.4,0.5c1-0.4,2.3-0.5,2.3-0.5c-0.1,0.1-3.2,0.7-2,1.8c-0.2,0.3-0.1,0.3-0.1,0.5c0,0.1-0.2,0.2-0.1,0.3 c0.5,0.1,0.5-0.3,1.2,0c0,0,0,0.1,0,0c0.2,0,0.6-0.1,1.1-0.2v0.2c-0.2,0-0.1,0.3-0.4,1.4c-1.2,4.6-2.2,7.2-2.7,8.6h-0.1 c-0.2,0-0.4,0.1-0.7,0.1c-0.1,0-0.1-0.1-0.3,0.1c0.1,0.1,0.3,0,0.5-0.1h0.5c-0.4,1.1-0.5,1.5-0.1,1.6c-0.1,0.3-0.1,0.5-0.1,0.8 c0,0.1-0.3,1.1-0.4,1.3c0,0,0.1,0.6,0,1.1c0.3,0.1,0.2-0.6,0.8-1.6c0,0.5-0.4,1.5-0.3,1.6c0.1,0,0-0.2,0.1-0.2 c-0.8,2.2,0.6-1.4-0.1,0.9c-0.1,0.3-0.2,0.6-0.2,0.9c0,0,0.1,0,0.1,0.1c-0.2,1-0.3,1-0.2,1.1c0-0.1,0.1-0.2,0.1-0.3 c0,0,0-0.1,0-0.1c0.1-0.2,0.1-0.4,0.2-0.5c0.3-0.5,0.2-0.6,0.3-0.8c0-0.1,0.1-0.1,0.2-0.2c0,0,0-0.1,0-0.1c0-0.2,0.2-0.3,0.2-0.5 c0.2-0.4,0.3-0.7,0.4-1c0.2-0.1,0.1-0.3,0.2-0.5c0-0.1,0.8-2.2,1.4-3.9H72c-0.1,0.3-0.1,0.5,0,0.6c0.1-0.1,0-0.2,0-0.3 c0.1,0,0.3,0,0.3-0.1c-0.1,0-0.2,0-0.2,0c0.1-0.1,0.1-0.2,0.1-0.3h0.2c-0.1,0.4-0.3,0.8-0.3,0.9c-0.2,0.5,0.1,0.9,0.2-0.1 c0-0.5,0.1-0.1,0.1-0.2c0-0.1,0.1-0.4,0.3-0.8c0.1,0,0.2-0.1,0.3-0.1c1.7-0.5,2.1-0.6,2.2-0.6c-0.1,0,0.1,0,0,0 c1.8-0.4,6.4-3.6,7.2-5.8c-0.6,1.9-2.6,3-2.6,3.5c1.2-0.9,2.2-2.4,2.4-2.3c-0.9,1.8-3,2.8-3.1,3.4C79.6,18.5,79.8,18.2,80.1,17.9 L80.1,17.9z M71.5,10.6L71.5,10.6C71.5,10.6,71.5,10.7,71.5,10.6C71.5,10.7,71.5,10.7,71.5,10.6z M69.9,25.4 c-0.2,0-0.1,0.1-0.2,0.2c0.2-0.3,0.1-0.9,0.4-0.8C69.9,25,69.9,25.2,69.9,25.4z M70,24.7L70,24.7c-0.1,0-0.1-0.2,0-0.2 C70,24.6,70,24.6,70,24.7L70,24.7z M75.7,10.3L75.7,10.3C75.7,10.3,75.7,10.4,75.7,10.3L75.7,10.3z M75.3,10.5v-0.2h0.1 c0,0.3-0.1,0.5-0.1,0.6C75.2,10.8,75.3,10.7,75.3,10.5L75.3,10.5z M72.7,10.9c0.1,0,0.2,0,0.4,0.1C73.7,11.2,72.7,11,72.7,10.9 L72.7,10.9z M72.3,20.3L72.3,20.3L72.3,20.3L72.3,20.3L72.3,20.3z M72.4,20.1L72.4,20.1c0-0.1,0-0.3,0.1-0.4h0.1 C72.5,19.8,72.4,19.9,72.4,20.1z M72.7,20.2L72.7,20.2c-0.1,0-0.2,0-0.3,0v-0.1C72.5,20.1,72.6,20.1,72.7,20.2L72.7,20.2 C72.7,20.2,72.7,20.2,72.7,20.2L72.7,20.2L72.7,20.2z M72.8,20L72.8,20l0,0.1c-0.1,0-0.2,0-0.2,0V20c0.1-0.1,0.1-0.2,0.1-0.3 c0.1,0,0.1,0,0.2,0C72.8,19.8,72.8,19.9,72.8,20C72.7,20,72.7,20,72.8,20L72.8,20z M72.8,18.7C72.8,18.7,72.8,18.7,72.8,18.7 c-0.1,0.3-0.1,0.6-0.2,0.9l-0.1,0.1C72.7,19.2,72.8,18.9,72.8,18.7C72.8,18.7,72.8,18.7,72.8,18.7L72.8,18.7z M72.8,18.4 c0-0.1,0-0.1,0.2-0.5C73,18.1,72.9,18.3,72.8,18.4z M73.4,20L73.4,20c-0.1-0.1-0.3,0-0.4,0v-0.1c0.5-0.1,1.1-0.6,1.2-0.3 C74,19.7,73.7,19.9,73.4,20L73.4,20z M74.3,19.6L74.3,19.6c0-0.1,0.2-0.2,0.3-0.1C74.5,19.5,74.4,19.6,74.3,19.6z M73.1,19.8 C73.1,19.8,73.1,19.8,73.1,19.8L73.1,19.8C73.1,19.8,73.1,19.8,73.1,19.8c0-0.1,0-0.1,0.1-0.2c0.5-0.1,1.1-0.3,1.7-0.4 C74.4,19.4,73.6,19.6,73.1,19.8z M80.4,13.6L80.4,13.6c-1.7,2.9-4.3,3.3-3.9,4c-0.7,0.4-0.3,0.4-1.7,0.9c-0.3,0.1-0.6,0.2-0.9,0.3 c-0.2,0.1-0.4,0.2-0.6,0.4c0.9-2.8,2.4-7.1,2.4-7.1c0,0.1-0.1,0.3,0,0.4c0.1-0.2,0.2-0.4,0.2-0.6c0.1-0.5,0-0.1-0.1-0.1 c0.1-0.3,0.1-0.8,0.1-0.7c0,0-0.1,0.2-0.1,0c0-0.1,0-0.4,0.1-0.7c1,0,2.1,0.2,2.8,0.7C79.7,11.7,80.5,12.2,80.4,13.6 C80.4,13.5,80.4,13.5,80.4,13.6L80.4,13.6c0.2,0,0.3,0.1,0.7,0.3C80.7,13.6,80.4,13.6,80.4,13.6L80.4,13.6z M82.6,12.4 c0.1,0.3,0.1,0.8,0,1.1h0C82.6,13.1,82.6,12.8,82.6,12.4z"/>
    <path d="M72.7,20C72.7,20,72.7,20,72.7,20C72.7,20,72.7,20,72.7,20L72.7,20z"/>
    <polygon points="80.4,13.5 80.4,13.5 80.4,13.5 &#9;"/>
    <path d="M69.2,28.6L69.2,28.6C68.8,29.5,69.4,28.6,69.2,28.6z"/>
    <path d="M70.2,26.7c0-0.1,0.1-0.1,0-0.2C70.2,26.5,70.1,26.6,70.2,26.7z"/>
    <path d="M70.6,25.1c-0.1,0-0.1,0.2,0,0.2C70.7,25.2,70.7,25.1,70.6,25.1L70.6,25.1z"/>
    <path d="M70.7,26.4c-0.1,0.1,0,0.2,0,0.2C70.7,26.5,70.8,26.4,70.7,26.4z"/>
    <path d="M70.7,26.3C70.7,26.3,70.7,26.4,70.7,26.3C70.7,26.4,70.7,26.4,70.7,26.3L70.7,26.3z"/>
    <path d="M70.8,24.4c0,0-0.1,0.1,0,0.2C70.9,24.6,70.8,24.5,70.8,24.4z"/>
    <path d="M70.8,26L70.8,26C70.9,25.9,70.8,25.9,70.8,26z"/>
    <path d="M70.9,24.4L70.9,24.4c0.1,0,0.1-0.2,0-0.3C70.9,24.2,70.9,24.3,70.9,24.4z"/>
    <path d="M71.1,24.1c0-0.1,0.1-0.1,0-0.2C71,23.9,71,24,71.1,24.1z"/>
    <path d="M71.5,22.5c-0.2,0.3-0.2,0.8-0.4,1.1l0,0.1c0,0,0,0,0.1,0C71.3,23.4,71.5,22.9,71.5,22.5L71.5,22.5z"/>
    <path d="M71.5,24.3c0-0.2,0-0.3,0-0.5C71.4,24,71.3,24.3,71.5,24.3z"/>
    <path d="M71.8,21.8c-0.1,0.2-0.6,1,0,0.5C71.7,22.1,71.9,21.9,71.8,21.8z"/>
    <path d="M71.7,22.8L71.7,22.8c0.1,0,0,0.3-0.1,0.2c0,0.2-0.3,0.6,0,0.7c0.2-0.4,0.2-0.8,0.3-1.2C71.6,22.4,71.9,22.6,71.7,22.8 L71.7,22.8z"/>
    <path d="M73,21.4c-0.2,0-0.2,0.1-0.3,0.2C72.8,21.5,73,21.5,73,21.4z"/>
    <path d="M73,21.4C73,21.4,73,21.4,73,21.4C73,21.4,73,21.4,73,21.4L73,21.4z"/>
    <path d="M73.5,21.2L73.5,21.2L73.5,21.2C73.8,21.2,73.7,21.1,73.5,21.2z"/>
    <path d="M74.2,20.6L74.2,20.6c0.1,0,0.3,0,0.3-0.1C74.4,20.5,74.1,20.6,74.2,20.6z"/>
    <path d="M75.3,20.3c0.1,0,0.2-0.1,0.2-0.1C75.5,20.2,75.3,20.2,75.3,20.3z"/>
    <path d="M75.3,20.3C75.3,20.3,75.3,20.3,75.3,20.3C75.3,20.3,75.3,20.3,75.3,20.3L75.3,20.3z"/>
    <path d="M76,20c0.1,0,0.3-0.1,0.3-0.2C76.2,19.8,76,19.9,76,20z"/>
    <path d="M76.6,19.6c-0.1,0-0.2,0.1-0.2,0.1C76.5,19.7,76.6,19.7,76.6,19.6z"/>
    <path d="M76.5,20.3L76.5,20.3c0.2-0.1,0.3-0.2,0.4-0.4C76.7,20,76.4,20.1,76.5,20.3z"/>
    <path d="M76.9,19.5c0.5-0.2,1-0.5,1.4-0.8C78.2,18.8,77.3,19.3,76.9,19.5z"/>
    <path d="M76.7,19.6L76.7,19.6c0,0,0.1,0,0.2-0.1C76.9,19.6,76.8,19.6,76.7,19.6L76.7,19.6z"/>
    <path d="M78.3,19.1c0.1,0.1-0.3,0.3-0.3,0.2c-0.2,0.2-0.9,0.4-0.9,0.7c0.6-0.3,0.9-0.6,1.6-1C78.7,18.7,78.6,19.1,78.3,19.1 L78.3,19.1z"/>
    <path d="M79.5,17.9L79.5,17.9c-0.3,0.2-0.9,0.5-1,0.8c0.3-0.2,0.4-0.1,0.5-0.2C79.1,18.2,79.5,18.1,79.5,17.9L79.5,17.9z"/>
    <path d="M80.4,13.5C80.4,13.5,80.4,13.5,80.4,13.5C80.4,13.5,80.4,13.5,80.4,13.5z"/>
    <path d="M80.4,13.5L80.4,13.5C80.4,13.5,80.4,13.5,80.4,13.5C80.4,13.5,80.4,13.5,80.4,13.5z"/>
    <path d="M92,24.4c-0.1,0.2-0.2,0.4-0.4,0.6c0.1,0,0.2,0,0.3-0.1c0.1-0.1,0.2-0.3,0.3-0.5C92.1,24.4,92,24.4,92,24.4L92,24.4z"/>
    <path d="M90.9,25.1c0.1,0,0.3-0.1,0.4-0.1c0-0.1,0.1-0.3,0.2-0.6c0,0,0,0,0,0c-0.1,0-3.7,0.4-5.2,1.1c-0.5,0.2-0.4,0.1-0.6,0.1 h-0.1c0.4-0.1,1.6-0.5,1.6-0.7c-0.1,0-0.1,0.1-0.1,0.1c-0.2-0.2-1.1,0.5-1.3,0.1c1.1-0.5,1.7-0.4,1.8-0.8c-0.3,0-0.3,0.2-0.5,0.3 c-0.1,0,0-0.1,0-0.1c-0.4,0-1,0.3-1.3,0.5c0-0.1,0.1-0.3,0.1-0.4c-0.3-0.2,0,0-0.3,0.2c0.1,0,0,0.3-0.1,0.2v0.1c-0.1,0-0.2,0-0.3,0 c0.1-0.2,0.1-0.4,0.1-0.6c-0.1,0.1-0.2,0.3-0.2,0.5c-0.5,0.1-1.1,0.3-1.8,0.6c0.6-1.4,1.5-3.5,1.7-4.4c0-0.1,0-0.1,0.1-0.1 c0.2-0.3,0.2-0.7,0.3-1c0.8-1.7-0.7,1.7-0.5,1.9c0-0.1,0-0.2,0-0.2c0.2-0.1,0.1-0.4,0.3-0.6c0-0.4,0.3-0.6,0.3-0.9 c0.4,0.4-0.9,2.2-0.5,2.6c0.2-0.3,0.1-0.5,0.1-0.8c0.6-0.3,4-12.9,4-12.8c0,0-0.1,0.6,0,0.2c0.2-0.7,0-0.6,0-0.7 c0-0.1,0.1-1.1,0.1-1.2c-0.1,0.1-0.1,0.1-0.1,0.2c0,0.1-0.3,0.2-0.1-0.3c0.1-0.1,0.1-0.3,0.1-0.4c-0.1,0.3-0.2,0.6-0.4,0.7v0.1 h-0.1c0-0.1,0-0.1,0-0.1c0-0.7,0.3-0.8-0.5-1.2c-0.3,0.1,0,0-0.4-0.2h0.2c-0.1,0-0.3-0.1-0.4-0.1c-0.2,0-0.1,0.5-0.6,0.4 c-0.2,0.2-0.6,1.5-0.8,1.9c0.2,0.3,0,0.3,0,0.7c0,0.2-1.4,5.5-1.4,5.6v0.1c0,0,0.1,0,0.1,0.1c-0.1,0-0.1,0-0.1-0.1 c-0.2,0.6-0.1,0.8-0.3,1.2c0,0.1-0.1,0.1-0.1,0.2c0,0.1,0,0.3-0.1,0.5c-0.9,4.3-2.4,6.3-1.7,6.6c-0.1,0.3-0.1,0.5-0.1,0.7 c-0.1,0.5-0.4,1.2-0.4,1.2c0,0.2,0,0.4,0,0.5c-0.2,1.8,0.6-1.1,0.8-0.8c-0.2,0.2,0,0.2-0.4,1c0,0.1-0.1,0.2,0,0.2 c-1.2,0.5-2.1,1-2.1,1c0,0,0.5-0.5-0.1-0.1c-0.1,0.1-0.1,0.1-0.2,0.2c0.3-0.1-0.8,0.8-0.8,0.9c0.2,0,0-0.1,0.3,0 c0,0.1-0.2,0.1-0.3,0.2c-0.2,0.1-0.4,0.2,0.1,0.1c0.1,0,0.2-0.1,0.3,0c0.1-0.1,0.3-0.2,0.4-0.3c-0.1,0.1-0.2,0.1-0.3,0.3 c0,0,0,0.1-0.1,0.1c-0.9,0.7-0.3,0.6-0.2,1.5c0,0.1-0.1,0.1,0,0.2c0.2,0.2,0.5,0,0.7,0.3c0.5,0,0.8-0.3,1.2-0.4 c0.4-0.9,7.2-2.8,7.5-3.2c-0.1,0,0-0.1-0.1-0.2c0.2,0,0.3-0.1,0.4-0.2c0.1,0,0.2-0.1,0.3-0.1c0,0,0,0,0-0.1h-0.1c0.1,0,0.1,0,0.1,0 v0.1c0,0,0.1,0,0.1-0.1c0.1,0,0.1,0,0.2,0c0,0-0.1,0.1-0.1,0.1c0.1,0,0.1,0,0.1-0.1c0.2-0.1,0.3-0.1,0.3-0.1 c0.2-0.1,0.2-0.2,0.7-0.4c0-0.3-0.4,0-1.2,0c0.3-0.2,1-0.2,1.1-0.4C91,25.2,90.9,25.3,90.9,25.1C90.9,25.2,90.9,25.2,90.9,25.1 c-0.3,0.1-0.5,0.4-0.6,0.1c0.1,0,0.3-0.1,0.4-0.2C90.8,25.2,90.9,25.1,90.9,25.1L90.9,25.1C90.9,25.2,90.9,25.2,90.9,25.1 c0.2,0.1,0.3,0.1,0.4,0.1c0,0,0-0.1,0-0.1C91.2,25.1,91.1,25.2,90.9,25.1L90.9,25.1z M89,8L89,8c0.1,0.5-0.1,0.7,0,0.2h0 C89,8.1,89,8,89,8z M86.1,19L86.1,19C86.1,19,86.1,19,86.1,19c0,0.2-0.1,0.4-0.2,0.5C85.9,19.3,85.9,19.3,86.1,19 C86.1,19,86.1,19,86.1,19z M82.7,26.1C82.7,26.1,82.7,26,82.7,26.1L82.7,26.1z M83,25.9L83,25.9c-0.2,0-0.2,0.1-0.3,0.1 c0.2-0.3,0.1-0.8,0.4-0.7C83.1,25.5,83.1,25.7,83,25.9z M83.2,25.3L83.2,25.3c-0.1,0-0.1-0.2,0-0.2C83.2,25.2,83.2,25.2,83.2,25.3z M85.1,26L85.1,26L85,26.1C85.1,26.1,85.1,26,85.1,26c0.1-0.1,0.2-0.1,0.3-0.1C85.3,26,85.3,26,85.1,26L85.1,26z M90.2,25.3 c0.1,0,0.1,0,0.1,0C90.3,25.3,90.2,25.3,90.2,25.3z"/>
    <path d="M85.9,23.8c0,0.1-0.5,1.1,0,0.5C85.8,24.1,86.1,24,85.9,23.8z"/>
    <path d="M90.9,25.2L90.9,25.2C90.9,25.2,90.9,25.2,90.9,25.2C90.9,25.2,90.9,25.2,90.9,25.2L90.9,25.2L90.9,25.2z"/>
    <path d="M90.5,26.1c0,0,0.1,0,0.1-0.1C90.6,26,90.5,26.1,90.5,26.1z"/>
    <path d="M91.1,25.9c0-0.1-0.1,0-0.1,0.1C91,26,91.1,26,91.1,25.9z"/>
    <path d="M91.5,25.5L91.5,25.5C91.4,25.4,91.4,25.5,91.5,25.5z"/>
    <path d="M91.7,25.4C91.8,25.4,91.8,25.4,91.7,25.4C91.8,25.4,91.8,25.4,91.7,25.4C91.8,25.4,91.7,25.4,91.7,25.4L91.7,25.4z"/>
    <path d="M102.1,17.7c0.1-2.6,0.4-4.6,0.4-5.4c0-0.9-0.2-0.9,0-1.2c-0.1-0.3-0.1-0.6,0-0.7c0,0,0,0,0,0c0-0.1,0-0.1,0,0.1 c0,0.3,0.1,0.1,0-0.3l-0.1,0c0,0,0,0,0,0c0-0.1,0-0.2,0-0.3c-0.1,0.4-0.1-0.1-0.1-0.3c0-0.5-0.3-0.5-0.3-1.2 c-0.1,0.4,0.1,0.2-0.2,0.4c-0.1-0.2,0.1-0.8-0.1-0.9c-0.1,0.2,0,0.7-0.2,0.9c0,0.2,0.1,0.4,0,0.6c-0.3-0.4,0.1-1.7-0.9-1.6 c-0.1-0.7-0.6-0.3-0.9-0.9c-0.1-0.1,0-0.2-0.1-0.2c-1.3,0.4-1.9,1.9-4.1,7.3c-1.3,3.1-2.5,5.2-3,6.5c-1.6,0.6-0.2,0.4-1.3,0.9 c-0.6,0.3-0.7,0.3-0.8,0.4c-0.2,0.1-0.1,0.2-0.6,0.5c0.1,0.3,0.3,0,1.2-0.1c-0.3,0.3-1,0.3-1,0.5c0,0,0.1-0.1,0.1,0 c-0.3,0.1-0.5,0.1-0.5,0.3c0.1-0.1,0.3-0.2,0.5-0.1c-0.3,0.1-0.7,0.2-1.1,0.4c0,0,0.1,0-0.2,0.1c-0.1,0-0.4,0.2-0.4,0.2 c0,0,0,0,0,0c0,0.1,0.1,0.1,0.1,0.1c0-0.1,0.1,0,0.2,0c0.1,0,0.1-0.1,0.3,0c0.4,0.1,0.4-0.1,0.6-0.1c0.1,0,0.1,0.1,0.2,0 c0,0,0-0.1,0.1-0.1s1-0.1,1-0.1c0.1,0.1,0.2,0,0.3-0.1c0.1-0.1,0.3,0,0.4-0.1c0.3-0.2,0.4-0.2,0.5-0.2c0,0.1-0.1,0.1-0.1,0.2 c-0.1,0-0.1,0.1-0.1,0.1c0.2,0-0.1,0.4-0.1,0.5c-0.1,0.3-0.2,0.6-0.3,0.8c0.1,0,0.1,0.1,0.2,0.1c0.1,0,0.1-0.1,0.3-0.1 c0.2-0.3,0.3-0.6,0.5-0.8c0,0.3-0.1,0.5-0.3,0.8c0,0,0.1,0,0.1,0c0.1-0.2,0.1-0.3,0.3-0.3c-0.1,0.1-0.1,0.2-0.1,0.3 c0.1,0,0.2,0,0.3,0c0,0,0.1,0,0.1,0l-0.1,0.1c0.1,0,0.3-0.2,0.2,0.1c0,0,0,0-0.6,0.1c0,0,0,0,0,0c0,0,0,0,0,0l-0.1,0.1 c0,0,0,0,0-0.1c-0.2,0-0.2,0.2-0.3,0.2c0,0,0,0,0-0.1c0,0-0.1,0-0.1,0c-0.1,0.2-0.2,0.3-0.1,0.4c0.1,0,0-0.2,0.2-0.2 c0,0.1-0.1,0.2-0.1,0.2c0,0,0,0,0,0c0,0,0,0-0.1,0.1c-0.2,0.3-0.3,0.5-0.1,0.5c0.2-0.6,0.9-1.9-0.6,1.5c-1.2,2.6,1.4-1.7,2.7-4.4 c0,0.1-0.1,0.1,0.1,0c-0.2,0.2,0.2,0.1,0.1,0c0.2-0.1,0.4-0.1,0.6-0.2c0,0.1,0,0.1,0.1,0.2c0.2-0.3-0.5,0,4.2-1.2 c0,0.3,0,0.4,0.1,0.5c0.4-0.6,0.2,1.2,0.5,2.9c0.2,0.7,0.3-0.6,0.3-1c0.3-1.7,0.1,0.9,0.2,1c0.1,0,0-0.1,0.1-0.2 c0,0.5-0.2,0.8,0,0.8c0-0.5,0.1-0.8,0.1-0.7c0,0.3-0.1,1.2-0.1,1.7c0,0.1,0.1-0.1,0.1,0.3c0,0.6,0,0.8,0,0.8c0.1,0,0.1,0.2,0.1,0.3 c0.1-0.2,0.1-0.5,0-0.4c0-0.1,0.3-1.5,0.3-1.7c0-0.1-0.1,0,0-0.3c0.1-0.2,0.2-1.1,0.3-2.2c0,0,0-0.1,0-0.1c0-0.5,0.1-1,0.1-1.5 c0-0.2,0-0.4,0-0.4c0-0.1,0-0.2,0-0.3c-0.1,0.1,0-0.6,0-0.8l0,0c0,0,0,0,0,0c0.1-1.6,0.2-2.5,0.1-0.5c0,0.3,0.3,0.6,0.1,0.1 c0.2-0.2,0-0.3,0.2-0.6c-0.1-0.5,0.1-0.8,0.1-1.2c0.5,0.2-0.3,2.5,0.3,2.7c0.1-0.4,0-0.6-0.1-0.9c0.1-0.1,0.2,0.3,0.1-0.3 c0,0,0.2-0.7,0.1-1.6C101.9,18.1,102,18.5,102.1,17.7L102.1,17.7z M90.5,22.7C90.5,22.7,90.5,22.7,90.5,22.7L90.5,22.7 C90.5,22.7,90.5,22.7,90.5,22.7c0-0.1-0.3-0.1-0.2-0.2c0.2,0,0.5-0.3,0.6,0C90.7,22.6,90.6,22.6,90.5,22.7L90.5,22.7z M90.9,22.5 L90.9,22.5C90.9,22.4,91,22.4,90.9,22.5C91,22.4,90.9,22.4,90.9,22.5z M91.3,23C91.3,23,91.4,22.9,91.3,23 C91.4,23,91.3,23.1,91.3,23z M92.5,24.1C92.5,24.1,92.5,24.1,92.5,24.1L92.5,24.1C92.5,24.1,92.5,24.1,92.5,24.1 c-0.1-0.1,0-0.2,0.1-0.2C92.6,23.9,92.5,24,92.5,24.1L92.5,24.1z M92,25.8c0-0.1,0.1-0.1,0.1-0.1C92.2,25.8,92.1,25.8,92,25.8z M96.8,16.7c-0.1,0.2-0.1,0.4-0.3,0.6C96.6,17.2,96.7,17,96.8,16.7z M94.1,22.3L94.1,22.3c0.2-0.1,0.2-0.1,0.1,0 C94.1,22.3,94.1,22.3,94.1,22.3z M94,22.7c-0.2,0.1-0.2,0.1,0-0.2v0C94.3,22.4,94.2,22.5,94,22.7z M94.2,22.7L94.2,22.7 c0-0.1,0.1-0.2,0.1-0.3c0.1,0,0.3,0,0.4-0.1C94.6,22.5,94.4,22.6,94.2,22.7L94.2,22.7z M94.4,22.3L94.4,22.3 c0.1-0.1,0.1-0.2,0.3-0.2C95,22,95,22.1,94.4,22.3z M95.3,21.9L95.3,21.9c0.1,0,0.2,0,0.4-0.1C95.5,21.9,95.4,21.9,95.3,21.9 L95.3,21.9z M95.5,19.3L95.5,19.3C96.7,17,96.5,17.4,95.5,19.3L95.5,19.3z M96.2,19.1L96.2,19.1c-0.6,0.2-0.1,0,0.2-0.8 C96.5,18.6,96.6,18.1,96.2,19.1z M98.8,18.2L98.8,18.2c-0.8,0.4,0.6,0-2.3,0.8C99.9,12,99,12.3,98.8,18.2z M100.1,24.6 c-0.2,0.1-0.2,0.6-0.2-0.1l0,0c0-0.4,0-0.5,0.2-0.5V24.6z M100.1,23.8c0,0.1,0,0.1,0,0.2C100,23.9,100,23.8,100.1,23.8L100.1,23.8z M101.2,18.3C101.2,18.4,101.3,18.4,101.2,18.3L101.2,18.3C101.2,18.4,101.2,18.3,101.2,18.3C101.2,18.3,101.2,18.3,101.2,18.3 C101.3,17.1,101.3,16.7,101.2,18.3L101.2,18.3z M101.3,17c0-0.2,0-0.3,0.1-0.6C101.4,16.6,101.4,16.9,101.3,17z"/>
    <path d="M92.1,24.8C92.1,24.8,92.1,24.8,92.1,24.8C92.1,24.8,92.1,24.8,92.1,24.8L92.1,24.8z"/>
    <path d="M91.4,25.1C91.4,25.1,91.4,25,91.4,25.1C91.4,25.1,91.4,25.1,91.4,25.1c0,0.3,0.1,0.2,0.3-0.1C91.5,25,91.5,25,91.4,25.1 C91.4,25,91.4,25,91.4,25.1L91.4,25.1z"/>
    <path d="M88.6,23.7L88.6,23.7C88.5,23.7,88.6,23.7,88.6,23.7z"/>
    <path d="M90,23.6C90,23.6,89.9,23.6,90,23.6C90,23.7,90,23.7,90,23.6z"/>
    <path d="M90.3,24C90.2,24,90.2,24,90.3,24C90.2,24,90.3,24.1,90.3,24z"/>
    <path d="M90.5,23.9L90.5,23.9C90.6,24,90.6,23.9,90.5,23.9z"/>
    <path d="M91,23.3L91,23.3c-0.1,0-0.2,0-0.2,0.1C90.9,23.5,91,23.4,91,23.3z"/>
    <path d="M91.6,23.2c0.1,0.1,0.1,0,0.1-0.1C91.7,23.1,91.6,23.1,91.6,23.2z"/>
    <path d="M91.7,23.1C91.7,23.1,91.7,23.1,91.7,23.1C91.7,23.1,91.7,23.1,91.7,23.1C91.7,23.1,91.7,23.1,91.7,23.1L91.7,23.1z"/>
    <path d="M91.7,23.1L91.7,23.1C91.8,23.1,91.8,23.2,91.7,23.1L91.7,23.1C91.8,23,91.7,23,91.7,23.1C91.7,23.1,91.7,23.1,91.7,23.1 L91.7,23.1L91.7,23.1z"/>
    <path d="M92.1,24.8c0.1,0,0.1,0,0.2,0c0-0.1,0.1-0.2,0.1-0.3c0,0-0.1,0-0.1,0c0,0,0,0,0,0c0,0,0,0.1,0,0.1 C92.2,24.7,92.2,24.7,92.1,24.8L92.1,24.8z"/>
    <path d="M92.1,24.8C92.1,24.8,92.1,24.9,92.1,24.8C92.1,24.9,92.1,24.9,92.1,24.8C92.1,24.9,92.1,24.8,92.1,24.8L92.1,24.8z"/>
    <path d="M92.4,26.4L92.4,26.4c0.1-0.1,0.2-0.1,0.1-0.2C92.5,26.3,92.3,26.4,92.4,26.4L92.4,26.4z"/>
    <path d="M93.1,25.9L93.1,25.9C93,26.1,93,26.1,93,26.2C93,26.1,93.2,25.9,93.1,25.9z"/>
    <path d="M93.2,24.8c0.1,0,0.1-0.2,0.1-0.2C93.2,24.6,93.1,24.8,93.2,24.8z"/>
    <path d="M93.1,25.7L93.1,25.7C93.3,25.6,93.2,25.6,93.1,25.7z"/>
    <path d="M93.5,24.1L93.5,24.1c0.1,0,0.1-0.1,0.1-0.2C93.5,24,93.5,24.1,93.5,24.1z"/>
    <path d="M93.7,23.7c0.1,0,0.1-0.2,0.1-0.3C93.8,23.5,93.7,23.6,93.7,23.7z"/>
    <path d="M94.3,23.7L94.3,23.7c0-0.1,0.1-0.3,0-0.4C94.3,23.4,94.1,23.6,94.3,23.7L94.3,23.7z"/>
    <path d="M100.8,25.8C100.8,25.8,100.7,25.8,100.8,25.8C100.7,26,100.9,25.8,100.8,25.8z"/>
    <path d="M100.9,23.6L100.9,23.6c0.1-0.1,0-0.2,0-0.2c0,0,0,0,0,0C100.9,23.5,100.9,23.5,100.9,23.6 C100.9,23.6,100.9,23.6,100.9,23.6L100.9,23.6z"/>
    <path d="M100.9,24.1c-0.1,0.1,0,0.3,0,0.3C101,24.4,101,24.2,100.9,24.1L100.9,24.1z"/>
    <path d="M100.9,24.1C100.9,24.1,100.9,24.1,100.9,24.1C100.9,24.1,100.9,24.1,100.9,24.1L100.9,24.1z"/>
    <path d="M101,22c0,0.6-0.1,0.7,0,0.7c0.2-0.8,0.1-1.3,0-1.2C101,21.6,101,21.8,101,22C101,21.9,101,22,101,22L101,22z"/>
    <path d="M101,22.9c-0.1,0-0.1,0.1,0,0.1C101,22.9,101.1,22.9,101,22.9z"/>
    <path d="M101,23c0,0.1,0,0.2,0,0.2C101.1,23.2,101,23.1,101,23z"/>
    <path d="M101.2,20.9c-0.1-0.2,0.1-0.4-0.1-0.5c0,0.3,0,0.5-0.1,0.8C101.1,21.2,101.1,21.1,101.2,20.9L101.2,20.9z"/>
    <path d="M101.2,24.9L101.2,24.9C101.3,24.8,101.2,24.8,101.2,24.9z"/>
    <path d="M101.2,25.3c0,0.2,0,0.2,0,0.3C101.2,25.5,101.3,25.3,101.2,25.3z"/>
    <path d="M101.5,23.1c0-0.1-0.1-0.2-0.1-0.3C101.4,22.9,101.3,23.1,101.5,23.1z"/>
    <path d="M101.6,23.1L101.6,23.1C101.6,23.1,101.5,23.1,101.6,23.1C101.5,23.1,101.5,23.1,101.6,23.1L101.6,23.1z"/>
    <path d="M101.4,21.6L101.4,21.6c0.2,0.1,0.1,0.3,0,0.2c0,0.1,0,0.2,0,0.4c0,0.4,0.2,0.7,0.2,0c0-0.3-0.1-0.5,0-0.9 C101.3,21.2,101.6,21.3,101.4,21.6z"/>
    <path d="M109.7,8.5C109.7,8.5,109.7,8.5,109.7,8.5C110,8.7,110.1,8.8,109.7,8.5z"/>
    <path d="M119,10.5c0-0.1,0.1-0.2,0.3-0.2c0-0.4-0.1-0.4,0.2-1c-0.8,0.8,0.3-0.5,0-0.7l0-0.3c-0.1,0.1-0.2,0.7-0.6,0.9 c-0.3,1-0.1,0.1-0.1,0c0.1-0.6,0.5-0.8,0.1-1.1c-0.1,0,0.1-0.1-0.2-0.3c-0.2-0.1-0.9-0.2-0.5-0.8c0.2-0.3-0.2-0.1-0.5,0.3 c0.8,0.6,0.9,0.5,0.2,0.3c-0.4-0.1-0.3,0-0.2-0.3c-0.2-0.1-0.3,0.4-0.6,0.5c0.9,0.4,0.6,0.2,0.2,0.1C117.2,8,117.1,8,117.1,8 c-0.8,0.7-3.4,8.8-3.8,10.3c-0.2-0.7,0.2,0.2,0-1.2c-0.8-4.4-0.3-5.3-0.9-6.5c-0.4-0.8-0.1-0.5-0.3-0.3c-0.1-0.1,0.1-0.3,0-0.5 c0,0-0.1,0.4-0.2,0.5c0.1,0.1,0.1,0.3,0.1,0.5c-0.1-0.1-0.3-1.2-0.6-1.3c-0.8,0-0.2,0.2-0.9,0c0.1-0.4-0.1-0.6-0.6-0.7 c0-0.1-0.1-0.2-0.1-0.3c-0.2-0.1-0.3-0.2-0.4-0.2c-0.1,0-0.1,0.2-0.6,0.4c-0.8,0.3-1.8,3.7-1.9,3.8c-4.1,9-4.1,11.3-4.4,12.6 c0,0-0.4,1.2-0.4,1.2c-0.1,0.3,0.1,0.1-0.1,1.1c0.3,0.1,0.4-0.6,0.6-1c0.7-1.4-0.2,0.9-0.1,1c0,0,0.4-0.5-0.1,0.4 c0.1,0.1-0.1,0.2,0.1,0.2c0-0.2,0-0.4,0.2-0.6c0.2-0.3,0.1-0.8,0.4-0.7c-0.1,0.2-0.1,0.4-0.1,0.6l0,0c-0.1,0-0.1,0.1-0.2,0.2 c-0.1,0.5-0.3,1-0.4,1.6c0,0,0.1,0,0.1,0.1c-0.3,1-0.4,1-0.2,1.1c0.1,0,0.1-0.2,0.1-0.3c2-5,3-7.5,3.4-8.4 c-0.3,0.7-0.6,1.7-0.5,1.8c0,0,0.7-1.7,0.7-1.7c0.2,0.2,0.3-0.3-0.2,1.1c-0.3,0.7-0.6,1.1-0.3,1.4c0.7-1.1-0.2-0.3,4.5-10.6 c1.4,7.7,0.8,8.3,1.5,8.3c0,0.2,0.1,0.4,0.1,0.6c0.1,0.6,0.1,1,0.1,1.1c0,0.2,0.1,0.2,0.3,0.9c0.3,0,0.1-0.6,0.2-1 c0.2-1.4,0.2,0.8,0.3,0.8c0,0,0-0.1,0.1-0.2c0,0.4-0.1,0.6,0.1,0.6c0-0.1-0.1-0.3-0.1-0.4h0c0.1-0.3-0.2-0.7,0.1-0.8 c-0.1,0-0.1-0.1,0-0.1c0,0,0,0,0,0h0c0,0,0,0,0,0c0,0.1,0,0.1,0,0.1l0,0c0,0.2,0,0.3,0.1,0.5c-0.1,0-0.1,0.1-0.1,0.1c0,0,0,0,0,0 c0.1,0.5,0.1,0.9,0.1,1.5c0,0,0.1,0,0.1,0.1c0,0.6,0,0.4,0.1,0.8c0,0.1-0.1,0.1,0.1,0.2c0.1-0.1,0-0.3-0.1-0.4c0,0,0-0.1,0-0.1 c0-0.1,0-0.2,0-0.4c0.2-0.6-0.1-0.7,0-0.7c0.3-0.6,0.2-0.6,0.3-1.2c0.5-1.6,0,1,0.1,1.1c0.1,0,0-0.2,0.1-0.2 c-0.1,0.5-0.2,0.8,0,0.8c0-0.2,0-0.5,0.1-0.7c0,0.6-0.2,1.1-0.2,1.7c0,0,0.1,0,0.1,0.1c-0.3,3.5,0.8-1.8,1.9-7.2 c0.4-1.3,0.9-2.9,0,0.4c-0.1,0.3,0.1,0.7,0,0.2c0.2-0.1,0.2-0.6,0.4-1c0.3-0.7,0.1-0.6,0.4-0.5c-0.1,0.7-0.9,2.3-0.5,2.6 c0.2-0.4,0-0.6,0-0.8c0,0,3.3-8.8,3.5-9.1c0,0.2-0.1,0.3,0,0.4c0.1-0.3,0.3-0.6,0.3-0.8c0,0-0.1,0.1-0.1,0c0-0.1,0-0.2,0.1-0.2 c0,0-0.1,0-0.1,0C119.1,10.5,119,10.6,119,10.5L119,10.5z M103.1,26.5L103.1,26.5c-0.1,0-0.1-0.2,0-0.2 C103.1,26.4,103.1,26.5,103.1,26.5z M106,20.6L106,20.6C106,20.6,106,20.6,106,20.6c0-0.1,0-0.1,0.2-0.5 C106.2,20.3,106.1,20.4,106,20.6C106,20.5,106,20.6,106,20.6z M110.5,10.2L110.5,10.2c0-0.1,0-0.1,0.1-0.1 C110.8,10.1,110.7,10.1,110.5,10.2z M112.6,17c0,0.1,0.1,0.1,0.1,0.2C112.7,17.4,112.6,17.7,112.6,17z M113,22.3L113,22.3 c0-0.1-0.1-0.2-0.1-0.3c0-0.3,0-0.1,0.1-0.1C113.1,21.9,113,22,113,22.3L113,22.3z M113,19.7c-0.1-0.4,0-1.1-0.2-1.9l0,0 C112.9,18.6,113,19.3,113,19.7c0,0.1,0.1,0.2,0.1,0.2C112.9,20.8,113,20.6,113,19.7z M113.1,19.8L113.1,19.8c0.1-0.1-0.1-0.4,0-0.6 c-0.2-0.3,0-0.6-0.1-0.9C113.6,18.5,113.2,20,113.1,19.8L113.1,19.8z M113.8,24.5L113.8,24.5c-0.2,0-0.2,0.2-0.3,0.2 c0.2-0.3,0-0.9,0.3-0.9C113.8,24.4,113.8,24.1,113.8,24.5L113.8,24.5z M113.8,23.9c0,0-0.1-0.2,0.1-0.2 C113.8,23.8,113.9,23.9,113.8,23.9z M116.2,17.3L116.2,17.3c0-0.2,0.1-0.3,0.2-0.5C116.3,17,116.3,17.2,116.2,17.3z M117.4,8.3 L117.4,8.3L117.4,8.3C117.5,8.3,117.5,8.3,117.4,8.3z"/>
    <path d="M102.7,27.3C102.7,27.3,102.6,27.3,102.7,27.3C102.6,27.3,102.7,27.3,102.7,27.3C102.7,27.3,102.7,27.3,102.7,27.3 C102.7,27.3,102.7,27.3,102.7,27.3L102.7,27.3z"/>
    <path d="M112.3,24.1L112.3,24.1c0-0.1,0-0.1,0-0.2C112.4,24,112.3,24.1,112.3,24.1L112.3,24.1z"/>
    <path d="M112.4,23.4C112.4,23.4,112.4,23.4,112.4,23.4C112.4,23.4,112.4,23.4,112.4,23.4L112.4,23.4z"/>
    <path d="M128.4,10.7c-0.3-0.1-0.5,0-0.7,0c0-0.2,0.1,0,0.1-0.1c1,0.1,0.4,0,0.4-0.1c0,0,0.2-0.1,0.5-0.1c-0.1-0.1-0.2,0-0.3-0.1 c0.3,0.1,0.7-0.2,0.9,0c0,0,0.1,0,0.1,0c0,0,0.1-0.1,0.2,0c0.3,0,0.3-0.1-0.4-0.1c-0.4,0-1.2,0.1-1.2-0.1c0.9-0.2,0.9-0.3,1.1-0.3 c0.2,0,0,0,1.2-0.2c0.1-0.2,0-0.6,0.2-1c0-0.1,0.3-0.1-0.2-0.4c-0.4-0.2,0-0.4-0.6-0.4c-0.2,0-0.4,0-0.7-0.1 c-0.7,0.5-6.9,0.2-6.9,1.1c-0.2,0-0.3,0.1-0.4,0.1c-0.4,0.1-0.7,0.1-0.8,0.2c-0.1,0-0.2,0.1-0.3,0.2c-1,0.5,0.8,0,0.7,0.3 c-0.2-0.1-0.1,0-0.7,0.1c-0.1,0-0.1-0.1-0.2,0.1c0,0,0.1,0,0.1,0.1c-0.3,0-0.5,0-0.4,0.1c0.1,0,0.3-0.1,0.4,0 c-0.3,0.1-0.6,0.1-0.9,0.2c0,0,0,0.1-0.1,0.1c-0.1,0-0.2,0-0.3,0.1c0,0.1,0,0.1,0,0.2l0,0c0.1,0,0.2-0.1,0.3,0c0.3,0.1,0.3,0,0.4,0 c0,0,0.1,0.1,0.1,0.1c0.2,0,1,0,1.3,0c0,0,0,0,0.1,0c0,0,0,0,0,0v0c0,0,0,0,0,0c0,0,0,0,0,0c0.1,0,0.2,0,0.2,0c0,0,0,0,0,0 c0-0.1,0.1-0.1,0.1-0.1c0,0,0.1,0,0.1,0c0,0,0.1-0.1,0.1-0.1c-0.1,0.2-0.2,0.3-0.3,0.5c0,0,0,0-0.1,0.4c-0.1,0.2-0.1,0.3-0.1,0.4 c-0.1,0.2-0.5,1.2-2.5,5.7c-0.1,0.1-0.8,0.3-0.9,0.3c-0.1,0-0.2,0.2-0.3,0.2c-0.9,0.7,0.8-0.1,0.7,0.2c-0.2,0-0.1,0.1-0.7,0.2 c-0.1,0-0.1,0-0.2,0.1c0,0,0.1,0,0.1,0.1c-0.3,0-0.5,0-0.4,0.2c0.1-0.1,0.2-0.2,0.4-0.1c-0.3,0.1-0.7,0.2-1,0.3c0,0,0,0.1,0,0.1 c-0.7,0.2-0.7,0.1-0.7,0.3c0.1,0.1,0.1,0,0.2,0c0,0,0.1,0,0.1,0c0.1,0,0.2-0.1,0.3,0c0.3,0.1,0.4-0.1,0.5-0.1c0,0,0.1,0.1,0.1,0.1 c0,0,0,0,0.1,0c0.1,0,0.2,0,0.3,0c0.9-0.1,0.5-0.4-0.2,1.7c-0.5,1.5-0.7,1.6-0.4,1.8c-0.1,0.3-0.1,0.6-0.2,0.8 c-0.2,0.7-0.4,1.1-0.4,1.3c-0.2,0.6,0.1,1.1-0.4,1.5c-0.3,0.2-0.4,0.2-0.4,0.3c0.5,0,0.9-0.4,0.9-0.2c0.2,0.2-0.7,0.3-0.7,0.4 c0,0,0.5,0-0.3,0.1c0,0.1-0.1,0-0.1,0.2c0.2-0.1,0.3-0.2,0.5-0.2c-0.4,0.2-0.8,0.3-1.2,0.5c0,0,0,0.1,0,0.1 c-0.8,0.4-0.8,0.3-0.8,0.5c0.1,0.1,0.1-0.1,0.2-0.1h0.1c0.1,0,0.2-0.1,0.4-0.1c0.4,0,0.5-0.1,0.6-0.2c0.1,0,0.1,0,0.2,0 c0,0,0,0,0.1,0c0.1-0.1,0,0,0.9-0.3c-0.2,0.5,0,0.1-0.2,0.7c-0.1,0-0.2,0.1,0,0V28c-0.3,1.9,0.2-0.5,0.3-0.2c0.1,0,0.2-0.6,0.2-0.7 c0,0,4.7-1.8,4.7-1.8c-1,0.6-1.8,0.6-1.8,0.9c0.1,0,0.1-0.1,0.1-0.1c0.2,0.1,0.3-0.1,0.5-0.1c0.2-0.2,0.5-0.1,0.8-0.3 c0,0.3,0.5-0.1-1.7,0.9c0,0.1-0.1,0.1-0.1,0.2c0.1-0.1,0.4-0.1,0.5-0.2c0,0,0,0,0,0c1.6-0.6,6.2-2.3,6.8-2.4 c-0.1,0.1-0.2,0-0.3,0.2c1-0.2,0.4-0.4,1.5-0.8c-0.2,0-0.1,0.1-0.3-0.1c0.1-0.1,0.5,0,0.6-0.2c-0.2,0-0.5,0.1-0.6,0 c-0.1,0.1-0.3,0.1-0.4,0.1c0.1-0.1,0.2-0.1,0.3-0.2c0.4-0.3,0.5,0,0.8-0.5c0-0.7-0.2-0.2,0-0.9c0.5-2-6.2,1.2-8.1,2 c-3.1,1.1-2.3,1.5-2,0.4c0-0.1,0.5-1.2,0.9-2.3c-0.5,0.6,0-0.3,0.1-0.5v0c0.1,0.1-0.1,0.3-0.1,0.5c0.7-1.8,1.6-3.8,1.1-2.6 c-0.4,1-0.9,1.9-0.8,2.2c0.1-0.1,0-0.2,0-0.3c0.1,0,0.8-1.6,0.8-1.6c0.3,0.5-1.1,2.3-0.8,2.8c0.2-0.3,0.1-0.5,0.2-0.8 c0.1,0,0,0.1,0.1,0.1c0.2-0.3,0.6-1.3,0.7-1.9c0.1-0.1,0,0.3,0.5-0.7c0.1,0,5.6-1.1,5.7-1.1c-0.1,0.1-0.2,0-0.2,0.1 c0.7-0.1,0.3-0.4,1.2-0.6c-0.2-0.1-0.1,0.1-0.2-0.1c0.1-0.1,0.4,0,0.5-0.1c-0.1-0.1-0.4,0-0.5-0.1c-0.1,0.1-0.2,0.1-0.3,0.1 c0.1-0.1,0.2-0.1,0.3-0.1c0.1-0.1-0.1-0.1,0.2-0.1c0.8-0.2,0.3-0.6,0.6-1.2c0-0.1,0.3-0.1-0.2-0.4c-0.3-0.1-0.2-0.6-2-0.1 c-0.2,0-1.3,0.5-1.8,0.5c0,0-0.1,0-0.1,0c-0.1,0-0.1,0.1-0.2,0.1c-0.3,0.1-0.6,0.1-0.9,0.2c-0.9,0.4-0.4,0.3,0.7-2.4 c1.3-3.2,0.6-2.6,1.1-2.8c0,0,0,0,0,0c0-0.1,0,0,0.1-0.1c0,0,0,0.1,0,0.1c0.3,0,1.1,0,1.9,0c0,0,0,0,0,0 C127,10.9,127.7,10.8,128.4,10.7L128.4,10.7z M120.9,10.3L120.9,10.3C120.9,10.3,120.9,10.3,120.9,10.3c0-0.1-0.2-0.1-0.2-0.2 c0.2,0.1,0.5-0.2,0.5,0.1C121.1,10.3,121,10.3,120.9,10.3C120.9,10.3,120.9,10.3,120.9,10.3z M121.2,10.2L121.2,10.2 C121.2,10.1,121.3,10.1,121.2,10.2C121.3,10.2,121.3,10.2,121.2,10.2z M116.6,26c0.2-0.1,0.2-0.5,0.7-1.6c0,0.4-0.5,1.4-0.5,1.5h0 C116.8,25.9,116.7,26,116.6,26L116.6,26z M116.6,26.9L116.6,26.9c-0.1-0.1-0.4,0-0.3-0.1C116.3,26.9,117.5,26.3,116.6,26.9z M117,26.4C116.9,26.5,116.9,26.5,117,26.4C117,26.3,117,26.3,117,26.4z M117.3,25.6L117.3,25.6c-0.2,0-0.1,0.1-0.2,0.2 c0.2-0.3,0.2-0.9,0.4-0.8C117.4,25.2,117.3,25.4,117.3,25.6L117.3,25.6z M117.5,25L117.5,25c-0.1,0,0-0.2,0-0.2 C117.5,24.9,117.5,24.9,117.5,25z M122.1,25.3C122.6,25.2,122.3,25.3,122.1,25.3L122.1,25.3L122.1,25.3 C122,25.4,122,25.4,122.1,25.3L122.1,25.3C122.1,25.4,122.1,25.4,122.1,25.3L122.1,25.3z M118,25.2C118,25.2,118,25.2,118,25.2 l0,0.1c0,0,0,0-0.1,0C118,25.3,118,25.2,118,25.2C118,25.1,118,25.1,118,25.2L118,25.2z M118,24.4C118,24.4,118,24.4,118,24.4 L118,24.4C118,24.4,118,24.4,118,24.4c0,0,0-0.1,0-0.2C118,24.3,118,24.4,118,24.4z M118.1,20C118.1,20,118.1,19.9,118.1,20 L118.1,20C118.2,20,118.1,20,118.1,20L118.1,20z M118.2,24L118.2,24C118.2,24,118.2,24,118.2,24c0-0.1,0-0.2,0-0.3 C118.3,23.8,118.3,23.9,118.2,24C118.2,24,118.2,24,118.2,24z M118.2,18.7c0-0.1-0.2-0.1-0.2-0.1c0.2,0,0.5-0.3,0.5,0 c0-0.1,0.1-0.1,0.1,0c0,0-0.1,0-0.1,0h0C118.4,18.6,118.3,18.7,118.2,18.7z M118.3,23.7L118.3,23.7 C118.3,23.7,118.3,23.7,118.3,23.7c-0.1-0.1,0-0.2,0-0.2C118.4,23.6,118.4,23.7,118.3,23.7C118.3,23.7,118.3,23.7,118.3,23.7z M118.4,23.5C118.4,23.5,118.4,23.5,118.4,23.5L118.4,23.5C118.5,23.3,119.4,21.1,118.4,23.5z M121.9,18.8 c-0.8,0.2-0.7,0.2-0.5-0.1C122,18.5,122.6,18.6,121.9,18.8z M122.9,18.2L122.9,18.2C123.3,18.1,122.9,18.3,122.9,18.2L122.9,18.2 L122.9,18.2z M122.6,18.3c-0.9,0.3-1.3,0.2-0.9,0.2l0,0c0.2,0,0.4-0.1,0.6-0.2C122.3,18.4,122.3,18.4,122.6,18.3L122.6,18.3z M124.1,11.5L124.1,11.5c0-0.1,0-0.3,0.1-0.3C124.2,11.3,124.2,11.4,124.1,11.5L124.1,11.5z M124.2,10.8L124.2,10.8 C124.2,10.8,124.2,10.8,124.2,10.8c0.1,0,0.1,0,0.1,0C124.3,10.9,124.2,11.2,124.2,10.8z M124.5,10.7c-0.3,0-0.2,0-0.1,0 C124.5,10.6,124.5,10.6,124.5,10.7z M124.5,10.9c0-0.1,0-0.1,0.1-0.1C124.7,10.8,124.6,10.8,124.5,10.9z M124.7,10.7c0,0,0,0-0.2,0 C124.6,10.5,125.7,10.5,124.7,10.7z M125.3,10.5c0,0,0.2,0,0.3,0C125.5,10.6,125.4,10.6,125.3,10.5z"/>
    <path d="M119.3,26.8C119.3,26.8,119.4,26.8,119.3,26.8C119.4,26.8,119.4,26.8,119.3,26.8C119.4,26.8,119.4,26.8,119.3,26.8 L119.3,26.8z"/>
    <path d="M116.1,28L116.1,28c0.1,0,0.1,0,0.1-0.1C116.2,28,116.1,28,116.1,28z"/>
    <path d="M117.2,27.7c0.1,0,0.1,0,0.1-0.1C117.3,27.6,117.2,27.6,117.2,27.7z"/>
    <path d="M117.2,27.7C117.2,27.7,117.2,27.7,117.2,27.7C117.2,27.7,117.2,27.7,117.2,27.7L117.2,27.7z"/>
    <path d="M117.7,27.4c0.1,0,0.1,0,0.1-0.1C117.8,27.3,117.7,27.3,117.7,27.4z"/>
    <path d="M117.6,27.4C117.6,27.4,117.7,27.4,117.6,27.4C117.7,27.4,117.7,27.4,117.6,27.4L117.6,27.4z"/>
    <path d="M117.9,19.6L117.9,19.6C117.8,19.6,117.7,19.6,117.9,19.6C117.8,19.7,117.9,19.7,117.9,19.6z"/>
    <path d="M118,27.3C118,27.3,118,27.3,118,27.3C118,27.3,118,27.3,118,27.3L118,27.3z"/>
    <path d="M118,27.3c0.1,0.1,0.1,0,0.1-0.1C118.1,27.2,118,27.3,118,27.3z"/>
    <path d="M118.2,27.2C118.2,27.2,118.2,27.2,118.2,27.2C118.1,27.1,118.1,27.3,118.2,27.2z"/>
    <path d="M118.3,27.7L118.3,27.7c0.1-0.1,0.2-0.1,0.2-0.2C118.4,27.5,118.2,27.5,118.3,27.7z"/>
    <path d="M118.4,27.2L118.4,27.2C118.4,27.2,118.4,27.2,118.4,27.2C118.4,27.2,118.4,27.2,118.4,27.2z"/>
    <path d="M118.5,27.1C118.5,27.2,118.4,27.2,118.5,27.1c0.2,0,0.6-0.1,0.8-0.3C119,26.9,118.7,27.1,118.5,27.1L118.5,27.1z"/>
    <path d="M118.6,24L118.6,24c0-0.2,0-0.3,0-0.4C118.6,23.8,118.5,24,118.6,24L118.6,24z"/>
    <path d="M119.4,27.1c-0.5,0.3-0.8,0.2-0.8,0.5C118.8,27.5,119.6,27.2,119.4,27.1z"/>
    <path d="M118.6,27.6C118.6,27.6,118.6,27.6,118.6,27.6C118.6,27.6,118.6,27.6,118.6,27.6L118.6,27.6z"/>
    <path d="M118.9,23.5c0.2-0.4,0.3-0.8,0.4-1.1v0c-0.2-0.2,0,0.1-0.2,0.3C119.2,22.7,118.6,23.3,118.9,23.5z"/>
    <path d="M119.1,21.9C119.1,21.9,119.1,21.9,119.1,21.9C119.1,21.9,119.1,21.9,119.1,21.9C119.1,21.9,119.1,21.9,119.1,21.9z"/>
    <path d="M119.4,26.8C119.4,26.8,119.4,26.8,119.4,26.8C119.3,26.8,119.3,26.8,119.4,26.8z"/>
    <path d="M119.6,26.8c0.1-0.1,0.3-0.1,0.3-0.2c-0.3,0.1-0.5,0.2-0.5,0.2C119.4,26.8,119.4,26.8,119.6,26.8L119.6,26.8z"/>
    <path d="M120.5,11.1C120.5,11.1,120.5,11.1,120.5,11.1C120.5,11.1,120.6,11.1,120.5,11.1L120.5,11.1z"/>
    <path d="M120.5,11.1C120.5,11.1,120.4,11.1,120.5,11.1C120.5,11.2,120.5,11.2,120.5,11.1z"/>
    <path d="M120.7,11.5L120.7,11.5C120.7,11.5,120.8,11.6,120.7,11.5C120.7,11.5,120.7,11.5,120.7,11.5z"/>
    <path d="M121,11.5C121,11.4,120.9,11.4,121,11.5C120.9,11.5,121,11.5,121,11.5L121,11.5L121,11.5z"/>
    <path d="M121.4,11c0,0-0.1,0-0.1,0C121.3,11.1,121.4,11.1,121.4,11L121.4,11z"/>
    <path d="M121.3,11.5L121.3,11.5C121.3,11.5,121.3,11.5,121.3,11.5z"/>
    <path d="M121.4,10.5C121.4,10.6,121.5,10.5,121.4,10.5C121.5,10.5,121.4,10.5,121.4,10.5C121.4,10.5,121.4,10.5,121.4,10.5 L121.4,10.5z"/>
    <path d="M121.6,10.5c0,0.1,0.1,0,0.1-0.1c0,0,0,0,0,0C121.7,10.5,121.7,10.5,121.6,10.5C121.6,10.5,121.6,10.5,121.6,10.5 L121.6,10.5z"/>
    <path d="M124.7,10.9L124.7,10.9c0.2,0,0.1,0,0.1-0.1C124.7,10.9,124.7,10.9,124.7,10.9C124.7,10.9,124.7,10.9,124.7,10.9 L124.7,10.9z"/>
    <path d="M145.3,9.5c-0.3,0-0.7,0-0.8-0.1c-0.2,0.1-0.3,0.1-0.5,0.1c0.5-0.5,1.9,0,1.5-1.3l-0.1,0.1c0-0.2-0.1-0.6-0.1-0.6 c-0.1-0.1-0.4-0.2-0.4-0.2c-0.5-0.6-2.5,0.1-5.5,0.5c0-0.3,0.1-0.5,0.1-0.6c0,0.1-0.1,0.1-0.2,0.2c0-0.2,0.2-0.5,0.3-0.8 c0.1-0.6-0.3,0.6-0.5,0.8c-0.1,0.6-0.1,0.5-0.2,0.5c0,0,0.1-0.2,0.1-0.4c0-0.9,0.6-1.3-0.4-1.7c-0.2,0.1-0.1,0-0.2-0.1 c0,0-0.3-0.2-0.4-0.2c-0.2,0-0.2-0.1-0.5,0.3c-0.3,0.5-0.3-0.1-0.6,0.7c-0.2,0.4-0.4,1.2-0.7,1.7c0,0.2-4.6,0.5-5.1,0.9 c0.1,0,0,0.1,0,0.2c-0.3,0-0.5,0.1-0.8,0.2c0,0,0,0,0,0c0,0.1-0.1,0.1-0.2,0.2c-0.1,0-0.3,0-0.4,0.1l0.2,0.4c0,0-0.1,0-0.1,0 c-0.1,0.1-0.2,0-0.3,0.1c0.1,0,0.2,0,0.4,0c0.1,0.1,0.4,0.1,0.6,0.1c-0.1,0.2-0.5,0-0.6,0.1c0.1,0.2,0.5,0.1,0,0.2 c-0.6,0.1-0.5,0.3-1,0.4c0-0.1,0.1,0,0.2-0.1c-0.1,0-0.4,0-0.5,0.1c0,0-1,0-2,0c0,0,0,0.1-0.1,0.1c-0.3,0-0.7,0.1-1,0.1 c-0.1,0-0.1-0.2-0.2,0.1c0.1,0.1,0.2,0,0.4,0c0,0,0.1,0,0.1,0c0.1,0,0.3,0,0.4,0c0.1,0,0.3,0.1,0.6,0.1c0.1,0,0.2,0,0.3,0 s0.2,0.1,0.3,0.1c1-0.1,1.8,0,2.2-0.1c0.2-0.1,0.5,0,0.7-0.1c0.1,0,0.2-0.1,0.3-0.1c0.2-0.1,0.3-0.1,0.5-0.1 c1.6,0.1,4.7-0.5,4.7-0.3c-1.3,0.3-2.3,0.1-2.4,0.4c0.1,0,0.1-0.1,0.2-0.1c0.1,0.1,1.8-0.1,1.8-0.1c-0.1,0.3-1.8,0.3-2.5,0.4 c-0.1,0.1-0.4,0.3,0,0.2c0.2,0,0.3-0.1,0.5-0.2c0.1,0.1-0.2,0.2,0.3,0c0.1,0,0.7,0.1,1.6-0.2c0.5,0.1-3.3,10.2-3,11.2 c0.1-0.1,0.1,0,0.2,0c-0.1,0.3-0.1,0.6-0.1,0.9c-1.5,6,0.2,0.8,0.3,1.1c-0.2,0.3,0,0.2-0.5,1.4c0,0.1-0.1,0.2,0,0.4 c0.1,0,0-0.2,0.1-0.2c-0.3,0.7-0.4,0.9-0.2,0.9c0.1-0.4,0.7-2.1-0.4,1.2c0,0,0.1,0.1,0,0.1c0,0-0.5,1.2-0.3,1.4 c0.2-0.1,0.1-0.3,0.2-0.4c0,0,0.6-1.1,0.7-1.3c0.1-0.3,0.9-2.2,1-2.5c0.1-0.1,2.4-7.4,2.4-7.6c0.5-1.3-0.9,2.5-0.7,2.8 c0-0.1,0-0.2,0-0.3c0.2-0.1,0.1-0.5,0.3-0.7c0-0.5,0.3-0.8,0.4-1.2c0.4,0.4-0.9,2.8-0.6,3.3c0,0,3.3-10.8,3.8-10.8 c3.5-0.3,4.4-0.3,5.3-0.8c0.2-0.1,0.4-0.2,0.5-0.2c-0.1,0-0.1-0.1-0.2-0.1C144.7,9.6,145,9.7,145.3,9.5 C145.4,9.6,145.4,9.5,145.3,9.5L145.3,9.5z M132.7,25.6L132.7,25.6c-0.2,0-0.2,0.2-0.3,0.2c0.2-0.4,0.2-1,0.5-0.9 C132.8,25.1,132.7,25.4,132.7,25.6L132.7,25.6z M132.9,24.8L132.9,24.8c-0.1-0.1-0.1-0.2,0-0.2C132.9,24.7,132.9,24.7,132.9,24.8z M136,17L136,17C136,17,136,16.9,136,17c0-0.1,0.1-0.2,0.2-0.7C136.2,16.6,136.2,16.8,136,17C136,17,136,17,136,17z"/>
    <path d="M128.8,10.5L128.8,10.5c0.2,0,0.4,0,0.6-0.1c0,0,0,0,0-0.1C129.1,10.4,128.9,10.4,128.8,10.5 C128.7,10.5,128.8,10.5,128.8,10.5z"/>
    <path d="M129.4,10.4L129.4,10.4c0.1,0,0.1,0,0.2,0c0,0,0,0,0,0C129.6,10.4,129.5,10.4,129.4,10.4C129.4,10.4,129.4,10.4,129.4,10.4 L129.4,10.4z"/>
    <path d="M154.3,10.2C154.2,10.2,154.2,10.2,154.3,10.2z"/>
    <path d="M157.2,14.5c0,0,0.1-0.1,0.1-0.1C157.3,14.4,157.3,14.5,157.2,14.5z"/>
    <path d="M160.9,10.8c0-0.2,0.1,0,0.1-0.1c1,0.1,0.4,0,0.4-0.1c0,0,0.2-0.1,0.5-0.1c-0.1-0.1-0.2,0-0.3-0.1c0.3,0.1,0.7-0.2,0.9,0 c0,0,0.1,0,0.1,0c0,0-2.4-0.1-2.4-0.1c0.3,0,2.8,0,2.1-0.1c-0.4,0-0.9,0-0.9-0.3c0.9-0.2,0-0.3,0.2-0.3c0.2,0-1.2,0,0.1-0.2 c0.1,0-0.5,0-0.4,0c1.2-1.5,1.1-1.2,1.2-1.9c-0.1,0-0.1,0-0.1-0.1c0.1-0.1,0.1-0.2,0.1-0.2c0,0-0.1,0.1-0.2,0 c0-0.2,0.3-0.2,0.2-0.3c-0.1,0-0.2,0.1-0.3,0.1c0.1-0.2,0.3-0.5,0.2-0.8c-0.3-0.4-0.2-0.3-0.4-0.4c0-0.3-0.1-0.2,0-0.4 c0-0.1,0.3-0.2,0.2-0.3c-0.3-0.1-0.6,0.1-0.7,0.2c0.1,0.2,0.5,0.6,0.3,0.4c-0.4-0.5-0.3-0.3-0.3-0.3c0,0-0.1-0.1-0.1-0.1 c0,0-0.2,0-0.3-0.1c-0.7,0.3-0.8,0.9-1,0.9c0.1,0.2-0.2,0.3-0.3,0.6c-0.1,0.3-0.2,0.5-0.6,1c-2.4-2.1-9.1-1.2-11.3,3.3 c-2.1,4.3,2.1,6.2,3.5,7.4c4.9,3.6,4.2,5.1,4,5.4c0.6,0.2,0.3,0.1-0.1,0c0,0,0,0,0,0c-0.2,0.5-0.2,0.5,0,0.6 c-1.3,2-5.5,2.4-5.2,2.5c1,0.3,4.9-0.9,2.6-0.1c-1.6,0.5-2.4,0.4-2.5,0.5c0.1,0.1,0.2,0,0.3,0.1c0,0,0,0,0,0c0.6,0,1.7-0.4,1.8-0.2 c-1.2,0.3-1.6,0.3-1.8,0.2c-0.5,0-1.5-0.2-1.6,0c3.5,0.3-0.4,0.3-2-0.5c-0.5-0.3,0.7,0.7-1.7-1c-0.1,0,0-0.2-0.4-0.2 c0,0,1.5,1.9,4.2,2.3c3.6,0.6,6.8-1.1,7.9-3.3c1.7-3.5-3.3-7-3.4-7.2c-0.1-0.1-1.6-1.2,0.4,0.2c0.9,0.6,1.9,1.7,2.3,2.3 c1.1,1.6,0.5,0-1.3-1.6c-0.1-0.1-0.1-0.1-0.1-0.1c-0.8-0.9-0.8-0.4-0.6-0.7c2.9,2,4,5.9,3.6,4.3c-0.2-0.6-0.5-1-0.8-1.4 c0-0.2,0.1,0.1,0.1-0.1c-2.1-4.3-9.9-5.8-6.1-9.1c0.6-0.5,2.3-1.3,3.4-1.3c-0.2,0.1-0.4,0.1-0.5,0.1c0.1,0,0.3,0,0.6-0.1 c0.4,0,2-0.4,2.5,0c0.4,0.4,0-0.1,0-0.1c0,0-0.1-0.3,0.2-0.1c0.2,0.2,0.3,0.4,0.4,0.5c-0.1,0.1-0.3,0.8-0.4,0.9 c0.3,0,1.9,0,2.6-0.1C160.3,11.3,161.1,10.8,160.9,10.8L160.9,10.8z M162.5,7.1c-0.1,0.2-0.1,0.2-0.1,0.1c0,0,0-0.1,0-0.1 L162.5,7.1L162.5,7.1z M162.3,7.1C162.3,7.1,162.3,7.1,162.3,7.1L162.3,7.1z M152.9,27.3L152.9,27.3c0-0.1,0.4-0.2,0.4-0.1 C153.1,27.2,153,27.2,152.9,27.3z M152.5,16.7c-0.1-0.1-0.4-0.3-0.8-0.6C152,16.2,152.3,16.4,152.5,16.7z M158,10.4L158,10.4 c-0.1-0.2-0.3-0.4-0.4-0.5c-0.2-0.3,0-0.2-0.3-0.2c-1.5-0.4,0.2,0,0.2,0c0.3,0,0.5,0.2,0.8,0.5C158.1,10.2,158,10.3,158,10.4 L158,10.4z"/>
    <path d="M158.2,11.3c-0.1,0-0.2-0.1-0.3-0.1c-0.1,0-0.2,0-0.3,0c0,0,0,0,0,0c-0.3,0.6-0.4,1.2-0.4,1.3c0.1,0,0.1,0.1,0.2,0.1 c-0.1,0.2-0.1,0.4-0.1,0.5c-0.1,0.3-0.2,0.6-0.3,0.6c-0.1,0.2,0,0.2-0.1,0.7c0.2,0.1,0.3-0.3,0.5-0.5c0.4-0.4,0.2-0.2,0.1,0.1 c0,0,0.1,0,0.1,0c-0.1,0.1-0.1,0.2-0.1,0.3c-0.1-0.1-0.1,0-0.2,0c0,0.1,0,0.1,0,0.1c0,0,0.3-0.2-0.1,0.2c0.1,0.1-0.1,0.1,0.1,0.1 c0-0.1,0-0.3,0.2-0.3c-0.1,0.3-0.3,0.6-0.4,0.9c0,0,0.1,0,0,0c-0.1,0.2-0.1,0.4-0.2,0.6c0,0-0.1,0,0.1,0.2c0.1,0,0-0.1,0-0.2 c0,0,0,0,0-0.1c0.1-0.1,0.1-0.2,0.2-0.2c0.2-0.2,0.2-0.3,0.2-0.4c0,0,0.1,0,0.1-0.1l0,0c0,0,0.5-0.7,0.5-0.7c0.1,0,0.1-0.1,0.1-0.2 c0-0.1,0.2-0.2,0.2-0.4c0-0.1,0-0.2,0.1-0.2c0-0.1,0-0.2,0-0.2c0.6-0.7,1-2,1.1-2.2h0.1c-0.2,0.4-0.5,1-0.4,1.1c0-0.1,0-0.1,0-0.2 c0.2,0,0.1-0.3,0.3-0.3c0-0.3,0.2-0.4,0.2-0.6c0.2,0.2,0.2-0.3-0.4,1.4c0.1,0.1,0.1,0.1,0.1,0.2c0.2-0.2,0.1-0.3,0.1-0.5 c0.1,0,0.4-0.6,0.8-1.4C159.7,11.3,159,11.2,158.2,11.3L158.2,11.3z M157.6,14.2L157.6,14.2C157.5,14.1,157.5,14,157.6,14.2 C157.6,14.1,157.6,14.1,157.6,14.2z"/>
    <path d="M151,27.5C151,27.5,151,27.5,151,27.5C151,27.5,151,27.5,151,27.5C151,27.5,151,27.5,151,27.5L151,27.5z"/>
    <path d="M157.3,14.4c0-0.1,0.1-0.1,0.1-0.2C157.4,14.2,157.3,14.3,157.3,14.4z"/>
    <path d="M157.2,14.6C157.2,14.6,157.2,14.6,157.2,14.6C157.2,14.6,157.2,14.5,157.2,14.6C157.2,14.5,157.2,14.6,157.2,14.6 L157.2,14.6z"/>
    <path d="M157.4,10.9C157.4,10.9,157.4,11,157.4,10.9c-0.4,0.1-0.7,0.1-1,0.2c-0.1,0-0.1-0.2-0.2,0.1c0.1,0.1,0.2,0,0.4,0 c0,0,0.1,0,0.1,0c0.1,0,0.3,0,0.4,0c0.1,0,0.3,0.1,0.6,0.1c0.1-0.1,0.1-0.3,0.2-0.4C157.6,10.9,157.5,10.9,157.4,10.9L157.4,10.9z"/>
    <path d="M174.9,8.9c-0.3,0.3-0.6,1-0.9,1.5c0.4-0.1,0.7-0.2,1-0.4c0.2-0.1,0.4-0.2,0.5-0.2c-0.1,0-0.1-0.1-0.2-0.1 c0.1-0.1,0.4,0,0.7,0c0.2,0,0.1-0.1,0.1-0.1c-0.3,0-0.7,0-0.8-0.1c-0.2,0.1-0.3,0.1-0.5,0.1c0.5-0.5,1.9,0,1.5-1.3l-0.1,0.1 c0-0.2-0.1-0.6-0.1-0.6c-0.1-0.1-0.4-0.2-0.4-0.2c-0.5-0.6-2.5,0.1-5.5,0.5c0-0.3,0.1-0.5,0.1-0.6c0,0.1-0.1,0.1-0.2,0.2 c0-0.2,0.2-0.5,0.3-0.8c0.1-0.6-0.3,0.6-0.5,0.8c-0.1,0.6-0.1,0.5-0.2,0.5c0,0,0.1-0.2,0.1-0.4c0-0.9,0.6-1.3-0.4-1.7 c-0.2,0.1-0.1,0-0.2-0.1c0,0-0.3-0.2-0.4-0.2c-0.2,0-0.2-0.1-0.5,0.3c-0.3,0.5-0.3-0.1-0.6,0.7c-0.2,0.4-0.4,1.2-0.7,1.7 c0,0.2-4.6,0.5-5.1,0.9c0.1,0,0,0.1,0,0.2c-0.2,0-0.3,0-0.5,0.1c-0.1,0.1-0.2,0.3-0.3,0.4c-0.4,0.5-0.7,1-0.9,1.4 c0.1,0,0.2,0,0.2,0c0.2-0.1,0.5,0,0.7-0.1c0.1,0,0.2-0.1,0.3-0.1c0.2-0.1,0.3-0.1,0.5-0.1c1.6,0.1,4.7-0.5,4.7-0.3 c-1.3,0.3-2.3,0.1-2.4,0.4c0.1,0,0.1-0.1,0.2-0.1c0.1,0.1,1.8-0.1,1.8-0.1c-0.1,0.3-1.8,0.3-2.5,0.4c-0.1,0.1-0.4,0.3,0,0.2 c0.2,0,0.3-0.1,0.5-0.2c0.1,0.1-0.2,0.2,0.3,0c0.1,0,0.7,0.1,1.6-0.2c0.5,0.1-3.3,10.2-3,11.2c0.1-0.1,0.1,0,0.2,0 c-0.1,0.3-0.1,0.6-0.1,0.9c-1.5,6,0.2,0.8,0.3,1.1c-0.2,0.3,0,0.2-0.5,1.4c0,0.1-0.1,0.2,0,0.4c0.1,0,0-0.2,0.1-0.2 c-0.3,0.7-0.4,0.9-0.2,0.9c0.1-0.4,0.7-2.1-0.4,1.2c0,0,0.1,0.1,0,0.1c0,0-0.5,1.2-0.3,1.4c0.2-0.1,0.1-0.3,0.2-0.4 c0,0,0.6-1.1,0.7-1.3c0.1-0.3,0.9-2.2,1-2.5c0.1-0.1,2.4-7.4,2.4-7.6c0.5-1.3-0.9,2.5-0.7,2.8c0-0.1,0-0.2,0-0.3 c0.2-0.1,0.1-0.5,0.3-0.7c0-0.5,0.3-0.8,0.4-1.2c0.4,0.4-0.9,2.8-0.6,3.3c0,0,3.3-10.8,3.8-10.8c1.4-0.1,2.4-0.2,3.1-0.3 c0,0,0-0.1,0-0.1c0,0.1,0,0.1,0,0.1c0.2,0,0.4-0.1,0.6-0.1C174.1,9.5,175.3,8.1,174.9,8.9L174.9,8.9z M163.4,25.6L163.4,25.6 c-0.2,0-0.2,0.2-0.3,0.2c0.2-0.4,0.2-1,0.5-0.9C163.5,25.1,163.5,25.4,163.4,25.6L163.4,25.6z M163.6,24.8L163.6,24.8 c-0.1-0.1-0.1-0.2,0-0.2C163.6,24.7,163.6,24.7,163.6,24.8z M166.8,17L166.8,17C166.8,17,166.8,16.9,166.8,17 c0-0.1,0.1-0.2,0.2-0.7C167,16.6,166.9,16.8,166.8,17C166.8,16.9,166.8,17,166.8,17L166.8,17z M173.3,10.5c0-0.1,0-0.1,0.1-0.2 C173.4,10.3,173.3,10.4,173.3,10.5z"/>
    <path d="M162,10.6L162,10.6c0.2,0,0.4,0,0.6-0.1c0,0,0,0,0-0.1C162.4,10.5,162.2,10.5,162,10.6C162,10.5,162,10.5,162,10.6z"/>
    <path d="M162.7,10.5l-2.5-0.1c0.1,0,0.1,0,0.2,0c0,0,0.4-0.2,0.3-0.2C160.6,10.2,162.7,10.4,162.7,10.5 C162.7,10.4,162.7,10.4,162.7,10.5L162.7,10.5z"/>
    <path d="M183.8,11.5C183.8,11.5,183.8,11.4,183.8,11.5c0-0.2,0.1-0.4,0.3-0.6c0,0,0,0,0,0c0,0,0,0-0.1-0.1 c-0.1,0.2-0.2,0.4-0.3,0.6C183.8,11.4,183.8,11.5,183.8,11.5L183.8,11.5z"/>
    <path d="M182.9,8.9C182.9,8.9,182.9,8.9,182.9,8.9C183.1,8.9,183.2,8.9,182.9,8.9z"/>
    <path d="M183.9,11.7C183.9,11.7,183.9,11.7,183.9,11.7c-0.1,0.1-0.1,0.1-0.2,0.2c0-0.1,0-0.2,0.1-0.3c0,0-0.1-0.1-0.1-0.1 c-0.2,0.4-0.3,0.7-0.4,0.9c0.3-1.4,1-2.8-0.1-2.8c0-0.4-0.1-0.4-0.2-0.5c0-0.1,0-0.1-0.1-0.2c-0.1,0-0.2,0-0.2,0 c-1.9,0.8-5,15.2-9.1,16.9c-0.7,0.3-0.7,0.1-0.7,0.3c0,0,0,0-0.1,0c-0.7,0.7-0.5,0.6-0.5,0.4c0.1-0.1,0.1-0.7,0.2-0.7 c0.3,0.1,0.3,0.1,0.1-0.1c-0.2,0.1-0.2,0.1-0.2,0c0.1,0,0.1,0,0.1,0c-2.4-4.6,1.3-11.3,0.7-11.6c0.1-0.3,1-2.8,0.9-2.9 c-0.4,0.4-0.8,1.5-0.9,1.3c0.1-0.2,0.1-0.2,0.3-0.6v-0.1c0-0.1-0.1,0,0.1-0.3c0,0,0.2-0.2,0.2-0.1c-0.1,0.1-0.1,0.2-0.2,0.4 c0-0.1,0.1-0.2,0.1-0.3c0-0.1,0.1-0.2,0.1-0.3c0,0,0,0.1-0.1,0.1c0.3-0.5,0.4-0.6,0.3-0.6c0-0.1,0.1-0.1,0.1-0.2 c-0.1,0-0.3,0.1-0.5,0.1c-0.1,0.1-0.1,0.2-0.1,0.2c-0.7,1.1-1.3,2.4-1.7,3.6c0,0-0.1,0.2-0.1,0.4c0,0.1-0.1,0.2-0.1,0.3 c0,0,0,0,0,0h0c-0.3,0.8-0.5,1.6-0.7,2c0-0.1,0-0.1,0-0.2c0.2-0.8,0.6-1.5,0.4-1.7c0,0.1,0,0.2,0,0.2c-0.1,0.1-0.5,1.2-0.5,1.4 c-0.1,0.3,0,0.2-0.1,0.2c0.3-1.6,0.9-2.3,0.7-2.6c-0.2,0.3-0.1,0.5-0.2,0.8c-0.5,0.3-2,6.8-1.7,8.8c-0.1,0.1-0.1-0.2-0.2,0 c0,0.1,0.1,1.4,0.4,2c2.8,6.6,9.4,0.3,11.9-6.4c1.6-4.1,0.8-1.8,0.8-1.7c0.8-1.8,1-3.7,1.5-5.7C183.9,11.9,183.9,11.8,183.9,11.7 C183.9,11.7,183.9,11.7,183.9,11.7L183.9,11.7z M173.9,10.6C173.5,11.4,173.6,11.1,173.9,10.6z M170.5,18.1 C170.5,18.1,170.5,18.1,170.5,18.1L170.5,18.1C170.5,18.1,170.5,18.1,170.5,18.1c0,0.1-0.1,0.2-0.1,0.3 C170.4,18.3,170.5,18.2,170.5,18.1z M169.4,23.8v-0.3C169.4,23.6,169.4,23.7,169.4,23.8L169.4,23.8z M169.5,24.4 c-0.1-0.7,0-0.4,0.1,0.3v0C169.5,24.7,169.5,24.5,169.5,24.4z M171.7,28.1L171.7,28.1C171.7,28.1,171.7,28.1,171.7,28.1 c-0.8-0.3-1.8-1.5-2.2-3.2C169.6,25,170.7,27.7,171.7,28.1C171.6,28,171.7,28,171.7,28.1C171.7,28.1,171.7,28.1,171.7,28.1 L171.7,28.1z M170.2,26.1L170.2,26.1c0.3,0.4,1.1,2.4,3.3,1.9C171.7,28.4,170.7,27.3,170.2,26.1z M174.4,27.7 c0.3-0.2,0.8-0.5,1-0.6C175.2,27.4,174.9,27.6,174.4,27.7z"/>
    <path d="M171.3,14.2c0.2-0.8,0.5-0.9,0.3-1.1C171.6,13.2,171.1,14.3,171.3,14.2z"/>
    <path d="M171.3,15C171.3,15,171.3,15,171.3,15L171.3,15C171.4,15,171.4,15,171.3,15C171.4,15,171.4,15,171.3,15L171.3,15z"/>
    <path d="M171.6,14.3c0,0-0.1,0-0.2,0.2c0,0.2-0.1,0.3-0.1,0.4c0-0.1,0.1-0.2,0.1-0.3C171.5,14.6,171.6,14.5,171.6,14.3L171.6,14.3z "/>
    <path d="M172,13.2C172,13.2,172,13.1,172,13.2c-0.2,0.3-0.4,0.7-0.5,1C171.8,13.9,171.8,13.5,172,13.2L172,13.2z"/>
    <path d="M171.9,12.7c0,0.1-0.1,0.2-0.1,0.3C171.9,12.9,172,12.7,171.9,12.7z"/>
    <path d="M171.9,12.6C171.9,12.6,171.9,12.6,171.9,12.6C171.9,12.6,171.9,12.6,171.9,12.6L171.9,12.6z"/>
    <path d="M172.2,12.9L172.2,12.9C172.1,12.9,172.1,12.9,172.2,12.9C172.1,12.9,172.1,12.9,172.2,12.9z"/>
    <path d="M172.1,13.1c0,0,0-0.1,0-0.1C172.1,13,172,13,172.1,13.1z"/>
    <path d="M172.2,12.8c0-0.1,0.1-0.1,0-0.2C172.2,12.6,172.2,12.7,172.2,12.8z"/>
    <path d="M172.3,12.6C172.3,12.6,172.3,12.6,172.3,12.6C172.3,12.6,172.3,12.6,172.3,12.6L172.3,12.6z"/>
    <path d="M172.4,18.1L172.4,18.1c0.1-0.1,0.2-0.4,0.1-0.4C172.4,17.7,172.3,18,172.4,18.1L172.4,18.1z"/>
    <path d="M172.4,12.2C172.4,12.2,172.5,12.2,172.4,12.2C172.5,12.2,172.5,12.2,172.4,12.2L172.4,12.2z"/>
    <path d="M172.4,12.4c0,0,0.1-0.1,0-0.1C172.4,12.3,172.4,12.3,172.4,12.4z"/>
    <path d="M172.7,11.8c0.1,0,0.1-0.2,0.1-0.2h0C172.6,11.6,172.6,11.7,172.7,11.8z"/>
    <path d="M172.8,10.9L172.8,10.9L172.8,10.9C172.6,11,172.7,11,172.8,10.9z"/>
    <path d="M172.9,10.6L172.9,10.6C172.9,10.6,172.9,10.6,172.9,10.6C172.9,10.6,172.9,10.6,172.9,10.6 C172.8,10.6,172.8,10.6,172.9,10.6L172.9,10.6z"/>
    <path d="M173.4,15.5c0-0.1,0.2-0.4,0.1-0.4C173.4,15.2,173.3,15.4,173.4,15.5z"/>
    <path d="M173.5,11.8c0,0,0-0.1,0.1-0.1C173.5,11.7,173.5,11.7,173.5,11.8L173.5,11.8z"/>
    <path d="M198.2,12.4c-0.1-0.8-0.3-1.6-0.8-2.4l-0.3,0c-2.5-3.7-7.2-2.6-8.9-2.4c0,0,1.7-0.5-0.1-0.1c-0.5,0.1-3.2,1.4-3.4,1.5 c0.8-0.3,0.9-0.2,0.4,0c-0.2,0-1,0.5-1.1,0.6c0.6-0.2,0.8-0.5,1.2-0.5c0.3-0.1,0.5-0.1,0.7-0.2c0,0-0.1,0-0.1,0.1 c-0.6,0.3-2.4,1.1-1.8,1.8c0.1-0.1,0.1-0.3,0.2-0.4v0c0,0,0,0,0-0.1h0v0.1c0,0.1-0.1,0.3-0.1,0.5c0,0,0,0,0,0c0,0,0,0,0,0 c-0.1,0.2-0.2,0.4-0.2,0.5c0,0,0,0.1,0,0.1c0,0,0,0,0,0.1c0,0.1,0.1,0.1,0.1,0.1c0.1-0.2,0.2-0.4,0.1,0c0.1,0,0.3-0.1,0.5-0.2 c0.7-0.3,0.5,0,0.9-0.1c0.7-0.3,1.6-0.6,2.5-0.8c-0.8,1.9-2.2,6.2-2.9,8.1c-1.8,4.2-1.5,4-1.3,4.1c-0.7,1.4-0.9,2.5-1,3 c0.2,0.1,0.2-0.2,0.9-1.4v0.1c-0.1,0.2-0.1,0.4-0.2,0.6c-0.1,0.4-0.5,0.8-0.4,0.9c0,0,0.4-0.5-0.1,0.4c0,0.1-0.1,0.1,0,0.2 c0.1-0.2,0.1-0.5,0.4-0.6c-0.3,0.7-0.3,0.7-0.7,1.6c0,0,0,0.1,0,0.1v0.1c-1.1,0.4-0.9,0.1-1,0.4c0.1,0.1,0.3-0.1,0.5-0.2 c0.2,0,0.3-0.1,0.5-0.1c-0.2,0.4-0.4,0.8-0.3,0.9c0.1,0,0.1-0.2,0.1-0.3c0,0,0.1-0.1,0.1-0.1c0.1-0.1,0.1-0.3,0.3-0.5 c0,0,0.1-0.1,0.1-0.1c2.6-0.7,5-2.1,7.2-3.9c0,0,0.1-0.1,0.1-0.1c0,0,0,0,0,0c0,0,0.1-0.1,0.1-0.1c0-0.1,0.1-0.2,0.2-0.2v0 c0,0,0,0,0,0c3.1-2.6,5.5-5.7,6.5-7.8c-1,2.5-2.8,4-2.9,4.6c0.5-0.5,2-2.6,2.4-3.2c0,0.7-2.5,3.6-2.9,4.2c0,0.2-0.7,1.3,0.8-0.8 c0.1-0.1,0,0.1,0.1,0.1c0.6-0.7,1.7-2.1,2.3-3.2c0.2-0.2,0.3-0.5,0.5-0.7c0-0.1,0.1-0.2,0.1-0.2C197.5,14.9,197.9,13.5,198.2,12.4 L198.2,12.4z M197.6,13.7L197.6,13.7c-0.1,0.4-0.2,0.8-0.3,1.1C197.5,14,197.5,14,197.6,13.7L197.6,13.7z M186.1,8.9 C186.7,8.5,186.7,8.7,186.1,8.9z M187.2,18.4c0,0.2-0.1,0.4-0.2,0.5C187.1,18.8,187,18.9,187.2,18.4z M185.8,21.4 c0,0.1,0,0.1,0,0.2C185.8,21.6,185.8,21.5,185.8,21.4z M185,23.1L185,23.1c0.3-0.9,0.3-0.5-0.3,0.7C184.7,23.8,184.8,23.7,185,23.1 z M183.3,25.8c0.2-0.3,0.3-0.8,0.5-0.8c-0.1-0.1,0-0.2,0.1-0.2l0,0c0,0.1,0,0.1,0,0.2c0,0,0,0,0,0c-0.1,0.2-0.2,0.4-0.2,0.6 C183.5,25.6,183.3,25.9,183.3,25.8z M187.1,25.5c-0.1-0.1-0.7,0.2-0.5,0c0.7-0.2,1.2-1,1.4-0.8C187.7,25,187.4,25.2,187.1,25.5 L187.1,25.5L187.1,25.5z M188.1,24.7L188.1,24.7c0-0.1,0.2-0.3,0.3-0.2C188.3,24.5,188.2,24.6,188.1,24.7z M195.8,12.5 C196.1,12.4,195.8,12.5,195.8,12.5c0,0,0.1,0.6,0,0.9c-0.9,3.8-5.7,7.7-5.4,8.3c-0.5,0.4-0.7,0.8-1,1.1c-1.3,1.2-6.8,5-0.7,1.2 c-0.9,0.9-2.4,1.6-2.5,1.7c0.1,0,0.2-0.2,0.3-0.1c-3.4,1.8,1.7-0.8-0.7,0.6c-1.3,0.7-2.3,1.1-2.9,1.3c0.1-0.2,0.3-0.5,0.5-0.8l0,0 h0c-0.1,0,0.1-0.1,0.1-0.2c0,0,0,0,0,0c0.2-0.4,0.4-0.8,0.6-1.2c0,0,0,0,0,0l0,0c-0.1,0,0-0.2,0.1-0.2c0,0,0,0.1,0,0.1 c0.1-0.2,0.2-0.4,0.3-0.5c0,0,0,0,0,0l0,0c0,0,0-0.1,0-0.1c0,0,0,0.1,0,0.1c0-0.1,0.1-0.2,0.1-0.3c0,0,0,0,0,0c0,0,0,0,0,0h0 c0,0,0,0,0,0c0-0.1,0-0.1,0-0.2c0,0,0,0.1,0,0.1c0-0.1,0.1-0.1,0.1-0.2c0,0,0-0.1,0.1-0.1c0.2-0.5,0.5-1,0.7-1.5 c-0.2,0.2,0.2-0.5,0.3-0.7c0,0,0,0,0,0.1c0.5-1.1,0.9-2,1-2.3c0.4-0.9-0.5,1.2-0.7,2c0.2-0.2,0.7-1.6,0.7-1.6 c0.3,0.4-1,2.3-0.8,2.7c0.2-0.3,0.1-0.5,0.2-0.8c0.5-0.3,3.6-8.9,3.7-9.1c0,0.1-0.1,0.3,0,0.4c0.2-0.6,0.6-2.7,0.4-2 c0,0.1-0.3,0.2,0-0.2c0.1-0.1,0.1-0.1,0.1-0.2c0.2-0.5-0.3,0.4-0.4,0.5c0,0.2-0.1,0.4-0.2,0.6c0-0.7,0.4-1,0.3-1.5 c2.5-0.4,4.8-0.1,5.7,1.9c0-0.1,0.1-0.1,0.2-0.1c0.1-0.1,0.3-0.2,0.3-0.2v0h0c-0.1,0.1-0.2,0.1-0.3,0.2c-0.1,0-0.1,0.1-0.2,0.1 C195.7,12.2,195.8,12.3,195.8,12.5L195.8,12.5z"/>
    <path d="M183.7,11.4C183.7,11.3,183.7,11.3,183.7,11.4C183.7,11.4,183.7,11.4,183.7,11.4C183.7,11.4,183.7,11.4,183.7,11.4 L183.7,11.4z"/>
    <path d="M184.7,9C184.7,9,184.7,9,184.7,9C184.7,9,184.7,9,184.7,9z"/>
    <path d="M183.5,26.5c0,0.1-0.1,0.1-0.1,0.2C183.5,26.6,183.6,26.5,183.5,26.5z"/>
    <polygon points="183.8,25 183.8,25 183.8,25 &#9;"/>
    <path d="M183.9,26.4L183.9,26.4c-0.1,0.1,0,0.1,0,0.2C183.9,26.5,184,26.4,183.9,26.4z"/>
    <path d="M184.2,25.2c0,0,0,0.1,0,0.1C184.1,25.3,184.2,25.2,184.2,25.2z"/>
    <path d="M184.1,26L184.1,26C184.3,25.9,184.2,25.9,184.1,26z"/>
    <path d="M184.4,24.6C184.4,24.6,184.4,24.6,184.4,24.6C184.4,24.6,184.4,24.6,184.4,24.6z"/>
    <path d="M184.6,24.3C184.6,24.3,184.6,24.3,184.6,24.3C184.6,24.3,184.6,24.3,184.6,24.3z"/>
    <path d="M184.8,23.9C184.8,23.9,184.8,23.9,184.8,23.9c0,0.1-0.1,0.1-0.1,0.2c0,0,0,0,0,0C184.8,24,184.9,24,184.8,23.9z"/>
    <path d="M184.9,24.4C184.9,24.4,184.9,24.4,184.9,24.4C184.9,24.4,184.9,24.4,184.9,24.4L184.9,24.4z"/>
    <path d="M184.9,24.4c0-0.1,0.1-0.3,0.1-0.4C184.9,24.1,184.8,24.3,184.9,24.4z"/>
    <path d="M185.5,23c0.1,0.1-0.1,0.3-0.1,0.2c0,0.1-0.1,0.2-0.1,0.4c-0.1,0.2,0,0.5,0.1,0.3c0.2-0.4,0.3-0.7,0.4-1 C185.5,22.6,185.7,22.8,185.5,23L185.5,23z"/>
    <path d="M185.4,22.9L185.4,22.9C185.4,23,185.4,23,185.4,22.9C185.5,23,185.4,22.9,185.4,22.9L185.4,22.9z"/>
    <path d="M185.3,27L185.3,27c0.2-0.1,0.3-0.1,0.4-0.2C185.6,26.8,185.3,26.9,185.3,27z"/>
    <path d="M185.6,22.2c0-0.2,0.1-0.3,0.1-0.4c-0.1,0.2-0.2,0.4-0.3,0.6C185.5,22.4,185.5,22.3,185.6,22.2L185.6,22.2z"/>
    <path d="M186.1,27c0.1-0.1,0.3-0.1,0.3-0.2C186.2,26.9,186.1,27,186.1,27z"/>
    <path d="M186.8,26.5L186.8,26.5L186.8,26.5C187.2,26.4,187.1,26.3,186.8,26.5z"/>
    <path d="M187.8,25.6L187.8,25.6c0.1,0,0.3-0.2,0.3-0.3C188.1,25.3,187.8,25.5,187.8,25.6z"/>
    <path d="M189,24.7c0.1,0,0.2-0.1,0.3-0.2C189.2,24.5,189,24.6,189,24.7z"/>
    <path d="M189,24.7C189,24.7,189,24.7,189,24.7C189,24.7,189,24.7,189,24.7L189,24.7z"/>
    <path d="M189.7,24.2c0.1,0,0.3-0.2,0.3-0.3c0,0-0.1,0-0.1,0.1C189.8,24,189.7,24.1,189.7,24.2L189.7,24.2z"/>
    <path d="M189.7,24.2C189.7,24.2,189.7,24.2,189.7,24.2C189.7,24.2,189.7,24.2,189.7,24.2L189.7,24.2z"/>
    <path d="M190.1,24.4c0.2-0.2,0.4-0.4,0.5-0.6C190.3,24,190,24.2,190.1,24.4z"/>
    <path d="M190.1,23.8c0.1-0.1,0.2-0.1,0.2-0.2C190.2,23.7,190.1,23.7,190.1,23.8C190.1,23.8,190.1,23.8,190.1,23.8z"/>
    <path d="M191.6,22.7L191.6,22.7c-0.7,0.7-0.9,0.8-0.9,0.8C192.9,21.6,192.8,21.5,191.6,22.7z"/>
    <path d="M192.4,22.4L192.4,22.4c0.1,0.1-0.4,0.5-0.3,0.3c-0.1,0.2-0.4,0.4-0.6,0.5c-0.2,0.2-1,1.2,1.4-1.2 C192.8,21.7,192.8,22.1,192.4,22.4L192.4,22.4z"/>
    <path d="M193.2,21.3c0.1-0.3,0.6-0.6,0.5-0.8v0C193.4,20.9,191.9,22.3,193.2,21.3z"/>
    <path d="M195.4,12.1L195.4,12.1C195.3,12.2,195.3,12.2,195.4,12.1z"/>
    <path d="M201.6,12c0,0.2-0.1,0.3,0,0.5c0.5-1.3-0.1-0.8,0.2-2.1c0-0.1,0.1-0.2,0.1-0.2c0,0.1-0.1,0.2-0.2,0.2 c-0.1-0.2,0.4-0.6,0.2-0.8l-0.1-0.1c-0.1,0.2-0.3,0.6-0.5,0.7c0,0.2,0,0.4-0.1,0.6c0-0.2,0.1-0.3,0-0.5c0-0.6,0.5-1.1-0.4-1.5 c-0.2,0-0.1,0-0.2-0.1c-0.1-0.1-0.6-0.2-0.6-0.2c-0.7,0-1.2,1.5-1.8,3.8c0.1,1.4-0.4,2.9-1.2,4.2c-0.3,1.2-1.6,6.3-1.4,6.8 c0.1-0.1,0.1,0,0.2,0.1c-0.1,0.3,0,0.6-0.1,0.8c-0.1,0.7-0.2,1.2-0.3,1.4c0,0.2,0,0.4,0,0.6c0,0.5-0.1,0.6,0,0.6 c0.5-0.6,0.7-2.7,0.6-1c0,0.4-0.3,0.9-0.2,1c0.1,0,0-0.2,0.1-0.2c-0.2,0.5-0.3,0.8-0.1,0.8c0-0.2,0-0.5,0.2-0.7 c-0.1,0.6-0.3,1.1-0.4,1.7c0,0,0.1,0,0.1,0.1c-0.1,0.4-0.1,0.7-0.1,0.9c0,0.1-0.2,0.1,0.1,0.2c0.1-0.1,0-0.2,0-0.3 c0,0,1.3-3.4,1.3-3.8c0.1-0.9,2.3-8.7,1.4-5.5c-0.4,1.4-0.5,1.6-0.3,1.8c0-0.1,0-0.2,0-0.2c0.2-0.1,0.1-0.5,0.3-0.6 c0-0.4,0.2-0.7,0.3-1.1c0.4,0.3-0.7,2.4-0.3,2.7c0.2-0.4,0-0.6,0-0.9C198.9,21.5,201,13.1,201.6,12L201.6,12z M196.6,25.4 c0,0.1,0,0.1,0,0.2v0C196.4,25.5,196.5,25.4,196.6,25.4z M196.5,26.2L196.5,26.2c-0.2,0-0.2,0.1-0.3,0.2c0.2-0.3,0.1-0.9,0.4-0.9 C196.5,25.8,196.5,26,196.5,26.2z M199.1,18.1c0,0.2-0.1,0.4-0.2,0.5h0C198.9,18.5,199,18.3,199.1,18.1z"/>
    <path d="M201.7,10.1L201.7,10.1C201.8,10.1,201.8,10.1,201.7,10.1z"/>
    <path d="M213.9,10.1c0,0,0-0.1,0-0.2c-0.1-0.3-0.3-0.6-0.4-0.8c0,0,0,0,0,0c0,0-0.1-0.1-0.1-0.1c0.3,0.5,0.5,1.1,0.6,1.6 C214,10.6,214,10.2,213.9,10.1L213.9,10.1z"/>
    <path d="M213.9,10.7L213.9,10.7C214,10.7,214,10.7,213.9,10.7C213.9,10.7,213.9,10.7,213.9,10.7L213.9,10.7z"/>
    <path d="M214.2,10.4L214.2,10.4C214.2,10.4,214.2,10.4,214.2,10.4C214.2,10.4,214.2,10.4,214.2,10.4L214.2,10.4z"/>
    <path d="M214.2,10.5c0,0,0-0.1,0-0.1L214.2,10.5c0-0.1,0-0.2,0-0.2c-0.1-0.4-0.3-1.1-0.9-1.6c-0.6-0.5-1.4-1.1-2.1-1 c0,0-2.5,0.1-3.7,1.2c-3.2,3.2-0.7,0.7,0-0.1c-0.2,0-0.3,0.4-0.5,0.4c-0.1,0.3-0.5,0.4-0.7,0.7c0,0,0-0.1-0.1-0.1 c0.7-0.8,1.3-1.2,1.7-1.5c-0.1,0-0.2,0.1-0.2,0.1c0-0.2,0.3-0.2,0.4-0.4c0,0,0.1,0,0.1,0c0,0,0-0.1,0-0.1c-0.4,0.2-0.5,0.4-0.7,0.6 c-0.1,0,0-0.1-0.1-0.1c0,0-0.1,0.1-0.1,0.1l0,0c-0.3,0.3-0.9,0.8-1.2,1.2c-0.1,0.1,0.1-0.3-0.7,0.7c-3,3.7-2.7,4.4-3.3,5.5 c0-0.1,0.2-0.3,0.1-0.4c-0.5,0.9-0.2,0.9-0.5,1.9c0,0,0,0,0,0c-0.8,2-0.8,3.1-0.2,0.7c0-0.1,0.2-0.8,0.4-0.8c0,0.2-0.3,0.5-0.2,0.6 c0.1-0.1,0.2-0.3,0.3-0.5c-1.5,4-2,9.5,2.2,10.3c-3.7-0.6-3.2-5.1-3.5-5.6c-0.1,2,0.7,4,1.4,4.6c1,1-2.2-0.6-1.5-6 c-0.1-0.1-0.1-1.3-0.2,0c-0.1,0.5,0,0.9,0.1,1.4c-0.1,0.1-0.2-0.4-0.2,0.4c0.1,1.4,0.3,2.9,1.2,4.1c0.8,0.9,0.4,0.6,0.6,0.7 c2.5,2.3,6.4,0.3,8.7-3.4c2.5-4,3.1-6.5,3.9-9.1c0,0.2,0,0.5-0.1,0.6c0-0.1,0-0.2,0.1-0.4C215.1,13.2,214.4,11.1,214.2,10.5 L214.2,10.5z M211.4,8L211.4,8c0,0.1-0.1,0.1-0.2,0H211.4z M205.8,10.6C205.8,10.6,205.8,10.6,205.8,10.6L205.8,10.6 C205.8,10.6,205.8,10.6,205.8,10.6c0,0.1,0,0-0.3,0.3C205.6,10.8,205.7,10.7,205.8,10.6z M205.6,27.4L205.6,27.4 c0.1,0,0.1,0,0.2-0.1c0.4-0.1,0.8-0.3,1.2-0.5c-0.3,0.2-0.8,0.4-1.2,0.5C205.7,27.4,205.6,27.4,205.6,27.4z M214.2,12.4 c-0.4-1.4-0.6-2.8-1.8-3.5c-0.6,0-0.5,0.2-0.6,0.3c-0.4-0.3-0.4-0.1-0.6-0.2c-0.3-0.1-0.6-0.6-0.1,0.7c0.3,0.7-0.1,0.1,0.2,1.3 c0,0,0.2,0,0.8-0.2c-0.9,0.3-0.8,0.2-0.8,0.4c0,0.1,0,0.2,0.1,0.3c0-0.3,0-0.1,1-0.3c0.1,0,0.2,0-0.4,0.1c-0.5,0.2-0.6,0.2-0.6,0.1 c0.5,4.2-3.7,13.5-6.9,13.7c0.1,0,0,0.1-0.1,0.6c0.1-0.5,0-0.5,0.1-0.6c-0.1,0-0.2,0-0.4-0.1c0,0,0,0.1-0.1,0.2c-0.1,0,0,0,0.1-0.2 c0,0-0.1-0.1-0.3-0.2c0,0.1-1.2,0.8-0.5,0.4c0.1-0.1,0.3-0.2,0.5-0.4c0.1,0.1-0.2-0.3-0.2-0.3c-0.8,0.4,0,0,0,0 c-1.5-3.4,0.4-6-0.2-6.5c0.8-1.1,1.4-4.4,3.8-7c2.2-2.5,2.7-1.7,2.5-2.3c0.4-0.1,0.4-0.3,1.6-0.3c0.4,0,0.2-0.2,0.8,0.1 c0,0,0.1,0,0-0.1c-0.5-0.6-1.4-0.4-1.2-0.5c0.2,0.1,0.4,0,0.6,0c0,0,0,0,0-0.1c0.2,0,0.4,0,0.6,0l0,0c0,0.1,0.1,0.1,0.2,0.2 c-0.1-0.1-0.2-0.1-0.4-0.2c0.2,0.1,0.3,0.2,0.4,0.2c0,0-0.3-0.3,0.1,0c0.2,0.1,0.3,0.3,0.4,0.2c-0.2-0.2-0.4-0.2-0.5-0.4 c0.8,0.5,0.7,0.6,1.1,0.9c0,0,0,0,0,0c0,0,0.1,0.1,0.1,0.1c0,0,0,0,0,0c0.3,0.3,0.4,0.6,0.4,0.8c0.2,0.4,0.3,0.9,0.3,0.9l-0.2-0.1 C214.2,11.5,214.3,12.1,214.2,12.4L214.2,12.4z"/>
    <path d="M214.6,15.5C214.5,15.7,214.5,15.7,214.6,15.5z"/>
    <path d="M201.4,17.1c-0.4,0.7-1,3.2-0.7,2.8v0C201.1,18,201.6,17.3,201.4,17.1z"/>
    <path d="M200.8,20.8c0.1,0.4-0.1,0.9,0,1.1C200.9,20.9,201.4,18.9,200.8,20.8z"/>
    <path d="M200.8,21.9C200.8,21.9,200.8,21.8,200.8,21.9C200.8,21.9,200.8,21.9,200.8,21.9L200.8,21.9z"/>
    <path d="M201.9,16c-0.1,0.2-0.2,0.7-0.2,0.9C201.8,16.6,202.1,16.1,201.9,16z"/>
    <path d="M207.4,8.4C207.4,8.5,207.4,8.5,207.4,8.4L207.4,8.4L207.4,8.4C207.4,8.5,207.4,8.5,207.4,8.4L207.4,8.4z"/>
    <path d="M207.5,8.3c-0.1,0-0.1,0.1-0.1,0.1C207.5,8.4,207.5,8.3,207.5,8.3z"/>
    <path d="M207.9,8.3c0.3-0.2,0.8-0.4,0.3-0.3C208.1,8.1,208.1,8.2,207.9,8.3z"/>
    <path d="M208.6,7.6L208.6,7.6c0-0.1,0.3-0.2,0.2-0.1c0.1-0.1,0.2-0.1,0.4-0.2c0.2-0.1,0.9-0.5-0.9,0.3 C208.3,7.9,208.3,7.6,208.6,7.6z"/>
    <path d="M209.1,7.7L209.1,7.7c0.5-0.2,0.7-0.1,0.6-0.2C208.8,7.6,207.9,8.1,209.1,7.7z"/>
    <path d="M210.1,7L210.1,7c-0.2,0.1-0.3,0.2-0.4,0.2C209.8,7.2,210.1,7.2,210.1,7z"/>
    <path d="M209.9,7.4C209.9,7.4,209.8,7.4,209.9,7.4C209.9,7.5,210.1,7.4,209.9,7.4z"/>
    <path d="M210.3,7.3c-0.1-0.1-0.2,0-0.2,0.1C210.2,7.4,210.3,7.4,210.3,7.3z"/>
    <path d="M210.8,7.3L210.8,7.3c-0.1-0.1-0.2,0-0.2,0C210.6,7.4,210.7,7.4,210.8,7.3z"/>
    <path d="M211.2,11.1L211.2,11.1C211.2,11.2,211.2,11.2,211.2,11.1z"/>
    <path d="M211.5,7.4c0-0.1-0.2-0.1-0.2,0C211.3,7.4,211.5,7.5,211.5,7.4z"/>
    <path d="M211.9,8.2c0,0-0.1,0-0.1,0c-0.1,0-0.1,0-0.2,0C211.6,8.2,211.7,8.2,211.9,8.2L211.9,8.2z"/>
    <path d="M212.5,7.4L212.5,7.4L212.5,7.4C212.3,7.2,212.2,7.3,212.5,7.4L212.5,7.4z"/>
    <path d="M212.9,7.6L212.9,7.6c-0.1,0-0.1-0.1-0.1,0C212.8,7.6,212.8,7.6,212.9,7.6z"/>
    <path d="M212.8,8c0.1,0,0.2,0.2,0.2,0.1C213,8.1,212.9,8,212.8,8z"/>
    <path d="M22.2,9.2"/>
    <path d="M22.2,9.2"/>
  </g>
</svg>